  0
SECTION
  2
HEADER
  9
$ACADVER
  1
AC1021
  9
$ACADMAINTVER
 70
    25
  9
$DWGCODEPAGE
  3
ANSI_1250
  9
$LASTSAVEDBY
  1
vdamir
  9
$INSBASE
 10
0.0
 20
0.0
 30
0.0
  9
$EXTMIN
 10
119.0125490197376
 20
206.9183426687414
 30
0.0
  9
$EXTMAX
 10
872.0708034972721
 20
353.0213971027013
 30
0.0
  9
$LIMMIN
 10
0.0
 20
0.0
  9
$LIMMAX
 10
12.0
 20
9.0
  9
$ORTHOMODE
 70
     0
  9
$REGENMODE
 70
     1
  9
$FILLMODE
 70
     1
  9
$QTEXTMODE
 70
     0
  9
$MIRRTEXT
 70
     1
  9
$LTSCALE
 40
1.0
  9
$ATTMODE
 70
     1
  9
$TEXTSIZE
 40
0.2
  9
$TRACEWID
 40
0.05
  9
$TEXTSTYLE
  7
Standard
  9
$CLAYER
  8
0
  9
$CELTYPE
  6
ByLayer
  9
$CECOLOR
 62
   256
  9
$CELTSCALE
 40
1.0
  9
$DISPSILH
 70
     0
  9
$DIMSCALE
 40
1.0
  9
$DIMASZ
 40
0.18
  9
$DIMEXO
 40
0.0625
  9
$DIMDLI
 40
0.38
  9
$DIMRND
 40
0.0
  9
$DIMDLE
 40
0.0
  9
$DIMEXE
 40
0.18
  9
$DIMTP
 40
0.0
  9
$DIMTM
 40
0.0
  9
$DIMTXT
 40
0.18
  9
$DIMCEN
 40
0.09
  9
$DIMTSZ
 40
0.0
  9
$DIMTOL
 70
     0
  9
$DIMLIM
 70
     0
  9
$DIMTIH
 70
     1
  9
$DIMTOH
 70
     1
  9
$DIMSE1
 70
     0
  9
$DIMSE2
 70
     0
  9
$DIMTAD
 70
     0
  9
$DIMZIN
 70
     0
  9
$DIMBLK
  1

  9
$DIMASO
 70
     1
  9
$DIMSHO
 70
     1
  9
$DIMPOST
  1

  9
$DIMAPOST
  1

  9
$DIMALT
 70
     0
  9
$DIMALTD
 70
     2
  9
$DIMALTF
 40
25.4
  9
$DIMLFAC
 40
1.0
  9
$DIMTOFL
 70
     0
  9
$DIMTVP
 40
0.0
  9
$DIMTIX
 70
     0
  9
$DIMSOXD
 70
     0
  9
$DIMSAH
 70
     0
  9
$DIMBLK1
  1

  9
$DIMBLK2
  1

  9
$DIMSTYLE
  2
Standard
  9
$DIMCLRD
 70
     0
  9
$DIMCLRE
 70
     0
  9
$DIMCLRT
 70
     0
  9
$DIMTFAC
 40
1.0
  9
$DIMGAP
 40
0.09
  9
$DIMJUST
 70
     0
  9
$DIMSD1
 70
     0
  9
$DIMSD2
 70
     0
  9
$DIMTOLJ
 70
     1
  9
$DIMTZIN
 70
     0
  9
$DIMALTZ
 70
     0
  9
$DIMALTTZ
 70
     0
  9
$DIMUPT
 70
     0
  9
$DIMDEC
 70
     4
  9
$DIMTDEC
 70
     4
  9
$DIMALTU
 70
     2
  9
$DIMALTTD
 70
     2
  9
$DIMTXSTY
  7
Standard
  9
$DIMAUNIT
 70
     0
  9
$DIMADEC
 70
     0
  9
$DIMALTRND
 40
0.0
  9
$DIMAZIN
 70
     0
  9
$DIMDSEP
 70
    46
  9
$DIMATFIT
 70
     3
  9
$DIMFRAC
 70
     0
  9
$DIMLDRBLK
  1

  9
$DIMLUNIT
 70
     2
  9
$DIMLWD
 70
    -2
  9
$DIMLWE
 70
    -2
  9
$DIMTMOVE
 70
     0
  9
$DIMFXL
 40
1.0
  9
$DIMFXLON
 70
     0
  9
$DIMJOGANG
 40
0.7853981633974483
  9
$DIMTFILL
 70
     0
  9
$DIMTFILLCLR
 70
     0
  9
$DIMARCSYM
 70
     0
  9
$DIMLTYPE
  6

  9
$DIMLTEX1
  6

  9
$DIMLTEX2
  6

  9
$LUNITS
 70
     2
  9
$LUPREC
 70
     4
  9
$SKETCHINC
 40
0.1
  9
$FILLETRAD
 40
0.5
  9
$AUNITS
 70
     0
  9
$AUPREC
 70
     0
  9
$MENU
  1
.
  9
$ELEVATION
 40
0.0
  9
$PELEVATION
 40
0.0
  9
$THICKNESS
 40
0.0
  9
$LIMCHECK
 70
     0
  9
$CHAMFERA
 40
0.5
  9
$CHAMFERB
 40
0.5
  9
$CHAMFERC
 40
1.0
  9
$CHAMFERD
 40
0.0
  9
$SKPOLY
 70
     0
  9
$TDCREATE
 40
2457785.614225046
  9
$TDUCREATE
 40
2457785.57255838
  9
$TDUPDATE
 40
2457791.587132616
  9
$TDUUPDATE
 40
2457791.545465949
  9
$TDINDWG
 40
0.0069563889
  9
$TDUSRTIMER
 40
2457791.545443009
  9
$USRTIMER
 70
     1
  9
$ANGBASE
 50
0.0
  9
$ANGDIR
 70
     0
  9
$PDMODE
 70
     0
  9
$PDSIZE
 40
0.0
  9
$PLINEWID
 40
0.0
  9
$SPLFRAME
 70
     0
  9
$SPLINETYPE
 70
     6
  9
$SPLINESEGS
 70
     8
  9
$HANDSEED
  5
2D1
  9
$SURFTAB1
 70
     6
  9
$SURFTAB2
 70
     6
  9
$SURFTYPE
 70
     6
  9
$SURFU
 70
     6
  9
$SURFV
 70
     6
  9
$UCSBASE
  2

  9
$UCSNAME
  2

  9
$UCSORG
 10
0.0
 20
0.0
 30
0.0
  9
$UCSXDIR
 10
1.0
 20
0.0
 30
0.0
  9
$UCSYDIR
 10
0.0
 20
1.0
 30
0.0
  9
$UCSORTHOREF
  2

  9
$UCSORTHOVIEW
 70
     0
  9
$UCSORGTOP
 10
0.0
 20
0.0
 30
0.0
  9
$UCSORGBOTTOM
 10
0.0
 20
0.0
 30
0.0
  9
$UCSORGLEFT
 10
0.0
 20
0.0
 30
0.0
  9
$UCSORGRIGHT
 10
0.0
 20
0.0
 30
0.0
  9
$UCSORGFRONT
 10
0.0
 20
0.0
 30
0.0
  9
$UCSORGBACK
 10
0.0
 20
0.0
 30
0.0
  9
$PUCSBASE
  2

  9
$PUCSNAME
  2

  9
$PUCSORG
 10
0.0
 20
0.0
 30
0.0
  9
$PUCSXDIR
 10
1.0
 20
0.0
 30
0.0
  9
$PUCSYDIR
 10
0.0
 20
1.0
 30
0.0
  9
$PUCSORTHOREF
  2

  9
$PUCSORTHOVIEW
 70
     0
  9
$PUCSORGTOP
 10
0.0
 20
0.0
 30
0.0
  9
$PUCSORGBOTTOM
 10
0.0
 20
0.0
 30
0.0
  9
$PUCSORGLEFT
 10
0.0
 20
0.0
 30
0.0
  9
$PUCSORGRIGHT
 10
0.0
 20
0.0
 30
0.0
  9
$PUCSORGFRONT
 10
0.0
 20
0.0
 30
0.0
  9
$PUCSORGBACK
 10
0.0
 20
0.0
 30
0.0
  9
$USERI1
 70
     0
  9
$USERI2
 70
     0
  9
$USERI3
 70
     0
  9
$USERI4
 70
     0
  9
$USERI5
 70
     0
  9
$USERR1
 40
0.0
  9
$USERR2
 40
0.0
  9
$USERR3
 40
0.0
  9
$USERR4
 40
0.0
  9
$USERR5
 40
0.0
  9
$WORLDVIEW
 70
     1
  9
$SHADEDGE
 70
     3
  9
$SHADEDIF
 70
    70
  9
$TILEMODE
 70
     1
  9
$MAXACTVP
 70
    64
  9
$PINSBASE
 10
0.0
 20
0.0
 30
0.0
  9
$PLIMCHECK
 70
     0
  9
$PEXTMIN
 10
1.000000000000000E+20
 20
1.000000000000000E+20
 30
1.000000000000000E+20
  9
$PEXTMAX
 10
-1.000000000000000E+20
 20
-1.000000000000000E+20
 30
-1.000000000000000E+20
  9
$PLIMMIN
 10
0.0
 20
0.0
  9
$PLIMMAX
 10
0.0
 20
0.0
  9
$UNITMODE
 70
     0
  9
$VISRETAIN
 70
     1
  9
$PLINEGEN
 70
     0
  9
$PSLTSCALE
 70
     1
  9
$TREEDEPTH
 70
  3020
  9
$CMLSTYLE
  2
Standard
  9
$CMLJUST
 70
     0
  9
$CMLSCALE
 40
1.0
  9
$PROXYGRAPHICS
 70
     1
  9
$MEASUREMENT
 70
     0
  9
$CELWEIGHT
370
    -1
  9
$ENDCAPS
280
     0
  9
$JOINSTYLE
280
     0
  9
$LWDISPLAY
290
     1
  9
$INSUNITS
 70
     1
  9
$HYPERLINKBASE
  1

  9
$STYLESHEET
  1

  9
$XEDIT
290
     1
  9
$CEPSNTYPE
380
     0
  9
$PSTYLEMODE
290
     1
  9
$FINGERPRINTGUID
  2
{1CA9FD1D-463E-4038-A409-E6CBAA7FCE07}
  9
$VERSIONGUID
  2
{FAEB1C32-E019-11D5-929B-00C0DF256EC4}
  9
$EXTNAMES
290
     1
  9
$PSVPSCALE
 40
0.0
  9
$OLESTARTUP
290
     0
  9
$SORTENTS
280
   127
  9
$INDEXCTL
280
     0
  9
$HIDETEXT
280
     1
  9
$XCLIPFRAME
290
     0
  9
$HALOGAP
280
     0
  9
$OBSCOLOR
 70
   257
  9
$OBSLTYPE
280
     0
  9
$INTERSECTIONDISPLAY
280
     0
  9
$INTERSECTIONCOLOR
 70
   257
  9
$DIMASSOC
280
     2
  9
$PROJECTNAME
  1

  9
$CAMERADISPLAY
290
     0
  9
$LENSLENGTH
 40
50.0
  9
$CAMERAHEIGHT
 40
0.0
  9
$STEPSPERSEC
 40
2.0
  9
$STEPSIZE
 40
6.0
  9
$3DDWFPREC
 40
2.0
  9
$PSOLWIDTH
 40
0.25
  9
$PSOLHEIGHT
 40
4.0
  9
$LOFTANG1
 40
1.570796326794897
  9
$LOFTANG2
 40
1.570796326794897
  9
$LOFTMAG1
 40
0.0
  9
$LOFTMAG2
 40
0.0
  9
$LOFTPARAM
 70
     7
  9
$LOFTNORMALS
280
     1
  9
$LATITUDE
 40
37.795
  9
$LONGITUDE
 40
-122.394
  9
$NORTHDIRECTION
 40
0.0
  9
$TIMEZONE
 70
 -8000
  9
$LIGHTGLYPHDISPLAY
280
     1
  9
$TILEMODELIGHTSYNCH
280
     1
  9
$SOLIDHIST
280
     0
  9
$SHOWHIST
280
     1
  9
$DWFFRAME
280
     2
  9
$DGNFRAME
280
     2
  9
$REALWORLDSCALE
290
     1
  9
$INTERFERECOLOR
 62
   256
  9
$CSHADOW
280
     0
  9
$SHADOWPLANELOCATION
 40
0.0
  0
ENDSEC
  0
SECTION
  2
CLASSES
  0
CLASS
  1
ACDBDICTIONARYWDFLT
  2
AcDbDictionaryWithDefault
  3
ObjectDBX Classes
 90
        0
 91
        5
280
     0
281
     0
  0
CLASS
  1
VISUALSTYLE
  2
AcDbVisualStyle
  3
ObjectDBX Classes
 90
     4095
 91
        5
280
     0
281
     0
  0
CLASS
  1
SCALE
  2
AcDbScale
  3
ObjectDBX Classes
 90
     1153
 91
        5
280
     0
281
     0
  0
CLASS
  1
MATERIAL
  2
AcDbMaterial
  3
ObjectDBX Classes
 90
     1153
 91
        5
280
     0
281
     0
  0
CLASS
  1
TABLESTYLE
  2
AcDbTableStyle
  3
ObjectDBX Classes
 90
     4095
 91
        5
280
     0
281
     0
  0
CLASS
  1
MLEADERSTYLE
  2
AcDbMLeaderStyle
  3
ACDB_MLEADERSTYLE_CLASS
 90
     4095
 91
        5
280
     0
281
     0
  0
CLASS
  1
SUN
  2
AcDbSun
  3
SCENEOE
 90
     1153
 91
        5
280
     0
281
     0
  0
CLASS
  1
RASTERVARIABLES
  2
AcDbRasterVariables
  3
ISM
 90
        0
 91
        5
280
     0
281
     0
  0
CLASS
  1
DICTIONARYVAR
  2
AcDbDictionaryVar
  3
ObjectDBX Classes
 90
        0
 91
        5
280
     0
281
     0
  0
CLASS
  1
CELLSTYLEMAP
  2
AcDbCellStyleMap
  3
ObjectDBX Classes
 90
     1152
 91
        5
280
     0
281
     0
  0
ENDSEC
  0
SECTION
  2
TABLES
  0
TABLE
  2
VPORT
  5
8
330
0
100
AcDbSymbolTable
 70
     1
  0
VPORT
  5
29
330
8
100
AcDbSymbolTableRecord
100
AcDbViewportTableRecord
  2
*Active
 70
     0
 10
0.0
 20
0.0
 11
1.0
 21
1.0
 12
628.704246586673
 22
317.9195420253924
 13
0.0
 23
0.0
 14
0.5
 24
0.5
 15
0.5
 25
0.5
 16
0.0
 26
0.0
 36
1.0
 17
105.0008259828642
 27
-148.4999796178231
 37
0.0
 40
732.2161698662352
 41
1.99302649930265
 42
50.0
 43
0.0
 44
0.0
 50
0.0
 51
0.0
 71
    16
 72
   100
 73
     1
 74
     3
 75
     0
 76
     0
 77
     0
 78
     0
281
     0
 65
     1
110
0.0
120
0.0
130
0.0
111
1.0
121
0.0
131
0.0
112
0.0
122
1.0
132
0.0
 79
     0
146
0.0
348
1F3
 60
     3
 61
     5
292
     1
282
     1
141
0.0
142
0.0
 63
   250
361
207
  0
ENDTAB
  0
TABLE
  2
LTYPE
  5
5
330
0
100
AcDbSymbolTable
 70
     1
  0
LTYPE
  5
14
330
5
100
AcDbSymbolTableRecord
100
AcDbLinetypeTableRecord
  2
ByBlock
 70
     0
  3

 72
    65
 73
     0
 40
0.0
  0
LTYPE
  5
15
330
5
100
AcDbSymbolTableRecord
100
AcDbLinetypeTableRecord
  2
ByLayer
 70
     0
  3

 72
    65
 73
     0
 40
0.0
  0
LTYPE
  5
16
330
5
100
AcDbSymbolTableRecord
100
AcDbLinetypeTableRecord
  2
Continuous
 70
     0
  3
Solid line
 72
    65
 73
     0
 40
0.0
  0
ENDTAB
  0
TABLE
  2
LAYER
  5
2
330
0
100
AcDbSymbolTable
 70
     2
  0
LAYER
  5
10
330
2
100
AcDbSymbolTableRecord
100
AcDbLayerTableRecord
  2
0
 70
     0
 62
     7
  6
Continuous
370
    -3
390
F
347
E8
  0
LAYER
  5
3B
330
2
100
AcDbSymbolTableRecord
100
AcDbLayerTableRecord
  2
Layer 1
 70
     0
 62
     7
  6
Continuous
370
    -3
390
F
347
E8
  0
ENDTAB
  0
TABLE
  2
STYLE
  5
3
330
0
100
AcDbSymbolTable
 70
     1
  0
STYLE
  5
11
330
3
100
AcDbSymbolTableRecord
100
AcDbTextStyleTableRecord
  2
Standard
 70
     0
 40
0.0
 41
1.0
 50
0.0
 71
     0
 42
0.2
  3
txt
  4

  0
ENDTAB
  0
TABLE
  2
VIEW
  5
6
330
0
100
AcDbSymbolTable
 70
     0
  0
ENDTAB
  0
TABLE
  2
UCS
  5
7
330
0
100
AcDbSymbolTable
 70
     0
  0
ENDTAB
  0
TABLE
  2
APPID
  5
9
330
0
100
AcDbSymbolTable
 70
     2
  0
APPID
  5
12
330
9
100
AcDbSymbolTableRecord
100
AcDbRegAppTableRecord
  2
ACAD
 70
     0
  0
APPID
  5
1CE
330
9
100
AcDbSymbolTableRecord
100
AcDbRegAppTableRecord
  2
ACAD_MLEADERVER
 70
     0
  0
ENDTAB
  0
TABLE
  2
DIMSTYLE
  5
A
330
0
100
AcDbSymbolTable
 70
     1
100
AcDbDimStyleTable
  0
DIMSTYLE
105
27
330
A
100
AcDbSymbolTableRecord
100
AcDbDimStyleTableRecord
  2
Standard
 70
     0
178
     0
340
11
  0
ENDTAB
  0
TABLE
  2
BLOCK_RECORD
  5
1
330
0
100
AcDbSymbolTable
 70
     5
  0
BLOCK_RECORD
  5
1F
330
1
100
AcDbSymbolTableRecord
100
AcDbBlockTableRecord
  2
*Model_Space
340
22
 70
     0
280
     1
281
     0
  0
BLOCK_RECORD
  5
1B
330
1
100
AcDbSymbolTableRecord
100
AcDbBlockTableRecord
  2
*Paper_Space
340
1E
 70
     0
280
     1
281
     0
  0
BLOCK_RECORD
  5
23
330
1
100
AcDbSymbolTableRecord
100
AcDbBlockTableRecord
  2
*Paper_Space0
340
26
 70
     0
280
     1
281
     0
  0
BLOCK_RECORD
  5
62
330
1
100
AcDbSymbolTableRecord
100
AcDbBlockTableRecord
  2
block 2
340
0
102
{BLKREFS
331
1BB
331
26C
102
}
 70
     0
280
     1
281
     0
  0
BLOCK_RECORD
  5
92
330
1
100
AcDbSymbolTableRecord
100
AcDbBlockTableRecord
  2
block 3
340
0
102
{BLKREFS
331
1BC
331
29C
102
}
 70
     0
280
     1
281
     0
  0
BLOCK_RECORD
  5
96
330
1
100
AcDbSymbolTableRecord
100
AcDbBlockTableRecord
  2
block 4
340
0
102
{BLKREFS
331
97
331
29F
102
}
 70
     0
280
     1
281
     0
  0
ENDTAB
  0
ENDSEC
  0
SECTION
  2
BLOCKS
  0
BLOCK
  5
20
330
1F
100
AcDbEntity
  8
0
100
AcDbBlockBegin
  2
*Model_Space
 70
     0
 10
0.0
 20
0.0
 30
0.0
  3
*Model_Space
  1
*Model_Space
  0
ENDBLK
  5
21
330
1F
100
AcDbEntity
  8
0
100
AcDbBlockEnd
  0
BLOCK
  5
1C
330
1B
100
AcDbEntity
 67
     1
  8
0
100
AcDbBlockBegin
  2
*Paper_Space
 70
     0
 10
0.0
 20
0.0
 30
0.0
  3
*Paper_Space
  1
*Paper_Space
  0
ENDBLK
  5
1D
330
1B
100
AcDbEntity
 67
     1
  8
0
100
AcDbBlockEnd
  0
BLOCK
  5
24
330
23
100
AcDbEntity
  8
0
100
AcDbBlockBegin
  2
*Paper_Space0
 70
     0
 10
0.0
 20
0.0
 30
0.0
  3
*Paper_Space0
  1
*Paper_Space0
  0
ENDBLK
  5
25
330
23
100
AcDbEntity
  8
0
100
AcDbBlockEnd
  0
BLOCK
  5
64
330
62
100
AcDbEntity
  8
0
100
AcDbBlockBegin
  2
block 2
 70
     0
 10
0.0
 20
0.0
 30
0.0
  3
block 2
  1
block 2
  0
POLYLINE
  5
66
330
62
100
AcDbEntity
  8
Layer 1
370
     0
100
AcDb2dPolyline
 66
     1
 10
0.0
 20
0.0
 30
0.0
  0
VERTEX
  5
67
330
66
100
AcDbEntity
  8
Layer 1
370
     0
100
AcDbVertex
100
AcDb2dVertex
 10
140.3428547826226
 20
-141.7279554224673
 30
0.0
  0
VERTEX
  5
68
330
66
100
AcDbEntity
  8
Layer 1
370
     0
100
AcDbVertex
100
AcDb2dVertex
 10
133.8715874231293
 20
-141.7279554224673
 30
0.0
  0
VERTEX
  5
69
330
66
100
AcDbEntity
  8
Layer 1
370
     0
100
AcDbVertex
100
AcDb2dVertex
 10
132.2427462777032
 20
-143.3607584277015
 30
0.0
  0
VERTEX
  5
6A
330
66
100
AcDbEntity
  8
Layer 1
370
     0
100
AcDbVertex
100
AcDb2dVertex
 10
132.2427462777032
 20
-153.1403509816802
 30
0.0
  0
VERTEX
  5
6B
330
66
100
AcDbEntity
  8
Layer 1
370
     0
100
AcDbVertex
100
AcDb2dVertex
 10
133.8715874231293
 20
-154.7736707512371
 30
0.0
  0
VERTEX
  5
6C
330
66
100
AcDbEntity
  8
Layer 1
370
     0
100
AcDbVertex
100
AcDb2dVertex
 10
140.3428547826226
 20
-154.7736707512371
 30
0.0
  0
VERTEX
  5
6D
330
66
100
AcDbEntity
  8
Layer 1
370
     0
100
AcDbVertex
100
AcDb2dVertex
 10
141.9723849471458
 20
-153.1400064721317
 30
0.0
  0
VERTEX
  5
6E
330
66
100
AcDbEntity
  8
Layer 1
370
     0
100
AcDbVertex
100
AcDb2dVertex
 10
141.9723849471458
 20
-143.3624809754441
 30
0.0
  0
VERTEX
  5
6F
330
66
100
AcDbEntity
  8
Layer 1
370
     0
100
AcDbVertex
100
AcDb2dVertex
 10
140.3428547826226
 20
-141.7279554224673
 30
0.0
  0
SEQEND
  5
70
330
66
100
AcDbEntity
  8
Layer 1
370
     0
  0
POLYLINE
  5
71
330
62
100
AcDbEntity
  8
Layer 1
370
     0
100
AcDb2dPolyline
 66
     1
 10
0.0
 20
0.0
 30
0.0
  0
VERTEX
  5
72
330
71
100
AcDbEntity
  8
Layer 1
370
     0
100
AcDbVertex
100
AcDb2dVertex
 10
141.7436306069252
 20
-153.0025471622702
 30
0.0
  0
VERTEX
  5
73
330
71
100
AcDbEntity
  8
Layer 1
370
     0
100
AcDbVertex
100
AcDb2dVertex
 10
140.2174533069595
 20
-154.5145995707464
 30
0.0
  0
VERTEX
  5
74
330
71
100
AcDbEntity
  8
Layer 1
370
     0
100
AcDbVertex
100
AcDb2dVertex
 10
133.9825194977544
 20
-154.5145995707464
 30
0.0
  0
VERTEX
  5
75
330
71
100
AcDbEntity
  8
Layer 1
370
     0
100
AcDbVertex
100
AcDb2dVertex
 10
132.4680555224386
 20
-152.9960014808482
 30
0.0
  0
VERTEX
  5
76
330
71
100
AcDbEntity
  8
Layer 1
370
     0
100
AcDbVertex
100
AcDb2dVertex
 10
132.4680555224386
 20
-143.5025241069195
 30
0.0
  0
VERTEX
  5
77
330
71
100
AcDbEntity
  8
Layer 1
370
     0
100
AcDbVertex
100
AcDb2dVertex
 10
133.9825194977544
 20
-141.9834092526986
 30
0.0
  0
VERTEX
  5
78
330
71
100
AcDbEntity
  8
Layer 1
370
     0
100
AcDbVertex
100
AcDb2dVertex
 10
140.2174533069595
 20
-141.9834092526986
 30
0.0
  0
VERTEX
  5
79
330
71
100
AcDbEntity
  8
Layer 1
370
     0
100
AcDbVertex
100
AcDb2dVertex
 10
141.7436306069252
 20
-143.4958061707233
 30
0.0
  0
VERTEX
  5
7A
330
71
100
AcDbEntity
  8
Layer 1
370
     0
100
AcDbVertex
100
AcDb2dVertex
 10
141.7436306069252
 20
-153.0025471622702
 30
0.0
  0
SEQEND
  5
7B
330
71
100
AcDbEntity
  8
Layer 1
370
     0
  0
POLYLINE
  5
7C
330
62
100
AcDbEntity
  8
Layer 1
370
     0
100
AcDb2dPolyline
 66
     1
 10
0.0
 20
0.0
 30
0.0
  0
VERTEX
  5
7D
330
7C
100
AcDbEntity
  8
Layer 1
370
     0
100
AcDbVertex
100
AcDb2dVertex
 10
140.6749619874007
 20
-140.9467800211869
 30
0.0
  0
VERTEX
  5
7E
330
7C
100
AcDbEntity
  8
Layer 1
370
     0
100
AcDbVertex
100
AcDb2dVertex
 10
133.5401692374483
 20
-140.9460910020899
 30
0.0
  0
VERTEX
  5
7F
330
7C
100
AcDbEntity
  8
Layer 1
370
     0
100
AcDbVertex
100
AcDb2dVertex
 10
131.48206919456
 20
-143.0031575163325
 30
0.0
  0
VERTEX
  5
80
330
7C
100
AcDbEntity
  8
Layer 1
370
     0
100
AcDbVertex
100
AcDb2dVertex
 10
131.48206919456
 20
-153.4972628739521
 30
0.0
  0
VERTEX
  5
81
330
7C
100
AcDbEntity
  8
Layer 1
370
     0
100
AcDbVertex
100
AcDb2dVertex
 10
133.5401692374483
 20
-155.5563964454859
 30
0.0
  0
VERTEX
  5
82
330
7C
100
AcDbEntity
  8
Layer 1
370
     0
100
AcDbVertex
100
AcDb2dVertex
 10
140.6749619874007
 20
-155.5543293881948
 30
0.0
  0
VERTEX
  5
83
330
7C
100
AcDbEntity
  8
Layer 1
370
     0
100
AcDbVertex
100
AcDb2dVertex
 10
142.733062030289
 20
-153.496573854855
 30
0.0
  0
VERTEX
  5
84
330
7C
100
AcDbEntity
  8
Layer 1
370
     0
100
AcDbVertex
100
AcDb2dVertex
 10
142.733062030289
 20
-143.0048800640752
 30
0.0
  0
VERTEX
  5
85
330
7C
100
AcDbEntity
  8
Layer 1
370
     0
100
AcDbVertex
100
AcDb2dVertex
 10
140.6749619874007
 20
-140.9467800211869
 30
0.0
  0
SEQEND
  5
86
330
7C
100
AcDbEntity
  8
Layer 1
370
     0
  0
POLYLINE
  5
87
330
62
100
AcDbEntity
  8
Layer 1
370
     0
100
AcDb2dPolyline
 66
     1
 10
0.0
 20
0.0
 30
0.0
  0
VERTEX
  5
88
330
87
100
AcDbEntity
  8
Layer 1
370
     0
100
AcDbVertex
100
AcDb2dVertex
 10
142.2831325599153
 20
-153.3067490936178
 30
0.0
  0
VERTEX
  5
89
330
87
100
AcDbEntity
  8
Layer 1
370
     0
100
AcDbVertex
100
AcDb2dVertex
 10
140.4882378121002
 20
-155.1075005037578
 30
0.0
  0
VERTEX
  5
8A
330
87
100
AcDbEntity
  8
Layer 1
370
     0
100
AcDbVertex
100
AcDb2dVertex
 10
133.7262043936518
 20
-155.1081895228549
 30
0.0
  0
VERTEX
  5
8B
330
87
100
AcDbEntity
  8
Layer 1
370
     0
100
AcDbVertex
100
AcDb2dVertex
 10
131.9313096458366
 20
-153.3081271318119
 30
0.0
  0
VERTEX
  5
8C
330
87
100
AcDbEntity
  8
Layer 1
370
     0
100
AcDbVertex
100
AcDb2dVertex
 10
131.9313096458366
 20
-143.1929822775698
 30
0.0
  0
VERTEX
  5
8D
330
87
100
AcDbEntity
  8
Layer 1
370
     0
100
AcDbVertex
100
AcDb2dVertex
 10
133.7262043936518
 20
-141.3929198865268
 30
0.0
  0
VERTEX
  5
8E
330
87
100
AcDbEntity
  8
Layer 1
370
     0
100
AcDbVertex
100
AcDb2dVertex
 10
140.4882378121002
 20
-141.3946424342694
 30
0.0
  0
VERTEX
  5
8F
330
87
100
AcDbEntity
  8
Layer 1
370
     0
100
AcDbVertex
100
AcDb2dVertex
 10
142.2831325599153
 20
-143.1941880609897
 30
0.0
  0
VERTEX
  5
90
330
87
100
AcDbEntity
  8
Layer 1
370
     0
100
AcDbVertex
100
AcDb2dVertex
 10
142.2831325599153
 20
-153.3067490936178
 30
0.0
  0
SEQEND
  5
91
330
87
100
AcDbEntity
  8
Layer 1
370
     0
  0
ENDBLK
  5
65
330
62
100
AcDbEntity
  8
0
100
AcDbBlockEnd
  0
BLOCK
  5
94
330
92
100
AcDbEntity
  8
0
100
AcDbBlockBegin
  2
block 3
 70
     0
 10
0.0
 20
0.0
 30
0.0
  3
block 3
  1
block 3
  0
INSERT
  5
97
330
92
100
AcDbEntity
  8
Layer 1
100
AcDbBlockReference
  2
block 4
 10
0.0
 20
0.0
 30
0.0
  0
POLYLINE
  5
BB
330
92
100
AcDbEntity
  8
Layer 1
370
     0
100
AcDb2dPolyline
 66
     1
 10
0.0
 20
0.0
 30
0.0
  0
VERTEX
  5
BC
330
BB
100
AcDbEntity
  8
Layer 1
370
     0
100
AcDbVertex
100
AcDb2dVertex
 10
128.8941134660404
 20
-154.3433783251294
 30
0.0
  0
VERTEX
  5
BD
330
BB
100
AcDbEntity
  8
Layer 1
370
     0
100
AcDbVertex
100
AcDb2dVertex
 10
67.42723658253556
 20
-154.3433783251294
 30
0.0
  0
VERTEX
  5
BE
330
BB
100
AcDbEntity
  8
Layer 1
370
     0
100
AcDbVertex
100
AcDb2dVertex
 10
67.42723658253556
 20
-153.5375704911295
 30
0.0
  0
VERTEX
  5
BF
330
BB
100
AcDbEntity
  8
Layer 1
370
     0
100
AcDbVertex
100
AcDb2dVertex
 10
128.8941134660404
 20
-153.5375704911295
 30
0.0
  0
VERTEX
  5
C0
330
BB
100
AcDbEntity
  8
Layer 1
370
     0
100
AcDbVertex
100
AcDb2dVertex
 10
128.8941134660404
 20
-154.3433783251294
 30
0.0
  0
SEQEND
  5
C1
330
BB
100
AcDbEntity
  8
Layer 1
370
     0
  0
ENDBLK
  5
95
330
92
100
AcDbEntity
  8
0
100
AcDbBlockEnd
  0
BLOCK
  5
98
330
96
100
AcDbEntity
  8
0
100
AcDbBlockBegin
  2
block 4
 70
     0
 10
0.0
 20
0.0
 30
0.0
  3
block 4
  1
block 4
  0
POLYLINE
  5
9A
330
96
100
AcDbEntity
  8
Layer 1
370
     0
100
AcDb2dPolyline
 66
     1
 10
0.0
 20
0.0
 30
0.0
  0
VERTEX
  5
9B
330
9A
100
AcDbEntity
  8
Layer 1
370
     0
100
AcDbVertex
100
AcDb2dVertex
 10
74.63162026129001
 20
-152.0010579047081
 30
0.0
  0
VERTEX
  5
9C
330
9A
100
AcDbEntity
  8
Layer 1
370
     0
100
AcDbVertex
100
AcDb2dVertex
 10
72.0887952836271
 20
-152.0010579047081
 30
0.0
  0
VERTEX
  5
9D
330
9A
100
AcDbEntity
  8
Layer 1
370
     0
100
AcDbVertex
100
AcDb2dVertex
 10
71.90586071336034
 20
-150.8104329050057
 30
0.0
  0
VERTEX
  5
9E
330
9A
100
AcDbEntity
  8
Layer 1
370
     0
100
AcDbVertex
100
AcDb2dVertex
 10
70.24808076585812
 20
-150.8104329050057
 30
0.0
  0
VERTEX
  5
9F
330
9A
100
AcDbEntity
  8
Layer 1
370
     0
100
AcDbVertex
100
AcDb2dVertex
 10
70.04723169906805
 20
-152.0010579047081
 30
0.0
  0
VERTEX
  5
A0
330
9A
100
AcDbEntity
  8
Layer 1
370
     0
100
AcDbVertex
100
AcDb2dVertex
 10
67.50475123095367
 20
-152.0010579047081
 30
0.0
  0
VERTEX
  5
A1
330
9A
100
AcDbEntity
  8
Layer 1
370
     0
100
AcDbVertex
100
AcDb2dVertex
 10
69.6934203927329
 20
-142.89515377287
 30
0.0
  0
VERTEX
  5
A2
330
9A
100
AcDbEntity
  8
Layer 1
370
     0
100
AcDbVertex
100
AcDb2dVertex
 10
72.70236678955011
 20
-142.89515377287
 30
0.0
  0
VERTEX
  5
A3
330
9A
100
AcDbEntity
  8
Layer 1
370
     0
100
AcDbVertex
100
AcDb2dVertex
 10
74.63162026129001
 20
-152.0010579047081
 30
0.0
  0
SEQEND
  5
A4
330
9A
100
AcDbEntity
  8
Layer 1
370
     0
  0
SPLINE
  5
A5
330
96
100
AcDbEntity
  8
Layer 1
370
     0
100
AcDbSpline
210
0.0
220
0.0
230
1.0
 70
    11
 71
     3
 72
    44
 73
    40
 74
     0
 42
0.000000001
 43
0.0000000001
 40
0.0
 40
0.0
 40
0.0
 40
0.0
 40
1.0
 40
1.0
 40
1.0
 40
2.0
 40
2.0
 40
2.0
 40
3.0
 40
3.0
 40
3.0
 40
4.0
 40
4.0
 40
4.0
 40
5.0
 40
5.0
 40
5.0
 40
6.0
 40
6.0
 40
6.0
 40
7.0
 40
7.0
 40
7.0
 40
8.0
 40
8.0
 40
8.0
 40
9.0
 40
9.0
 40
9.0
 40
10.0
 40
10.0
 40
10.0
 40
11.0
 40
11.0
 40
11.0
 40
12.0
 40
12.0
 40
12.0
 40
13.0
 40
13.0
 40
13.0
 40
13.0
 10
71.61681720214789
 20
-148.8922037388186
 30
0.0
 10
71.61681720214789
 20
-148.8922037388186
 30
0.0
 10
71.45730928118081
 20
-147.8305975650389
 30
0.0
 10
71.45730928118081
 20
-147.8305975650389
 30
0.0
 10
71.45317516659851
 20
-147.8264634504566
 30
0.0
 10
71.44559595653097
 20
-147.7734089799837
 30
0.0
 10
71.43388263188112
 20
-147.6710896440718
 30
0.0
 10
71.42595891226505
 20
-147.5846177473921
 30
0.0
 10
71.38461776644205
 20
-147.2425197657067
 30
0.0
 10
71.30985919441213
 20
-146.6444511894674
 30
0.0
 10
71.30193547479605
 20
-146.5776163370535
 30
0.0
 10
71.29194469788882
 20
-146.4863213066944
 30
0.0
 10
71.28023137323898
 20
-146.3702215888415
 30
0.0
 10
71.26851804858913
 20
-146.2544663805371
 30
0.0
 10
71.25267060935697
 20
-146.1077053128654
 30
0.0
 10
71.23337807463957
 20
-145.9306274049236
 30
0.0
 10
71.23337807463957
 20
-145.9306274049236
 30
0.0
 10
71.15655244531851
 20
-145.0693535336111
 30
0.0
 10
71.15655244531851
 20
-145.0693535336111
 30
0.0
 10
71.14862872570242
 20
-145.1520358252571
 30
0.0
 10
71.13794892969815
 20
-145.2447088938104
 30
0.0
 10
71.12416854775715
 20
-145.3466837201738
 30
0.0
 10
71.11038816581616
 20
-145.4490030560857
 30
0.0
 10
71.09557425522958
 20
-145.5609686593563
 30
0.0
 10
71.07972681599743
 20
-145.6829250395341
 30
0.0
 10
71.05216605211544
 20
-145.9268377998898
 30
0.0
 10
71.0325290078495
 20
-146.0959919882156
 30
0.0
 10
71.02081568319966
 20
-146.1903876045114
 30
0.0
 10
71.00910235854981
 20
-146.2847832208073
 30
0.0
 10
71.00117863893374
 20
-146.3419718058624
 30
0.0
 10
70.99738903389996
 20
-146.3612643405798
 30
0.0
 10
70.99738903389996
 20
-146.3612643405798
 30
0.0
 10
70.82616778828304
 20
-147.4647284245054
 30
0.0
 10
70.82616778828304
 20
-147.4647284245054
 30
0.0
 10
70.82616778828304
 20
-147.4647284245054
 30
0.0
 10
70.57846542289359
 20
-148.8922037388186
 30
0.0
 10
70.57846542289359
 20
-148.8922037388186
 30
0.0
 10
70.57846542289359
 20
-148.8922037388186
 30
0.0
 10
71.61681720214789
 20
-148.8922037388186
 30
0.0
 10
71.61681720214789
 20
-148.8922037388186
 30
0.0
  0
SPLINE
  5
A6
330
96
100
AcDbEntity
  8
Layer 1
370
     0
100
AcDbSpline
210
0.0
220
0.0
230
1.0
 70
    11
 71
     3
 72
    44
 73
    40
 74
     0
 42
0.000000001
 43
0.0000000001
 40
0.0
 40
0.0
 40
0.0
 40
0.0
 40
1.0
 40
1.0
 40
1.0
 40
2.0
 40
2.0
 40
2.0
 40
3.0
 40
3.0
 40
3.0
 40
4.0
 40
4.0
 40
4.0
 40
5.0
 40
5.0
 40
5.0
 40
6.0
 40
6.0
 40
6.0
 40
7.0
 40
7.0
 40
7.0
 40
8.0
 40
8.0
 40
8.0
 40
9.0
 40
9.0
 40
9.0
 40
10.0
 40
10.0
 40
10.0
 40
11.0
 40
11.0
 40
11.0
 40
12.0
 40
12.0
 40
12.0
 40
13.0
 40
13.0
 40
13.0
 40
13.0
 10
81.4115681762617
 20
-152.0010579047081
 30
0.0
 10
81.4115681762617
 20
-152.0010579047081
 30
0.0
 10
78.75057642345472
 20
-152.0010579047081
 30
0.0
 10
78.75057642345472
 20
-152.0010579047081
 30
0.0
 10
78.75057642345472
 20
-152.0010579047081
 30
0.0
 10
77.53549124580711
 20
-148.7562947219255
 30
0.0
 10
77.53549124580711
 20
-148.7562947219255
 30
0.0
 10
77.52343341160874
 20
-148.7011731941615
 30
0.0
 10
77.50276283869722
 20
-148.6284816794227
 30
0.0
 10
77.47313501752409
 20
-148.5382201777092
 30
0.0
 10
77.44350719635094
 20
-148.4479586759957
 30
0.0
 10
77.4073336937558
 20
-148.3397826777588
 30
0.0
 10
77.36427000019019
 20
-148.2136921829987
 30
0.0
 10
77.36427000019019
 20
-148.2136921829987
 30
0.0
 10
77.38183998716497
 20
-148.8152058547233
 30
0.0
 10
77.38183998716497
 20
-148.8152058547233
 30
0.0
 10
77.38183998716497
 20
-148.8152058547233
 30
0.0
 10
77.38183998716497
 20
-152.0010579047081
 30
0.0
 10
77.38183998716497
 20
-152.0010579047081
 30
0.0
 10
77.38183998716497
 20
-152.0010579047081
 30
0.0
 10
74.93375513534643
 20
-152.0010579047081
 30
0.0
 10
74.93375513534643
 20
-152.0010579047081
 30
0.0
 10
74.93375513534643
 20
-152.0010579047081
 30
0.0
 10
74.93375513534643
 20
-142.89515377287
 30
0.0
 10
74.93375513534643
 20
-142.89515377287
 30
0.0
 10
74.93375513534643
 20
-142.89515377287
 30
0.0
 10
77.45280895416111
 20
-142.89515377287
 30
0.0
 10
77.45280895416111
 20
-142.89515377287
 30
0.0
 10
78.56178519086303
 20
-142.89515377287
 30
0.0
 10
79.39170869325972
 20
-143.1135728266348
 30
0.0
 10
79.94257946135116
 20
-143.5497219150674
 30
0.0
 10
80.64262286395393
 20
-144.1081718932264
 30
0.0
 10
80.99264456525532
 20
-144.9022664025765
 30
0.0
 10
80.99264456525532
 20
-145.9323499526662
 30
0.0
 10
80.99264456525532
 20
-147.0334024697521
 30
0.0
 10
80.52238903151871
 20
-147.7944240624438
 30
0.0
 10
79.58256698314256
 20
-148.2147257116442
 30
0.0
 10
79.58256698314256
 20
-148.2147257116442
 30
0.0
 10
81.4115681762617
 20
-152.0010579047081
 30
0.0
 10
81.4115681762617
 20
-152.0010579047081
 30
0.0
  0
SPLINE
  5
A7
330
96
100
AcDbEntity
  8
Layer 1
370
     0
100
AcDbSpline
210
0.0
220
0.0
230
1.0
 70
    11
 71
     3
 72
    23
 73
    19
 74
     0
 42
0.000000001
 43
0.0000000001
 40
0.0
 40
0.0
 40
0.0
 40
0.0
 40
1.0
 40
1.0
 40
1.0
 40
2.0
 40
2.0
 40
2.0
 40
3.0
 40
3.0
 40
3.0
 40
4.0
 40
4.0
 40
4.0
 40
5.0
 40
5.0
 40
5.0
 40
6.0
 40
6.0
 40
6.0
 40
6.0
 10
77.39389782136334
 20
-146.9844821138615
 30
0.0
 10
77.39389782136334
 20
-146.9844821138615
 30
0.0
 10
77.5589178951068
 20
-146.9844821138615
 30
0.0
 10
77.5589178951068
 20
-146.9844821138615
 30
0.0
 10
77.84210474399434
 20
-146.9844821138615
 30
0.0
 10
78.07809378473395
 20
-146.8766506251732
 30
0.0
 10
78.26688501732565
 20
-146.6602986286995
 30
0.0
 10
78.45567624991733
 20
-146.4439466322258
 30
0.0
 10
78.55007186621317
 20
-146.1686835029544
 30
0.0
 10
78.55007186621317
 20
-145.8341647313366
 30
0.0
 10
78.55007186621317
 20
-145.1537583729998
 30
0.0
 10
78.19419350258687
 20
-144.8133829390571
 30
0.0
 10
77.48243677533425
 20
-144.8133829390571
 30
0.0
 10
77.48243677533425
 20
-144.8133829390571
 30
0.0
 10
77.39389782136334
 20
-144.8133829390571
 30
0.0
 10
77.39389782136334
 20
-144.8133829390571
 30
0.0
 10
77.39389782136334
 20
-144.8133829390571
 30
0.0
 10
77.39389782136334
 20
-146.9844821138615
 30
0.0
 10
77.39389782136334
 20
-146.9844821138615
 30
0.0
  0
SPLINE
  5
A8
330
96
100
AcDbEntity
  8
Layer 1
370
     0
100
AcDbSpline
210
0.0
220
0.0
230
1.0
 70
    11
 71
     3
 72
    71
 73
    67
 74
     0
 42
0.000000001
 43
0.0000000001
 40
0.0
 40
0.0
 40
0.0
 40
0.0
 40
1.0
 40
1.0
 40
1.0
 40
2.0
 40
2.0
 40
2.0
 40
3.0
 40
3.0
 40
3.0
 40
4.0
 40
4.0
 40
4.0
 40
5.0
 40
5.0
 40
5.0
 40
6.0
 40
6.0
 40
6.0
 40
7.0
 40
7.0
 40
7.0
 40
8.0
 40
8.0
 40
8.0
 40
9.0
 40
9.0
 40
9.0
 40
10.0
 40
10.0
 40
10.0
 40
11.0
 40
11.0
 40
11.0
 40
12.0
 40
12.0
 40
12.0
 40
13.0
 40
13.0
 40
13.0
 40
14.0
 40
14.0
 40
14.0
 40
15.0
 40
15.0
 40
15.0
 40
16.0
 40
16.0
 40
16.0
 40
17.0
 40
17.0
 40
17.0
 40
18.0
 40
18.0
 40
18.0
 40
19.0
 40
19.0
 40
19.0
 40
20.0
 40
20.0
 40
20.0
 40
21.0
 40
21.0
 40
21.0
 40
22.0
 40
22.0
 40
22.0
 40
22.0
 10
91.3551472753383
 20
-152.0010579047081
 30
0.0
 10
91.3551472753383
 20
-152.0010579047081
 30
0.0
 10
88.8605536344689
 20
-152.0010579047081
 30
0.0
 10
88.8605536344689
 20
-152.0010579047081
 30
0.0
 10
88.8605536344689
 20
-152.0010579047081
 30
0.0
 10
88.5959703012017
 20
-147.8478230424651
 30
0.0
 10
88.5959703012017
 20
-147.8478230424651
 30
0.0
 10
88.5959703012017
 20
-147.8478230424651
 30
0.0
 10
88.5160440859439
 20
-146.1900430949629
 30
0.0
 10
88.5160440859439
 20
-146.1900430949629
 30
0.0
 10
88.4871052838678
 20
-146.5087144273485
 30
0.0
 10
88.45403236720941
 20
-146.8125718491476
 30
0.0
 10
88.41716984551724
 20
-147.10161536036
 30
0.0
 10
88.37996281427654
 20
-147.3906588715725
 30
0.0
 10
88.33483206341977
 20
-147.6707451345233
 30
0.0
 10
88.28177759294692
 20
-147.942218658761
 30
0.0
 10
88.28177759294692
 20
-147.942218658761
 30
0.0
 10
87.47459172075288
 20
-152.0010579047081
 30
0.0
 10
87.47459172075288
 20
-152.0010579047081
 30
0.0
 10
87.47459172075288
 20
-152.0010579047081
 30
0.0
 10
85.42786049296596
 20
-152.0010579047081
 30
0.0
 10
85.42786049296596
 20
-152.0010579047081
 30
0.0
 10
85.42786049296596
 20
-152.0010579047081
 30
0.0
 10
84.76709117889504
 20
-147.9363619964361
 30
0.0
 10
84.76709117889504
 20
-147.9363619964361
 30
0.0
 10
84.72747258081466
 20
-147.7003729556965
 30
0.0
 10
84.67441811034182
 20
-147.295229726631
 30
0.0
 10
84.60758325792797
 20
-146.7209323092399
 30
0.0
 10
84.5996595383119
 20
-146.6344604125601
 30
0.0
 10
84.58208955133712
 20
-146.4573825046183
 30
0.0
 10
84.55452878745513
 20
-146.1900430949629
 30
0.0
 10
84.55452878745513
 20
-146.1900430949629
 30
0.0
 10
84.49561765465735
 20
-147.8712496917648
 30
0.0
 10
84.49561765465735
 20
-147.8712496917648
 30
0.0
 10
84.49561765465735
 20
-147.8712496917648
 30
0.0
 10
84.2771986008925
 20
-152.0010579047081
 30
0.0
 10
84.2771986008925
 20
-152.0010579047081
 30
0.0
 10
84.2771986008925
 20
-152.0010579047081
 30
0.0
 10
81.65789250345706
 20
-152.0010579047081
 30
0.0
 10
81.65789250345706
 20
-152.0010579047081
 30
0.0
 10
81.65789250345706
 20
-152.0010579047081
 30
0.0
 10
82.71967093201106
 20
-142.89515377287
 30
0.0
 10
82.71967093201106
 20
-142.89515377287
 30
0.0
 10
82.71967093201106
 20
-142.89515377287
 30
0.0
 10
85.78167179930111
 20
-142.89515377287
 30
0.0
 10
85.78167179930111
 20
-142.89515377287
 30
0.0
 10
85.78167179930111
 20
-142.89515377287
 30
0.0
 10
86.29499102660334
 20
-145.9630113024849
 30
0.0
 10
86.29499102660334
 20
-145.9630113024849
 30
0.0
 10
86.33805472016897
 20
-146.2148477824567
 30
0.0
 10
86.37629528005523
 20
-146.4883883639855
 30
0.0
 10
86.40971270626216
 20
-146.7832885375229
 30
0.0
 10
86.44313013246908
 20
-147.0781887110603
 30
0.0
 10
86.47379148228781
 20
-147.3989271007371
 30
0.0
 10
86.5013522461698
 20
-147.7448146874562
 30
0.0
 10
86.55371769754561
 20
-147.1667276650312
 30
0.0
 10
86.62606470273585
 20
-146.6492743231467
 30
0.0
 10
86.71873777128907
 20
-146.1931436808996
 30
0.0
 10
86.71873777128907
 20
-146.1931436808996
 30
0.0
 10
87.35918102199702
 20
-142.89515377287
 30
0.0
 10
87.35918102199702
 20
-142.89515377287
 30
0.0
 10
87.35918102199702
 20
-142.89515377287
 30
0.0
 10
90.47010224517761
 20
-142.89515377287
 30
0.0
 10
90.47010224517761
 20
-142.89515377287
 30
0.0
 10
90.47010224517761
 20
-142.89515377287
 30
0.0
 10
91.3551472753383
 20
-152.0010579047081
 30
0.0
 10
91.3551472753383
 20
-152.0010579047081
 30
0.0
  0
SPLINE
  5
A9
330
96
100
AcDbEntity
  8
Layer 1
370
     0
100
AcDbSpline
210
0.0
220
0.0
230
1.0
 70
    11
 71
     3
 72
    86
 73
    82
 74
     0
 42
0.000000001
 43
0.0000000001
 40
0.0
 40
0.0
 40
0.0
 40
0.0
 40
1.0
 40
1.0
 40
1.0
 40
2.0
 40
2.0
 40
2.0
 40
3.0
 40
3.0
 40
3.0
 40
4.0
 40
4.0
 40
4.0
 40
5.0
 40
5.0
 40
5.0
 40
6.0
 40
6.0
 40
6.0
 40
7.0
 40
7.0
 40
7.0
 40
8.0
 40
8.0
 40
8.0
 40
9.0
 40
9.0
 40
9.0
 40
10.0
 40
10.0
 40
10.0
 40
11.0
 40
11.0
 40
11.0
 40
12.0
 40
12.0
 40
12.0
 40
13.0
 40
13.0
 40
13.0
 40
14.0
 40
14.0
 40
14.0
 40
15.0
 40
15.0
 40
15.0
 40
16.0
 40
16.0
 40
16.0
 40
17.0
 40
17.0
 40
17.0
 40
18.0
 40
18.0
 40
18.0
 40
19.0
 40
19.0
 40
19.0
 40
20.0
 40
20.0
 40
20.0
 40
21.0
 40
21.0
 40
21.0
 40
22.0
 40
22.0
 40
22.0
 40
23.0
 40
23.0
 40
23.0
 40
24.0
 40
24.0
 40
24.0
 40
25.0
 40
25.0
 40
25.0
 40
26.0
 40
26.0
 40
26.0
 40
27.0
 40
27.0
 40
27.0
 40
27.0
 10
91.58906925878676
 20
-151.6296766113981
 30
0.0
 10
91.58906925878676
 20
-151.6296766113981
 30
0.0
 10
91.58906925878676
 20
-148.8272636889217
 30
0.0
 10
91.58906925878676
 20
-148.8272636889217
 30
0.0
 10
92.07276066491585
 20
-149.4882052577669
 30
0.0
 10
92.5960706691253
 20
-149.8182454052538
 30
0.0
 10
93.15865476186659
 20
-149.8182454052538
 30
0.0
 10
93.37087264375798
 20
-149.8182454052538
 30
0.0
 10
93.54381643711753
 20
-149.7645019156839
 30
0.0
 10
93.67748614194521
 20
-149.656325917447
 30
0.0
 10
93.8111558467729
 20
-149.5481499192102
 30
0.0
 10
93.87833520873528
 20
-149.4131021761884
 30
0.0
 10
93.87833520873528
 20
-149.2498046501875
 30
0.0
 10
93.87833520873528
 20
-149.0148491380935
 30
0.0
 10
93.73260766970921
 20
-148.7852335240016
 30
0.0
 10
93.44184161075412
 20
-148.5613023174604
 30
0.0
 10
93.44184161075412
 20
-148.5613023174604
 30
0.0
 10
93.04048798672252
 20
-148.259856462501
 30
0.0
 10
93.04048798672252
 20
-148.259856462501
 30
0.0
 10
92.77314857706713
 20
-148.06624209623
 30
0.0
 10
92.5450832559436
 20
-147.874005768153
 30
0.0
 10
92.3562920233519
 20
-147.6824584591731
 30
0.0
 10
92.16750079076022
 20
-147.4909111501933
 30
0.0
 10
92.01384953211807
 20
-147.293851688437
 30
0.0
 10
91.89602726652252
 20
-147.0909355643557
 30
0.0
 10
91.77786049137846
 20
-146.8880194402745
 30
0.0
 10
91.69138859469868
 20
-146.6785576347714
 30
0.0
 10
91.63626706693469
 20
-146.4622056382977
 30
0.0
 10
91.58114553917069
 20
-146.245853641824
 30
0.0
 10
91.55392928483721
 20
-146.0184773397975
 30
0.0
 10
91.55392928483721
 20
-145.7793877131211
 30
0.0
 10
91.55392928483721
 20
-145.3701103694735
 30
0.0
 10
91.65211450616684
 20
-144.9415404911084
 30
0.0
 10
91.8488294583746
 20
-144.4936780780259
 30
0.0
 10
91.94701467970422
 20
-144.2852498011683
 30
0.0
 10
92.06104734026599
 20
-144.0947360208339
 30
0.0
 10
92.19092744005991
 20
-143.922136737023
 30
0.0
 10
92.3204630303053
 20
-143.7495374532119
 30
0.0
 10
92.46998017436515
 20
-143.5969197232154
 30
0.0
 10
92.63947887223944
 20
-143.4639390374847
 30
0.0
 10
93.10318872455407
 20
-143.0849785341072
 30
0.0
 10
93.66370576000422
 20
-142.89515377287
 30
0.0
 10
94.32068546904136
 20
-142.89515377287
 30
0.0
 10
94.90669621108236
 20
-142.89515377287
 30
0.0
 10
95.49684106770566
 20
-143.0460489551239
 30
0.0
 10
96.09077552936273
 20
-143.3478393196318
 30
0.0
 10
96.09077552936273
 20
-143.3478393196318
 30
0.0
 10
96.09077552936273
 20
-146.0808335680805
 30
0.0
 10
96.09077552936273
 20
-146.0808335680805
 30
0.0
 10
95.88992646257266
 20
-145.7700859553109
 30
0.0
 10
95.66186114144912
 20
-145.5254841758582
 30
0.0
 10
95.40623505644358
 20
-145.3463392106252
 30
0.0
 10
95.15060897143805
 20
-145.1675387549408
 30
0.0
 10
94.89877249146629
 20
-145.0779662723243
 30
0.0
 10
94.65107012607682
 20
-145.0779662723243
 30
0.0
 10
94.46227889348513
 20
-145.0779662723243
 30
0.0
 10
94.30690508710036
 20
-145.1310207427971
 30
0.0
 10
94.18494870692251
 20
-145.2371296837428
 30
0.0
 10
94.05885821216238
 20
-145.3394490196547
 30
0.0
 10
93.99615747433083
 20
-145.4624389284782
 30
0.0
 10
93.99615747433083
 20
-145.6064439197616
 30
0.0
 10
93.99615747433083
 20
-145.8413994318556
 30
0.0
 10
94.16324460536545
 20
-146.0746323962071
 30
0.0
 10
94.4977633769832
 20
-146.3057983032673
 30
0.0
 10
94.4977633769832
 20
-146.3057983032673
 30
0.0
 10
94.88705916681643
 20
-146.5841620184755
 30
0.0
 10
94.88705916681643
 20
-146.5841620184755
 30
0.0
 10
95.40623505644358
 20
-146.9445190062326
 30
0.0
 10
95.77796085930204
 20
-147.3138332422514
 30
0.0
 10
96.0022365753918
 20
-147.6927937456289
 30
0.0
 10
96.23030189651534
 20
-148.0717542490064
 30
0.0
 10
96.34433455707712
 20
-148.515138037958
 30
0.0
 10
96.34433455707712
 20
-149.0224283481611
 30
0.0
 10
96.34433455707712
 20
-149.8864582958617
 30
0.0
 10
96.07079397554828
 20
-150.5989040422114
 30
0.0
 10
95.52405732203913
 20
-151.1597655872101
 30
0.0
 10
94.97732066852998
 20
-151.7206271322087
 30
0.0
 10
94.28520098554328
 20
-152.0010579047081
 30
0.0
 10
93.44769827307906
 20
-152.0010579047081
 30
0.0
 10
92.8692667411056
 20
-152.0010579047081
 30
0.0
 10
92.24983857285768
 20
-151.8777234863361
 30
0.0
 10
91.58906925878676
 20
-151.6296766113981
 30
0.0
  0
POLYLINE
  5
AA
330
96
100
AcDbEntity
  8
Layer 1
370
     0
100
AcDb2dPolyline
 66
     1
 10
0.0
 20
0.0
 30
0.0
  0
VERTEX
  5
AB
330
AA
100
AcDbEntity
  8
Layer 1
370
     0
100
AcDbVertex
100
AcDb2dVertex
 10
100.2581352830952
 20
-152.0010579047081
 30
0.0
  0
VERTEX
  5
AC
330
AA
100
AcDbEntity
  8
Layer 1
370
     0
100
AcDbVertex
100
AcDb2dVertex
 10
97.79799259707828
 20
-152.0010579047081
 30
0.0
  0
VERTEX
  5
AD
330
AA
100
AcDbEntity
  8
Layer 1
370
     0
100
AcDbVertex
100
AcDb2dVertex
 10
97.79799259707828
 20
-145.0779662723243
 30
0.0
  0
VERTEX
  5
AE
330
AA
100
AcDbEntity
  8
Layer 1
370
     0
100
AcDbVertex
100
AcDb2dVertex
 10
96.44096948543837
 20
-145.0779662723243
 30
0.0
  0
VERTEX
  5
AF
330
AA
100
AcDbEntity
  8
Layer 1
370
     0
100
AcDbVertex
100
AcDb2dVertex
 10
96.44096948543837
 20
-142.89515377287
 30
0.0
  0
VERTEX
  5
B0
330
AA
100
AcDbEntity
  8
Layer 1
370
     0
100
AcDbVertex
100
AcDb2dVertex
 10
101.6682128652079
 20
-142.89515377287
 30
0.0
  0
VERTEX
  5
B1
330
AA
100
AcDbEntity
  8
Layer 1
370
     0
100
AcDbVertex
100
AcDb2dVertex
 10
101.6682128652079
 20
-145.0779662723243
 30
0.0
  0
VERTEX
  5
B2
330
AA
100
AcDbEntity
  8
Layer 1
370
     0
100
AcDbVertex
100
AcDb2dVertex
 10
100.2581352830952
 20
-145.0779662723243
 30
0.0
  0
VERTEX
  5
B3
330
AA
100
AcDbEntity
  8
Layer 1
370
     0
100
AcDbVertex
100
AcDb2dVertex
 10
100.2581352830952
 20
-152.0010579047081
 30
0.0
  0
SEQEND
  5
B4
330
AA
100
AcDbEntity
  8
Layer 1
370
     0
  0
SPLINE
  5
B5
330
96
100
AcDbEntity
  8
Layer 1
370
     0
100
AcDbSpline
210
0.0
220
0.0
230
1.0
 70
    11
 71
     3
 72
    44
 73
    40
 74
     0
 42
0.000000001
 43
0.0000000001
 40
0.0
 40
0.0
 40
0.0
 40
0.0
 40
1.0
 40
1.0
 40
1.0
 40
2.0
 40
2.0
 40
2.0
 40
3.0
 40
3.0
 40
3.0
 40
4.0
 40
4.0
 40
4.0
 40
5.0
 40
5.0
 40
5.0
 40
6.0
 40
6.0
 40
6.0
 40
7.0
 40
7.0
 40
7.0
 40
8.0
 40
8.0
 40
8.0
 40
9.0
 40
9.0
 40
9.0
 40
10.0
 40
10.0
 40
10.0
 40
11.0
 40
11.0
 40
11.0
 40
12.0
 40
12.0
 40
12.0
 40
13.0
 40
13.0
 40
13.0
 40
13.0
 10
108.5466905110578
 20
-152.0010579047081
 30
0.0
 10
108.5466905110578
 20
-152.0010579047081
 30
0.0
 10
105.8856987582508
 20
-152.0010579047081
 30
0.0
 10
105.8856987582508
 20
-152.0010579047081
 30
0.0
 10
105.8856987582508
 20
-152.0010579047081
 30
0.0
 10
104.6707858353774
 20
-148.7562947219255
 30
0.0
 10
104.6707858353774
 20
-148.7562947219255
 30
0.0
 10
104.6587280011791
 20
-148.7011731941615
 30
0.0
 10
104.6380574282676
 20
-148.6284816794227
 30
0.0
 10
104.6084296070944
 20
-148.5382201777092
 30
0.0
 10
104.5788017859213
 20
-148.4479586759957
 30
0.0
 10
104.5426282833262
 20
-148.3397826777588
 30
0.0
 10
104.4995645897605
 20
-148.2136921829987
 30
0.0
 10
104.4995645897605
 20
-148.2136921829987
 30
0.0
 10
104.5171345767353
 20
-148.8152058547233
 30
0.0
 10
104.5171345767353
 20
-148.8152058547233
 30
0.0
 10
104.5171345767353
 20
-148.8152058547233
 30
0.0
 10
104.5171345767353
 20
-152.0010579047081
 30
0.0
 10
104.5171345767353
 20
-152.0010579047081
 30
0.0
 10
104.5171345767353
 20
-152.0010579047081
 30
0.0
 10
102.0690497249168
 20
-152.0010579047081
 30
0.0
 10
102.0690497249168
 20
-152.0010579047081
 30
0.0
 10
102.0690497249168
 20
-152.0010579047081
 30
0.0
 10
102.0690497249168
 20
-142.89515377287
 30
0.0
 10
102.0690497249168
 20
-142.89515377287
 30
0.0
 10
102.0690497249168
 20
-142.89515377287
 30
0.0
 10
104.5881035437314
 20
-142.89515377287
 30
0.0
 10
104.5881035437314
 20
-142.89515377287
 30
0.0
 10
105.6969075256591
 20
-142.89515377287
 30
0.0
 10
106.5271755376043
 20
-143.1135728266348
 30
0.0
 10
107.0777017961473
 20
-143.5497219150674
 30
0.0
 10
107.77774519875
 20
-144.1081718932264
 30
0.0
 10
108.1277669000514
 20
-144.9022664025765
 30
0.0
 10
108.1277669000514
 20
-145.9323499526662
 30
0.0
 10
108.1277669000514
 20
-147.0334024697521
 30
0.0
 10
107.6578558758633
 20
-147.7944240624438
 30
0.0
 10
106.7180338274872
 20
-148.2147257116442
 30
0.0
 10
106.7180338274872
 20
-148.2147257116442
 30
0.0
 10
108.5466905110578
 20
-152.0010579047081
 30
0.0
 10
108.5466905110578
 20
-152.0010579047081
 30
0.0
  0
SPLINE
  5
B6
330
96
100
AcDbEntity
  8
Layer 1
370
     0
100
AcDbSpline
210
0.0
220
0.0
230
1.0
 70
    11
 71
     3
 72
    23
 73
    19
 74
     0
 42
0.000000001
 43
0.0000000001
 40
0.0
 40
0.0
 40
0.0
 40
0.0
 40
1.0
 40
1.0
 40
1.0
 40
2.0
 40
2.0
 40
2.0
 40
3.0
 40
3.0
 40
3.0
 40
4.0
 40
4.0
 40
4.0
 40
5.0
 40
5.0
 40
5.0
 40
6.0
 40
6.0
 40
6.0
 40
6.0
 10
104.5291924109337
 20
-146.9844821138615
 30
0.0
 10
104.5291924109337
 20
-146.9844821138615
 30
0.0
 10
104.6942124846772
 20
-146.9844821138615
 30
0.0
 10
104.6942124846772
 20
-146.9844821138615
 30
0.0
 10
104.9773993335647
 20
-146.9844821138615
 30
0.0
 10
105.2133883743043
 20
-146.8766506251732
 30
0.0
 10
105.402179606896
 20
-146.6602986286995
 30
0.0
 10
105.5907985847134
 20
-146.4439466322258
 30
0.0
 10
105.6851942010093
 20
-146.1686835029544
 30
0.0
 10
105.6851942010093
 20
-145.8341647313366
 30
0.0
 10
105.6851942010093
 20
-145.1537583729998
 30
0.0
 10
105.3294880921572
 20
-144.8133829390571
 30
0.0
 10
104.6177313649046
 20
-144.8133829390571
 30
0.0
 10
104.6177313649046
 20
-144.8133829390571
 30
0.0
 10
104.5291924109337
 20
-144.8133829390571
 30
0.0
 10
104.5291924109337
 20
-144.8133829390571
 30
0.0
 10
104.5291924109337
 20
-144.8133829390571
 30
0.0
 10
104.5291924109337
 20
-146.9844821138615
 30
0.0
 10
104.5291924109337
 20
-146.9844821138615
 30
0.0
  0
SPLINE
  5
B7
330
96
100
AcDbEntity
  8
Layer 1
370
     0
100
AcDbSpline
210
0.0
220
0.0
230
1.0
 70
    11
 71
     3
 72
    29
 73
    25
 74
     0
 42
0.000000001
 43
0.0000000001
 40
0.0
 40
0.0
 40
0.0
 40
0.0
 40
1.0
 40
1.0
 40
1.0
 40
2.0
 40
2.0
 40
2.0
 40
3.0
 40
3.0
 40
3.0
 40
4.0
 40
4.0
 40
4.0
 40
5.0
 40
5.0
 40
5.0
 40
6.0
 40
6.0
 40
6.0
 40
7.0
 40
7.0
 40
7.0
 40
8.0
 40
8.0
 40
8.0
 40
8.0
 10
115.2026149885605
 20
-147.4795423350919
 30
0.0
 10
115.2026149885605
 20
-148.8196844788541
 30
0.0
 10
114.8863552230145
 20
-149.9091959260644
 30
0.0
 10
114.2531466728256
 20
-150.7484211862712
 30
0.0
 10
113.6233832181219
 20
-151.5835123318958
 30
0.0
 10
112.8034504926325
 20
-152.0010579047081
 30
0.0
 10
111.7926594772602
 20
-152.0010579047081
 30
0.0
 10
110.8962456319982
 20
-152.0010579047081
 30
0.0
 10
110.1273003196904
 20
-151.6806640245798
 30
0.0
 10
109.4858235403369
 20
-151.0384982261293
 30
0.0
 10
108.6796711967884
 20
-150.2261447107074
 30
0.0
 10
108.2765950250142
 20
-149.007958947123
 30
0.0
 10
108.2765950250142
 20
-147.3827351519564
 30
0.0
 10
108.2765950250142
 20
-145.8262410117205
 30
0.0
 10
108.6975856933117
 20
-144.6359605215667
 30
0.0
 10
109.5388780108097
 20
-143.811893681495
 30
0.0
 10
110.1645073509311
 20
-143.2007337424116
 30
0.0
 10
110.9058918993569
 20
-142.89515377287
 30
0.0
 10
111.7637206751841
 20
-142.89515377287
 30
0.0
 10
112.8137857790882
 20
-142.89515377287
 30
0.0
 10
113.6488769247128
 20
-143.309254250197
 30
0.0
 10
114.2703721502519
 20
-144.136766185754
 30
0.0
 10
114.8918673757909
 20
-144.964278121311
 30
0.0
 10
115.2026149885605
 20
-146.0787665107893
 30
0.0
 10
115.2026149885605
 20
-147.4795423350919
 30
0.0
  0
SPLINE
  5
B8
330
96
100
AcDbEntity
  8
Layer 1
370
     0
100
AcDbSpline
210
0.0
220
0.0
230
1.0
 70
    11
 71
     3
 72
    26
 73
    22
 74
     0
 42
0.000000001
 43
0.0000000001
 40
0.0
 40
0.0
 40
0.0
 40
0.0
 40
1.0
 40
1.0
 40
1.0
 40
2.0
 40
2.0
 40
2.0
 40
3.0
 40
3.0
 40
3.0
 40
4.0
 40
4.0
 40
4.0
 40
5.0
 40
5.0
 40
5.0
 40
6.0
 40
6.0
 40
6.0
 40
7.0
 40
7.0
 40
7.0
 40
7.0
 10
112.6484211957962
 20
-147.5002129080034
 30
0.0
 10
112.6484211957962
 20
-145.8854966540668
 30
0.0
 10
112.3569661177441
 20
-145.0779662723243
 30
0.0
 10
111.7754339998339
 20
-145.0779662723243
 30
0.0
 10
111.4839789217818
 20
-145.0779662723243
 30
0.0
 10
111.2517794860759
 20
-145.2901841542157
 30
0.0
 10
111.0788356927164
 20
-145.7139308989014
 30
0.0
 10
110.9100260139392
 20
-146.1070162937684
 30
0.0
 10
110.825276665002
 20
-146.6851033161933
 30
0.0
 10
110.825276665002
 20
-147.4481919661762
 30
0.0
 10
110.825276665002
 20
-148.1999118010577
 30
0.0
 10
110.9052028802598
 20
-148.7828219571619
 30
0.0
 10
111.0643662916784
 20
-149.1967501797147
 30
0.0
 10
111.2235297030969
 20
-149.6115396761388
 30
0.0
 10
111.4447048332499
 20
-149.8182454052538
 30
0.0
 10
111.7278916821375
 20
-149.8182454052538
 30
0.0
 10
112.0186577410926
 20
-149.8182454052538
 30
0.0
 10
112.2432779667309
 20
-149.614295752527
 30
0.0
 10
112.4003743208582
 20
-149.2057074279764
 30
0.0
 10
112.5657389041502
 20
-148.7972913582
 30
0.0
 10
112.6484211957962
 20
-148.2288506031338
 30
0.0
 10
112.6484211957962
 20
-147.5002129080034
 30
0.0
  0
SPLINE
  5
B9
330
96
100
AcDbEntity
  8
Layer 1
370
     0
100
AcDbSpline
210
0.0
220
0.0
230
1.0
 70
    11
 71
     3
 72
    62
 73
    58
 74
     0
 42
0.000000001
 43
0.0000000001
 40
0.0
 40
0.0
 40
0.0
 40
0.0
 40
1.0
 40
1.0
 40
1.0
 40
2.0
 40
2.0
 40
2.0
 40
3.0
 40
3.0
 40
3.0
 40
4.0
 40
4.0
 40
4.0
 40
5.0
 40
5.0
 40
5.0
 40
6.0
 40
6.0
 40
6.0
 40
7.0
 40
7.0
 40
7.0
 40
8.0
 40
8.0
 40
8.0
 40
9.0
 40
9.0
 40
9.0
 40
10.0
 40
10.0
 40
10.0
 40
11.0
 40
11.0
 40
11.0
 40
12.0
 40
12.0
 40
12.0
 40
13.0
 40
13.0
 40
13.0
 40
14.0
 40
14.0
 40
14.0
 40
15.0
 40
15.0
 40
15.0
 40
16.0
 40
16.0
 40
16.0
 40
17.0
 40
17.0
 40
17.0
 40
18.0
 40
18.0
 40
18.0
 40
19.0
 40
19.0
 40
19.0
 40
19.0
 10
115.4244791378106
 20
-152.0010579047081
 30
0.0
 10
115.4244791378106
 20
-152.0010579047081
 30
0.0
 10
115.4244791378106
 20
-142.89515377287
 30
0.0
 10
115.4244791378106
 20
-142.89515377287
 30
0.0
 10
115.4244791378106
 20
-142.89515377287
 30
0.0
 10
117.7705891632657
 20
-142.89515377287
 30
0.0
 10
117.7705891632657
 20
-142.89515377287
 30
0.0
 10
117.7705891632657
 20
-142.89515377287
 30
0.0
 10
118.9832627740736
 20
-146.0928914022789
 30
0.0
 10
118.9832627740736
 20
-146.0928914022789
 30
0.0
 10
119.0487195882934
 20
-146.2816826348705
 30
0.0
 10
119.1231336507748
 20
-146.4980346313442
 30
0.0
 10
119.2065049615178
 20
-146.7419473916999
 30
0.0
 10
119.2898762722609
 20
-146.9858601520556
 30
0.0
 10
119.3815158121685
 20
-147.266979943652
 30
0.0
 10
119.4828016194349
 20
-147.5853067664891
 30
0.0
 10
119.4828016194349
 20
-147.5853067664891
 30
0.0
 10
119.7363606471493
 20
-148.3876695050038
 30
0.0
 10
119.7363606471493
 20
-148.3876695050038
 30
0.0
 10
119.6460991454357
 20
-147.5973646006875
 30
0.0
 10
119.5771972357307
 20
-146.9207478473844
 30
0.0
 10
119.5296549180343
 20
-146.3581637546431
 30
0.0
 10
119.4828016194349
 20
-145.7959241714503
 30
0.0
 10
119.4593749701352
 20
-145.3239460899711
 30
0.0
 10
119.4593749701352
 20
-144.9422295102054
 30
0.0
 10
119.4593749701352
 20
-144.9422295102054
 30
0.0
 10
119.4593749701352
 20
-142.89515377287
 30
0.0
 10
119.4593749701352
 20
-142.89515377287
 30
0.0
 10
119.4593749701352
 20
-142.89515377287
 30
0.0
 10
121.8406249695398
 20
-142.89515377287
 30
0.0
 10
121.8406249695398
 20
-142.89515377287
 30
0.0
 10
121.8406249695398
 20
-142.89515377287
 30
0.0
 10
121.8406249695398
 20
-152.0010579047081
 30
0.0
 10
121.8406249695398
 20
-152.0010579047081
 30
0.0
 10
121.8406249695398
 20
-152.0010579047081
 30
0.0
 10
119.4593749701352
 20
-152.0010579047081
 30
0.0
 10
119.4593749701352
 20
-152.0010579047081
 30
0.0
 10
119.4593749701352
 20
-152.0010579047081
 30
0.0
 10
118.1695312204576
 20
-148.6501857809798
 30
0.0
 10
118.1695312204576
 20
-148.6501857809798
 30
0.0
 10
118.0344834774358
 20
-148.2925848696109
 30
0.0
 10
117.912527097258
 20
-147.9573770788961
 30
0.0
 10
117.8043510990211
 20
-147.6445624088354
 30
0.0
 10
117.6954860816872
 20
-147.3317477387747
 30
0.0
 10
117.6004014462944
 20
-147.0337469793006
 30
0.0
 10
117.5190971928425
 20
-146.750560130413
 30
0.0
 10
117.6183159428176
 20
-147.3916924002181
 30
0.0
 10
117.6906629480079
 20
-147.9501423783771
 30
0.0
 10
117.7368272275102
 20
-148.42591006489
 30
0.0
 10
117.7823024879155
 20
-148.9018500061773
 30
0.0
 10
117.8057291372152
 20
-149.3187065598925
 30
0.0
 10
117.8057291372152
 20
-149.6769964903585
 30
0.0
 10
117.8057291372152
 20
-149.6769964903585
 30
0.0
 10
117.8057291372152
 20
-152.0010579047081
 30
0.0
 10
117.8057291372152
 20
-152.0010579047081
 30
0.0
 10
117.8057291372152
 20
-152.0010579047081
 30
0.0
 10
115.4244791378106
 20
-152.0010579047081
 30
0.0
 10
115.4244791378106
 20
-152.0010579047081
 30
0.0
  0
SPLINE
  5
BA
330
96
100
AcDbEntity
  8
Layer 1
370
     0
100
AcDbSpline
210
0.0
220
0.0
230
1.0
 70
    11
 71
     3
 72
    68
 73
    64
 74
     0
 42
0.000000001
 43
0.0000000001
 40
0.0
 40
0.0
 40
0.0
 40
0.0
 40
1.0
 40
1.0
 40
1.0
 40
2.0
 40
2.0
 40
2.0
 40
3.0
 40
3.0
 40
3.0
 40
4.0
 40
4.0
 40
4.0
 40
5.0
 40
5.0
 40
5.0
 40
6.0
 40
6.0
 40
6.0
 40
7.0
 40
7.0
 40
7.0
 40
8.0
 40
8.0
 40
8.0
 40
9.0
 40
9.0
 40
9.0
 40
10.0
 40
10.0
 40
10.0
 40
11.0
 40
11.0
 40
11.0
 40
12.0
 40
12.0
 40
12.0
 40
13.0
 40
13.0
 40
13.0
 40
14.0
 40
14.0
 40
14.0
 40
15.0
 40
15.0
 40
15.0
 40
16.0
 40
16.0
 40
16.0
 40
17.0
 40
17.0
 40
17.0
 40
18.0
 40
18.0
 40
18.0
 40
19.0
 40
19.0
 40
19.0
 40
20.0
 40
20.0
 40
20.0
 40
21.0
 40
21.0
 40
21.0
 40
21.0
 10
125.5468586925716
 20
-146.7316121052442
 30
0.0
 10
125.5468586925716
 20
-146.7316121052442
 30
0.0
 10
128.9802408531716
 20
-146.7316121052442
 30
0.0
 10
128.9802408531716
 20
-146.7316121052442
 30
0.0
 10
128.9802408531716
 20
-146.7316121052442
 30
0.0
 10
128.9802408531716
 20
-147.0981702648748
 30
0.0
 10
128.9802408531716
 20
-147.0981702648748
 30
0.0
 10
128.9802408531716
 20
-148.8014254727823
 30
0.0
 10
128.7187581058411
 20
-150.0270181916599
 30
0.0
 10
128.1957926111802
 20
-150.7752929310562
 30
0.0
 10
127.6252847988228
 20
-151.5924695801575
 30
0.0
 10
126.7815809144852
 20
-152.0010579047081
 30
0.0
 10
125.6646809581672
 20
-152.0010579047081
 30
0.0
 10
124.5670735365666
 20
-152.0010579047081
 30
0.0
 10
123.7057996652541
 20
-151.6028048666132
 30
0.0
 10
123.0805148346813
 20
-150.8056097713264
 30
0.0
 10
122.4590196091422
 20
-150.000835465972
 30
0.0
 10
122.1486165059212
 20
-148.8956488343039
 30
0.0
 10
122.1486165059212
 20
-147.4909111501933
 30
0.0
 10
122.1486165059212
 20
-146.067397695688
 30
0.0
 10
122.4610866664333
 20
-144.9453300961422
 30
0.0
 10
123.0863714970062
 20
-144.1253973706527
 30
0.0
 10
123.711656327579
 20
-143.3054646451632
 30
0.0
 10
124.5670735365666
 20
-142.89515377287
 30
0.0
 10
125.6529676335173
 20
-142.89515377287
 30
0.0
 10
127.0923285272547
 20
-142.89515377287
 30
0.0
 10
128.1365369688339
 20
-143.6423949836206
 30
0.0
 10
128.785592958255
 20
-145.136877405122
 30
0.0
 10
128.785592958255
 20
-145.136877405122
 30
0.0
 10
126.4022759015592
 20
-146.0102091106329
 30
0.0
 10
126.4022759015592
 20
-146.0102091106329
 30
0.0
 10
126.3667914180611
 20
-145.7232326567116
 30
0.0
 10
126.2851426550607
 20
-145.4962008642336
 30
0.0
 10
126.1573296125579
 20
-145.3287692236505
 30
0.0
 10
126.0295165700551
 20
-145.1616820926158
 30
0.0
 10
125.869319629991
 20
-145.0779662723243
 30
0.0
 10
125.676394282817
 20
-145.0779662723243
 30
0.0
 10
124.9997775295139
 20
-145.0779662723243
 30
0.0
 10
124.6618136624109
 20
-145.9512979778351
 30
0.0
 10
124.6618136624109
 20
-147.6972723697597
 30
0.0
 10
124.6618136624109
 20
-148.4393459372825
 30
0.0
 10
124.7362277248923
 20
-148.9783311259499
 30
0.0
 10
124.8857448689522
 20
-149.3145724453103
 30
0.0
 10
125.035262013012
 20
-149.6508137646706
 30
0.0
 10
125.2733181110428
 20
-149.8182454052538
 30
0.0
 10
125.5999131630445
 20
-149.8182454052538
 30
0.0
 10
125.7294487532899
 20
-149.8182454052538
 30
0.0
 10
125.8476155284339
 20
-149.7906846413718
 30
0.0
 10
125.9537244693796
 20
-149.7348740945107
 30
0.0
 10
126.0598334103253
 20
-149.6790635476497
 30
0.0
 10
126.1494058929418
 20
-149.601204389683
 30
0.0
 10
126.2220974076806
 20
-149.4999185824167
 30
0.0
 10
126.2947889224194
 20
-149.3993217942474
 30
0.0
 10
126.3519775074745
 20
-149.2766763949725
 30
0.0
 10
126.3933186532975
 20
-149.1326714036891
 30
0.0
 10
126.4346597991205
 20
-148.9879773933086
 30
0.0
 10
126.455330372032
 20
-148.8272636889217
 30
0.0
 10
126.455330372032
 20
-148.6498412714313
 30
0.0
 10
126.455330372032
 20
-148.6498412714313
 30
0.0
 10
125.5468586925716
 20
-148.6498412714313
 30
0.0
 10
125.5468586925716
 20
-148.6498412714313
 30
0.0
 10
125.5468586925716
 20
-148.6498412714313
 30
0.0
 10
125.5468586925716
 20
-146.7316121052442
 30
0.0
 10
125.5468586925716
 20
-146.7316121052442
 30
0.0
  0
ENDBLK
  5
99
330
96
100
AcDbEntity
  8
0
100
AcDbBlockEnd
  0
ENDSEC
  0
SECTION
  2
ENTITIES
  0
POLYLINE
  5
19D
330
1F
100
AcDbEntity
  8
Layer 1
370
     0
100
AcDb2dPolyline
 66
     1
 10
0.0
 20
0.0
 30
0.0
  0
VERTEX
  5
19E
330
19D
100
AcDbEntity
  8
Layer 1
370
     0
100
AcDbVertex
100
AcDb2dVertex
 10
859.048342563027
 20
254.2746252089851
 30
0.0
  0
VERTEX
  5
19F
330
19D
100
AcDbEntity
  8
Layer 1
370
     0
100
AcDbVertex
100
AcDb2dVertex
 10
859.048342563027
 20
262.9838265956976
 30
0.0
  0
VERTEX
  5
1A0
330
19D
100
AcDbEntity
  8
Layer 1
370
     0
100
AcDbVertex
100
AcDb2dVertex
 10
850.1393256381708
 20
271.245165569326
 30
0.0
  0
VERTEX
  5
1A1
330
19D
100
AcDbEntity
  8
Layer 1
370
     0
100
AcDbVertex
100
AcDb2dVertex
 10
840.830677637026
 20
262.9838265956976
 30
0.0
  0
VERTEX
  5
1A2
330
19D
100
AcDbEntity
  8
Layer 1
370
     0
100
AcDbVertex
100
AcDb2dVertex
 10
840.830677637026
 20
281.6769146986619
 30
0.0
  0
VERTEX
  5
1A3
330
19D
100
AcDbEntity
  8
Layer 1
370
     0
100
AcDbVertex
100
AcDb2dVertex
 10
826.3474962170361
 20
281.6769146986619
 30
0.0
  0
VERTEX
  5
1A4
330
19D
100
AcDbEntity
  8
Layer 1
370
     0
100
AcDbVertex
100
AcDb2dVertex
 10
826.3474962170361
 20
263.6866260746881
 30
0.0
  0
VERTEX
  5
1A5
330
19D
100
AcDbEntity
  8
Layer 1
370
     0
100
AcDbVertex
100
AcDb2dVertex
 10
824.0186116690071
 20
263.6866260746881
 30
0.0
  0
VERTEX
  5
1A6
330
19D
100
AcDbEntity
  8
Layer 1
370
     0
100
AcDbVertex
100
AcDb2dVertex
 10
824.0186116690071
 20
312.3796056632093
 30
0.0
  0
VERTEX
  5
1A7
330
19D
100
AcDbEntity
  8
Layer 1
370
     0
100
AcDbVertex
100
AcDb2dVertex
 10
808.9979953533178
 20
312.3796056632093
 30
0.0
  0
VERTEX
  5
1A8
330
19D
100
AcDbEntity
  8
Layer 1
370
     0
100
AcDbVertex
100
AcDb2dVertex
 10
808.9979953533178
 20
272.2580236419892
 30
0.0
  0
VERTEX
  5
1A9
330
19D
100
AcDbEntity
  8
Layer 1
370
     0
100
AcDbVertex
100
AcDb2dVertex
 10
805.9525309443569
 20
272.2580236419892
 30
0.0
  0
VERTEX
  5
1AA
330
19D
100
AcDbEntity
  8
Layer 1
370
     0
100
AcDbVertex
100
AcDb2dVertex
 10
805.9525309443569
 20
299.6637582271521
 30
0.0
  0
VERTEX
  5
1AB
330
19D
100
AcDbEntity
  8
Layer 1
370
     0
100
AcDbVertex
100
AcDb2dVertex
 10
791.1110595939009
 20
299.6637582271521
 30
0.0
  0
VERTEX
  5
1AC
330
19D
100
AcDbEntity
  8
Layer 1
370
     0
100
AcDbVertex
100
AcDb2dVertex
 10
791.1110595939009
 20
275.980449313802
 30
0.0
  0
VERTEX
  5
1AD
330
19D
100
AcDbEntity
  8
Layer 1
370
     0
100
AcDbVertex
100
AcDb2dVertex
 10
785.915855602144
 20
275.980449313802
 30
0.0
  0
VERTEX
  5
1AE
330
19D
100
AcDbEntity
  8
Layer 1
370
     0
100
AcDbVertex
100
AcDb2dVertex
 10
785.915855602144
 20
262.9838265956976
 30
0.0
  0
VERTEX
  5
1AF
330
19D
100
AcDbEntity
  8
Layer 1
370
     0
100
AcDbVertex
100
AcDb2dVertex
 10
780.7275418013568
 20
259.4422684368603
 30
0.0
  0
VERTEX
  5
1B0
330
19D
100
AcDbEntity
  8
Layer 1
370
     0
100
AcDbVertex
100
AcDb2dVertex
 10
780.7275418013568
 20
267.179952896731
 30
0.0
  0
VERTEX
  5
1B1
330
19D
100
AcDbEntity
  8
Layer 1
370
     0
100
AcDbVertex
100
AcDb2dVertex
 10
772.8520535220761
 20
267.179952896731
 30
0.0
  0
VERTEX
  5
1B2
330
19D
100
AcDbEntity
  8
Layer 1
370
     0
100
AcDbVertex
100
AcDb2dVertex
 10
772.8520535220761
 20
256.8791173958343
 30
0.0
  0
VERTEX
  5
1B3
330
19D
100
AcDbEntity
  8
Layer 1
370
     0
100
AcDbVertex
100
AcDb2dVertex
 10
768.9246446688909
 20
256.8791173958343
 30
0.0
  0
VERTEX
  5
1B4
330
19D
100
AcDbEntity
  8
Layer 1
370
     0
100
AcDbVertex
100
AcDb2dVertex
 10
768.9246446688909
 20
230.8100798589478
 30
0.0
  0
VERTEX
  5
1B5
330
19D
100
AcDbEntity
  8
Layer 1
370
     0
100
AcDbVertex
100
AcDb2dVertex
 10
784.544707599014
 20
215.3898324669703
 30
0.0
  0
VERTEX
  5
1B6
330
19D
100
AcDbEntity
  8
Layer 1
370
     0
100
AcDbVertex
100
AcDb2dVertex
 10
846.9767279827121
 20
215.3898324669703
 30
0.0
  0
VERTEX
  5
1B7
330
19D
100
AcDbEntity
  8
Layer 1
370
     0
100
AcDbVertex
100
AcDb2dVertex
 10
863.1962375272682
 20
230.7205073763319
 30
0.0
  0
VERTEX
  5
1B8
330
19D
100
AcDbEntity
  8
Layer 1
370
     0
100
AcDbVertex
100
AcDb2dVertex
 10
863.1962375272682
 20
254.2746252089851
 30
0.0
  0
VERTEX
  5
1B9
330
19D
100
AcDbEntity
  8
Layer 1
370
     0
100
AcDbVertex
100
AcDb2dVertex
 10
859.048342563027
 20
254.2746252089851
 30
0.0
  0
SEQEND
  5
1BA
330
19D
100
AcDbEntity
  8
Layer 1
370
     0
  0
INSERT
  5
1BB
330
1F
100
AcDbEntity
  8
Layer 1
100
AcDbBlockReference
  2
block 2
 10
-555.259816805618
 20
1762.4823071236
 30
0.0
 41
10.0
 42
10.0
 43
10.0
  0
INSERT
  5
1BC
330
1F
100
AcDbEntity
  8
Layer 1
100
AcDbBlockReference
  2
block 3
 10
-555.259816805618
 20
1762.4823071236
 30
0.0
 41
10.0
 42
10.0
 43
10.0
  0
ENDSEC
  0
SECTION
  2
OBJECTS
  0
DICTIONARY
  5
C
330
0
100
AcDbDictionary
281
     1
  3
ACAD_DETAILVIEWSTYLE
350
1C9
  3
ACAD_GROUP
350
D
  3
ACAD_IMAGE_VARS
350
F8
  3
ACAD_LAYOUT
350
1A
  3
ACAD_MATERIAL
350
E5
  3
ACAD_MLEADERSTYLE
350
F4
  3
ACAD_MLINESTYLE
350
17
  3
ACAD_PLOTSETTINGS
350
19
  3
ACAD_PLOTSTYLENAME
350
E
  3
ACAD_SCALELIST
350
C3
  3
ACAD_SECTIONVIEWSTYLE
350
1CA
  3
ACAD_TABLESTYLE
350
C2
  3
ACAD_VISUALSTYLE
350
1EE
  3
ACDB_RECOMPOSE_DATA
350
2D0
  3
AcDbVariableDictionary
350
1BE
  3
APPDATA
350
F6
  0
SUN
  5
207
330
29
100
AcDbSun
 90
        1
290
     0
 63
     7
421
 16777215
 40
1.0
291
     1
 91
  2455826
 92
 54000000
292
     0
 70
     2
 71
   256
280
     1
  0
DICTIONARY
  5
1C9
102
{ACAD_REACTORS
330
C
102
}
330
C
100
AcDbDictionary
281
     1
  0
DICTIONARY
  5
D
102
{ACAD_REACTORS
330
C
102
}
330
C
100
AcDbDictionary
281
     1
  0
RASTERVARIABLES
  5
F8
102
{ACAD_REACTORS
330
C
102
}
330
C
100
AcDbRasterVariables
 90
        0
 70
     1
 71
     1
 72
     5
  0
DICTIONARY
  5
1A
102
{ACAD_REACTORS
330
C
102
}
330
C
100
AcDbDictionary
281
     1
  3
Layout1
350
1E
  3
Layout2
350
26
  3
Model
350
22
  0
DICTIONARY
  5
E5
102
{ACAD_REACTORS
330
C
102
}
330
C
100
AcDbDictionary
281
     1
  3
ByBlock
350
E7
  3
ByLayer
350
E6
  3
Global
350
E8
  0
DICTIONARY
  5
F4
102
{ACAD_REACTORS
330
C
102
}
330
C
100
AcDbDictionary
281
     1
  3
Standard
350
F5
  0
DICTIONARY
  5
17
102
{ACAD_REACTORS
330
C
102
}
330
C
100
AcDbDictionary
281
     1
  3
Standard
350
18
  0
DICTIONARY
  5
19
102
{ACAD_REACTORS
330
C
102
}
330
C
100
AcDbDictionary
281
     1
  0
ACDBDICTIONARYWDFLT
  5
E
102
{ACAD_REACTORS
330
C
102
}
330
C
100
AcDbDictionary
281
     1
  3
Normal
350
F
100
AcDbDictionaryWithDefault
340
F
  0
DICTIONARY
  5
C3
102
{ACAD_REACTORS
330
C
102
}
330
C
100
AcDbDictionary
281
     1
  3
*A1
350
103
  3
A0
350
C4
  3
A1
350
C5
  3
A2
350
C6
  3
A3
350
C7
  3
A4
350
C8
  3
A5
350
C9
  3
A6
350
CA
  3
A7
350
CB
  3
A8
350
CC
  3
A9
350
CD
  3
B0
350
CE
  3
B1
350
CF
  3
B2
350
D0
  3
B3
350
D1
  3
B4
350
D2
  3
B5
350
D3
  3
B6
350
D4
  3
B7
350
D5
  3
B8
350
D6
  3
B9
350
D7
  3
C0
350
D8
  3
C1
350
D9
  3
C2
350
DA
  3
C3
350
DB
  3
C4
350
DC
  3
C5
350
DD
  3
C6
350
DE
  3
C7
350
DF
  3
C8
350
E0
  3
C9
350
E1
  3
D0
350
E2
  3
D1
350
E3
  3
D2
350
E4
  0
DICTIONARY
  5
1CA
102
{ACAD_REACTORS
330
C
102
}
330
C
100
AcDbDictionary
281
     1
  0
DICTIONARY
  5
C2
102
{ACAD_REACTORS
330
C
102
}
330
C
100
AcDbDictionary
281
     1
  3
Standard
350
F3
  0
DICTIONARY
  5
1EE
102
{ACAD_REACTORS
330
C
102
}
330
C
100
AcDbDictionary
281
     1
  3
2dWireframe
350
1F3
  3
Basic
350
1F6
  3
Brighten
350
1FA
  3
ColorChange
350
1FE
  3
Conceptual
350
1F8
  3
Dim
350
1F9
  3
EdgeColorOff
350
201
  3
Facepattern
350
1FD
  3
Flat
350
1EF
  3
FlatWithEdges
350
1F0
  3
Gouraud
350
1F1
  3
GouraudWithEdges
350
1F2
  3
Hidden
350
1F5
  3
JitterOff
350
1FF
  3
Linepattern
350
1FC
  3
OverhangOff
350
200
  3
Realistic
350
1F7
  3
Shaded
350
206
  3
Shaded with edges
350
205
  3
Shades of Gray
350
202
  3
Sketchy
350
203
  3
Thicken
350
1FB
  3
Wireframe
350
1F4
  3
X-Ray
350
204
  0
XRECORD
  5
2D0
102
{ACAD_REACTORS
330
C
102
}
330
C
100
AcDbXrecord
280
     1
 90
        1
330
F3
  0
DICTIONARY
  5
1BE
102
{ACAD_REACTORS
330
C
102
}
330
C
100
AcDbDictionary
281
     1
  3
CANNOSCALE
350
1BF
  3
CMLEADERSTYLE
350
1C6
  3
CTABLESTYLE
350
1C5
  3
MSLTSCALE
350
1C7
  3
XCLIPFRAME
350
1C8
  0
DICTIONARY
  5
F6
102
{ACAD_REACTORS
330
C
102
}
330
C
100
AcDbDictionary
281
     1
  0
LAYOUT
  5
1E
102
{ACAD_REACTORS
330
1A
102
}
330
1A
100
AcDbPlotSettings
  1

  2
none_device
  4

  6

 40
0.0
 41
0.0
 42
0.0
 43
0.0
 44
0.0
 45
0.0
 46
0.0
 47
0.0
 48
0.0
 49
0.0
140
0.0
141
0.0
142
1.0
143
1.0
 70
   688
 72
     0
 73
     0
 74
     5
  7

 75
    16
 76
     0
 77
     2
 78
   300
147
1.0
148
0.0
149
0.0
100
AcDbLayout
  1
Layout1
 70
     1
 71
     1
 10
0.0
 20
0.0
 11
12.0
 21
9.0
 12
0.0
 22
0.0
 32
0.0
 14
1.000000000000000E+20
 24
1.000000000000000E+20
 34
1.000000000000000E+20
 15
-1.000000000000000E+20
 25
-1.000000000000000E+20
 35
-1.000000000000000E+20
146
0.0
 13
0.0
 23
0.0
 33
0.0
 16
1.0
 26
0.0
 36
0.0
 17
0.0
 27
1.0
 37
0.0
 76
     0
330
1B
  0
LAYOUT
  5
26
102
{ACAD_REACTORS
330
1A
102
}
330
1A
100
AcDbPlotSettings
  1

  2
none_device
  4

  6

 40
0.0
 41
0.0
 42
0.0
 43
0.0
 44
0.0
 45
0.0
 46
0.0
 47
0.0
 48
0.0
 49
0.0
140
0.0
141
0.0
142
1.0
143
1.0
 70
   688
 72
     0
 73
     0
 74
     5
  7

 75
    16
 76
     0
 77
     2
 78
   300
147
1.0
148
0.0
149
0.0
100
AcDbLayout
  1
Layout2
 70
     1
 71
     2
 10
0.0
 20
0.0
 11
0.0
 21
0.0
 12
0.0
 22
0.0
 32
0.0
 14
0.0
 24
0.0
 34
0.0
 15
0.0
 25
0.0
 35
0.0
146
0.0
 13
0.0
 23
0.0
 33
0.0
 16
1.0
 26
0.0
 36
0.0
 17
0.0
 27
1.0
 37
0.0
 76
     0
330
23
  0
LAYOUT
  5
22
102
{ACAD_REACTORS
330
1A
102
}
330
1A
100
AcDbPlotSettings
  1

  2
none_device
  4

  6

 40
0.0
 41
0.0
 42
0.0
 43
0.0
 44
0.0
 45
0.0
 46
0.0
 47
0.0
 48
0.0
 49
0.0
140
0.0
141
0.0
142
1.0
143
1.0
 70
  1712
 72
     0
 73
     0
 74
     0
  7

 75
     0
 76
     0
 77
     2
 78
   300
147
1.0
148
0.0
149
0.0
100
AcDbLayout
  1
Model
 70
     1
 71
     0
 10
0.0
 20
0.0
 11
12.0
 21
9.0
 12
0.0
 22
0.0
 32
0.0
 14
119.0125490197376
 24
206.9183426687414
 34
0.0
 15
872.0708034972721
 25
353.0213971027013
 35
0.0
146
0.0
 13
0.0
 23
0.0
 33
0.0
 16
1.0
 26
0.0
 36
0.0
 17
0.0
 27
1.0
 37
0.0
 76
     0
330
1F
331
29
  0
MATERIAL
  5
E7
102
{ACAD_REACTORS
330
E5
102
}
330
E5
100
AcDbMaterial
  1
ByBlock
 72
     1
 94
      127
  0
MATERIAL
  5
E6
102
{ACAD_REACTORS
330
E5
102
}
330
E5
100
AcDbMaterial
  1
ByLayer
 72
     1
 94
      127
  0
MATERIAL
  5
E8
102
{ACAD_REACTORS
330
E5
102
}
330
E5
100
AcDbMaterial
  1
Global
 72
     1
 94
      127
  0
MLEADERSTYLE
  5
F5
102
{ACAD_REACTORS
330
F4
102
}
330
F4
100
AcDbMLeaderStyle
170
     2
171
     1
172
     0
 90
        2
 40
0.0
 41
0.0
173
     1
 91
-1056964608
340
14
 92
       -2
290
     1
 42
0.09
291
     1
 43
0.36
  3
Standard
341
0
 44
0.18
300

342
11
174
     1
178
     6
175
     1
176
     0
 93
-1056964608
 45
0.18
292
     0
297
     0
 46
0.18
343
0
 94
-1056964608
 47
1.0
 49
1.0
140
1.0
293
     1
141
0.0
294
     1
177
     0
142
1.0
295
     0
296
     0
143
0.125
1001
ACAD_MLEADERVER
1070
     2
  0
MLINESTYLE
  5
18
102
{ACAD_REACTORS
330
17
102
}
330
17
100
AcDbMlineStyle
  2
Standard
 70
     0
  3

 62
   256
 51
90.0
 52
90.0
 71
     2
 49
0.5
 62
   256
  6
BYLAYER
 49
-0.5
 62
   256
  6
BYLAYER
  0
ACDBPLACEHOLDER
  5
F
102
{ACAD_REACTORS
330
E
102
}
330
E
  0
SCALE
  5
103
102
{ACAD_REACTORS
330
C3
102
}
330
C3
100
AcDbScale
 70
     0
300
1:1_XREF_XREF
140
1.0
141
1.0
290
     0
  0
SCALE
  5
C4
102
{ACAD_REACTORS
330
C3
102
}
330
C3
100
AcDbScale
 70
     0
300
1:1
140
1.0
141
1.0
290
     1
  0
SCALE
  5
C5
102
{ACAD_REACTORS
330
C3
102
}
330
C3
100
AcDbScale
 70
     0
300
1:2
140
1.0
141
2.0
290
     0
  0
SCALE
  5
C6
102
{ACAD_REACTORS
330
C3
102
}
330
C3
100
AcDbScale
 70
     0
300
1:4
140
1.0
141
4.0
290
     0
  0
SCALE
  5
C7
102
{ACAD_REACTORS
330
C3
102
}
330
C3
100
AcDbScale
 70
     0
300
1:5
140
1.0
141
5.0
290
     0
  0
SCALE
  5
C8
102
{ACAD_REACTORS
330
C3
102
}
330
C3
100
AcDbScale
 70
     0
300
1:8
140
1.0
141
8.0
290
     0
  0
SCALE
  5
C9
102
{ACAD_REACTORS
330
C3
102
}
330
C3
100
AcDbScale
 70
     0
300
1:10
140
1.0
141
10.0
290
     0
  0
SCALE
  5
CA
102
{ACAD_REACTORS
330
C3
102
}
330
C3
100
AcDbScale
 70
     0
300
1:16
140
1.0
141
16.0
290
     0
  0
SCALE
  5
CB
102
{ACAD_REACTORS
330
C3
102
}
330
C3
100
AcDbScale
 70
     0
300
1:20
140
1.0
141
20.0
290
     0
  0
SCALE
  5
CC
102
{ACAD_REACTORS
330
C3
102
}
330
C3
100
AcDbScale
 70
     0
300
1:30
140
1.0
141
30.0
290
     0
  0
SCALE
  5
CD
102
{ACAD_REACTORS
330
C3
102
}
330
C3
100
AcDbScale
 70
     0
300
1:40
140
1.0
141
40.0
290
     0
  0
SCALE
  5
CE
102
{ACAD_REACTORS
330
C3
102
}
330
C3
100
AcDbScale
 70
     0
300
1:50
140
1.0
141
50.0
290
     0
  0
SCALE
  5
CF
102
{ACAD_REACTORS
330
C3
102
}
330
C3
100
AcDbScale
 70
     0
300
1:100
140
1.0
141
100.0
290
     0
  0
SCALE
  5
D0
102
{ACAD_REACTORS
330
C3
102
}
330
C3
100
AcDbScale
 70
     0
300
2:1
140
2.0
141
1.0
290
     0
  0
SCALE
  5
D1
102
{ACAD_REACTORS
330
C3
102
}
330
C3
100
AcDbScale
 70
     0
300
4:1
140
4.0
141
1.0
290
     0
  0
SCALE
  5
D2
102
{ACAD_REACTORS
330
C3
102
}
330
C3
100
AcDbScale
 70
     0
300
8:1
140
8.0
141
1.0
290
     0
  0
SCALE
  5
D3
102
{ACAD_REACTORS
330
C3
102
}
330
C3
100
AcDbScale
 70
     0
300
10:1
140
10.0
141
1.0
290
     0
  0
SCALE
  5
D4
102
{ACAD_REACTORS
330
C3
102
}
330
C3
100
AcDbScale
 70
     0
300
100:1
140
100.0
141
1.0
290
     0
  0
SCALE
  5
D5
102
{ACAD_REACTORS
330
C3
102
}
330
C3
100
AcDbScale
 70
     0
300
1/128" = 1'-0"
140
0.0078125
141
12.0
290
     0
  0
SCALE
  5
D6
102
{ACAD_REACTORS
330
C3
102
}
330
C3
100
AcDbScale
 70
     0
300
1/64" = 1'-0"
140
0.015625
141
12.0
290
     0
  0
SCALE
  5
D7
102
{ACAD_REACTORS
330
C3
102
}
330
C3
100
AcDbScale
 70
     0
300
1/32" = 1'-0"
140
0.03125
141
12.0
290
     0
  0
SCALE
  5
D8
102
{ACAD_REACTORS
330
C3
102
}
330
C3
100
AcDbScale
 70
     0
300
1/16" = 1'-0"
140
0.0625
141
12.0
290
     0
  0
SCALE
  5
D9
102
{ACAD_REACTORS
330
C3
102
}
330
C3
100
AcDbScale
 70
     0
300
3/32" = 1'-0"
140
0.09375
141
12.0
290
     0
  0
SCALE
  5
DA
102
{ACAD_REACTORS
330
C3
102
}
330
C3
100
AcDbScale
 70
     0
300
1/8" = 1'-0"
140
0.125
141
12.0
290
     0
  0
SCALE
  5
DB
102
{ACAD_REACTORS
330
C3
102
}
330
C3
100
AcDbScale
 70
     0
300
3/16" = 1'-0"
140
0.1875
141
12.0
290
     0
  0
SCALE
  5
DC
102
{ACAD_REACTORS
330
C3
102
}
330
C3
100
AcDbScale
 70
     0
300
1/4" = 1'-0"
140
0.25
141
12.0
290
     0
  0
SCALE
  5
DD
102
{ACAD_REACTORS
330
C3
102
}
330
C3
100
AcDbScale
 70
     0
300
3/8" = 1'-0"
140
0.375
141
12.0
290
     0
  0
SCALE
  5
DE
102
{ACAD_REACTORS
330
C3
102
}
330
C3
100
AcDbScale
 70
     0
300
1/2" = 1'-0"
140
0.5
141
12.0
290
     0
  0
SCALE
  5
DF
102
{ACAD_REACTORS
330
C3
102
}
330
C3
100
AcDbScale
 70
     0
300
3/4" = 1'-0"
140
0.75
141
12.0
290
     0
  0
SCALE
  5
E0
102
{ACAD_REACTORS
330
C3
102
}
330
C3
100
AcDbScale
 70
     0
300
1" = 1'-0"
140
1.0
141
12.0
290
     0
  0
SCALE
  5
E1
102
{ACAD_REACTORS
330
C3
102
}
330
C3
100
AcDbScale
 70
     0
300
1-1/2" = 1'-0"
140
1.5
141
12.0
290
     0
  0
SCALE
  5
E2
102
{ACAD_REACTORS
330
C3
102
}
330
C3
100
AcDbScale
 70
     0
300
3" = 1'-0"
140
3.0
141
12.0
290
     0
  0
SCALE
  5
E3
102
{ACAD_REACTORS
330
C3
102
}
330
C3
100
AcDbScale
 70
     0
300
6" = 1'-0"
140
6.0
141
12.0
290
     0
  0
SCALE
  5
E4
102
{ACAD_REACTORS
330
C3
102
}
330
C3
100
AcDbScale
 70
     0
300
1'-0" = 1'-0"
140
12.0
141
12.0
290
     0
  0
TABLESTYLE
  5
F3
102
{ACAD_REACTORS
330
C2
102
}
102
{ACAD_XDICTIONARY
360
2CE
102
}
330
C2
100
AcDbTableStyle
  3
Standard
 70
     0
 71
     0
 40
0.06
 41
0.06
280
     0
281
     0
  7
Standard
140
0.18
170
     2
 62
     0
 63
   257
283
     0
 90
        4
 91
        0
  1

274
    -2
284
     1
 64
     0
275
    -2
285
     1
 65
     0
276
    -2
286
     1
 66
     0
277
    -2
287
     1
 67
     0
278
    -2
288
     1
 68
     0
279
    -2
289
     1
 69
     0
  7
Standard
140
0.25
170
     5
 62
     0
 63
   257
283
     0
 90
        4
 91
        0
  1

274
    -2
284
     1
 64
     0
275
    -2
285
     1
 65
     0
276
    -2
286
     1
 66
     0
277
    -2
287
     1
 67
     0
278
    -2
288
     1
 68
     0
279
    -2
289
     1
 69
     0
  7
Standard
140
0.18
170
     5
 62
     0
 63
   257
283
     0
 90
        4
 91
        0
  1

274
    -2
284
     1
 64
     0
275
    -2
285
     1
 65
     0
276
    -2
286
     1
 66
     0
277
    -2
287
     1
 67
     0
278
    -2
288
     1
 68
     0
279
    -2
289
     1
 69
     0
  0
VISUALSTYLE
  5
1F3
102
{ACAD_REACTORS
330
1EE
102
}
330
1EE
100
AcDbVisualStyle
  2
2dWireframe
 70
     4
 71
     0
 72
     2
 73
     0
 90
        0
 40
0.6
 41
30.0
 62
     5
 63
     7
421
 16777215
 74
     1
 91
        4
 64
     7
 65
   257
 75
     1
175
     1
 42
1.0
 92
        0
 66
   257
 43
1.0
 76
     1
 77
     6
 78
     2
 67
     7
 79
     5
170
     0
171
     0
290
     0
174
     0
 93
        1
 44
0.0
173
     0
291
     0
 45
0.0
  0
VISUALSTYLE
  5
1F6
102
{ACAD_REACTORS
330
1EE
102
}
330
1EE
100
AcDbVisualStyle
  2
Basic
 70
     7
 71
     1
 72
     0
 73
     1
 90
        0
 40
0.6
 41
30.0
 62
     5
 63
     7
421
 16777215
 74
     0
 91
        4
 64
     7
 65
   257
 75
     1
175
     1
 42
1.0
 92
        8
 66
     7
 43
1.0
 76
     1
 77
     6
 78
     2
 67
     7
 79
     5
170
     0
171
     0
290
     0
174
     0
 93
        1
 44
0.0
173
     0
291
     1
 45
0.0
  0
VISUALSTYLE
  5
1FA
102
{ACAD_REACTORS
330
1EE
102
}
330
1EE
100
AcDbVisualStyle
  2
Brighten
 70
    12
 71
     2
 72
     2
 73
     0
 90
        0
 40
0.6
 41
30.0
 62
     5
 63
     7
421
 16777215
 74
     1
 91
        4
 64
     7
 65
   257
 75
     1
175
     1
 42
1.0
 92
        8
 66
     7
 43
1.0
 76
     1
 77
     6
 78
     2
 67
     7
 79
     5
170
     0
171
     0
290
     0
174
     0
 93
        1
 44
50.0
173
     0
291
     1
 45
0.0
  0
VISUALSTYLE
  5
1FE
102
{ACAD_REACTORS
330
1EE
102
}
330
1EE
100
AcDbVisualStyle
  2
ColorChange
 70
    16
 71
     2
 72
     2
 73
     3
 90
        0
 40
0.6
 41
30.0
 62
     5
 63
     8
421
  8421504
 74
     1
 91
        4
 64
     7
 65
   257
 75
     1
175
     1
 42
1.0
 92
        8
 66
     8
424
  8421504
 43
1.0
 76
     1
 77
     6
 78
     2
 67
     7
 79
     5
170
     0
171
     0
290
     0
174
     0
 93
        1
 44
0.0
173
     0
291
     1
 45
0.0
  0
VISUALSTYLE
  5
1F8
102
{ACAD_REACTORS
330
1EE
102
}
330
1EE
100
AcDbVisualStyle
  2
Conceptual
 70
     9
 71
     3
 72
     2
 73
     0
 90
        0
 40
0.6
 41
30.0
 62
     5
 63
     7
421
 16777215
 74
     2
 91
        2
 64
     7
 65
   257
 75
     1
175
     1
 42
179.0
 92
        8
 66
     7
 43
1.0
 76
     1
 77
     6
 78
     2
 67
     7
 79
     3
170
     0
171
     0
290
     0
174
     0
 93
        1
 44
0.0
173
     0
291
     0
 45
0.0
  0
VISUALSTYLE
  5
1F9
102
{ACAD_REACTORS
330
1EE
102
}
330
1EE
100
AcDbVisualStyle
  2
Dim
 70
    11
 71
     2
 72
     2
 73
     0
 90
        0
 40
0.6
 41
30.0
 62
     5
 63
     7
421
 16777215
 74
     1
 91
        4
 64
     7
 65
   257
 75
     1
175
     1
 42
1.0
 92
        8
 66
     7
 43
1.0
 76
     1
 77
     6
 78
     2
 67
     7
 79
     5
170
     0
171
     0
290
     0
174
     0
 93
        1
 44
-50.0
173
     0
291
     1
 45
0.0
  0
VISUALSTYLE
  5
201
102
{ACAD_REACTORS
330
1EE
102
}
330
1EE
100
AcDbVisualStyle
  2
EdgeColorOff
 70
    22
 71
     2
 72
     2
 73
     0
 90
        0
 40
0.6
 41
30.0
 62
     5
 63
     7
421
 16777215
 74
     1
 91
        4
 64
     7
 65
   257
 75
     1
175
     1
 42
1.0
 92
        8
 66
     7
 43
1.0
 76
     1
 77
     6
 78
     2
 67
     7
 79
     5
170
     0
171
     0
290
     0
174
     0
 93
        1
 44
0.0
173
     0
291
     1
 45
0.0
  0
VISUALSTYLE
  5
1FD
102
{ACAD_REACTORS
330
1EE
102
}
330
1EE
100
AcDbVisualStyle
  2
Facepattern
 70
    15
 71
     2
 72
     2
 73
     0
 90
        0
 40
0.6
 41
30.0
 62
     5
 63
     7
421
 16777215
 74
     1
 91
        4
 64
     7
 65
   257
 75
     1
175
     1
 42
1.0
 92
        8
 66
     7
 43
1.0
 76
     1
 77
     6
 78
     2
 67
     7
 79
     5
170
     0
171
     0
290
     0
174
     0
 93
        1
 44
0.0
173
     0
291
     1
 45
0.0
  0
VISUALSTYLE
  5
1EF
102
{ACAD_REACTORS
330
1EE
102
}
330
1EE
100
AcDbVisualStyle
  2
Flat
 70
     0
 71
     2
 72
     1
 73
     1
 90
        2
 40
0.6
 41
30.0
 62
     5
 63
     7
421
 16777215
 74
     0
 91
        0
 64
     7
 65
   257
 75
     1
175
     1
 42
1.0
 92
        8
 66
     7
 43
1.0
 76
     1
 77
     6
 78
     2
 67
     7
 79
     5
170
     0
171
     0
290
     0
174
     0
 93
       13
 44
0.0
173
     0
291
     1
 45
0.0
  0
VISUALSTYLE
  5
1F0
102
{ACAD_REACTORS
330
1EE
102
}
330
1EE
100
AcDbVisualStyle
  2
FlatWithEdges
 70
     1
 71
     2
 72
     1
 73
     1
 90
        2
 40
0.6
 41
30.0
 62
     5
 63
     7
421
 16777215
 74
     1
 91
        0
 64
     7
 65
   257
 75
     1
175
     1
 42
1.0
 92
        0
 66
   257
 43
1.0
 76
     1
 77
     6
 78
     2
 67
     7
 79
     5
170
     0
171
     0
290
     0
174
     0
 93
       13
 44
0.0
173
     0
291
     1
 45
0.0
  0
VISUALSTYLE
  5
1F1
102
{ACAD_REACTORS
330
1EE
102
}
330
1EE
100
AcDbVisualStyle
  2
Gouraud
 70
     2
 71
     2
 72
     2
 73
     1
 90
        2
 40
0.6
 41
30.0
 62
     5
 63
     7
421
 16777215
 74
     0
 91
        0
 64
     7
 65
   257
 75
     1
175
     1
 42
1.0
 92
        0
 66
     7
 43
1.0
 76
     1
 77
     6
 78
     2
 67
     7
 79
     5
170
     0
171
     0
290
     0
174
     0
 93
       13
 44
0.0
173
     0
291
     1
 45
0.0
  0
VISUALSTYLE
  5
1F2
102
{ACAD_REACTORS
330
1EE
102
}
330
1EE
100
AcDbVisualStyle
  2
GouraudWithEdges
 70
     3
 71
     2
 72
     2
 73
     1
 90
        2
 40
0.6
 41
30.0
 62
     5
 63
     7
421
 16777215
 74
     1
 91
        0
 64
     7
 65
   257
 75
     1
175
     1
 42
1.0
 92
        0
 66
   257
 43
1.0
 76
     1
 77
     6
 78
     2
 67
     7
 79
     5
170
     0
171
     0
290
     0
174
     0
 93
       13
 44
0.0
173
     0
291
     1
 45
0.0
  0
VISUALSTYLE
  5
1F5
102
{ACAD_REACTORS
330
1EE
102
}
330
1EE
100
AcDbVisualStyle
  2
Hidden
 70
     6
 71
     1
 72
     2
 73
     2
 90
        0
 40
0.6
 41
30.0
 62
     5
 63
     7
421
 16777215
 74
     2
 91
        2
 64
     7
 65
   257
 75
     2
175
     1
 42
40.0
 92
        0
 66
   257
 43
1.0
 76
     1
 77
     6
 78
     2
 67
     7
 79
     3
170
     0
171
     0
290
     0
174
     0
 93
        1
 44
0.0
173
     0
291
     0
 45
0.0
  0
VISUALSTYLE
  5
1FF
102
{ACAD_REACTORS
330
1EE
102
}
330
1EE
100
AcDbVisualStyle
  2
JitterOff
 70
    20
 71
     2
 72
     2
 73
     0
 90
        0
 40
0.6
 41
30.0
 62
     5
 63
     7
421
 16777215
 74
     1
 91
        4
 64
     7
 65
   257
 75
     1
175
     1
 42
1.0
 92
       10
 66
     7
 43
1.0
 76
     1
 77
     6
 78
     2
 67
     7
 79
     5
170
     0
171
     0
290
     0
174
     0
 93
        1
 44
0.0
173
     0
291
     1
 45
0.0
  0
VISUALSTYLE
  5
1FC
102
{ACAD_REACTORS
330
1EE
102
}
330
1EE
100
AcDbVisualStyle
  2
Linepattern
 70
    14
 71
     2
 72
     2
 73
     0
 90
        0
 40
0.6
 41
30.0
 62
     5
 63
     7
421
 16777215
 74
     1
 91
        4
 64
     7
 65
   257
 75
     7
175
     7
 42
1.0
 92
        8
 66
     7
 43
1.0
 76
     1
 77
     6
 78
     2
 67
     7
 79
     5
170
     0
171
     0
290
     0
174
     0
 93
        1
 44
0.0
173
     0
291
     1
 45
0.0
  0
VISUALSTYLE
  5
200
102
{ACAD_REACTORS
330
1EE
102
}
330
1EE
100
AcDbVisualStyle
  2
OverhangOff
 70
    21
 71
     2
 72
     2
 73
     0
 90
        0
 40
0.6
 41
30.0
 62
     5
 63
     7
421
 16777215
 74
     1
 91
        4
 64
     7
 65
   257
 75
     1
175
     1
 42
1.0
 92
        9
 66
     7
 43
1.0
 76
     1
 77
     6
 78
     2
 67
     7
 79
     5
170
     0
171
     0
290
     0
174
     0
 93
        1
 44
0.0
173
     0
291
     1
 45
0.0
  0
VISUALSTYLE
  5
1F7
102
{ACAD_REACTORS
330
1EE
102
}
330
1EE
100
AcDbVisualStyle
  2
Realistic
 70
     8
 71
     2
 72
     3
 73
     0
 90
        2
 40
0.6
 41
30.0
 62
     5
 63
     7
421
 16777215
 74
     0
 91
        0
 64
     7
 65
   257
 75
     1
175
     1
 42
1.0
 92
        8
 66
   257
 43
1.0
 76
     1
 77
     6
 78
     2
 67
     7
 79
     3
170
     0
171
     0
290
     0
174
     0
 93
       13
 44
0.0
173
     0
291
     0
 45
0.0
  0
VISUALSTYLE
  5
206
102
{ACAD_REACTORS
330
1EE
102
}
330
1EE
100
AcDbVisualStyle
  2
Shaded
 70
    27
 71
     2
 72
     2
 73
     1
 90
        2
 40
0.6
 41
30.0
 62
     5
 63
     7
421
 16777215
 74
     0
 91
        4
 64
     7
 65
   257
 75
     1
175
     1
 42
1.0
 92
        8
 66
   257
 43
1.0
 76
     1
 77
     6
 78
     2
 67
     8
425
  7895160
 79
     3
170
     0
171
     0
290
     0
174
     0
 93
        5
 44
0.0
173
     0
291
     0
 45
0.0
  0
VISUALSTYLE
  5
205
102
{ACAD_REACTORS
330
1EE
102
}
330
1EE
100
AcDbVisualStyle
  2
Shaded with edges
 70
    26
 71
     2
 72
     2
 73
     1
 90
        2
 40
0.6
 41
30.0
 62
     5
 63
     7
421
 16777215
 74
     1
 91
       10
 64
     7
 65
   257
 75
     2
175
     1
 42
1.0
 92
        8
 66
   257
 43
1.0
 76
     1
 77
     6
 78
     2
 67
     7
 79
     3
170
     0
171
     0
290
     0
174
     0
 93
        5
 44
0.0
173
     0
291
     0
 45
0.0
  0
VISUALSTYLE
  5
202
102
{ACAD_REACTORS
330
1EE
102
}
330
1EE
100
AcDbVisualStyle
  2
Shades of Gray
 70
    23
 71
     2
 72
     2
 73
     3
 90
        0
 40
0.6
 41
30.0
 62
     5
 63
     7
421
 16777215
 74
     2
 91
        2
 64
     7
 65
     7
 75
     1
175
     1
 42
40.0
 92
        8
 66
     7
 43
1.0
 76
     1
 77
     6
 78
     2
 67
     7
 79
     3
170
     0
171
     0
290
     0
174
     0
 93
        1
 44
0.0
173
     0
291
     0
 45
0.0
  0
VISUALSTYLE
  5
203
102
{ACAD_REACTORS
330
1EE
102
}
330
1EE
100
AcDbVisualStyle
  2
Sketchy
 70
    24
 71
     1
 72
     2
 73
     2
 90
        0
 40
0.6
 41
30.0
 62
     5
 63
     7
421
 16777215
 74
     2
 91
        2
 64
     7
 65
     7
 75
     1
175
     1
 42
40.0
 92
       11
 66
     7
 43
1.0
 76
     1
 77
     6
 78
     2
 67
     7
 79
     6
170
     0
171
     0
290
     0
174
     0
 93
        1
 44
0.0
173
     0
291
     0
 45
0.0
  0
VISUALSTYLE
  5
1FB
102
{ACAD_REACTORS
330
1EE
102
}
330
1EE
100
AcDbVisualStyle
  2
Thicken
 70
    13
 71
     2
 72
     2
 73
     0
 90
        0
 40
0.6
 41
30.0
 62
     5
 63
     7
421
 16777215
 74
     1
 91
        4
 64
     7
 65
   257
 75
     1
175
     1
 42
1.0
 92
       12
 66
     7
 43
1.0
 76
     1
 77
     6
 78
     2
 67
     7
 79
     5
170
     0
171
     0
290
     0
174
     0
 93
        1
 44
0.0
173
     0
291
     1
 45
0.0
  0
VISUALSTYLE
  5
1F4
102
{ACAD_REACTORS
330
1EE
102
}
330
1EE
100
AcDbVisualStyle
  2
Wireframe
 70
     5
 71
     0
 72
     2
 73
     0
 90
        0
 40
0.6
 41
30.0
 62
     5
 63
     7
421
 16777215
 74
     1
 91
        4
 64
     7
 65
   257
 75
     1
175
     1
 42
1.0
 92
        0
 66
   257
 43
1.0
 76
     1
 77
     6
 78
     2
 67
     7
 79
     3
170
     0
171
     0
290
     0
174
     0
 93
        1
 44
0.0
173
     0
291
     0
 45
0.0
  0
VISUALSTYLE
  5
204
102
{ACAD_REACTORS
330
1EE
102
}
330
1EE
100
AcDbVisualStyle
  2
X-Ray
 70
    25
 71
     2
 72
     2
 73
     1
 90
        1
 40
0.5
 41
30.0
 62
     5
 63
     7
421
 16777215
 74
     1
 91
        0
 64
     7
 65
   257
 75
     1
175
     1
 42
1.0
 92
        8
 66
     7
 43
1.0
 76
     1
 77
     6
 78
     2
 67
     7
 79
     3
170
     0
171
     0
290
     0
174
     0
 93
       13
 44
0.0
173
     0
291
     0
 45
0.0
  0
DICTIONARYVAR
  5
1BF
102
{ACAD_REACTORS
330
1BE
102
}
330
1BE
100
DictionaryVariables
280
     0
  1
1:1
  0
DICTIONARYVAR
  5
1C6
102
{ACAD_REACTORS
330
1BE
102
}
330
1BE
100
DictionaryVariables
280
     0
  1
Standard
  0
DICTIONARYVAR
  5
1C5
102
{ACAD_REACTORS
330
1BE
102
}
330
1BE
100
DictionaryVariables
280
     0
  1
Standard
  0
DICTIONARYVAR
  5
1C7
102
{ACAD_REACTORS
330
1BE
102
}
330
1BE
100
DictionaryVariables
280
     0
  1
0
  0
DICTIONARYVAR
  5
1C8
102
{ACAD_REACTORS
330
1BE
102
}
330
1BE
100
DictionaryVariables
280
     0
  1
0
  0
DICTIONARY
  5
2CE
330
F3
100
AcDbDictionary
280
     1
281
     1
  3
ACAD_ROUNDTRIP_2008_TABLESTYLE_CELLSTYLEMAP
360
2CF
  0
CELLSTYLEMAP
  5
2CF
102
{ACAD_REACTORS
330
2CE
102
}
330
2CE
100
AcDbCellStyleMap
 90
        3
300
CELLSTYLE
  1
TABLEFORMAT_BEGIN
 90
        5
170
     1
 91
        0
 92
    32768
 62
   257
 93
        1
300
CONTENTFORMAT
  1
CONTENTFORMAT_BEGIN
 90
        0
 91
        0
 92
        4
 93
        0
300

 40
0.0
140
1.0
 94
        5
 62
     0
340
11
144
0.25
309
CONTENTFORMAT_END
171
     1
301
MARGIN
  1
CELLMARGIN_BEGIN
 40
0.06
 40
0.06
 40
0.06
 40
0.06
 40
0.06
 40
0.06
309
CELLMARGIN_END
 94
        6
 95
        1
302
GRIDFORMAT
  1
GRIDFORMAT_BEGIN
 90
        0
 91
        1
 62
     0
 92
       -2
340
14
 93
        0
 40
0.045
309
GRIDFORMAT_END
 95
        2
302
GRIDFORMAT
  1
GRIDFORMAT_BEGIN
 90
        0
 91
        1
 62
     0
 92
       -2
340
14
 93
        0
 40
0.045
309
GRIDFORMAT_END
 95
        4
302
GRIDFORMAT
  1
GRIDFORMAT_BEGIN
 90
        0
 91
        1
 62
     0
 92
       -2
340
14
 93
        0
 40
0.045
309
GRIDFORMAT_END
 95
        8
302
GRIDFORMAT
  1
GRIDFORMAT_BEGIN
 90
        0
 91
        1
 62
     0
 92
       -2
340
14
 93
        0
 40
0.045
309
GRIDFORMAT_END
 95
       16
302
GRIDFORMAT
  1
GRIDFORMAT_BEGIN
 90
        0
 91
        1
 62
     0
 92
       -2
340
14
 93
        0
 40
0.045
309
GRIDFORMAT_END
 95
       32
302
GRIDFORMAT
  1
GRIDFORMAT_BEGIN
 90
        0
 91
        1
 62
     0
 92
       -2
340
14
 93
        0
 40
0.045
309
GRIDFORMAT_END
309
TABLEFORMAT_END
  1
CELLSTYLE_BEGIN
 90
        1
 91
        1
300
_TITLE
309
CELLSTYLE_END
300
CELLSTYLE
  1
TABLEFORMAT_BEGIN
 90
        5
170
     1
 91
        0
 92
        0
 62
   257
 93
        1
300
CONTENTFORMAT
  1
CONTENTFORMAT_BEGIN
 90
        0
 91
        0
 92
        4
 93
        0
300

 40
0.0
140
1.0
 94
        5
 62
     0
340
11
144
0.18
309
CONTENTFORMAT_END
171
     1
301
MARGIN
  1
CELLMARGIN_BEGIN
 40
0.06
 40
0.06
 40
0.06
 40
0.06
 40
0.06
 40
0.06
309
CELLMARGIN_END
 94
        6
 95
        1
302
GRIDFORMAT
  1
GRIDFORMAT_BEGIN
 90
        0
 91
        1
 62
     0
 92
       -2
340
14
 93
        0
 40
0.045
309
GRIDFORMAT_END
 95
        2
302
GRIDFORMAT
  1
GRIDFORMAT_BEGIN
 90
        0
 91
        1
 62
     0
 92
       -2
340
14
 93
        0
 40
0.045
309
GRIDFORMAT_END
 95
        4
302
GRIDFORMAT
  1
GRIDFORMAT_BEGIN
 90
        0
 91
        1
 62
     0
 92
       -2
340
14
 93
        0
 40
0.045
309
GRIDFORMAT_END
 95
        8
302
GRIDFORMAT
  1
GRIDFORMAT_BEGIN
 90
        0
 91
        1
 62
     0
 92
       -2
340
14
 93
        0
 40
0.045
309
GRIDFORMAT_END
 95
       16
302
GRIDFORMAT
  1
GRIDFORMAT_BEGIN
 90
        0
 91
        1
 62
     0
 92
       -2
340
14
 93
        0
 40
0.045
309
GRIDFORMAT_END
 95
       32
302
GRIDFORMAT
  1
GRIDFORMAT_BEGIN
 90
        0
 91
        1
 62
     0
 92
       -2
340
14
 93
        0
 40
0.045
309
GRIDFORMAT_END
309
TABLEFORMAT_END
  1
CELLSTYLE_BEGIN
 90
        2
 91
        1
300
_HEADER
309
CELLSTYLE_END
300
CELLSTYLE
  1
TABLEFORMAT_BEGIN
 90
        5
170
     1
 91
        0
 92
        0
 62
   257
 93
        1
300
CONTENTFORMAT
  1
CONTENTFORMAT_BEGIN
 90
        0
 91
        0
 92
        4
 93
        0
300

 40
0.0
140
1.0
 94
        2
 62
     0
340
11
144
0.18
309
CONTENTFORMAT_END
171
     1
301
MARGIN
  1
CELLMARGIN_BEGIN
 40
0.06
 40
0.06
 40
0.06
 40
0.06
 40
0.06
 40
0.06
309
CELLMARGIN_END
 94
        6
 95
        1
302
GRIDFORMAT
  1
GRIDFORMAT_BEGIN
 90
        0
 91
        1
 62
     0
 92
       -2
340
14
 93
        0
 40
0.045
309
GRIDFORMAT_END
 95
        2
302
GRIDFORMAT
  1
GRIDFORMAT_BEGIN
 90
        0
 91
        1
 62
     0
 92
       -2
340
14
 93
        0
 40
0.045
309
GRIDFORMAT_END
 95
        4
302
GRIDFORMAT
  1
GRIDFORMAT_BEGIN
 90
        0
 91
        1
 62
     0
 92
       -2
340
14
 93
        0
 40
0.045
309
GRIDFORMAT_END
 95
        8
302
GRIDFORMAT
  1
GRIDFORMAT_BEGIN
 90
        0
 91
        1
 62
     0
 92
       -2
340
14
 93
        0
 40
0.045
309
GRIDFORMAT_END
 95
       16
302
GRIDFORMAT
  1
GRIDFORMAT_BEGIN
 90
        0
 91
        1
 62
     0
 92
       -2
340
14
 93
        0
 40
0.045
309
GRIDFORMAT_END
 95
       32
302
GRIDFORMAT
  1
GRIDFORMAT_BEGIN
 90
        0
 91
        1
 62
     0
 92
       -2
340
14
 93
        0
 40
0.045
309
GRIDFORMAT_END
309
TABLEFORMAT_END
  1
CELLSTYLE_BEGIN
 90
        3
 91
        2
300
_DATA
309
CELLSTYLE_END
  0
ENDSEC
  0
EOF
