  0
SECTION
  2
HEADER
  9
$ACADVER
  1
AC1021
  9
$ACADMAINTVER
 70
    25
  9
$DWGCODEPAGE
  3
ANSI_1250
  9
$LASTSAVEDBY
  1
vdamir
  9
$INSBASE
 10
0.0
 20
0.0
 30
0.0
  9
$EXTMIN
 10
514.0438272957174
 20
439.2088307609495
 30
0.0
  9
$EXTMAX
 10
729.2906992957172
 20
492.6153575109495
 30
0.0
  9
$LIMMIN
 10
0.0
 20
0.0
  9
$LIMMAX
 10
12.0
 20
9.0
  9
$ORTHOMODE
 70
     0
  9
$REGENMODE
 70
     1
  9
$FILLMODE
 70
     1
  9
$QTEXTMODE
 70
     0
  9
$MIRRTEXT
 70
     0
  9
$LTSCALE
 40
1.0
  9
$ATTMODE
 70
     1
  9
$TEXTSIZE
 40
2.5
  9
$TRACEWID
 40
0.05
  9
$TEXTSTYLE
  7
STANDARD
  9
$CLAYER
  8
0
  9
$CELTYPE
  6
CONTINUOUS
  9
$CECOLOR
 62
   256
  9
$CELTSCALE
 40
1.0
  9
$DISPSILH
 70
     0
  9
$DIMSCALE
 40
1.0
  9
$DIMASZ
 40
3.5
  9
$DIMEXO
 40
1.0
  9
$DIMDLI
 40
10.0
  9
$DIMRND
 40
0.0
  9
$DIMDLE
 40
0.0
  9
$DIMEXE
 40
1.0
  9
$DIMTP
 40
0.1
  9
$DIMTM
 40
0.1
  9
$DIMTXT
 40
3.5
  9
$DIMCEN
 40
0.0
  9
$DIMTSZ
 40
0.0
  9
$DIMTOL
 70
     0
  9
$DIMLIM
 70
     0
  9
$DIMTIH
 70
     0
  9
$DIMTOH
 70
     0
  9
$DIMSE1
 70
     0
  9
$DIMSE2
 70
     0
  9
$DIMTAD
 70
     1
  9
$DIMZIN
 70
     8
  9
$DIMBLK
  1

  9
$DIMASO
 70
     1
  9
$DIMSHO
 70
     1
  9
$DIMPOST
  1

  9
$DIMAPOST
  1
"
  9
$DIMALT
 70
     0
  9
$DIMALTD
 70
     2
  9
$DIMALTF
 40
0.0393701
  9
$DIMLFAC
 40
1.0
  9
$DIMTOFL
 70
     1
  9
$DIMTVP
 40
0.0
  9
$DIMTIX
 70
     0
  9
$DIMSOXD
 70
     0
  9
$DIMSAH
 70
     0
  9
$DIMBLK1
  1

  9
$DIMBLK2
  1

  9
$DIMSTYLE
  2
AM_ISO
  9
$DIMCLRD
 70
   256
  9
$DIMCLRE
 70
   256
  9
$DIMCLRT
 70
   140
  9
$DIMTFAC
 40
0.71
  9
$DIMGAP
 40
1.5
  9
$DIMJUST
 70
     0
  9
$DIMSD1
 70
     0
  9
$DIMSD2
 70
     0
  9
$DIMTOLJ
 70
     0
  9
$DIMTZIN
 70
     8
  9
$DIMALTZ
 70
     0
  9
$DIMALTTZ
 70
     0
  9
$DIMUPT
 70
     0
  9
$DIMDEC
 70
     2
  9
$DIMTDEC
 70
     3
  9
$DIMALTU
 70
     2
  9
$DIMALTTD
 70
     4
  9
$DIMTXSTY
  7
STANDARD
  9
$DIMAUNIT
 70
     0
  9
$DIMADEC
 70
     0
  9
$DIMALTRND
 40
0.0
  9
$DIMAZIN
 70
     2
  9
$DIMDSEP
 70
    46
  9
$DIMATFIT
 70
     3
  9
$DIMFRAC
 70
     0
  9
$DIMLDRBLK
  1

  9
$DIMLUNIT
 70
     2
  9
$DIMLWD
 70
    -1
  9
$DIMLWE
 70
    -1
  9
$DIMTMOVE
 70
     0
  9
$DIMFXL
 40
1.0
  9
$DIMFXLON
 70
     0
  9
$DIMJOGANG
 40
0.7853981633974483
  9
$DIMTFILL
 70
     0
  9
$DIMTFILLCLR
 70
     0
  9
$DIMARCSYM
 70
     1
  9
$DIMLTYPE
  6
BYBLOCK
  9
$DIMLTEX1
  6
BYBLOCK
  9
$DIMLTEX2
  6
BYBLOCK
  9
$LUNITS
 70
     2
  9
$LUPREC
 70
     2
  9
$SKETCHINC
 40
0.1
  9
$FILLETRAD
 40
0.0
  9
$AUNITS
 70
     0
  9
$AUPREC
 70
     0
  9
$MENU
  1
.
  9
$ELEVATION
 40
0.0
  9
$PELEVATION
 40
0.0
  9
$THICKNESS
 40
0.0
  9
$LIMCHECK
 70
     0
  9
$CHAMFERA
 40
0.0
  9
$CHAMFERB
 40
0.0
  9
$CHAMFERC
 40
0.0
  9
$CHAMFERD
 40
0.0
  9
$SKPOLY
 70
     0
  9
$TDCREATE
 40
2457514.61700044
  9
$TDUCREATE
 40
2457514.533667107
  9
$TDUPDATE
 40
2457527.429926747
  9
$TDUUPDATE
 40
2457527.346593414
  9
$TDINDWG
 40
0.0325007523
  9
$TDUSRTIMER
 40
2457527.345351018
  9
$USRTIMER
 70
     1
  9
$ANGBASE
 50
0.0
  9
$ANGDIR
 70
     0
  9
$PDMODE
 70
     0
  9
$PDSIZE
 40
0.0
  9
$PLINEWID
 40
0.0
  9
$SPLFRAME
 70
     0
  9
$SPLINETYPE
 70
     6
  9
$SPLINESEGS
 70
     8
  9
$HANDSEED
  5
10EDB
  9
$SURFTAB1
 70
     6
  9
$SURFTAB2
 70
     6
  9
$SURFTYPE
 70
     6
  9
$SURFU
 70
     6
  9
$SURFV
 70
     6
  9
$UCSBASE
  2

  9
$UCSNAME
  2

  9
$UCSORG
 10
0.0
 20
0.0
 30
0.0
  9
$UCSXDIR
 10
1.0
 20
0.0
 30
0.0
  9
$UCSYDIR
 10
0.0
 20
1.0
 30
0.0
  9
$UCSORTHOREF
  2

  9
$UCSORTHOVIEW
 70
     0
  9
$UCSORGTOP
 10
0.0
 20
0.0
 30
0.0
  9
$UCSORGBOTTOM
 10
0.0
 20
0.0
 30
0.0
  9
$UCSORGLEFT
 10
0.0
 20
0.0
 30
0.0
  9
$UCSORGRIGHT
 10
0.0
 20
0.0
 30
0.0
  9
$UCSORGFRONT
 10
0.0
 20
0.0
 30
0.0
  9
$UCSORGBACK
 10
0.0
 20
0.0
 30
0.0
  9
$PUCSBASE
  2

  9
$PUCSNAME
  2

  9
$PUCSORG
 10
0.0
 20
0.0
 30
0.0
  9
$PUCSXDIR
 10
1.0
 20
0.0
 30
0.0
  9
$PUCSYDIR
 10
0.0
 20
1.0
 30
0.0
  9
$PUCSORTHOREF
  2

  9
$PUCSORTHOVIEW
 70
     0
  9
$PUCSORGTOP
 10
0.0
 20
0.0
 30
0.0
  9
$PUCSORGBOTTOM
 10
0.0
 20
0.0
 30
0.0
  9
$PUCSORGLEFT
 10
0.0
 20
0.0
 30
0.0
  9
$PUCSORGRIGHT
 10
0.0
 20
0.0
 30
0.0
  9
$PUCSORGFRONT
 10
0.0
 20
0.0
 30
0.0
  9
$PUCSORGBACK
 10
0.0
 20
0.0
 30
0.0
  9
$USERI1
 70
     0
  9
$USERI2
 70
     0
  9
$USERI3
 70
     0
  9
$USERI4
 70
     0
  9
$USERI5
 70
     0
  9
$USERR1
 40
0.0
  9
$USERR2
 40
0.0
  9
$USERR3
 40
0.0
  9
$USERR4
 40
0.0
  9
$USERR5
 40
0.0
  9
$WORLDVIEW
 70
     1
  9
$SHADEDGE
 70
     3
  9
$SHADEDIF
 70
    70
  9
$TILEMODE
 70
     1
  9
$MAXACTVP
 70
    64
  9
$PINSBASE
 10
0.0
 20
0.0
 30
0.0
  9
$PLIMCHECK
 70
     0
  9
$PEXTMIN
 10
1.000000000000000E+20
 20
1.000000000000000E+20
 30
1.000000000000000E+20
  9
$PEXTMAX
 10
-1.000000000000000E+20
 20
-1.000000000000000E+20
 30
-1.000000000000000E+20
  9
$PLIMMIN
 10
0.0
 20
0.0
  9
$PLIMMAX
 10
0.0
 20
0.0
  9
$UNITMODE
 70
     0
  9
$VISRETAIN
 70
     1
  9
$PLINEGEN
 70
     0
  9
$PSLTSCALE
 70
     1
  9
$TREEDEPTH
 70
  3020
  9
$CMLSTYLE
  2
Standard
  9
$CMLJUST
 70
     0
  9
$CMLSCALE
 40
1.0
  9
$PROXYGRAPHICS
 70
     1
  9
$MEASUREMENT
 70
     1
  9
$CELWEIGHT
370
    -1
  9
$ENDCAPS
280
     0
  9
$JOINSTYLE
280
     0
  9
$LWDISPLAY
290
     0
  9
$INSUNITS
 70
     0
  9
$HYPERLINKBASE
  1

  9
$STYLESHEET
  1

  9
$XEDIT
290
     1
  9
$CEPSNTYPE
380
     0
  9
$PSTYLEMODE
290
     1
  9
$FINGERPRINTGUID
  2
{56C06AED-81D1-4F86-9D2D-AF73B58CDF65}
  9
$VERSIONGUID
  2
{327D67C3-627C-4BE0-BF18-10853720526B}
  9
$EXTNAMES
290
     1
  9
$PSVPSCALE
 40
0.0
  9
$OLESTARTUP
290
     0
  9
$SORTENTS
280
   127
  9
$INDEXCTL
280
     0
  9
$HIDETEXT
280
     0
  9
$XCLIPFRAME
290
     0
  9
$HALOGAP
280
     0
  9
$OBSCOLOR
 70
   257
  9
$OBSLTYPE
280
     0
  9
$INTERSECTIONDISPLAY
280
     0
  9
$INTERSECTIONCOLOR
 70
   257
  9
$DIMASSOC
280
     1
  9
$PROJECTNAME
  1

  9
$CAMERADISPLAY
290
     0
  9
$LENSLENGTH
 40
50.0
  9
$CAMERAHEIGHT
 40
0.0
  9
$STEPSPERSEC
 40
2.0
  9
$STEPSIZE
 40
6.0
  9
$3DDWFPREC
 40
2.0
  9
$PSOLWIDTH
 40
0.25
  9
$PSOLHEIGHT
 40
4.0
  9
$LOFTANG1
 40
1.570796326794896
  9
$LOFTANG2
 40
1.570796326794896
  9
$LOFTMAG1
 40
0.0
  9
$LOFTMAG2
 40
0.0
  9
$LOFTPARAM
 70
     7
  9
$LOFTNORMALS
280
     1
  9
$LATITUDE
 40
37.795
  9
$LONGITUDE
 40
-122.394
  9
$NORTHDIRECTION
 40
0.0
  9
$TIMEZONE
 70
 -8000
  9
$LIGHTGLYPHDISPLAY
280
     1
  9
$TILEMODELIGHTSYNCH
280
     1
  9
$CMATERIAL
347
10004
  9
$SOLIDHIST
280
     1
  9
$SHOWHIST
280
     1
  9
$DWFFRAME
280
     2
  9
$DGNFRAME
280
     0
  9
$REALWORLDSCALE
290
     1
  9
$INTERFERECOLOR
 62
     1
  9
$INTERFEREOBJVS
345
10026
  9
$INTERFEREVPVS
346
10023
  9
$CSHADOW
280
     0
  9
$SHADOWPLANELOCATION
 40
0.0
  0
ENDSEC
  0
SECTION
  2
CLASSES
  0
CLASS
  1
ACDBDICTIONARYWDFLT
  2
AcDbDictionaryWithDefault
  3
ObjectDBX Classes
 90
        0
 91
        4
280
     0
281
     0
  0
CLASS
  1
MATERIAL
  2
AcDbMaterial
  3
ObjectDBX Classes
 90
     1153
 91
        4
280
     0
281
     0
  0
CLASS
  1
VISUALSTYLE
  2
AcDbVisualStyle
  3
ObjectDBX Classes
 90
     4095
 91
        4
280
     0
281
     0
  0
CLASS
  1
TABLESTYLE
  2
AcDbTableStyle
  3
ObjectDBX Classes
 90
     4095
 91
        4
280
     0
281
     0
  0
CLASS
  1
SCALE
  2
AcDbScale
  3
ObjectDBX Classes
 90
     1153
 91
        4
280
     0
281
     0
  0
CLASS
  1
MLEADERSTYLE
  2
AcDbMLeaderStyle
  3
ACDB_MLEADERSTYLE_CLASS
 90
     4095
 91
        4
280
     0
281
     0
  0
CLASS
  1
ACME_DOCUMENT
  2
AcMeDbDoc
  3
AcMeServices
 90
     1024
 91
        1
280
     1
281
     0
  0
CLASS
  1
ACMESCOPE
  2
AcMeScope
  3
AcMeServices
 90
     1024
 91
        1
280
     1
281
     0
  0
CLASS
  1
ACMECOMMANDHISTORY
  2
AcMeCommandHistory
  3
AcMeServices
 90
     1024
 91
        1
280
     1
281
     0
  0
CLASS
  1
ACIMSYSVARMAN
  2
AcImSysVarManager
  3
AcMeServices
 90
     1024
 91
        1
280
     1
281
     0
  0
CLASS
  1
ACIMINTSYSVAR
  2
AcImIntSysVar
  3
AcMeServices
 90
     1024
 91
        1
280
     1
281
     0
  0
CLASS
  1
ACMEDRAWINGMAN
  2
AcMeDrawingMan
  3
AcMeServices
 90
     1024
 91
        1
280
     1
281
     0
  0
CLASS
  1
ACMEVIEW
  2
AcMeView
  3
AcMeServices
 90
     1024
 91
        1
280
     1
281
     0
  0
CLASS
  1
ACDBENTITYCACHE
  2
AcMeEntityCache
  3
AcMeServices
 90
     1024
 91
        1
280
     1
281
     0
  0
CLASS
  1
GSMANAGER
  2
AcMeGSManager
  3
AcMeServices
 90
     1024
 91
        1
280
     1
281
     0
  0
CLASS
  1
AMDTINTERNALREACTOR
  2
AmdtInternalReactor
  3
AcMeServices
 90
     1024
 91
        1
280
     1
281
     0
  0
CLASS
  1
ACMESTATEMGR
  2
AcMeStateMgr
  3
AcMeServices
 90
     1024
 91
        1
280
     1
281
     0
  0
CLASS
  1
ACGREFMASTER
  2
AcGrefMaster
  3
AcAttribServices
 90
     1024
 91
        1
280
     1
281
     0
  0
CLASS
  1
AM_DRAWING_MGR
  2
AcDmDwgMgr
  3
AcMechDwgViewMgmt
 90
     1024
 91
        1
280
     1
281
     0
  0
CLASS
  1
AM_DWG_DOCUMENT
  2
AcDmDwgDocument
  3
AcMechDwgViewMgmt
 90
     1024
 91
        1
280
     1
281
     0
  0
CLASS
  1
AM_DWG_SHEET
  2
AcDmSheet
  3
AcMechDwgViewMgmt
 90
     1024
 91
        1
280
     1
281
     0
  0
CLASS
  1
AM_VIEWDIMPARMAP
  2
AcDmViewDimParMap
  3
AcMechDwgViewMgmt
 90
     1024
 91
        1
280
     1
281
     0
  0
CLASS
  1
ACIMREALSYSVAR
  2
AcImRealSysVar
  3
AcMeServices
 90
     1024
 91
        1
280
     1
281
     0
  0
CLASS
  1
AM_DWGMGR_NAME
  2
AcDmDwgMgrName
  3
AcMechDwgViewMgmt
 90
     1024
 91
        1
280
     1
281
     0
  0
CLASS
  1
ACME_DATABASE
  2
AcMeDbDatabase
  3
AcMeServices
 90
     1024
 91
        1
280
     1
281
     0
  0
CLASS
  1
ACRFINSADJUSTERMGR
  2
AcRfInsAdjusterMgr
  3
AcMeServices
 90
     1024
 91
        1
280
     1
281
     0
  0
CLASS
  1
ACGREFACADMASTER
  2
AcGrefacadMaster
  3
AcGrefServices
 90
     1024
 91
        1
280
     1
281
     0
  0
CLASS
  1
AMDTMENUSTATEMGR
  2
AmdtMenuStateMgr
  3
McadcomServices
 90
     1024
 91
        1
280
     1
281
     0
  0
CLASS
  1
AMDTMCOMMENUSTATE
  2
AmdtMcomMenuState
  3
McadcomServices
 90
     1024
 91
        1
280
     1
281
     0
  0
CLASS
  1
AMIMASTER
  2
AmiMaster
  3
AmiServices
 90
     1024
 91
        1
280
     1
281
     0
  0
CLASS
  1
AMGSETTINGSOBJ
  2
AmgSettingsObj
  3
"AcadM|Product Description: AutoCAD Mechanical|Company: Autodesk, Inc."
 90
     1024
 91
        1
280
     1
281
     0
  0
CLASS
  1
MAPIAMMOUDLE
  2
MApiAmModule
  3
MApiAmServices
 90
     1024
 91
        1
280
     1
281
     0
  0
CLASS
  1
ACIMSTRSYSVAR
  2
AcImStrSysVar
  3
AcMeServices
 90
     1024
 91
        1
280
     1
281
     0
  0
CLASS
  1
AMDTADMENUSTATE
  2
AmdtAdMenuState
  3
DesignerServices
 90
     1024
 91
        1
280
     1
281
     0
  0
CLASS
  1
ADAPPL
  2
AcAdAppl
  3
DesignerServices
 90
     1024
 91
        1
280
     1
281
     0
  0
CLASS
  1
DEPMGR
  2
AcAdDepMgr
  3
DesignerServices
 90
     1024
 91
        1
280
     1
281
     0
  0
CLASS
  1
PARAMMGR
  2
AcAdParamMgr
  3
DesignerServices
 90
     1024
 91
        1
280
     1
281
     0
  0
CLASS
  1
PARAMSCOPE
  2
AcAdParamScope
  3
DesignerServices
 90
     1024
 91
        1
280
     1
281
     0
  0
CLASS
  1
NAMEDAPPL
  2
AcAdNamedAppl
  3
DesignerServices
 90
     1024
 91
        1
280
     1
281
     0
  0
CLASS
  1
AMDTDMMENUSTATE
  2
AmdtDmMenuState
  3
AcMechDwgViewMgmt
 90
     1024
 91
        1
280
     1
281
     0
  0
CLASS
  1
AMDTAMMENUSTATE
  2
AmdtAmMenuState
  3
DesignerAssemblies
 90
     1024
 91
        1
280
     1
281
     0
  0
CLASS
  1
ACAMPROJECT
  2
AcAmProject
  3
DesignerAssemblies
 90
     1024
 91
        1
280
     1
281
     0
  0
CLASS
  1
ACAMGRCOMPDEF
  2
AcAmGrCompDef
  3
DesignerAssemblies
 90
     1024
 91
        1
280
     1
281
     0
  0
CLASS
  1
ACCMCONTEXT
  2
AcCmContext
  3
DesignerAssemblies
 90
     1024
 91
        1
280
     1
281
     0
  0
CLASS
  1
ACAMCOMPDEF
  2
AcAmCompDef
  3
DesignerAssemblies
 90
     1024
 91
        1
280
     1
281
     0
  0
CLASS
  1
ACAMCOMPDEFMGR
  2
AcAmCompDefMgr
  3
DesignerAssemblies
 90
     1024
 91
        1
280
     1
281
     0
  0
CLASS
  1
AMCONTEXTMGR
  2
AcAmContextMgr
  3
DesignerAssemblies
 90
     1024
 91
        1
280
     1
281
     0
  0
CLASS
  1
ACAMCONTEXTMODELER
  2
AcAmContextModeler
  3
DesignerAssemblies
 90
     1024
 91
        1
280
     1
281
     0
  0
CLASS
  1
ACMDATADICTIONARY
  2
AcmDataDictionary
  3
"AcmSymBB|Product Description: AutoCAD Mechanical|Company: Autodesk, Inc."
 90
     1024
 91
        1
280
     1
281
     0
  0
CLASS
  1
CATALOGSTATE
  2
AcAmCatalogState
  3
DesignerAssemblies
 90
     1024
 91
        1
280
     1
281
     0
  0
CLASS
  1
ACAMGRCOMPDEFSET
  2
AcAmGrCompDefSet
  3
DesignerAssemblies
 90
     1024
 91
        1
280
     1
281
     0
  0
CLASS
  1
AMDTBROWSERDBTAB
  2
AmdtBrowserDbTab
  3
McadcomServices
 90
     1024
 91
        1
280
     1
281
     0
  0
CLASS
  1
CBROWSERAPPOBJECT
  2
CBrowserAppObject
  3
McadcomServices
 90
     1024
 91
        1
280
     1
281
     0
  0
CLASS
  1
DM_PLACEHOLDER
  2
AcDmSelsetPlaceholder
  3
AcMechDwgViewMgmt
 90
     1024
 91
        1
280
     1
281
     0
  0
CLASS
  1
ACMSTANDARDISO
  2
AcmStandardISO
  3
"Amdt_StdImp|Product Description: AutoCAD Mechanical|Company: Autodesk, Inc."
 90
     1024
 91
        1
280
     1
281
     0
  0
CLASS
  1
AMDTEDGESTANDARDISO13715
  2
AmdtEdgeStdISO13715
  3
"Amdt_StdImp|Product Description: AutoCAD Mechanical|Company: Autodesk, Inc."
 90
     1024
 91
        1
280
     1
281
     0
  0
CLASS
  1
ACMSURFSTANDARDISO2002
  2
AcmSurfTextStdISO2002
  3
"Amdt_StdImp|Product Description: AutoCAD Mechanical|Company: Autodesk, Inc."
 90
     1024
 91
        1
280
     1
281
     0
  0
CLASS
  1
ACMFCFSTANDARDISO
  2
AcmFCFStdISO
  3
"Amdt_StdImp|Product Description: AutoCAD Mechanical|Company: Autodesk, Inc."
 90
     1024
 91
        1
280
     1
281
     0
  0
CLASS
  1
ACMWELDSTANDARDISO
  2
AcmWeldingStdISO
  3
"Amdt_StdImp|Product Description: AutoCAD Mechanical|Company: Autodesk, Inc."
 90
     1024
 91
        1
280
     1
281
     0
  0
CLASS
  1
ACMIDSTANDARDISO
  2
AcmIdStdISO
  3
"Amdt_StdImp|Product Description: AutoCAD Mechanical|Company: Autodesk, Inc."
 90
     1024
 91
        1
280
     1
281
     0
  0
CLASS
  1
ACMDATUMSTANDARDISO
  2
AcmDatumStdISO
  3
"Amdt_StdImp|Product Description: AutoCAD Mechanical|Company: Autodesk, Inc."
 90
     1024
 91
        1
280
     1
281
     0
  0
CLASS
  1
ACMBOMSTANDARDISO
  2
AcmBOMStdISO
  3
"Amdt_StdImp|Product Description: AutoCAD Mechanical|Company: Autodesk, Inc."
 90
     1024
 91
        1
280
     1
281
     0
  0
CLASS
  1
ACMDETAILSTANDARDISO
  2
AmdtDetailSymStdISO
  3
"Amdt_StdImp|Product Description: AutoCAD Mechanical|Company: Autodesk, Inc."
 90
     1024
 91
        1
280
     1
281
     0
  0
CLASS
  1
ACMSECTIONSTANDARDISO2001
  2
AmdtSectionSymStdISO2001
  3
"Amdt_StdImp|Product Description: AutoCAD Mechanical|Company: Autodesk, Inc."
 90
     1024
 91
        1
280
     1
281
     0
  0
CLASS
  1
ACMCENTERLINESTANDARDISO
  2
AmdtCenterLineStdISO
  3
"Amdt_StdImp|Product Description: AutoCAD Mechanical|Company: Autodesk, Inc."
 90
     1024
 91
        1
280
     1
281
     0
  0
CLASS
  1
ACMTHREADLINESTANDARDISO
  2
AmdtThreadLineStdISO
  3
"Amdt_StdImp|Product Description: AutoCAD Mechanical|Company: Autodesk, Inc."
 90
     1024
 91
        1
280
     1
281
     0
  0
CLASS
  1
ACMNOTESTANDARDISO
  2
AmdtNoteStdISO
  3
"Amdt_StdImp|Product Description: AutoCAD Mechanical|Company: Autodesk, Inc."
 90
     1024
 91
        1
280
     1
281
     0
  0
CLASS
  1
ACMTAPERSTANDARDISO
  2
AcmTaperStdISO
  3
"Amdt_StdImp|Product Description: AutoCAD Mechanical|Company: Autodesk, Inc."
 90
     1024
 91
        1
280
     1
281
     0
  0
CLASS
  1
ACMANOOTATIONVIEWSTANDARDISO
  2
AmdtAnViewStdISO
  3
"Amdt_StdImp|Product Description: AutoCAD Mechanical|Company: Autodesk, Inc."
 90
     1024
 91
        1
280
     1
281
     0
  0
CLASS
  1
ACAMGLAYSTD
  2
AcAmgLayStd
  3
"AmgLay|Product Description: AutoCAD Mechanical|Company: Autodesk, Inc."
 90
     1024
 91
        1
280
     1
281
     0
  0
CLASS
  1
ACAMGDIMSTD
  2
AcAmgDimStd
  3
"AmgDim|Product Description: AutoCAD Mechanical|Company: Autodesk, Inc."
 90
     1024
 91
        1
280
     1
281
     0
  0
CLASS
  1
AMGOBJPROPCFG
  2
AmgObjPropCfg
  3
"AmgLay|Product Description: AutoCAD Mechanical|Company: Autodesk, Inc."
 90
     1025
 91
        1
280
     1
281
     0
  0
CLASS
  1
ACAMGHOLECHARTSTDISO
  2
AcAmgHoleChartStdISO
  3
AmgDim|Product Description: AutoCAD Mechanical|Company: Autodesk, Inc.
 90
     1024
 91
        1
280
     1
281
     0
  0
CLASS
  1
ACAMGTITLESTD
  2
AcAmgTitleStd
  3
"AmgTitle|Product Description: AutoCAD Mechanical|Company: Autodesk, Inc."
 90
     4095
 91
        1
280
     1
281
     0
  0
CLASS
  1
AMDTNOTETEMPLATEDB
  2
AmdtNoteTemplateDB
  3
AcmSymBB|Product Description: AutoCAD Mechanical|Company: Autodesk, Inc.
 90
     1024
 91
        1
280
     1
281
     0
  0
CLASS
  1
ACAMGFILTERDAT
  2
AcAmgFilterDat
  3
"AcadM|Product Description: AutoCAD Mechanical|Company: Autodesk, Inc."
 90
     1024
 91
        1
280
     1
281
     0
  0
CLASS
  1
SORTENTSTABLE
  2
AcDbSortentsTable
  3
ObjectDBX Classes
 90
        0
 91
        4
280
     0
281
     0
  0
CLASS
  1
CAMSSTRUCTBTNSTATE
  2
StructBtnState
  3
DesignerAssemblies
 90
     1024
 91
        1
280
     1
281
     0
  0
CLASS
  1
CELLSTYLEMAP
  2
AcDbCellStyleMap
  3
ObjectDBX Classes
 90
     1152
 91
        4
280
     0
281
     0
  0
CLASS
  1
DICTIONARYVAR
  2
AcDbDictionaryVar
  3
ObjectDBX Classes
 90
        0
 91
        4
280
     0
281
     0
  0
CLASS
  1
SUN
  2
AcDbSun
  3
SCENEOE
 90
     1153
 91
        4
280
     0
281
     0
  0
CLASS
  1
RASTERVARIABLES
  2
AcDbRasterVariables
  3
ISM
 90
        0
 91
        4
280
     0
281
     0
  0
ENDSEC
  0
SECTION
  2
TABLES
  0
TABLE
  2
VPORT
  5
8
330
0
100
AcDbSymbolTable
 70
     1
  0
VPORT
  5
2E
330
8
100
AcDbSymbolTableRecord
100
AcDbViewportTableRecord
  2
*ACTIVE
 70
     0
 10
0.0
 20
0.0
 11
1.0
 21
1.0
 12
617.0555133760357
 22
487.5748513653768
 13
0.0
 23
0.0
 14
10.0
 24
10.0
 15
10.0
 25
10.0
 16
0.0
 26
0.0
 36
1.0
 17
0.0
 27
0.0
 37
0.0
 40
132.4599921637618
 41
2.158610271903323
 42
50.0
 43
0.0
 44
0.0
 50
0.0
 51
0.0
 71
    16
 72
   100
 73
     1
 74
     3
 75
     0
 76
     0
 77
     0
 78
     0
281
     0
 65
     0
110
0.0
120
0.0
130
0.0
111
1.0
121
0.0
131
0.0
112
0.0
122
1.0
132
0.0
 79
     0
146
0.0
348
10022
 60
     3
 61
     5
292
     1
282
     1
141
0.0
142
0.0
 63
   250
421
  3355443
361
10799
  0
ENDTAB
  0
TABLE
  2
LTYPE
  5
5
330
0
100
AcDbSymbolTable
 70
    14
  0
LTYPE
  5
14
330
5
100
AcDbSymbolTableRecord
100
AcDbLinetypeTableRecord
  2
BYBLOCK
 70
     0
  3

 72
    65
 73
     0
 40
0.0
  0
LTYPE
  5
15
330
5
100
AcDbSymbolTableRecord
100
AcDbLinetypeTableRecord
  2
BYLAYER
 70
     0
  3

 72
    65
 73
     0
 40
0.0
  0
LTYPE
  5
16
330
5
100
AcDbSymbolTableRecord
100
AcDbLinetypeTableRecord
  2
CONTINUOUS
 70
     0
  3
Solid line
 72
    65
 73
     0
 40
0.0
  0
LTYPE
  5
10079
330
5
100
AcDbSymbolTableRecord
100
AcDbLinetypeTableRecord
  2
HIDDEN
 70
     0
  3
Hidden __ __ __ __ __ __ __ __ __ __ __ __ __ _
 72
    65
 73
     2
 40
9.524999999999999
 49
6.349999999999999
 74
     0
 49
-3.174999999999999
 74
     0
  0
LTYPE
  5
1007A
330
5
100
AcDbSymbolTableRecord
100
AcDbLinetypeTableRecord
  2
PHANTOM2
 70
     0
  3
Phantom (.5x) ___ _ _ ___ _ _ ___ _ _ ___ _ _
 72
    65
 73
     6
 40
31.75
 49
15.875
 74
     0
 49
-3.174999999999999
 74
     0
 49
3.174999999999999
 74
     0
 49
-3.174999999999999
 74
     0
 49
3.174999999999999
 74
     0
 49
-3.174999999999999
 74
     0
  0
LTYPE
  5
1007B
330
5
100
AcDbSymbolTableRecord
100
AcDbLinetypeTableRecord
  2
CENTER
 70
     0
  3
Center ____ _ ____ _ ____ _ ____ _ ____ _ ____
 72
    65
 73
     4
 40
50.8
 49
31.75
 74
     0
 49
-6.349999999999999
 74
     0
 49
6.349999999999999
 74
     0
 49
-6.349999999999999
 74
     0
  0
LTYPE
  5
100C5
330
5
100
AcDbSymbolTableRecord
100
AcDbLinetypeTableRecord
  2
AM_ISO02W050
 70
     0
  3
__ __ __ __ __ __ __ __ __ __ __ __ __ __ __
 72
    65
 73
     2
 40
7.5
 49
6.0
 74
     0
 49
-1.5
 74
     0
  0
LTYPE
  5
100C6
330
5
100
AcDbSymbolTableRecord
100
AcDbLinetypeTableRecord
  2
AM_ISO08W050
 70
     0
  3
____ . ____ . ____ . ____ . ____ . ____ . ____
 72
    65
 73
     4
 40
18.0
 49
12.0
 74
     0
 49
-1.5
 74
     0
 49
3.0
 74
     0
 49
-1.5
 74
     0
  0
LTYPE
  5
100C7
330
5
100
AcDbSymbolTableRecord
100
AcDbLinetypeTableRecord
  2
AM_ISO09W050
 70
     0
  3
_____ . . _____ . . _____ . . ____ .. ____
 72
    65
 73
     6
 40
22.5
 49
12.0
 74
     0
 49
-1.5
 74
     0
 49
3.0
 74
     0
 49
-1.5
 74
     0
 49
3.0
 74
     0
 49
-1.5
 74
     0
  0
LTYPE
  5
100C8
330
5
100
AcDbSymbolTableRecord
100
AcDbLinetypeTableRecord
  2
Amconstr
 70
     0
  3
_______________________
 72
    65
 73
     2
 40
9999.0
 49
9999.0
 74
     0
 49
0.0
 74
     0
  0
LTYPE
  5
100C9
330
5
100
AcDbSymbolTableRecord
100
AcDbLinetypeTableRecord
  2
AM_ISO08W050x2
 70
     0
  3
__ . __ . __ . __ . __ . __
 72
    65
 73
     4
 40
9.0
 49
6.0
 74
     0
 49
-0.75
 74
     0
 49
1.5
 74
     0
 49
-0.75
 74
     0
  0
LTYPE
  5
100CA
330
5
100
AcDbSymbolTableRecord
100
AcDbLinetypeTableRecord
  2
AM_ISO02W050x2
 70
     0
  3
 _ _ _ _ _ _ _ _ _ _ _ _
 72
    65
 73
     2
 40
3.75
 49
3.0
 74
     0
 49
-0.75
 74
     0
  0
LTYPE
  5
100CD
330
5
100
AcDbSymbolTableRecord
100
AcDbLinetypeTableRecord
  2
Amzigzag
 70
     0
  3
/\/-/\/-/\/-/\/-/\/-/\/
 72
    65
 73
     2
 40
11.0001
 49
0.0001
 74
     4
 75
   136
340
100CC
 46
0.04
 50
0.0
 44
0.0
 45
0.0
 49
-11.0
 74
     0
  0
LTYPE
  5
100DC
330
5
100
AcDbSymbolTableRecord
100
AcDbLinetypeTableRecord
  2
ACISOWELD
 70
     0
  3
_ _ _ _ _
 72
    65
 73
     2
 40
2.0
 49
2.0
 74
     0
 49
-1.0
 74
     0
  0
LTYPE
  5
100DD
330
5
100
AcDbSymbolTableRecord
100
AcDbLinetypeTableRecord
  2
ACISOTGB
 70
     0
  3
__ . . __ . .
 72
    65
 73
     6
 40
9.0
 49
4.0
 74
     0
 49
-1.0
 74
     0
 49
1.0
 74
     0
 49
-1.0
 74
     0
 49
1.0
 74
     0
 49
-1.0
 74
     0
  0
LTYPE
  5
100DE
330
5
100
AcDbSymbolTableRecord
100
AcDbLinetypeTableRecord
  2
ACISOTGL
 70
     0
  3
_ _ _ _ _
 72
    65
 73
     2
 40
3.0
 49
2.0
 74
     0
 49
-1.0
 74
     0
  0
ENDTAB
  0
TABLE
  2
LAYER
  5
2
330
0
100
AcDbSymbolTable
 70
     2
  0
LAYER
  5
50
102
{ACAD_XDICTIONARY
360
105BB
102
}
330
2
100
AcDbSymbolTableRecord
100
AcDbLayerTableRecord
  2
0
 70
     0
 62
     7
  6
CONTINUOUS
370
    -3
390
10002
347
10014
  0
LAYER
  5
51
102
{ACAD_XDICTIONARY
360
105BD
102
}
330
2
100
AcDbSymbolTableRecord
100
AcDbLayerTableRecord
  2
LAYER_1
 70
     0
 62
     7
  6
CONTINUOUS
370
    -3
390
10002
347
10014
  0
ENDTAB
  0
TABLE
  2
STYLE
  5
3
330
0
100
AcDbSymbolTable
 70
     4
  0
STYLE
  5
11
330
3
100
AcDbSymbolTableRecord
100
AcDbTextStyleTableRecord
  2
STANDARD
 70
     0
 40
0.0
 41
1.0
 50
0.0
 71
     0
 42
2.5
  3
txt
  4

  0
STYLE
  5
100CC
330
3
100
AcDbSymbolTableRecord
100
AcDbTextStyleTableRecord
  2

 70
     1
 40
0.0
 41
1.0
 50
0.0
 71
     0
 42
0.2
  3
genltshp.shx
  4

  0
STYLE
  5
100DA
330
3
100
AcDbSymbolTableRecord
100
AcDbTextStyleTableRecord
  2
ACISOTS
 70
     0
 40
1.0
 41
1.0
 50
0.0
 71
     0
 42
0.2
  3
isocp.shx
  4

  0
STYLE
  5
100DB
330
3
100
AcDbSymbolTableRecord
100
AcDbTextStyleTableRecord
  2
ACISOGDT
 70
     0
 40
0.0
 41
1.0
 50
0.0
 71
     0
 42
0.2
  3
amgdt.shx
  4

  0
ENDTAB
  0
TABLE
  2
VIEW
  5
6
330
0
100
AcDbSymbolTable
 70
     0
  0
ENDTAB
  0
TABLE
  2
UCS
  5
7
330
0
100
AcDbSymbolTable
 70
     0
  0
ENDTAB
  0
TABLE
  2
APPID
  5
9
330
0
100
AcDbSymbolTable
 70
     9
  0
APPID
  5
12
330
9
100
AcDbSymbolTableRecord
100
AcDbRegAppTableRecord
  2
ACAD
 70
     0
  0
APPID
  5
10044
330
9
100
AcDbSymbolTableRecord
100
AcDbRegAppTableRecord
  2
ACAD_MLEADERVER
 70
     0
  0
APPID
  5
1004C
330
9
100
AcDbSymbolTableRecord
100
AcDbRegAppTableRecord
  2
MCAD_NO_VIS
 70
     0
  0
APPID
  5
1004D
330
9
100
AcDbSymbolTableRecord
100
AcDbRegAppTableRecord
  2
ACAD_TEMP_GRAPHIC
 70
     0
  0
APPID
  5
1007D
330
9
100
AcDbSymbolTableRecord
100
AcDbRegAppTableRecord
  2
AD_DRAW
 70
     0
  0
APPID
  5
10080
330
9
100
AcDbSymbolTableRecord
100
AcDbRegAppTableRecord
  2
ACATTRIBSERVICES
 70
     0
  0
APPID
  5
100A5
330
9
100
AcDbSymbolTableRecord
100
AcDbRegAppTableRecord
  2
DESIGNERASSEMBLIES
 70
     0
  0
APPID
  5
100AB
330
9
100
AcDbSymbolTableRecord
100
AcDbRegAppTableRecord
  2
ACADM_DIM_EDIT
 70
     0
  0
APPID
  5
100AC
330
9
100
AcDbSymbolTableRecord
100
AcDbRegAppTableRecord
  2
AMDT_DM_ADJ
 70
     0
  0
ENDTAB
  0
TABLE
  2
DIMSTYLE
  5
A
330
0
100
AcDbSymbolTable
 70
     8
100
AcDbDimStyleTable
  0
DIMSTYLE
105
27
330
A
100
AcDbSymbolTableRecord
100
AcDbDimStyleTableRecord
  2
ISO-25
 70
     0
 41
2.5
 42
0.625
 43
3.75
 44
1.25
 73
     0
 74
     0
 77
     1
 78
     8
140
2.5
141
2.5
143
0.03937007874016
147
0.625
171
     3
172
     1
178
     0
271
     2
272
     2
274
     3
283
     0
284
     8
340
11
  0
DIMSTYLE
105
100C3
330
A
100
AcDbSymbolTableRecord
100
AcDbDimStyleTableRecord
  2
AM_ISO
 70
     0
  4
"
 41
3.5
 42
1.0
 43
10.0
 44
1.0
 47
0.1
 48
0.1
 90
        1
 73
     0
 74
     0
 77
     1
 78
     8
 79
     2
140
3.5
141
0.0
143
0.0393701
146
0.71
147
1.5
172
     1
176
   256
177
   256
271
     2
178
   140
271
     2
272
     3
274
     4
283
     0
284
     8
340
11
371
    -1
372
    -1
345
14
346
14
347
14
  0
DIMSTYLE
105
100CE
330
A
100
AcDbSymbolTableRecord
100
AcDbDimStyleTableRecord
  2
AM_ISO$3
 70
     0
  4
"
 41
3.5
 42
1.0
 43
10.0
 44
1.0
 47
0.1
 48
0.1
 90
        1
 73
     0
 77
     1
 78
     8
 79
     2
140
3.5
141
0.0
143
0.0393701
146
0.71
147
1.5
176
   256
177
   256
271
     2
178
   140
271
     2
272
     3
274
     4
283
     0
284
     8
288
     1
289
     0
340
11
371
    -1
372
    -1
345
14
346
14
347
14
  0
DIMSTYLE
105
100CF
330
A
100
AcDbSymbolTableRecord
100
AcDbDimStyleTableRecord
  2
AM_ISO$4
 70
     0
  4
"
 41
3.5
 42
1.0
 43
10.0
 44
1.0
 47
0.1
 48
0.1
 90
        1
 73
     0
 74
     0
 77
     1
 78
     8
 79
     2
140
3.5
141
0.0
143
0.0393701
146
0.71
147
1.5
172
     1
176
   256
177
   256
271
     2
178
   140
271
     2
272
     3
274
     4
283
     0
284
     8
340
11
371
    -1
372
    -1
345
14
346
14
347
14
  0
DIMSTYLE
105
100D0
330
A
100
AcDbSymbolTableRecord
100
AcDbDimStyleTableRecord
  2
AM_ISO$6
 70
     0
  4
"
 41
3.5
 42
1.0
 43
10.0
 44
1.0
 47
0.1
 48
0.1
 90
        1
 73
     0
 74
     0
 78
     8
 79
     2
140
3.5
141
0.0
143
0.0393701
146
0.71
147
1.5
172
     1
176
   256
177
   256
271
     2
178
   140
271
     2
272
     3
274
     4
283
     0
284
     8
340
11
371
    -1
372
    -1
345
14
346
14
347
14
  0
DIMSTYLE
105
100D1
330
A
100
AcDbSymbolTableRecord
100
AcDbDimStyleTableRecord
  2
AM_ISO$7
 70
     0
  4
"
 41
3.5
 42
1.0
 43
10.0
 44
1.0
 47
0.1
 48
0.1
 90
        1
 73
     0
 74
     0
 77
     1
 78
     8
 79
     2
140
3.5
141
0.0
143
0.0393701
146
0.71
147
1.5
172
     1
176
   256
177
   256
271
     2
178
   140
271
     2
272
     3
274
     4
283
     0
284
     8
340
11
371
    -1
372
    -1
345
14
346
14
347
14
  0
DIMSTYLE
105
100D2
330
A
100
AcDbSymbolTableRecord
100
AcDbDimStyleTableRecord
  2
AM_ISO$SF
 70
     0
  4
"
 41
3.5
 42
1.0
 43
10.0
 44
1.0
 47
0.1
 48
0.1
 90
        1
 73
     0
 74
     0
 75
     1
 76
     1
 77
     1
 78
     8
 79
     2
140
3.5
141
0.0
143
0.0393701
146
0.71
147
1.5
172
     1
176
   256
177
   256
271
     2
178
   140
271
     2
272
     3
274
     4
283
     0
284
     8
340
11
371
    -1
372
    -1
345
14
346
14
347
14
  0
DIMSTYLE
105
100D7
330
A
100
AcDbSymbolTableRecord
100
AcDbDimStyleTableRecord
  2
AM_ISO$SH
 70
     0
  4
"
 41
3.5
 42
1.0
 43
10.0
 44
1.0
 47
0.1
 48
0.1
 90
        1
 73
     0
 74
     0
 75
     1
 76
     1
 77
     1
 78
     8
 79
     2
140
3.5
141
0.0
143
0.0393701
144
2.0
146
0.71
147
1.5
172
     1
173
     1
176
   256
177
   256
271
     2
178
   140
271
     2
272
     3
274
     4
283
     0
284
     8
340
11
343
100D3
371
    -1
372
    -1
345
14
346
14
347
14
  0
ENDTAB
  0
TABLE
  2
BLOCK_RECORD
  5
1
330
0
100
AcDbSymbolTable
 70
     2
  0
BLOCK_RECORD
  5
1F
102
{ACAD_XDICTIONARY
360
10162
102
}
330
1
100
AcDbSymbolTableRecord
100
AcDbBlockTableRecord
  2
*MODEL_SPACE
340
10047
 70
     0
280
     1
281
     0
  0
BLOCK_RECORD
  5
1B
330
1
100
AcDbSymbolTableRecord
100
AcDbBlockTableRecord
  2
*PAPER_SPACE
340
10048
 70
     0
280
     1
281
     0
  0
BLOCK_RECORD
  5
100D3
330
1
100
AcDbSymbolTableRecord
100
AcDbBlockTableRecord
  2
GENAXEH
340
0
 70
     0
280
     1
281
     0
  0
ENDTAB
  0
ENDSEC
  0
SECTION
  2
BLOCKS
  0
BLOCK
  5
20
330
1F
100
AcDbEntity
  8
0
100
AcDbBlockBegin
  2
*MODEL_SPACE
 70
     0
 10
0.0
 20
0.0
 30
0.0
  3
*MODEL_SPACE
  1
*MODEL_SPACE
  0
ENDBLK
  5
21
330
1F
100
AcDbEntity
  8
0
100
AcDbBlockEnd
  0
BLOCK
  5
1C
330
1B
100
AcDbEntity
 67
     1
  8
0
100
AcDbBlockBegin
  2
*PAPER_SPACE
 70
     0
 10
0.0
 20
0.0
 30
0.0
  3
*PAPER_SPACE
  1
*PAPER_SPACE
  0
ENDBLK
  5
1D
330
1B
100
AcDbEntity
 67
     1
  8
0
100
AcDbBlockEnd
  0
BLOCK
  5
100D5
330
100D3
100
AcDbEntity
  8
0
100
AcDbBlockBegin
  2
GENAXEH
 70
     0
 10
0.0
 20
0.0
 30
0.0
  3
GENAXEH
  1
GENAXEH
  0
LINE
  5
100D4
330
100D3
100
AcDbEntity
  8
0
100
AcDbLine
 10
-1.0
 20
0.0
 30
0.0
 11
1.0
 21
0.0
 31
0.0
  0
ENDBLK
  5
100D6
330
100D3
100
AcDbEntity
  8
0
100
AcDbBlockEnd
  0
ENDSEC
  0
SECTION
  2
ENTITIES
  0
LWPOLYLINE
  5
10D9E
102
{ACAD_REACTORS
330
10DFF
102
}
330
1F
100
AcDbEntity
  8
LAYER_1
 62
     7
100
AcDbPolyline
 90
        3
 70
     0
 43
0.0
 10
594.7985152957172
 20
472.8770097609494
 10
594.8094512957174
 20
473.3223217609494
 10
586.5328832957173
 20
473.3691937609494
  0
LWPOLYLINE
  5
10D9F
102
{ACAD_REACTORS
330
10DFF
102
}
330
1F
100
AcDbEntity
  8
LAYER_1
 62
     7
100
AcDbPolyline
 90
        7
 70
     0
 43
0.0
 10
646.7625712957173
 20
439.2770097609495
 10
654.4406992957173
 20
439.3238817609496
 10
654.4860112957173
 20
460.4613857609494
 10
654.5313232957174
 20
481.5988817609494
 10
691.9110112957172
 20
481.5988817609494
 10
729.2906992957172
 20
481.5988817609494
 10
729.2906992957172
 20
486.9332577609495
  0
SPLINE
  5
10DA0
102
{ACAD_REACTORS
330
10DFF
102
}
330
1F
100
AcDbEntity
  8
LAYER_1
 62
     7
100
AcDbSpline
210
0.0
220
0.0
230
1.0
 70
     8
 71
     3
 72
     8
 73
     4
 74
     0
 42
0.000000001
 43
0.0000000001
 40
0.0
 40
0.0
 40
0.0
 40
0.0
 40
1.0
 40
1.0
 40
1.0
 40
1.0
 10
729.2906992957172
 20
486.9332577609495
 30
0.0
 10
729.2906992957172
 20
492.0355457609495
 30
0.0
 10
729.2751792957173
 20
492.2746817609495
 30
0.0
 10
728.9438272957171
 20
492.4520097609494
 30
0.0
  0
SPLINE
  5
10DA1
102
{ACAD_REACTORS
330
10DFF
102
}
330
1F
100
AcDbEntity
  8
LAYER_1
 62
     7
100
AcDbSpline
210
0.0
220
0.0
230
1.0
 70
     8
 71
     3
 72
     8
 73
     4
 74
     0
 42
0.000000001
 43
0.0000000001
 40
0.0
 40
0.0
 40
0.0
 40
0.0
 40
1.0
 40
1.0
 40
1.0
 40
1.0
 10
728.9438272957171
 20
492.4520097609494
 30
0.0
 10
728.6762352957172
 20
492.5952257609496
 30
0.0
 10
700.7200352957174
 20
492.6367777609495
 30
0.0
 10
672.8172592957172
 20
492.6066977609495
 30
0.0
  0
SPLINE
  5
10DA2
102
{ACAD_REACTORS
330
10DFF
102
}
330
1F
100
AcDbEntity
  8
LAYER_1
 62
     7
100
AcDbSpline
210
0.0
220
0.0
230
1.0
 70
     8
 71
     3
 72
     8
 73
     4
 74
     0
 42
0.000000001
 43
0.0000000001
 40
0.0
 40
0.0
 40
0.0
 40
0.0
 40
1.0
 40
1.0
 40
1.0
 40
1.0
 10
672.8172592957172
 20
492.6066977609495
 30
0.0
 10
644.9144912957173
 20
492.5766177609495
 30
0.0
 10
617.0651072957171
 20
492.4752497609495
 30
0.0
 10
617.0172592957173
 20
492.3316977609494
 30
0.0
  0
SPLINE
  5
10DA3
102
{ACAD_REACTORS
330
10DFF
102
}
330
1F
100
AcDbEntity
  8
LAYER_1
 62
     7
100
AcDbSpline
210
0.0
220
0.0
230
1.0
 70
     8
 71
     3
 72
     8
 73
     4
 74
     0
 42
0.000000001
 43
0.0000000001
 40
0.0
 40
0.0
 40
0.0
 40
0.0
 40
1.0
 40
1.0
 40
1.0
 40
1.0
 10
617.0172592957173
 20
492.3316977609494
 30
0.0
 10
616.9778832957174
 20
492.2135537609494
 30
0.0
 10
615.9421152957173
 20
490.5330737609495
 30
0.0
 10
614.7141392957172
 20
488.5973217609495
 30
0.0
  0
SPLINE
  5
10DA4
102
{ACAD_REACTORS
330
10DFF
102
}
330
1F
100
AcDbEntity
  8
LAYER_1
 62
     7
100
AcDbSpline
210
0.0
220
0.0
230
1.0
 70
     8
 71
     3
 72
     8
 73
     4
 74
     0
 42
0.000000001
 43
0.0000000001
 40
0.0
 40
0.0
 40
0.0
 40
0.0
 40
1.0
 40
1.0
 40
1.0
 40
1.0
 10
614.7141392957172
 20
488.5973217609495
 30
0.0
 10
613.4861712957172
 20
486.6615777609495
 30
0.0
 10
612.4160832957174
 20
484.9063297609495
 30
0.0
 10
612.3360112957173
 20
484.6957617609495
 30
0.0
  0
SPLINE
  5
10DA5
102
{ACAD_REACTORS
330
10DFF
102
}
330
1F
100
AcDbEntity
  8
LAYER_1
 62
     7
100
AcDbSpline
210
0.0
220
0.0
230
1.0
 70
     8
 71
     3
 72
     8
 73
     4
 74
     0
 42
0.000000001
 43
0.0000000001
 40
0.0
 40
0.0
 40
0.0
 40
0.0
 40
1.0
 40
1.0
 40
1.0
 40
1.0
 10
612.3360112957173
 20
484.6957617609495
 30
0.0
 10
612.2559632957174
 20
484.4851937609494
 30
0.0
 10
611.8298192957174
 20
483.7504577609495
 30
0.0
 10
611.3891392957173
 20
483.0629457609494
 30
0.0
  0
SPLINE
  5
10DA6
102
{ACAD_REACTORS
330
10DFF
102
}
330
1F
100
AcDbEntity
  8
LAYER_1
 62
     7
100
AcDbSpline
210
0.0
220
0.0
230
1.0
 70
     8
 71
     3
 72
     8
 73
     4
 74
     0
 42
0.000000001
 43
0.0000000001
 40
0.0
 40
0.0
 40
0.0
 40
0.0
 40
1.0
 40
1.0
 40
1.0
 40
1.0
 10
611.3891392957173
 20
483.0629457609494
 30
0.0
 10
610.9484512957173
 20
482.3754337609495
 30
0.0
 10
610.6353472957173
 20
481.7651777609495
 30
0.0
 10
610.6938272957173
 20
481.7066977609494
 30
0.0
  0
SPLINE
  5
10DA7
102
{ACAD_REACTORS
330
10DFF
102
}
330
1F
100
AcDbEntity
  8
LAYER_1
 62
     7
100
AcDbSpline
210
0.0
220
0.0
230
1.0
 70
     8
 71
     3
 72
     8
 73
     4
 74
     0
 42
0.000000001
 43
0.0000000001
 40
0.0
 40
0.0
 40
0.0
 40
0.0
 40
1.0
 40
1.0
 40
1.0
 40
1.0
 10
610.6938272957173
 20
481.7066977609494
 30
0.0
 10
610.7523152957174
 20
481.6481697609495
 30
0.0
 10
617.1149552957172
 20
481.5988817609494
 30
0.0
 10
624.8328832957174
 20
481.5988817609494
 30
0.0
  0
LWPOLYLINE
  5
10DA8
102
{ACAD_REACTORS
330
10DFF
102
}
330
1F
100
AcDbEntity
  8
LAYER_1
 62
     7
100
AcDbPolyline
 90
        3
 70
     0
 43
0.0
 10
624.8328832957174
 20
481.5988817609494
 10
638.8656992957173
 20
481.5988817609494
 10
638.8656992957173
 20
460.6988817609496
  0
SPLINE
  5
10DA9
102
{ACAD_REACTORS
330
10DFF
102
}
330
1F
100
AcDbEntity
  8
LAYER_1
 62
     7
100
AcDbSpline
210
0.0
220
0.0
230
1.0
 70
     8
 71
     3
 72
     8
 73
     4
 74
     0
 42
0.000000001
 43
0.0000000001
 40
0.0
 40
0.0
 40
0.0
 40
0.0
 40
1.0
 40
1.0
 40
1.0
 40
1.0
 10
638.8656992957173
 20
460.6988817609496
 30
0.0
 10
638.8656992957173
 20
449.2034337609495
 30
0.0
 10
638.9136752957173
 20
439.6704097609494
 30
0.0
 10
638.9735152957172
 20
439.5145137609495
 30
0.0
  0
SPLINE
  5
10DAA
102
{ACAD_REACTORS
330
10DFF
102
}
330
1F
100
AcDbEntity
  8
LAYER_1
 62
     7
100
AcDbSpline
210
0.0
220
0.0
230
1.0
 70
     8
 71
     3
 72
     8
 73
     4
 74
     0
 42
0.000000001
 43
0.0000000001
 40
0.0
 40
0.0
 40
0.0
 40
0.0
 40
1.0
 40
1.0
 40
1.0
 40
1.0
 10
638.9735152957172
 20
439.5145137609495
 30
0.0
 10
639.0710592957173
 20
439.2603297609494
 30
0.0
 10
639.8760592957173
 20
439.2354097609494
 30
0.0
 10
646.7625712957173
 20
439.2770097609495
 30
0.0
  0
LWPOLYLINE
  5
10DAB
102
{ACAD_REACTORS
330
10DFF
102
}
330
1F
100
AcDbEntity
  8
LAYER_1
 62
     7
100
AcDbPolyline
 90
        3
 70
     0
 43
0.0
 10
622.5891392957172
 20
439.2770097609495
 10
630.2328832957173
 20
439.3238817609496
 10
630.2782032957174
 20
456.1457617609495
  0
SPLINE
  5
10DAC
102
{ACAD_REACTORS
330
10DFF
102
}
330
1F
100
AcDbEntity
  8
LAYER_1
 62
     7
100
AcDbSpline
210
0.0
220
0.0
230
1.0
 70
     8
 71
     3
 72
     8
 73
     4
 74
     0
 42
0.000000001
 43
0.0000000001
 40
0.0
 40
0.0
 40
0.0
 40
0.0
 40
1.0
 40
1.0
 40
1.0
 40
1.0
 10
630.2782032957174
 20
456.1457617609495
 30
0.0
 10
630.3210352957173
 20
471.8020817609496
 30
0.0
 10
630.3035472957173
 20
472.9824177609495
 30
0.0
 10
630.0219472957173
 20
473.1895137609494
 30
0.0
  0
SPLINE
  5
10DAD
102
{ACAD_REACTORS
330
10DFF
102
}
330
1F
100
AcDbEntity
  8
LAYER_1
 62
     7
100
AcDbSpline
210
0.0
220
0.0
230
1.0
 70
     8
 71
     3
 72
     8
 73
     4
 74
     0
 42
0.000000001
 43
0.0000000001
 40
0.0
 40
0.0
 40
0.0
 40
0.0
 40
1.0
 40
1.0
 40
1.0
 40
1.0
 10
630.0219472957173
 20
473.1895137609494
 30
0.0
 10
629.7865712957172
 20
473.3626577609494
 30
0.0
 10
626.9705312957173
 20
473.4099377609494
 30
0.0
 10
617.3375712957175
 20
473.4051377609495
 30
0.0
  0
SPLINE
  5
10DAE
102
{ACAD_REACTORS
330
10DFF
102
}
330
1F
100
AcDbEntity
  8
LAYER_1
 62
     7
100
AcDbSpline
210
0.0
220
0.0
230
1.0
 70
     8
 71
     3
 72
     8
 73
     4
 74
     0
 42
0.000000001
 43
0.0000000001
 40
0.0
 40
0.0
 40
0.0
 40
0.0
 40
1.0
 40
1.0
 40
1.0
 40
1.0
 10
617.3375712957175
 20
473.4051377609495
 30
0.0
 10
605.9013392957172
 20
473.3996657609495
 30
0.0
 10
604.9282432957172
 20
473.3764417609494
 30
0.0
 10
604.5938272957173
 20
473.0942017609494
 30
0.0
  0
SPLINE
  5
10DAF
102
{ACAD_REACTORS
330
10DFF
102
}
330
1F
100
AcDbEntity
  8
LAYER_1
 62
     7
100
AcDbSpline
210
0.0
220
0.0
230
1.0
 70
     8
 71
     3
 72
     8
 73
     4
 74
     0
 42
0.000000001
 43
0.0000000001
 40
0.0
 40
0.0
 40
0.0
 40
0.0
 40
1.0
 40
1.0
 40
1.0
 40
1.0
 10
604.5938272957173
 20
473.0942017609494
 30
0.0
 10
604.2513152957174
 20
472.8051137609494
 30
0.0
 10
584.3720432957174
 20
439.9402097609494
 30
0.0
 10
584.2500752957174
 20
439.4613857609494
 30
0.0
  0
SPLINE
  5
10DB0
102
{ACAD_REACTORS
330
10DFF
102
}
330
1F
100
AcDbEntity
  8
LAYER_1
 62
     7
100
AcDbSpline
210
0.0
220
0.0
230
1.0
 70
     8
 71
     3
 72
     8
 73
     4
 74
     0
 42
0.000000001
 43
0.0000000001
 40
0.0
 40
0.0
 40
0.0
 40
0.0
 40
1.0
 40
1.0
 40
1.0
 40
1.0
 10
584.2500752957174
 20
439.4613857609494
 30
0.0
 10
584.1595952957174
 20
439.1062177609496
 30
0.0
 10
601.2608192957173
 20
439.1336977609494
 30
0.0
 10
601.7688272957173
 20
439.4895137609494
 30
0.0
  0
SPLINE
  5
10DB1
102
{ACAD_REACTORS
330
10DFF
102
}
330
1F
100
AcDbEntity
  8
LAYER_1
 62
     7
100
AcDbSpline
210
0.0
220
0.0
230
1.0
 70
     8
 71
     3
 72
     8
 73
     4
 74
     0
 42
0.000000001
 43
0.0000000001
 40
0.0
 40
0.0
 40
0.0
 40
0.0
 40
1.0
 40
1.0
 40
1.0
 40
1.0
 10
601.7688272957173
 20
439.4895137609494
 30
0.0
 10
601.9682912957173
 20
439.6292337609494
 30
0.0
 10
604.7694352957174
 20
444.1524577609495
 30
0.0
 10
607.9938272957174
 20
449.5410737609495
 30
0.0
  0
SPLINE
  5
10DB2
102
{ACAD_REACTORS
330
10DFF
102
}
330
1F
100
AcDbEntity
  8
LAYER_1
 62
     7
100
AcDbSpline
210
0.0
220
0.0
230
1.0
 70
     8
 71
     3
 72
     8
 73
     4
 74
     0
 42
0.000000001
 43
0.0000000001
 40
0.0
 40
0.0
 40
0.0
 40
0.0
 40
1.0
 40
1.0
 40
1.0
 40
1.0
 10
607.9938272957174
 20
449.5410737609495
 30
0.0
 10
612.9377552957174
 20
457.8033857609495
 30
0.0
 10
613.9185792957173
 20
459.3394017609494
 30
0.0
 10
614.2563232957174
 20
459.3442017609494
 30
0.0
  0
LWPOLYLINE
  5
10DB3
102
{ACAD_REACTORS
330
10DFF
102
}
330
1F
100
AcDbEntity
  8
LAYER_1
 62
     7
100
AcDbPolyline
 90
        3
 70
     0
 43
0.0
 10
614.2563232957174
 20
459.3442017609494
 10
614.6578912957171
 20
459.3488817609494
 10
614.6594512957172
 20
449.5145137609494
  0
SPLINE
  5
10DB4
102
{ACAD_REACTORS
330
10DFF
102
}
330
1F
100
AcDbEntity
  8
LAYER_1
 62
     7
100
AcDbSpline
210
0.0
220
0.0
230
1.0
 70
     8
 71
     3
 72
     8
 73
     4
 74
     0
 42
0.000000001
 43
0.0000000001
 40
0.0
 40
0.0
 40
0.0
 40
0.0
 40
1.0
 40
1.0
 40
1.0
 40
1.0
 10
614.6594512957172
 20
449.5145137609494
 30
0.0
 10
614.6609472957173
 20
444.1054417609495
 30
0.0
 10
614.7263632957172
 20
439.5785777609494
 30
0.0
 10
614.8047632957173
 20
439.4551377609495
 30
0.0
  0
SPLINE
  5
10DB5
102
{ACAD_REACTORS
330
10DFF
102
}
330
1F
100
AcDbEntity
  8
LAYER_1
 62
     7
100
AcDbSpline
210
0.0
220
0.0
230
1.0
 70
     8
 71
     3
 72
     8
 73
     4
 74
     0
 42
0.000000001
 43
0.0000000001
 40
0.0
 40
0.0
 40
0.0
 40
0.0
 40
1.0
 40
1.0
 40
1.0
 40
1.0
 10
614.8047632957173
 20
439.4551377609495
 30
0.0
 10
614.9165312957174
 20
439.2787377609495
 30
0.0
 10
616.5932992957173
 20
439.2406097609495
 30
0.0
 10
622.5891392957172
 20
439.2770097609495
 30
0.0
  0
SPLINE
  5
10DB6
102
{ACAD_REACTORS
330
10DFF
102
}
330
1F
100
AcDbEntity
  8
LAYER_1
 62
     7
100
AcDbSpline
210
0.0
220
0.0
230
1.0
 70
     8
 71
     3
 72
     8
 73
     4
 74
     0
 42
0.000000001
 43
0.0000000001
 40
0.0
 40
0.0
 40
0.0
 40
0.0
 40
1.0
 40
1.0
 40
1.0
 40
1.0
 10
586.5328832957173
 20
473.3691937609494
 30
0.0
 10
584.6796272957173
 20
473.3797857609494
 30
0.0
 10
583.2315552957174
 20
473.3869457609494
 30
0.0
 10
582.0953872957174
 20
473.3863857609493
 30
0.0
  0
SPLINE
  5
10DB7
102
{ACAD_REACTORS
330
10DFF
102
}
330
1F
100
AcDbEntity
  8
LAYER_1
 62
     7
100
AcDbSpline
210
0.0
220
0.0
230
1.0
 70
     8
 71
     3
 72
     8
 73
     4
 74
     0
 42
0.000000001
 43
0.0000000001
 40
0.0
 40
0.0
 40
0.0
 40
0.0
 40
1.0
 40
1.0
 40
1.0
 40
1.0
 10
582.0953872957174
 20
473.3863857609493
 30
0.0
 10
578.6868752957173
 20
473.3846977609494
 30
0.0
 10
578.0806432957174
 20
473.3211057609495
 30
0.0
 10
577.7219472957172
 20
473.1238817609495
 30
0.0
  0
SPLINE
  5
10DB8
102
{ACAD_REACTORS
330
10DFF
102
}
330
1F
100
AcDbEntity
  8
LAYER_1
 62
     7
100
AcDbSpline
210
0.0
220
0.0
230
1.0
 70
     8
 71
     3
 72
     8
 73
     4
 74
     0
 42
0.000000001
 43
0.0000000001
 40
0.0
 40
0.0
 40
0.0
 40
0.0
 40
1.0
 40
1.0
 40
1.0
 40
1.0
 10
577.7219472957172
 20
473.1238817609495
 30
0.0
 10
577.3006432957174
 20
472.8922337609496
 30
0.0
 10
575.1397552957174
 20
469.3943777609495
 30
0.0
 10
567.4860112957174
 20
456.5535697609495
 30
0.0
  0
SPLINE
  5
10DB9
102
{ACAD_REACTORS
330
10DFF
102
}
330
1F
100
AcDbEntity
  8
LAYER_1
 62
     7
100
AcDbSpline
210
0.0
220
0.0
230
1.0
 70
     8
 71
     3
 72
     8
 73
     4
 74
     0
 42
0.000000001
 43
0.0000000001
 40
0.0
 40
0.0
 40
0.0
 40
0.0
 40
1.0
 40
1.0
 40
1.0
 40
1.0
 10
567.4860112957174
 20
456.5535697609495
 30
0.0
 10
562.1503712957174
 20
447.6018737609495
 30
0.0
 10
557.6372592957173
 20
440.0436177609494
 30
0.0
 10
557.4563232957173
 20
439.7566977609496
 30
0.0
  0
LWPOLYLINE
  5
10DBA
102
{ACAD_REACTORS
330
10DFF
102
}
330
1F
100
AcDbEntity
  8
LAYER_1
 62
     7
100
AcDbPolyline
 90
        5
 70
     0
 43
0.0
 10
557.4563232957173
 20
439.7566977609496
 10
557.1266352957174
 20
439.2348257609495
 10
565.8360112957173
 20
439.2348257609495
 10
574.5438272957174
 20
439.2348257609495
 10
574.9125712957174
 20
439.6348257609495
  0
SPLINE
  5
10DBB
102
{ACAD_REACTORS
330
10DFF
102
}
330
1F
100
AcDbEntity
  8
LAYER_1
 62
     7
100
AcDbSpline
210
0.0
220
0.0
230
1.0
 70
     8
 71
     3
 72
     8
 73
     4
 74
     0
 42
0.000000001
 43
0.0000000001
 40
0.0
 40
0.0
 40
0.0
 40
0.0
 40
1.0
 40
1.0
 40
1.0
 40
1.0
 10
574.9125712957174
 20
439.6348257609495
 30
0.0
 10
575.6363152957174
 20
440.4200657609496
 30
0.0
 10
594.7871552957174
 20
472.4333937609493
 30
0.0
 10
594.7985152957172
 20
472.8770097609494
 30
0.0
  0
SPLINE
  5
10DBC
102
{ACAD_REACTORS
330
10DFF
102
}
330
1F
100
AcDbEntity
  8
LAYER_1
 62
     7
100
AcDbSpline
210
0.0
220
0.0
230
1.0
 70
     8
 71
     3
 72
     8
 73
     4
 74
     0
 42
0.000000001
 43
0.0000000001
 40
0.0
 40
0.0
 40
0.0
 40
0.0
 40
1.0
 40
1.0
 40
1.0
 40
1.0
 10
553.3750752957174
 20
439.6348257609495
 30
0.0
 10
554.0988192957172
 20
440.4200657609496
 30
0.0
 10
573.2480912957174
 20
472.4333937609493
 30
0.0
 10
573.2594512957173
 20
472.8770097609494
 30
0.0
  0
LWPOLYLINE
  5
10DBD
102
{ACAD_REACTORS
330
10DFF
102
}
330
1F
100
AcDbEntity
  8
LAYER_1
 62
     7
100
AcDbPolyline
 90
        5
 70
     0
 43
0.0
 10
535.9172592957173
 20
439.7566977609496
 10
535.5891392957172
 20
439.2348257609495
 10
544.2969472957172
 20
439.2348257609495
 10
553.0063232957174
 20
439.2348257609495
 10
553.3750752957174
 20
439.6348257609495
  0
SPLINE
  5
10DBE
102
{ACAD_REACTORS
330
10DFF
102
}
330
1F
100
AcDbEntity
  8
LAYER_1
 62
     7
100
AcDbSpline
210
0.0
220
0.0
230
1.0
 70
     8
 71
     3
 72
     8
 73
     4
 74
     0
 42
0.000000001
 43
0.0000000001
 40
0.0
 40
0.0
 40
0.0
 40
0.0
 40
1.0
 40
1.0
 40
1.0
 40
1.0
 10
545.9469472957173
 20
456.5535697609495
 30
0.0
 10
540.6112992957173
 20
447.6018737609495
 30
0.0
 10
536.0982032957174
 20
440.0436177609494
 30
0.0
 10
535.9172592957173
 20
439.7566977609496
 30
0.0
  0
SPLINE
  5
10DBF
102
{ACAD_REACTORS
330
10DFF
102
}
330
1F
100
AcDbEntity
  8
LAYER_1
 62
     7
100
AcDbSpline
210
0.0
220
0.0
230
1.0
 70
     8
 71
     3
 72
     8
 73
     4
 74
     0
 42
0.000000001
 43
0.0000000001
 40
0.0
 40
0.0
 40
0.0
 40
0.0
 40
1.0
 40
1.0
 40
1.0
 40
1.0
 10
556.1828832957173
 20
473.1238817609495
 30
0.0
 10
555.7615952957173
 20
472.8922337609496
 30
0.0
 10
553.6006912957173
 20
469.3943777609495
 30
0.0
 10
545.9469472957173
 20
456.5535697609495
 30
0.0
  0
SPLINE
  5
10DC0
102
{ACAD_REACTORS
330
10DFF
102
}
330
1F
100
AcDbEntity
  8
LAYER_1
 62
     7
100
AcDbSpline
210
0.0
220
0.0
230
1.0
 70
     8
 71
     3
 72
     8
 73
     4
 74
     0
 42
0.000000001
 43
0.0000000001
 40
0.0
 40
0.0
 40
0.0
 40
0.0
 40
1.0
 40
1.0
 40
1.0
 40
1.0
 10
560.5578912957174
 20
473.3863857609493
 30
0.0
 10
557.1493792957174
 20
473.3846977609494
 30
0.0
 10
556.5415952957173
 20
473.3211057609495
 30
0.0
 10
556.1828832957173
 20
473.1238817609495
 30
0.0
  0
SPLINE
  5
10DC1
102
{ACAD_REACTORS
330
10DFF
102
}
330
1F
100
AcDbEntity
  8
LAYER_1
 62
     7
100
AcDbSpline
210
0.0
220
0.0
230
1.0
 70
     8
 71
     3
 72
     8
 73
     4
 74
     0
 42
0.000000001
 43
0.0000000001
 40
0.0
 40
0.0
 40
0.0
 40
0.0
 40
1.0
 40
1.0
 40
1.0
 40
1.0
 10
564.9938272957174
 20
473.3691937609494
 30
0.0
 10
563.1405552957174
 20
473.3797857609494
 30
0.0
 10
561.6940592957174
 20
473.3869457609494
 30
0.0
 10
560.5578912957174
 20
473.3863857609493
 30
0.0
  0
LWPOLYLINE
  5
10DC2
102
{ACAD_REACTORS
330
10DFF
102
}
330
1F
100
AcDbEntity
  8
LAYER_1
 62
     7
100
AcDbPolyline
 90
        3
 70
     0
 43
0.0
 10
573.2594512957173
 20
472.8770097609494
 10
573.2719472957174
 20
473.3223217609494
 10
564.9938272957174
 20
473.3691937609494
  0
SPLINE
  5
10DC3
102
{ACAD_REACTORS
330
10DFF
102
}
330
1F
100
AcDbEntity
  8
LAYER_1
 62
     7
100
AcDbSpline
210
0.0
220
0.0
230
1.0
 70
     8
 71
     3
 72
     8
 73
     4
 74
     0
 42
0.000000001
 43
0.0000000001
 40
0.0
 40
0.0
 40
0.0
 40
0.0
 40
1.0
 40
1.0
 40
1.0
 40
1.0
 10
531.8360112957173
 20
439.6348257609495
 30
0.0
 10
532.5597552957172
 20
440.4200657609496
 30
0.0
 10
551.7105872957173
 20
472.4333937609493
 30
0.0
 10
551.7219472957172
 20
472.8770097609494
 30
0.0
  0
LWPOLYLINE
  5
10DC4
102
{ACAD_REACTORS
330
10DFF
102
}
330
1F
100
AcDbEntity
  8
LAYER_1
 62
     7
100
AcDbPolyline
 90
        5
 70
     0
 43
0.0
 10
514.3032032957173
 20
439.6348257609495
 10
514.0438272957174
 20
439.2348257609495
 10
522.7563232957174
 20
439.2348257609495
 10
531.4672592957174
 20
439.2348257609495
 10
531.8360112957173
 20
439.6348257609495
  0
SPLINE
  5
10DC5
102
{ACAD_REACTORS
330
10DFF
102
}
330
1F
100
AcDbEntity
  8
LAYER_1
 62
     7
100
AcDbSpline
210
0.0
220
0.0
230
1.0
 70
     8
 71
     3
 72
     8
 73
     4
 74
     0
 42
0.000000001
 43
0.0000000001
 40
0.0
 40
0.0
 40
0.0
 40
0.0
 40
1.0
 40
1.0
 40
1.0
 40
1.0
 10
524.3344512957173
 20
456.4129457609494
 30
0.0
 10
518.9601952957173
 20
447.4059857609494
 30
0.0
 10
514.4460512957173
 20
439.8550977609494
 30
0.0
 10
514.3032032957173
 20
439.6348257609495
 30
0.0
  0
SPLINE
  5
10DC6
102
{ACAD_REACTORS
330
10DFF
102
}
330
1F
100
AcDbEntity
  8
LAYER_1
 62
     7
100
AcDbSpline
210
0.0
220
0.0
230
1.0
 70
     8
 71
     3
 72
     8
 73
     4
 74
     0
 42
0.000000001
 43
0.0000000001
 40
0.0
 40
0.0
 40
0.0
 40
0.0
 40
1.0
 40
1.0
 40
1.0
 40
1.0
 10
534.4641392957172
 20
473.0957617609496
 30
0.0
 10
534.2672192957174
 20
472.9271057609495
 30
0.0
 10
529.7086832957174
 20
465.4199057609494
 30
0.0
 10
524.3344512957173
 20
456.4129457609494
 30
0.0
  0
SPLINE
  5
10DC7
102
{ACAD_REACTORS
330
10DFF
102
}
330
1F
100
AcDbEntity
  8
LAYER_1
 62
     7
100
AcDbSpline
210
0.0
220
0.0
230
1.0
 70
     8
 71
     3
 72
     8
 73
     4
 74
     0
 42
0.000000001
 43
0.0000000001
 40
0.0
 40
0.0
 40
0.0
 40
0.0
 40
1.0
 40
1.0
 40
1.0
 40
1.0
 10
538.6656992957173
 20
473.3754497609494
 30
0.0
 10
535.1703152957174
 20
473.3716017609494
 30
0.0
 10
534.7112112957172
 20
473.3073457609495
 30
0.0
 10
534.4641392957172
 20
473.0957617609496
 30
0.0
  0
SPLINE
  5
10DC8
102
{ACAD_REACTORS
330
10DFF
102
}
330
1F
100
AcDbEntity
  8
LAYER_1
 62
     7
100
AcDbSpline
210
0.0
220
0.0
230
1.0
 70
     8
 71
     3
 72
     8
 73
     4
 74
     0
 42
0.000000001
 43
0.0000000001
 40
0.0
 40
0.0
 40
0.0
 40
0.0
 40
1.0
 40
1.0
 40
1.0
 40
1.0
 10
543.2782032957174
 20
473.3613857609495
 30
0.0
 10
541.3335312957172
 20
473.3704977609494
 30
0.0
 10
539.8308272957172
 20
473.3767297609495
 30
0.0
 10
538.6656992957173
 20
473.3754497609494
 30
0.0
  0
LWPOLYLINE
  5
10DC9
102
{ACAD_REACTORS
330
10DFF
102
}
330
1F
100
AcDbEntity
  8
LAYER_1
 62
     7
100
AcDbPolyline
 90
        3
 70
     0
 43
0.0
 10
551.7219472957172
 20
472.8770097609494
 10
551.7328832957173
 20
473.3223217609494
 10
543.2782032957174
 20
473.3613857609495
  0
SPLINE
  5
10DCA
102
{ACAD_REACTORS
330
10DFF
102
}
330
1F
100
AcDbEntity
  8
LAYER_1
 62
     7
100
AcDbSpline
210
0.0
220
0.0
230
1.0
 70
     8
 71
     3
 72
     8
 73
     4
 74
     0
 42
0.000000001
 43
0.0000000001
 40
0.0
 40
0.0
 40
0.0
 40
0.0
 40
1.0
 40
1.0
 40
1.0
 40
1.0
 10
662.3610112957173
 20
456.3332577609496
 30
0.0
 10
662.3610112957173
 20
447.0593857609493
 30
0.0
 10
662.4144832957173
 20
439.4188497609495
 30
0.0
 10
662.4797632957172
 20
439.3535697609494
 30
0.0
  0
SPLINE
  5
10DCB
102
{ACAD_REACTORS
330
10DFF
102
}
330
1F
100
AcDbEntity
  8
LAYER_1
 62
     7
100
AcDbSpline
210
0.0
220
0.0
230
1.0
 70
     8
 71
     3
 72
     8
 73
     4
 74
     0
 42
0.000000001
 43
0.0000000001
 40
0.0
 40
0.0
 40
0.0
 40
0.0
 40
1.0
 40
1.0
 40
1.0
 40
1.0
 10
662.6438272957174
 20
473.3035697609495
 30
0.0
 10
662.3897792957172
 20
473.2061057609495
 30
0.0
 10
662.3610112957173
 20
471.5446097609496
 30
0.0
 10
662.3610112957173
 20
456.3332577609496
 30
0.0
  0
SPLINE
  5
10DCC
102
{ACAD_REACTORS
330
10DFF
102
}
330
1F
100
AcDbEntity
  8
LAYER_1
 62
     7
100
AcDbSpline
210
0.0
220
0.0
230
1.0
 70
     8
 71
     3
 72
     8
 73
     4
 74
     0
 42
0.000000001
 43
0.0000000001
 40
0.0
 40
0.0
 40
0.0
 40
0.0
 40
1.0
 40
1.0
 40
1.0
 40
1.0
 10
670.2813232957174
 20
473.4066977609494
 30
0.0
 10
666.5764912957172
 20
473.4150737609494
 30
0.0
 10
662.8511312957173
 20
473.3831297609495
 30
0.0
 10
662.6438272957174
 20
473.3035697609495
 30
0.0
  0
SPLINE
  5
10DCD
102
{ACAD_REACTORS
330
10DFF
102
}
330
1F
100
AcDbEntity
  8
LAYER_1
 62
     7
100
AcDbSpline
210
0.0
220
0.0
230
1.0
 70
     8
 71
     3
 72
     8
 73
     4
 74
     0
 42
0.000000001
 43
0.0000000001
 40
0.0
 40
0.0
 40
0.0
 40
0.0
 40
1.0
 40
1.0
 40
1.0
 40
1.0
 10
677.7969472957172
 20
473.2691937609494
 30
0.0
 10
677.6705792957174
 20
473.3495137609494
 30
0.0
 10
673.9861632957172
 20
473.3983217609494
 30
0.0
 10
670.2813232957174
 20
473.4066977609494
 30
0.0
  0
SPLINE
  5
10DCE
102
{ACAD_REACTORS
330
10DFF
102
}
330
1F
100
AcDbEntity
  8
LAYER_1
 62
     7
100
AcDbSpline
210
0.0
220
0.0
230
1.0
 70
     8
 71
     3
 72
     8
 73
     4
 74
     0
 42
0.000000001
 43
0.0000000001
 40
0.0
 40
0.0
 40
0.0
 40
0.0
 40
1.0
 40
1.0
 40
1.0
 40
1.0
 10
678.0625712957172
 20
471.4473217609495
 30
0.0
 10
678.0296752957173
 20
472.5198257609494
 30
0.0
 10
677.9340032957174
 20
473.1821057609494
 30
0.0
 10
677.7969472957172
 20
473.2691937609494
 30
0.0
  0
SPLINE
  5
10DCF
102
{ACAD_REACTORS
330
10DFF
102
}
330
1F
100
AcDbEntity
  8
LAYER_1
 62
     7
100
AcDbSpline
210
0.0
220
0.0
230
1.0
 70
     8
 71
     3
 72
     8
 73
     4
 74
     0
 42
0.000000001
 43
0.0000000001
 40
0.0
 40
0.0
 40
0.0
 40
0.0
 40
1.0
 40
1.0
 40
1.0
 40
1.0
 10
678.3266352957173
 20
469.7629457609495
 30
0.0
 10
678.1826512957172
 20
469.7629457609495
 30
0.0
 10
678.0978512957173
 20
470.2967457609495
 30
0.0
 10
678.0625712957172
 20
471.4473217609495
 30
0.0
  0
SPLINE
  5
10DD0
102
{ACAD_REACTORS
330
10DFF
102
}
330
1F
100
AcDbEntity
  8
LAYER_1
 62
     7
100
AcDbSpline
210
0.0
220
0.0
230
1.0
 70
     8
 71
     3
 72
     8
 73
     4
 74
     0
 42
0.000000001
 43
0.0000000001
 40
0.0
 40
0.0
 40
0.0
 40
0.0
 40
1.0
 40
1.0
 40
1.0
 40
1.0
 10
679.4594512957173
 20
471.0973217609495
 30
0.0
 10
678.9523392957173
 20
470.3630577609496
 30
0.0
 10
678.4426112957173
 20
469.7629457609495
 30
0.0
 10
678.3266352957173
 20
469.7629457609495
 30
0.0
  0
SPLINE
  5
10DD1
102
{ACAD_REACTORS
330
10DFF
102
}
330
1F
100
AcDbEntity
  8
LAYER_1
 62
     7
100
AcDbSpline
210
0.0
220
0.0
230
1.0
 70
     8
 71
     3
 72
     8
 73
     4
 74
     0
 42
0.000000001
 43
0.0000000001
 40
0.0
 40
0.0
 40
0.0
 40
0.0
 40
1.0
 40
1.0
 40
1.0
 40
1.0
 10
680.9391392957172
 20
472.9176337609496
 30
0.0
 10
680.6321712957173
 20
472.6510337609495
 30
0.0
 10
679.9665632957173
 20
471.8315857609495
 30
0.0
 10
679.4594512957173
 20
471.0973217609495
 30
0.0
  0
LWPOLYLINE
  5
10DD2
102
{ACAD_REACTORS
330
10DFF
102
}
330
1F
100
AcDbEntity
  8
LAYER_1
 62
     7
100
AcDbPolyline
 90
        3
 70
     0
 43
0.0
 10
687.5938272957173
 20
473.4066977609494
 10
681.4969472957172
 20
473.4020097609495
 10
680.9391392957172
 20
472.9176337609496
  0
SPLINE
  5
10DD3
102
{ACAD_REACTORS
330
10DFF
102
}
330
1F
100
AcDbEntity
  8
LAYER_1
 62
     7
100
AcDbSpline
210
0.0
220
0.0
230
1.0
 70
     8
 71
     3
 72
     8
 73
     4
 74
     0
 42
0.000000001
 43
0.0000000001
 40
0.0
 40
0.0
 40
0.0
 40
0.0
 40
1.0
 40
1.0
 40
1.0
 40
1.0
 10
693.6906992957173
 20
473.1488817609495
 30
0.0
 10
693.6906992957173
 20
473.3754577609495
 30
0.0
 10
692.8523232957174
 20
473.4106977609493
 30
0.0
 10
687.5938272957173
 20
473.4066977609494
 30
0.0
  0
SPLINE
  5
10DD4
102
{ACAD_REACTORS
330
10DFF
102
}
330
1F
100
AcDbEntity
  8
LAYER_1
 62
     7
100
AcDbSpline
210
0.0
220
0.0
230
1.0
 70
     8
 71
     3
 72
     8
 73
     4
 74
     0
 42
0.000000001
 43
0.0000000001
 40
0.0
 40
0.0
 40
0.0
 40
0.0
 40
1.0
 40
1.0
 40
1.0
 40
1.0
 10
685.0782032957173
 20
459.8410737609495
 30
0.0
 10
685.4015632957173
 20
460.0536897609494
 30
0.0
 10
693.6906992957173
 20
472.8618577609495
 30
0.0
 10
693.6906992957173
 20
473.1488817609495
 30
0.0
  0
SPLINE
  5
10DD5
102
{ACAD_REACTORS
330
10DFF
102
}
330
1F
100
AcDbEntity
  8
LAYER_1
 62
     7
100
AcDbSpline
210
0.0
220
0.0
230
1.0
 70
     8
 71
     3
 72
     8
 73
     4
 74
     0
 42
0.000000001
 43
0.0000000001
 40
0.0
 40
0.0
 40
0.0
 40
0.0
 40
1.0
 40
1.0
 40
1.0
 40
1.0
 10
681.4532032957173
 20
459.7082577609496
 30
0.0
 10
683.3378112957174
 20
459.7097537609495
 30
0.0
 10
684.9688032957173
 20
459.7691537609495
 30
0.0
 10
685.0782032957173
 20
459.8410737609495
 30
0.0
  0
LWPOLYLINE
  5
10DD6
102
{ACAD_REACTORS
330
10DFF
102
}
330
1F
100
AcDbEntity
  8
LAYER_1
 62
     7
100
AcDbPolyline
 90
        3
 70
     0
 43
0.0
 10
678.0266352957173
 20
449.7520097609494
 10
678.0266352957173
 20
459.7051377609495
 10
681.4532032957173
 20
459.7082577609496
  0
SPLINE
  5
10DD7
102
{ACAD_REACTORS
330
10DFF
102
}
330
1F
100
AcDbEntity
  8
LAYER_1
 62
     7
100
AcDbSpline
210
0.0
220
0.0
230
1.0
 70
     8
 71
     3
 72
     8
 73
     4
 74
     0
 42
0.000000001
 43
0.0000000001
 40
0.0
 40
0.0
 40
0.0
 40
0.0
 40
1.0
 40
1.0
 40
1.0
 40
1.0
 10
677.9172592957173
 20
439.5160737609496
 30
0.0
 10
677.9766672957172
 20
439.6709297609494
 30
0.0
 10
678.0266352957173
 20
444.2775217609494
 30
0.0
 10
678.0266352957173
 20
449.7520097609494
 30
0.0
  0
SPLINE
  5
10DD8
102
{ACAD_REACTORS
330
10DFF
102
}
330
1F
100
AcDbEntity
  8
LAYER_1
 62
     7
100
AcDbSpline
210
0.0
220
0.0
230
1.0
 70
     8
 71
     3
 72
     8
 73
     4
 74
     0
 42
0.000000001
 43
0.0000000001
 40
0.0
 40
0.0
 40
0.0
 40
0.0
 40
1.0
 40
1.0
 40
1.0
 40
1.0
 10
670.2047632957173
 20
439.2348257609495
 30
0.0
 10
676.9756992957174
 20
439.2348257609495
 30
0.0
 10
677.8210672957172
 20
439.2654017609494
 30
0.0
 10
677.9172592957173
 20
439.5160737609496
 30
0.0
  0
SPLINE
  5
10DD9
102
{ACAD_REACTORS
330
10DFF
102
}
330
1F
100
AcDbEntity
  8
LAYER_1
 62
     7
100
AcDbSpline
210
0.0
220
0.0
230
1.0
 70
     8
 71
     3
 72
     8
 73
     4
 74
     0
 42
0.000000001
 43
0.0000000001
 40
0.0
 40
0.0
 40
0.0
 40
0.0
 40
1.0
 40
1.0
 40
1.0
 40
1.0
 10
662.4797632957172
 20
439.3535697609494
 30
0.0
 10
662.5450192957173
 20
439.2882577609495
 30
0.0
 10
666.0217712957173
 20
439.2348257609495
 30
0.0
 10
670.2047632957173
 20
439.2348257609495
 30
0.0
  0
SPLINE
  5
10DDA
102
{ACAD_REACTORS
330
10DFF
102
}
330
1F
100
AcDbEntity
  8
LAYER_1
 62
     7
100
AcDbSpline
210
0.0
220
0.0
230
1.0
 70
     8
 71
     3
 72
     8
 73
     4
 74
     0
 42
0.000000001
 43
0.0000000001
 40
0.0
 40
0.0
 40
0.0
 40
0.0
 40
1.0
 40
1.0
 40
1.0
 40
1.0
 10
703.5641392957174
 20
473.0942017609494
 30
0.0
 10
703.2216272957174
 20
472.8051137609494
 30
0.0
 10
683.3407952957172
 20
439.9402097609494
 30
0.0
 10
683.2188272957173
 20
439.4613857609494
 30
0.0
  0
SPLINE
  5
10DDB
102
{ACAD_REACTORS
330
10DFF
102
}
330
1F
100
AcDbEntity
  8
LAYER_1
 62
     7
100
AcDbSpline
210
0.0
220
0.0
230
1.0
 70
     8
 71
     3
 72
     8
 73
     4
 74
     0
 42
0.000000001
 43
0.0000000001
 40
0.0
 40
0.0
 40
0.0
 40
0.0
 40
1.0
 40
1.0
 40
1.0
 40
1.0
 10
683.2203872957172
 20
439.4613857609494
 30
0.0
 10
683.1744672957172
 20
439.2811377609495
 30
0.0
 10
684.9160432957173
 20
439.2348257609495
 30
0.0
 10
691.8391392957172
 20
439.2348257609495
 30
0.0
  0
SPLINE
  5
10DDC
102
{ACAD_REACTORS
330
10DFF
102
}
330
1F
100
AcDbEntity
  8
LAYER_1
 62
     7
100
AcDbSpline
210
0.0
220
0.0
230
1.0
 70
     8
 71
     3
 72
     8
 73
     4
 74
     0
 42
0.000000001
 43
0.0000000001
 40
0.0
 40
0.0
 40
0.0
 40
0.0
 40
1.0
 40
1.0
 40
1.0
 40
1.0
 10
691.8391392957172
 20
439.2348257609495
 30
0.0
 10
699.4485952957174
 20
439.2348257609495
 30
0.0
 10
700.5529632957174
 20
439.2695217609495
 30
0.0
 10
700.8219472957172
 20
439.5129457609495
 30
0.0
  0
SPLINE
  5
10DDD
102
{ACAD_REACTORS
330
10DFF
102
}
330
1F
100
AcDbEntity
  8
LAYER_1
 62
     7
100
AcDbSpline
210
0.0
220
0.0
230
1.0
 70
     8
 71
     3
 72
     8
 73
     4
 74
     0
 42
0.000000001
 43
0.0000000001
 40
0.0
 40
0.0
 40
0.0
 40
0.0
 40
1.0
 40
1.0
 40
1.0
 40
1.0
 10
700.8219472957172
 20
439.5129457609495
 30
0.0
 10
700.9906432957172
 20
439.6656017609495
 30
0.0
 10
703.7615632957173
 20
444.1888417609495
 30
0.0
 10
706.9782032957174
 20
449.5645137609494
 30
0.0
  0
SPLINE
  5
10DDE
102
{ACAD_REACTORS
330
10DFF
102
}
330
1F
100
AcDbEntity
  8
LAYER_1
 62
     7
100
AcDbSpline
210
0.0
220
0.0
230
1.0
 70
     8
 71
     3
 72
     8
 73
     4
 74
     0
 42
0.000000001
 43
0.0000000001
 40
0.0
 40
0.0
 40
0.0
 40
0.0
 40
1.0
 40
1.0
 40
1.0
 40
1.0
 10
706.9782032957174
 20
449.5645137609494
 30
0.0
 10
711.9100672957173
 20
457.8067057609494
 30
0.0
 10
712.8888992957171
 20
459.3393937609494
 30
0.0
 10
713.2266352957173
 20
459.3442017609494
 30
0.0
  0
LWPOLYLINE
  5
10DDF
102
{ACAD_REACTORS
330
10DFF
102
}
330
1F
100
AcDbEntity
  8
LAYER_1
 62
     7
100
AcDbPolyline
 90
        3
 70
     0
 43
0.0
 10
713.2266352957173
 20
459.3442017609494
 10
713.6266352957174
 20
459.3488817609494
 10
713.6297632957172
 20
449.5145137609494
  0
SPLINE
  5
10DE0
102
{ACAD_REACTORS
330
10DFF
102
}
330
1F
100
AcDbEntity
  8
LAYER_1
 62
     7
100
AcDbSpline
210
0.0
220
0.0
230
1.0
 70
     8
 71
     3
 72
     8
 73
     4
 74
     0
 42
0.000000001
 43
0.0000000001
 40
0.0
 40
0.0
 40
0.0
 40
0.0
 40
1.0
 40
1.0
 40
1.0
 40
1.0
 10
713.6297632957172
 20
449.5145137609494
 30
0.0
 10
713.6312592957173
 20
444.1054417609495
 30
0.0
 10
713.6966752957172
 20
439.5785777609494
 30
0.0
 10
713.7750752957173
 20
439.4551377609495
 30
0.0
  0
SPLINE
  5
10DE1
102
{ACAD_REACTORS
330
10DFF
102
}
330
1F
100
AcDbEntity
  8
LAYER_1
 62
     7
100
AcDbSpline
210
0.0
220
0.0
230
1.0
 70
     8
 71
     3
 72
     8
 73
     4
 74
     0
 42
0.000000001
 43
0.0000000001
 40
0.0
 40
0.0
 40
0.0
 40
0.0
 40
1.0
 40
1.0
 40
1.0
 40
1.0
 10
713.7750752957173
 20
439.4551377609495
 30
0.0
 10
713.8868432957173
 20
439.2787377609495
 30
0.0
 10
715.5636112957174
 20
439.2406097609495
 30
0.0
 10
721.5594512957172
 20
439.2770097609495
 30
0.0
  0
LWPOLYLINE
  5
10DE2
102
{ACAD_REACTORS
330
10DFF
102
}
330
1F
100
AcDbEntity
  8
LAYER_1
 62
     7
100
AcDbPolyline
 90
        3
 70
     0
 43
0.0
 10
721.5594512957172
 20
439.2770097609495
 10
729.2016352957174
 20
439.3238817609496
 10
729.2485152957173
 20
456.1457617609495
  0
SPLINE
  5
10DE3
102
{ACAD_REACTORS
330
10DFF
102
}
330
1F
100
AcDbEntity
  8
LAYER_1
 62
     7
100
AcDbSpline
210
0.0
220
0.0
230
1.0
 70
     8
 71
     3
 72
     8
 73
     4
 74
     0
 42
0.000000001
 43
0.0000000001
 40
0.0
 40
0.0
 40
0.0
 40
0.0
 40
1.0
 40
1.0
 40
1.0
 40
1.0
 10
729.2485152957173
 20
456.1457617609495
 30
0.0
 10
729.2913472957174
 20
471.8020817609496
 30
0.0
 10
729.2722992957173
 20
472.9824177609495
 30
0.0
 10
728.9906992957173
 20
473.1895137609494
 30
0.0
  0
SPLINE
  5
10DE4
102
{ACAD_REACTORS
330
10DFF
102
}
330
1F
100
AcDbEntity
  8
LAYER_1
 62
     7
100
AcDbSpline
210
0.0
220
0.0
230
1.0
 70
     8
 71
     3
 72
     8
 73
     4
 74
     0
 42
0.000000001
 43
0.0000000001
 40
0.0
 40
0.0
 40
0.0
 40
0.0
 40
1.0
 40
1.0
 40
1.0
 40
1.0
 10
728.9906992957173
 20
473.1895137609494
 30
0.0
 10
728.7553232957174
 20
473.3626577609494
 30
0.0
 10
725.9408512957172
 20
473.4099377609494
 30
0.0
 10
716.3078912957172
 20
473.4051377609495
 30
0.0
  0
SPLINE
  5
10DE5
102
{ACAD_REACTORS
330
10DFF
102
}
330
1F
100
AcDbEntity
  8
LAYER_1
 62
     7
100
AcDbSpline
210
0.0
220
0.0
230
1.0
 70
     8
 71
     3
 72
     8
 73
     4
 74
     0
 42
0.000000001
 43
0.0000000001
 40
0.0
 40
0.0
 40
0.0
 40
0.0
 40
1.0
 40
1.0
 40
1.0
 40
1.0
 10
716.3078912957172
 20
473.4051377609495
 30
0.0
 10
704.8716512957172
 20
473.3996657609495
 30
0.0
 10
703.8985552957173
 20
473.3764417609494
 30
0.0
 10
703.5641392957174
 20
473.0942017609494
 30
0.0
  0
SPLINE
  5
10DE6
102
{ACAD_REACTORS
330
10DFF
102
}
330
1F
100
AcDbEntity
  8
LAYER_1
 62
     7
100
AcDbSpline
210
0.0
220
0.0
230
1.0
 70
     8
 71
     3
 72
     8
 73
     4
 74
     0
 42
0.000000001
 43
0.0000000001
 40
0.0
 40
0.0
 40
0.0
 40
0.0
 40
1.0
 40
1.0
 40
1.0
 40
1.0
 10
722.1224753390229
 20
483.6216875470388
 30
0.0
 10
720.2113873390227
 20
483.6216875470388
 30
0.0
 10
718.6552913390229
 20
485.1793595470389
 30
0.0
 10
718.6552833390227
 20
487.0904395470388
 30
0.0
  0
SPLINE
  5
10DE7
102
{ACAD_REACTORS
330
10DFF
102
}
330
1F
100
AcDbEntity
  8
LAYER_1
 62
     7
100
AcDbSpline
210
0.0
220
0.0
230
1.0
 70
     8
 71
     3
 72
     8
 73
     4
 74
     0
 42
0.000000001
 43
0.0000000001
 40
0.0
 40
0.0
 40
0.0
 40
0.0
 40
1.0
 40
1.0
 40
1.0
 40
1.0
 10
719.3599713390229
 20
487.0904395470388
 30
0.0
 10
719.3599713390229
 20
485.5599035470389
 30
0.0
 10
720.5919313390228
 20
484.3263755470389
 30
0.0
 10
722.1224753390229
 20
484.3263755470389
 30
0.0
  0
SPLINE
  5
10DE8
102
{ACAD_REACTORS
330
10DFF
102
}
330
1F
100
AcDbEntity
  8
LAYER_1
 62
     7
100
AcDbSpline
210
0.0
220
0.0
230
1.0
 70
     8
 71
     3
 72
     8
 73
     4
 74
     0
 42
0.000000001
 43
0.0000000001
 40
0.0
 40
0.0
 40
0.0
 40
0.0
 40
1.0
 40
1.0
 40
1.0
 40
1.0
 10
722.1224753390229
 20
484.3263755470389
 30
0.0
 10
723.6530113390228
 20
484.3263835470387
 30
0.0
 10
724.8865313390229
 20
485.5599035470389
 30
0.0
 10
724.8865313390229
 20
487.0904395470388
 30
0.0
  0
SPLINE
  5
10DE9
102
{ACAD_REACTORS
330
10DFF
102
}
330
1F
100
AcDbEntity
  8
LAYER_1
 62
     7
100
AcDbSpline
210
0.0
220
0.0
230
1.0
 70
     8
 71
     3
 72
     8
 73
     4
 74
     0
 42
0.000000001
 43
0.0000000001
 40
0.0
 40
0.0
 40
0.0
 40
0.0
 40
1.0
 40
1.0
 40
1.0
 40
1.0
 10
724.8865313390229
 20
487.0904395470388
 30
0.0
 10
724.8865313390229
 20
488.6209755470389
 30
0.0
 10
723.6530113390228
 20
489.8545035470389
 30
0.0
 10
722.1224753390229
 20
489.8545035470389
 30
0.0
  0
SPLINE
  5
10DEA
102
{ACAD_REACTORS
330
10DFF
102
}
330
1F
100
AcDbEntity
  8
LAYER_1
 62
     7
100
AcDbSpline
210
0.0
220
0.0
230
1.0
 70
     8
 71
     3
 72
     8
 73
     4
 74
     0
 42
0.000000001
 43
0.0000000001
 40
0.0
 40
0.0
 40
0.0
 40
0.0
 40
1.0
 40
1.0
 40
1.0
 40
1.0
 10
722.1224753390229
 20
489.8545035470389
 30
0.0
 10
720.5919313390228
 20
489.8545035470389
 30
0.0
 10
719.3599713390229
 20
488.6209835470387
 30
0.0
 10
719.3599713390229
 20
487.0904395470388
 30
0.0
  0
LWPOLYLINE
  5
10DEB
102
{ACAD_REACTORS
330
10DFF
102
}
330
1F
100
AcDbEntity
  8
LAYER_1
 62
     7
100
AcDbPolyline
 90
        6
 70
     0
 43
0.0
 10
721.8021553390229
 20
486.7279435470388
 10
721.5380993390229
 20
486.7279435470388
 10
721.5380993390229
 20
485.3545035470389
 10
720.6021553390227
 20
485.3545035470389
 10
720.6021553390227
 20
488.9841915470389
 10
720.6021553390227
 20
488.9841915470389
  0
SPLINE
  5
10DEC
102
{ACAD_REACTORS
330
10DFF
102
}
330
1F
100
AcDbEntity
  8
LAYER_1
 62
     7
100
AcDbSpline
210
0.0
220
0.0
230
1.0
 70
     8
 71
     3
 72
     8
 73
     4
 74
     0
 42
0.000000001
 43
0.0000000001
 40
0.0
 40
0.0
 40
0.0
 40
0.0
 40
1.0
 40
1.0
 40
1.0
 40
1.0
 10
722.1693473390228
 20
486.6248155470388
 30
0.0
 10
722.0778033390229
 20
486.6916955470389
 30
0.0
 10
721.9535553390227
 20
486.7279435470388
 30
0.0
 10
721.8021553390229
 20
486.7279435470388
 30
0.0
  0
LWPOLYLINE
  5
10DED
102
{ACAD_REACTORS
330
10DFF
102
}
330
1F
100
AcDbEntity
  8
LAYER_1
 62
     7
100
AcDbPolyline
 90
        4
 70
     0
 43
0.0
 10
723.3693473390229
 20
486.3826315470388
 10
723.8802833390228
 20
485.3545035470389
 10
722.8834113390228
 20
485.3545035470389
 10
722.4396593390229
 20
486.2560635470389
  0
SPLINE
  5
10DEE
102
{ACAD_REACTORS
330
10DFF
102
}
330
1F
100
AcDbEntity
  8
LAYER_1
 62
     7
100
AcDbSpline
210
0.0
220
0.0
230
1.0
 70
     8
 71
     3
 72
     8
 73
     4
 74
     0
 42
0.000000001
 43
0.0000000001
 40
0.0
 40
0.0
 40
0.0
 40
0.0
 40
1.0
 40
1.0
 40
1.0
 40
1.0
 10
722.4396593390229
 20
486.2560635470389
 30
0.0
 10
722.3516433390228
 20
486.4356155470389
 30
0.0
 10
722.2608833390229
 20
486.5614475470387
 30
0.0
 10
722.1693473390228
 20
486.6248155470388
 30
0.0
  0
SPLINE
  5
10DEF
102
{ACAD_REACTORS
330
10DFF
102
}
330
1F
100
AcDbEntity
  8
LAYER_1
 62
     7
100
AcDbSpline
210
0.0
220
0.0
230
1.0
 70
     8
 71
     3
 72
     8
 73
     4
 74
     0
 42
0.000000001
 43
0.0000000001
 40
0.0
 40
0.0
 40
0.0
 40
0.0
 40
1.0
 40
1.0
 40
1.0
 40
1.0
 10
723.0630993390229
 20
486.8513755470389
 30
0.0
 10
723.1652033390228
 20
486.7492715470388
 30
0.0
 10
723.2672433390228
 20
486.5938635470387
 30
0.0
 10
723.3693473390229
 20
486.3826315470388
 30
0.0
  0
SPLINE
  5
10DF0
102
{ACAD_REACTORS
330
10DFF
102
}
330
1F
100
AcDbEntity
  8
LAYER_1
 62
     7
100
AcDbSpline
210
0.0
220
0.0
230
1.0
 70
     8
 71
     3
 72
     8
 73
     4
 74
     0
 42
0.000000001
 43
0.0000000001
 40
0.0
 40
0.0
 40
0.0
 40
0.0
 40
1.0
 40
1.0
 40
1.0
 40
1.0
 10
722.7177873390227
 20
487.0513755470389
 30
0.0
 10
722.8480513390227
 20
487.0196955470389
 30
0.0
 10
722.9610033390229
 20
486.9534715470389
 30
0.0
 10
723.0630993390229
 20
486.8513755470389
 30
0.0
  0
SPLINE
  5
10DF1
102
{ACAD_REACTORS
330
10DFF
102
}
330
1F
100
AcDbEntity
  8
LAYER_1
 62
     7
100
AcDbSpline
210
0.0
220
0.0
230
1.0
 70
     8
 71
     3
 72
     8
 73
     4
 74
     0
 42
0.000000001
 43
0.0000000001
 40
0.0
 40
0.0
 40
0.0
 40
0.0
 40
1.0
 40
1.0
 40
1.0
 40
1.0
 10
723.2427873390229
 20
487.3888795470388
 30
0.0
 10
723.126603339023
 20
487.2374875470389
 30
0.0
 10
722.9536753390229
 20
487.1217915470387
 30
0.0
 10
722.7177873390227
 20
487.0513755470389
 30
0.0
  0
SPLINE
  5
10DF2
102
{ACAD_REACTORS
330
10DFF
102
}
330
1F
100
AcDbEntity
  8
LAYER_1
 62
     7
100
AcDbSpline
210
0.0
220
0.0
230
1.0
 70
     8
 71
     3
 72
     8
 73
     4
 74
     0
 42
0.000000001
 43
0.0000000001
 40
0.0
 40
0.0
 40
0.0
 40
0.0
 40
1.0
 40
1.0
 40
1.0
 40
1.0
 10
723.4146593390228
 20
487.9810635470388
 30
0.0
 10
723.4146593390228
 20
487.7416555470389
 30
0.0
 10
723.3589793390229
 20
487.5437835470389
 30
0.0
 10
723.2427873390229
 20
487.3888795470388
 30
0.0
  0
SPLINE
  5
10DF3
102
{ACAD_REACTORS
330
10DFF
102
}
330
1F
100
AcDbEntity
  8
LAYER_1
 62
     7
100
AcDbSpline
210
0.0
220
0.0
230
1.0
 70
     8
 71
     3
 72
     8
 73
     4
 74
     0
 42
0.000000001
 43
0.0000000001
 40
0.0
 40
0.0
 40
0.0
 40
0.0
 40
1.0
 40
1.0
 40
1.0
 40
1.0
 10
723.0802833390229
 20
488.7419995470389
 30
0.0
 10
723.3056033390228
 20
488.5835675470388
 30
0.0
 10
723.4146593390228
 20
488.3296155470388
 30
0.0
 10
723.4146593390228
 20
487.9810635470388
 30
0.0
  0
SPLINE
  5
10DF4
102
{ACAD_REACTORS
330
10DFF
102
}
330
1F
100
AcDbEntity
  8
LAYER_1
 62
     7
100
AcDbSpline
210
0.0
220
0.0
230
1.0
 70
     8
 71
     3
 72
     8
 73
     4
 74
     0
 42
0.000000001
 43
0.0000000001
 40
0.0
 40
0.0
 40
0.0
 40
0.0
 40
1.0
 40
1.0
 40
1.0
 40
1.0
 10
722.0318433390229
 20
488.9841915470389
 30
0.0
 10
722.5106593390227
 20
488.9841915470389
 30
0.0
 10
722.8584753390229
 20
488.9039435470387
 30
0.0
 10
723.0802833390229
 20
488.7419995470389
 30
0.0
  0
LWPOLYLINE
  5
10DF5
102
{ACAD_REACTORS
330
10DFF
102
}
330
1F
100
AcDbEntity
  8
LAYER_1
 62
     7
100
AcDbPolyline
 90
        2
 70
     0
 43
0.0
 10
720.6021553390227
 20
488.9841915470389
 10
722.0318433390229
 20
488.9841915470389
  0
LWPOLYLINE
  5
10DF6
102
{ACAD_REACTORS
330
10DFF
102
}
330
1F
100
AcDbEntity
  8
LAYER_1
 62
     7
100
AcDbPolyline
 90
        3
 70
     0
 43
0.0
 10
721.5380993390229
 20
488.3045035470388
 10
721.5380993390229
 20
487.3716875470388
 10
721.9334113390227
 20
487.3716875470388
  0
SPLINE
  5
10DF7
102
{ACAD_REACTORS
330
10DFF
102
}
330
1F
100
AcDbEntity
  8
LAYER_1
 62
     7
100
AcDbSpline
210
0.0
220
0.0
230
1.0
 70
     8
 71
     3
 72
     8
 73
     4
 74
     0
 42
0.000000001
 43
0.0000000001
 40
0.0
 40
0.0
 40
0.0
 40
0.0
 40
1.0
 40
1.0
 40
1.0
 40
1.0
 10
721.9334113390227
 20
487.3716875470388
 30
0.0
 10
722.1270513390227
 20
487.3716875470388
 30
0.0
 10
722.2676673390228
 20
487.4102475470387
 30
0.0
 10
722.3521553390227
 20
487.4841915470389
 30
0.0
  0
SPLINE
  5
10DF8
102
{ACAD_REACTORS
330
10DFF
102
}
330
1F
100
AcDbEntity
  8
LAYER_1
 62
     7
100
AcDbSpline
210
0.0
220
0.0
230
1.0
 70
     8
 71
     3
 72
     8
 73
     4
 74
     0
 42
0.000000001
 43
0.0000000001
 40
0.0
 40
0.0
 40
0.0
 40
0.0
 40
1.0
 40
1.0
 40
1.0
 40
1.0
 10
722.3521553390227
 20
487.4841915470389
 30
0.0
 10
722.4366673390227
 20
487.5545915470389
 30
0.0
 10
722.4818433390228
 20
487.6745755470389
 30
0.0
 10
722.4818433390228
 20
487.8435675470388
 30
0.0
  0
SPLINE
  5
10DF9
102
{ACAD_REACTORS
330
10DFF
102
}
330
1F
100
AcDbEntity
  8
LAYER_1
 62
     7
100
AcDbSpline
210
0.0
220
0.0
230
1.0
 70
     8
 71
     3
 72
     8
 73
     4
 74
     0
 42
0.000000001
 43
0.0000000001
 40
0.0
 40
0.0
 40
0.0
 40
0.0
 40
1.0
 40
1.0
 40
1.0
 40
1.0
 10
722.4818433390228
 20
487.8435675470388
 30
0.0
 10
722.4818433390228
 20
488.0090395470387
 30
0.0
 10
722.4366753390227
 20
488.1258875470388
 30
0.0
 10
722.3521553390227
 20
488.1998155470388
 30
0.0
  0
SPLINE
  5
10DFA
102
{ACAD_REACTORS
330
10DFF
102
}
330
1F
100
AcDbEntity
  8
LAYER_1
 62
     7
100
AcDbSpline
210
0.0
220
0.0
230
1.0
 70
     8
 71
     3
 72
     8
 73
     4
 74
     0
 42
0.000000001
 43
0.0000000001
 40
0.0
 40
0.0
 40
0.0
 40
0.0
 40
1.0
 40
1.0
 40
1.0
 40
1.0
 10
722.3521553390227
 20
488.1998155470388
 30
0.0
 10
722.2676593390229
 20
488.2702155470388
 30
0.0
 10
722.1270513390227
 20
488.3045035470388
 30
0.0
 10
721.9334113390227
 20
488.3045035470388
 30
0.0
  0
LWPOLYLINE
  5
10DFB
102
{ACAD_REACTORS
330
10DFF
102
}
330
1F
100
AcDbEntity
  8
LAYER_1
 62
     7
100
AcDbPolyline
 90
        3
 70
     0
 43
0.0
 10
721.9334113390227
 20
488.3045035470388
 10
721.5380993390229
 20
488.3045035470388
 10
721.5380993390229
 20
488.3045035470388
  0
SPLINE
  5
10DFC
102
{ACAD_REACTORS
330
10DFF
102
}
330
1F
100
AcDbEntity
  8
LAYER_1
 62
     7
100
AcDbSpline
210
0.0
220
0.0
230
1.0
 70
     8
 71
     3
 72
     8
 73
     4
 74
     0
 42
0.000000001
 43
0.0000000001
 40
0.0
 40
0.0
 40
0.0
 40
0.0
 40
1.0
 40
1.0
 40
1.0
 40
1.0
 10
722.1224753390229
 20
490.5576235470388
 30
0.0
 10
724.0335553390228
 20
490.5576235470388
 30
0.0
 10
725.5912193390228
 20
489.0015195470388
 30
0.0
 10
725.5912193390228
 20
487.0904395470388
 30
0.0
  0
SPLINE
  5
10DFD
102
{ACAD_REACTORS
330
10DFF
102
}
330
1F
100
AcDbEntity
  8
LAYER_1
 62
     7
100
AcDbSpline
210
0.0
220
0.0
230
1.0
 70
     8
 71
     3
 72
     8
 73
     4
 74
     0
 42
0.000000001
 43
0.0000000001
 40
0.0
 40
0.0
 40
0.0
 40
0.0
 40
1.0
 40
1.0
 40
1.0
 40
1.0
 10
725.5912193390228
 20
487.0904395470388
 30
0.0
 10
725.5912193390228
 20
485.1793595470389
 30
0.0
 10
724.0335473390229
 20
483.6216955470389
 30
0.0
 10
722.1224753390229
 20
483.6216875470388
 30
0.0
  0
SPLINE
  5
10DFE
102
{ACAD_REACTORS
330
10DFF
102
}
330
1F
100
AcDbEntity
  8
LAYER_1
 62
     7
100
AcDbSpline
210
0.0
220
0.0
230
1.0
 70
     8
 71
     3
 72
     8
 73
     4
 74
     0
 42
0.000000001
 43
0.0000000001
 40
0.0
 40
0.0
 40
0.0
 40
0.0
 40
1.0
 40
1.0
 40
1.0
 40
1.0
 10
718.6552833390227
 20
487.0904395470388
 30
0.0
 10
718.6552833390227
 20
489.0015275470388
 30
0.0
 10
720.2113873390227
 20
490.5576315470388
 30
0.0
 10
722.1224753390229
 20
490.5576235470388
 30
0.0
  0
LINE
  5
10E01
330
1F
100
AcDbEntity
  8
0
  6
Continuous
100
AcDbLine
 10
531.9807964462357
 20
469.1190035987516
 30
0.0
 11
536.2079647049386
 21
473.3461718574546
 31
0.0
1001
ACAD
1010
0.0
1020
0.0
1030
0.0
  0
LINE
  5
10E02
330
1F
100
AcDbEntity
  8
0
  6
Continuous
100
AcDbLine
 10
528.5419968499884
 20
463.4351399722372
 30
0.0
 11
538.481609710025
 21
473.3747528322737
 31
0.0
1001
ACAD
1010
0.0
1020
0.0
1030
0.0
  0
LINE
  5
10E03
330
1F
100
AcDbEntity
  8
0
  6
Continuous
100
AcDbLine
 10
525.1809150423655
 20
457.8289941343469
 30
0.0
 11
540.724048821799
 21
473.3721279137803
 31
0.0
1001
ACAD
1010
0.0
1020
0.0
1030
0.0
  0
LINE
  5
10E04
330
1F
100
AcDbEntity
  8
0
  6
Continuous
100
AcDbLine
 10
521.85396501627
 20
452.2569800779841
 30
0.0
 11
542.959710203758
 21
473.3627252654721
 31
0.0
1001
ACAD
1010
0.0
1020
0.0
1030
0.0
  0
LINE
  5
10E05
330
1F
100
AcDbEntity
  8
0
  6
Continuous
100
AcDbLine
 10
518.5247849150147
 20
446.6827359464615
 30
0.0
 11
545.19458030197
 21
473.3525313334168
 31
0.0
1001
ACAD
1010
0.0
1020
0.0
1030
0.0
  0
LINE
  5
10E06
330
1F
100
AcDbEntity
  8
0
  6
Continuous
100
AcDbLine
 10
515.1829343845257
 20
441.0958213857051
 30
0.0
 11
547.4293189467207
 21
473.3422059479003
 31
0.0
1001
ACAD
1010
0.0
1020
0.0
1030
0.0
  0
LINE
  5
10E07
330
1F
100
AcDbEntity
  8
0
  6
Continuous
100
AcDbLine
 10
515.5670027900373
 20
439.2348257609495
 30
0.0
 11
549.6640575914715
 21
473.3318805623837
 31
0.0
1001
ACAD
1010
0.0
1020
0.0
1030
0.0
  0
LINE
  5
10E08
330
1F
100
AcDbEntity
  8
0
  6
Continuous
100
AcDbLine
 10
517.8120668203046
 20
439.2348257609495
 30
0.0
 11
551.7286869145155
 21
473.1514458551605
 31
0.0
1001
ACAD
1010
0.0
1020
0.0
1030
0.0
  0
LINE
  5
10E09
330
1F
100
AcDbEntity
  8
0
  6
Continuous
100
AcDbLine
 10
520.0571308505719
 20
439.2348257609495
 30
0.0
 11
549.1118508774128
 21
468.2895457877905
 31
0.0
1001
ACAD
1010
0.0
1020
0.0
1030
0.0
  0
LINE
  5
10E0A
330
1F
100
AcDbEntity
  8
0
  6
Continuous
100
AcDbLine
 10
522.3021948808391
 20
439.2348257609495
 30
0.0
 11
545.873896980288
 21
462.8065278603984
 31
0.0
1001
ACAD
1010
0.0
1020
0.0
1030
0.0
  0
LINE
  5
10E0B
330
1F
100
AcDbEntity
  8
0
  6
Continuous
100
AcDbLine
 10
555.9272602533196
 20
472.85989113343
 30
0.0
 11
556.1957298887664
 21
473.1283607688769
 31
0.0
1001
ACAD
1010
0.0
1020
0.0
1030
0.0
  0
LINE
  5
10E0C
330
1F
100
AcDbEntity
  8
0
  6
Continuous
100
AcDbLine
 10
524.5472589111064
 20
439.2348257609495
 30
0.0
 11
542.5624463913225
 21
457.2500132411656
 31
0.0
1001
ACAD
1010
0.0
1020
0.0
1030
0.0
  0
LINE
  5
10E0D
330
1F
100
AcDbEntity
  8
0
  6
Continuous
100
AcDbLine
 10
552.0500045003184
 20
466.7375713501615
 30
0.0
 11
558.6870736534279
 21
473.374640503271
 31
0.0
1001
ACAD
1010
0.0
1020
0.0
1030
0.0
  0
LINE
  5
10E0E
330
1F
100
AcDbEntity
  8
0
  6
Continuous
100
AcDbLine
 10
526.7923229413738
 20
439.2348257609495
 30
0.0
 11
539.2006810568834
 21
451.6431838764591
 31
0.0
1001
ACAD
1010
0.0
1020
0.0
1030
0.0
  0
LINE
  5
10E0F
330
1F
100
AcDbEntity
  8
0
  6
Continuous
100
AcDbLine
 10
548.6664279756251
 20
461.1089307952009
 30
0.0
 11
560.943010765774
 21
473.3855135853499
 31
0.0
1001
ACAD
1010
0.0
1020
0.0
1030
0.0
  0
LINE
  5
10E10
330
1F
100
AcDbEntity
  8
0
  6
Continuous
100
AcDbLine
 10
529.037386971641
 20
439.2348257609495
 30
0.0
 11
535.7811288087294
 21
445.9785675980379
 31
0.0
1001
ACAD
1010
0.0
1020
0.0
1030
0.0
  0
LINE
  5
10E11
330
1F
100
AcDbEntity
  8
0
  6
Continuous
100
AcDbLine
 10
545.3428997394194
 20
455.5403385287279
 30
0.0
 11
563.1810692144408
 21
473.3785080037493
 31
0.0
1001
ACAD
1010
0.0
1020
0.0
1030
0.0
  0
LINE
  5
10E12
330
1F
100
AcDbEntity
  8
0
  6
Continuous
100
AcDbLine
 10
531.2824510019084
 20
439.2348257609495
 30
0.0
 11
532.1744685002308
 21
440.126843259272
 31
0.0
1001
ACAD
1010
0.0
1020
0.0
1030
0.0
  0
LINE
  5
10E13
330
1F
100
AcDbEntity
  8
0
  6
Continuous
100
AcDbLine
 10
542.0266891094998
 20
449.979063868541
 30
0.0
 11
565.4144374419917
 21
473.3668122010329
 31
0.0
1001
ACAD
1010
0.0
1020
0.0
1030
0.0
  0
LINE
  5
10E14
330
1F
100
AcDbEntity
  8
0
  6
Continuous
100
AcDbLine
 10
538.7032300897246
 20
444.4105408184985
 30
0.0
 11
567.6468611428477
 21
473.3541718716216
 31
0.0
1001
ACAD
1010
0.0
1020
0.0
1030
0.0
  0
LINE
  5
10E15
330
1F
100
AcDbEntity
  8
0
  6
Continuous
100
AcDbLine
 10
535.7725790624429
 20
439.2348257609495
 30
0.0
 11
569.8792848437035
 21
473.3415315422102
 31
0.0
1001
ACAD
1010
0.0
1020
0.0
1030
0.0
  0
LINE
  5
10E16
330
1F
100
AcDbEntity
  8
0
  6
Continuous
100
AcDbLine
 10
538.0176430927102
 20
439.2348257609495
 30
0.0
 11
572.1117085445595
 21
473.3288912127989
 31
0.0
1001
ACAD
1010
0.0
1020
0.0
1030
0.0
  0
LINE
  5
10E17
330
1F
100
AcDbEntity
  8
0
  6
Continuous
100
AcDbLine
 10
540.2627071229775
 20
439.2348257609495
 30
0.0
 11
572.4959030185798
 21
471.4680216565519
 31
0.0
1001
ACAD
1010
0.0
1020
0.0
1030
0.0
  0
LINE
  5
10E18
330
1F
100
AcDbEntity
  8
0
  6
Continuous
100
AcDbLine
 10
542.5077711532448
 20
439.2348257609495
 30
0.0
 11
569.3443522536493
 21
466.071406861354
 31
0.0
1001
ACAD
1010
0.0
1020
0.0
1030
0.0
  0
LINE
  5
10E19
330
1F
100
AcDbEntity
  8
0
  6
Continuous
100
AcDbLine
 10
544.752835183512
 20
439.2348257609495
 30
0.0
 11
566.0681516914287
 21
460.5501422688662
 31
0.0
1001
ACAD
1010
0.0
1020
0.0
1030
0.0
  0
LINE
  5
10E1A
330
1F
100
AcDbEntity
  8
0
  6
Continuous
100
AcDbLine
 10
575.7025849655886
 20
470.184575543026
 30
0.0
 11
578.84941401994
 21
473.3314045973776
 31
0.0
1001
ACAD
1010
0.0
1020
0.0
1030
0.0
  0
LINE
  5
10E1B
330
1F
100
AcDbEntity
  8
0
  6
Continuous
100
AcDbLine
 10
546.9978992137793
 20
439.2348257609495
 30
0.0
 11
562.7398407930915
 21
454.9767673402617
 31
0.0
1001
ACAD
1010
0.0
1020
0.0
1030
0.0
  0
LINE
  5
10E1C
330
1F
100
AcDbEntity
  8
0
  6
Continuous
100
AcDbLine
 10
572.2019484122544
 20
464.4388749594246
 30
0.0
 11
581.1464316147263
 21
473.3833581618965
 31
0.0
1001
ACAD
1010
0.0
1020
0.0
1030
0.0
  0
LINE
  5
10E1D
330
1F
100
AcDbEntity
  8
0
  6
Continuous
100
AcDbLine
 10
549.2429632440467
 20
439.2348257609495
 30
0.0
 11
559.361467077877
 21
449.3533295947799
 31
0.0
1001
ACAD
1010
0.0
1020
0.0
1030
0.0
  0
LINE
  5
10E1E
330
1F
100
AcDbEntity
  8
0
  6
Continuous
100
AcDbLine
 10
568.8521379364747
 20
458.8440004533776
 30
0.0
 11
583.3915889345474
 21
473.3834514514503
 31
0.0
1001
ACAD
1010
0.0
1020
0.0
1030
0.0
  0
LINE
  5
10E1F
330
1F
100
AcDbEntity
  8
0
  6
Continuous
100
AcDbLine
 10
551.4880272743139
 20
439.2348257609495
 30
0.0
 11
555.8990870783099
 21
443.6458855649455
 31
0.0
1001
ACAD
1010
0.0
1020
0.0
1030
0.0
  0
LINE
  5
10E20
330
1F
100
AcDbEntity
  8
0
  6
Continuous
100
AcDbLine
 10
565.5362760166607
 20
453.2830745032963
 30
0.0
 11
585.6270481529491
 21
473.3738466395847
 31
0.0
1001
ACAD
1010
0.0
1020
0.0
1030
0.0
  0
LINE
  5
10E21
330
1F
100
AcDbEntity
  8
0
  6
Continuous
100
AcDbLine
 10
562.2173996554618
 20
447.7191341118302
 30
0.0
 11
587.8599438726578
 21
473.3616783290262
 31
0.0
1001
ACAD
1010
0.0
1020
0.0
1030
0.0
  0
LINE
  5
10E22
330
1F
100
AcDbEntity
  8
0
  6
Continuous
100
AcDbLine
 10
558.8889498655915
 20
442.1456202916926
 30
0.0
 11
590.0923652165807
 21
473.3490356426817
 31
0.0
1001
ACAD
1010
0.0
1020
0.0
1030
0.0
  0
LINE
  5
10E23
330
1F
100
AcDbEntity
  8
0
  6
Continuous
100
AcDbLine
 10
558.2232193651158
 20
439.2348257609495
 30
0.0
 11
592.3247865605035
 21
473.3363929563373
 31
0.0
1001
ACAD
1010
0.0
1020
0.0
1030
0.0
  0
LINE
  5
10E24
330
1F
100
AcDbEntity
  8
0
  6
Continuous
100
AcDbLine
 10
560.4682833953831
 20
439.2348257609495
 30
0.0
 11
594.5572079044264
 21
473.3237502699928
 31
0.0
1001
ACAD
1010
0.0
1020
0.0
1030
0.0
  0
LINE
  5
10E25
330
1F
100
AcDbEntity
  8
0
  6
Continuous
100
AcDbLine
 10
562.7133474256503
 20
439.2348257609495
 30
0.0
 11
592.7821595784802
 21
469.3036379137794
 31
0.0
1001
ACAD
1010
0.0
1020
0.0
1030
0.0
  0
LINE
  5
10E26
330
1F
100
AcDbEntity
  8
0
  6
Continuous
100
AcDbLine
 10
564.9584114559177
 20
439.2348257609495
 30
0.0
 11
589.5624478389076
 21
463.8388621439395
 31
0.0
1001
ACAD
1010
0.0
1020
0.0
1030
0.0
  0
LINE
  5
10E27
330
1F
100
AcDbEntity
  8
0
  6
Continuous
100
AcDbLine
 10
615.3852664765425
 20
489.6616807815744
 30
0.0
 11
618.1021599227224
 21
492.3785742277543
 31
0.0
1001
ACAD
1010
0.0
1020
0.0
1030
0.0
  0
LINE
  5
10E28
330
1F
100
AcDbEntity
  8
0
  6
Continuous
100
AcDbLine
 10
567.203475486185
 20
439.2348257609495
 30
0.0
 11
586.2597087496769
 21
458.2910590244414
 31
0.0
1001
ACAD
1010
0.0
1020
0.0
1030
0.0
  0
LINE
  5
10E29
330
1F
100
AcDbEntity
  8
0
  6
Continuous
100
AcDbLine
 10
611.9520814983659
 20
483.9834317731305
 30
0.0
 11
620.3831624669657
 21
492.4145127417303
 31
0.0
1001
ACAD
1010
0.0
1020
0.0
1030
0.0
  0
LINE
  5
10E2A
330
1F
100
AcDbEntity
  8
0
  6
Continuous
100
AcDbLine
 10
569.4485395164522
 20
439.2348257609495
 30
0.0
 11
582.9082831654201
 21
452.6945694099174
 31
0.0
1001
ACAD
1010
0.0
1020
0.0
1030
0.0
  0
LINE
  5
10E2B
330
1F
100
AcDbEntity
  8
0
  6
Continuous
100
AcDbLine
 10
611.8783735032551
 20
481.6646597477525
 30
0.0
 11
622.6518539325799
 21
492.4381401770772
 31
0.0
1001
ACAD
1010
0.0
1020
0.0
1030
0.0
  0
LINE
  5
10E2C
330
1F
100
AcDbEntity
  8
0
  6
Continuous
100
AcDbLine
 10
571.6936035467195
 20
439.2348257609495
 30
0.0
 11
579.505648499116
 21
447.046870713346
 31
0.0
1001
ACAD
1010
0.0
1020
0.0
1030
0.0
  0
LINE
  5
10E2D
330
1F
100
AcDbEntity
  8
0
  6
Continuous
100
AcDbLine
 10
602.9502531302035
 20
470.4914753444335
 30
0.0
 11
605.7745728603485
 21
473.3157950745786
 31
0.0
1001
ACAD
1010
0.0
1020
0.0
1030
0.0
  0
LINE
  5
10E2E
330
1F
100
AcDbEntity
  8
0
  6
Continuous
100
AcDbLine
 10
614.0969618723375
 20
481.6381840865676
 30
0.0
 11
624.9156961537417
 21
492.4569183679718
 31
0.0
1001
ACAD
1010
0.0
1020
0.0
1030
0.0
  0
LINE
  5
10E2F
330
1F
100
AcDbEntity
  8
0
  6
Continuous
100
AcDbLine
 10
573.9386675769867
 20
439.2348257609495
 30
0.0
 11
575.9744958908129
 21
441.2706540747757
 31
0.0
1001
ACAD
1010
0.0
1020
0.0
1030
0.0
  0
LINE
  5
10E30
330
1F
100
AcDbEntity
  8
0
  6
Continuous
100
AcDbLine
 10
599.4102124506171
 20
464.7063706345799
 30
0.0
 11
608.0779232047897
 21
473.3740813887525
 31
0.0
1001
ACAD
1010
0.0
1020
0.0
1030
0.0
  0
LINE
  5
10E31
330
1F
100
AcDbEntity
  8
0
  6
Continuous
100
AcDbLine
 10
616.3255778150561
 20
481.6217359990189
 30
0.0
 11
627.1765845827326
 21
492.4727427666954
 31
0.0
1001
ACAD
1010
0.0
1020
0.0
1030
0.0
  0
LINE
  5
10E32
330
1F
100
AcDbEntity
  8
0
  6
Continuous
100
AcDbLine
 10
595.9421033009024
 20
458.9931974545979
 30
0.0
 11
610.3412740126606
 21
473.3923681663561
 31
0.0
1001
ACAD
1010
0.0
1020
0.0
1030
0.0
  0
LINE
  5
10E33
330
1F
100
AcDbEntity
  8
0
  6
Continuous
100
AcDbLine
 10
618.5598359999856
 20
481.610930153681
 30
0.0
 11
629.4349139232756
 21
492.4860080769712
 31
0.0
1001
ACAD
1010
0.0
1020
0.0
1030
0.0
  0
LINE
  5
10E34
330
1F
100
AcDbEntity
  8
0
  6
Continuous
100
AcDbLine
 10
592.5064762614434
 20
453.3125063848716
 30
0.0
 11
612.5938809104573
 21
473.3999110338855
 31
0.0
1001
ACAD
1010
0.0
1020
0.0
1030
0.0
  0
LINE
  5
10E35
330
1F
100
AcDbEntity
  8
0
  6
Continuous
100
AcDbLine
 10
620.7992201570187
 20
481.6052502804469
 30
0.0
 11
631.6921595379102
 21
492.4981896613385
 31
0.0
1001
ACAD
1010
0.0
1020
0.0
1030
0.0
  0
LINE
  5
10E36
330
1F
100
AcDbEntity
  8
0
  6
Continuous
100
AcDbLine
 10
589.1022763483246
 20
447.6632424414855
 30
0.0
 11
614.8423368545643
 21
473.4033029477253
 31
0.0
1001
ACAD
1010
0.0
1020
0.0
1030
0.0
  0
LINE
  5
10E37
330
1F
100
AcDbEntity
  8
0
  6
Continuous
100
AcDbLine
 10
623.0407451719367
 20
481.6017112650976
 30
0.0
 11
633.9482300399785
 21
492.5091961331394
 31
0.0
1001
ACAD
1010
0.0
1020
0.0
1030
0.0
  0
LINE
  5
10E38
330
1F
100
AcDbEntity
  8
0
  6
Continuous
100
AcDbLine
 10
585.7677131052103
 20
442.0836151681039
 30
0.0
 11
617.0890769656363
 21
473.40497902853
 31
0.0
1001
ACAD
1010
0.0
1020
0.0
1030
0.0
  0
LINE
  5
10E39
330
1F
100
AcDbEntity
  8
0
  6
Continuous
100
AcDbLine
 10
625.2829796980558
 20
481.5988817609494
 30
0.0
 11
636.2030536141543
 21
492.5189556770479
 31
0.0
1001
ACAD
1010
0.0
1020
0.0
1030
0.0
  0
LINE
  5
10E3A
330
1F
100
AcDbEntity
  8
0
  6
Continuous
100
AcDbLine
 10
585.2590421465537
 20
439.3298801791801
 30
0.0
 11
619.3338248015506
 21
473.4046628341769
 31
0.0
1001
ACAD
1010
0.0
1020
0.0
1030
0.0
  0
LINE
  5
10E3B
330
1F
100
AcDbEntity
  8
0
  6
Continuous
100
AcDbLine
 10
627.5280437283232
 20
481.5988817609494
 30
0.0
 11
638.4575004879265
 21
492.5283385205528
 31
0.0
1001
ACAD
1010
0.0
1020
0.0
1030
0.0
  0
LINE
  5
10E3C
330
1F
100
AcDbEntity
  8
0
  6
Continuous
100
AcDbLine
 10
587.4309490201068
 20
439.2567230224658
 30
0.0
 11
621.576319528843
 21
473.402093531202
 31
0.0
1001
ACAD
1010
0.0
1020
0.0
1030
0.0
  0
LINE
  5
10E3D
330
1F
100
AcDbEntity
  8
0
  6
Continuous
100
AcDbLine
 10
629.7731077585904
 20
481.5988817609494
 30
0.0
 11
640.7106729940373
 21
492.5364469963963
 31
0.0
1001
ACAD
1010
0.0
1020
0.0
1030
0.0
  0
LINE
  5
10E3E
330
1F
100
AcDbEntity
  8
0
  6
Continuous
100
AcDbLine
 10
589.6396035804416
 20
439.2203135525334
 30
0.0
 11
623.814301774014
 21
473.3950117461058
 31
0.0
1001
ACAD
1010
0.0
1020
0.0
1030
0.0
  0
LINE
  5
10E3F
330
1F
100
AcDbEntity
  8
0
  6
Continuous
100
AcDbLine
 10
632.0181717888577
 20
481.5988817609494
 30
0.0
 11
642.9637658808713
 21
492.544475852963
 31
0.0
1001
ACAD
1010
0.0
1020
0.0
1030
0.0
  0
LINE
  5
10E40
330
1F
100
AcDbEntity
  8
0
  6
Continuous
100
AcDbLine
 10
591.8765014911894
 20
439.2121474330138
 30
0.0
 11
626.0426474338066
 21
473.378293375631
 31
0.0
1001
ACAD
1010
0.0
1020
0.0
1030
0.0
  0
LINE
  5
10E41
330
1F
100
AcDbEntity
  8
0
  6
Continuous
100
AcDbLine
 10
634.2632358191249
 20
481.5988817609494
 30
0.0
 11
645.215760660561
 21
492.5514066023856
 31
0.0
1001
ACAD
1010
0.0
1020
0.0
1030
0.0
  0
LINE
  5
10E42
330
1F
100
AcDbEntity
  8
0
  6
Continuous
100
AcDbLine
 10
594.1273997182584
 20
439.2179816298155
 30
0.0
 11
613.6964603385153
 21
458.7870422500725
 31
0.0
1001
ACAD
1010
0.0
1020
0.0
1030
0.0
  0
LINE
  5
10E43
330
1F
100
AcDbEntity
  8
0
  6
Continuous
100
AcDbLine
 10
614.2507749796897
 20
459.3413568912468
 30
0.0
 11
628.2490833011751
 21
473.3396652127323
 31
0.0
1001
ACAD
1010
0.0
1020
0.0
1030
0.0
  0
LINE
  5
10E44
330
1F
100
AcDbEntity
  8
0
  6
Continuous
100
AcDbLine
 10
636.5082998493923
 20
481.5988817609494
 30
0.0
 11
647.4677554402509
 21
492.5583373518081
 31
0.0
1001
ACAD
1010
0.0
1020
0.0
1030
0.0
  0
LINE
  5
10E45
330
1F
100
AcDbEntity
  8
0
  6
Continuous
100
AcDbLine
 10
596.3930702610651
 20
439.238588142355
 30
0.0
 11
609.94217548205
 21
452.7876933633398
 31
0.0
1001
ACAD
1010
0.0
1020
0.0
1030
0.0
  0
LINE
  5
10E46
330
1F
100
AcDbEntity
  8
0
  6
Continuous
100
AcDbLine
 10
614.6581839917628
 20
457.5037018730527
 30
0.0
 11
630.1274969696199
 21
472.9730148509097
 31
0.0
1001
ACAD
1010
0.0
1020
0.0
1030
0.0
  0
LINE
  5
10E47
330
1F
100
AcDbEntity
  8
0
  6
Continuous
100
AcDbLine
 10
638.7533638796596
 20
481.5988817609494
 30
0.0
 11
649.7187942083009
 21
492.5643120895908
 31
0.0
1001
ACAD
1010
0.0
1020
0.0
1030
0.0
  0
LINE
  5
10E48
330
1F
100
AcDbEntity
  8
0
  6
Continuous
100
AcDbLine
 10
598.6822538134869
 20
439.2827076645095
 30
0.0
 11
606.5575004747044
 21
447.157954325727
 31
0.0
1001
ACAD
1010
0.0
1020
0.0
1030
0.0
  0
LINE
  5
10E49
330
1F
100
AcDbEntity
  8
0
  6
Continuous
100
AcDbLine
 10
614.6585400638983
 20
455.2589939149209
 30
0.0
 11
630.261897194647
 21
470.8623510456695
 31
0.0
1001
ACAD
1010
0.0
1020
0.0
1030
0.0
  0
LINE
  5
10E4A
330
1F
100
AcDbEntity
  8
0
  6
Continuous
100
AcDbLine
 10
638.8656992957173
 20
479.4661531467398
 30
0.0
 11
651.9698098878395
 21
492.5702637388621
 31
0.0
1001
ACAD
1010
0.0
1020
0.0
1030
0.0
  0
LINE
  5
10E4B
330
1F
100
AcDbEntity
  8
0
  6
Continuous
100
AcDbLine
 10
601.0307617396304
 20
439.3861515603857
 30
0.0
 11
603.0104788489704
 21
441.3658686697257
 31
0.0
1001
ACAD
1010
0.0
1020
0.0
1030
0.0
  0
LINE
  5
10E4C
330
1F
100
AcDbEntity
  8
0
  6
Continuous
100
AcDbLine
 10
614.6588961360337
 20
453.0142859567891
 30
0.0
 11
630.2883750325167
 21
468.643764853272
 31
0.0
1001
ACAD
1010
0.0
1020
0.0
1030
0.0
  0
LINE
  5
10E4D
330
1F
100
AcDbEntity
  8
0
  6
Continuous
100
AcDbLine
 10
638.8656992957173
 20
477.2210891164726
 30
0.0
 11
654.2197492288668
 21
492.5751390496222
 31
0.0
1001
ACAD
1010
0.0
1020
0.0
1030
0.0
  0
LINE
  5
10E4E
330
1F
100
AcDbEntity
  8
0
  6
Continuous
100
AcDbLine
 10
614.6592522081693
 20
450.7695779986572
 30
0.0
 11
630.294967182022
 21
466.40529297251
 31
0.0
1001
ACAD
1010
0.0
1020
0.0
1030
0.0
  0
LINE
  5
10E4F
330
1F
100
AcDbEntity
  8
0
  6
Continuous
100
AcDbLine
 10
638.8656992957173
 20
474.9760250862053
 30
0.0
 11
656.4694809827611
 21
492.5798067732491
 31
0.0
1001
ACAD
1010
0.0
1020
0.0
1030
0.0
  0
LINE
  5
10E50
330
1F
100
AcDbEntity
  8
0
  6
Continuous
100
AcDbLine
 10
614.6626174600843
 20
448.5278792203051
 30
0.0
 11
630.2950198335512
 21
464.1602815937719
 31
0.0
1001
ACAD
1010
0.0
1020
0.0
1030
0.0
  0
LINE
  5
10E51
330
1F
100
AcDbEntity
  8
0
  6
Continuous
100
AcDbLine
 10
638.8656992957173
 20
472.730961055938
 30
0.0
 11
658.7192127366553
 21
492.584474496876
 31
0.0
1001
ACAD
1010
0.0
1020
0.0
1030
0.0
  0
LINE
  5
10E52
330
1F
100
AcDbEntity
  8
0
  6
Continuous
100
AcDbLine
 10
614.6697989479319
 20
446.2899966778853
 30
0.0
 11
630.2919440265363
 21
461.9121417564897
 31
0.0
1001
ACAD
1010
0.0
1020
0.0
1030
0.0
  0
LINE
  5
10E53
330
1F
100
AcDbEntity
  8
0
  6
Continuous
100
AcDbLine
 10
638.8656992957173
 20
470.4858970256707
 30
0.0
 11
660.9689444905495
 21
492.5891422205029
 31
0.0
1001
ACAD
1010
0.0
1020
0.0
1030
0.0
  0
LINE
  5
10E54
330
1F
100
AcDbEntity
  8
0
  6
Continuous
100
AcDbLine
 10
614.6848268587431
 20
444.0599605584293
 30
0.0
 11
630.2871744865006
 21
459.6623081861867
 31
0.0
1001
ACAD
1010
0.0
1020
0.0
1030
0.0
  0
LINE
  5
10E55
330
1F
100
AcDbEntity
  8
0
  6
Continuous
100
AcDbLine
 10
638.8656992957173
 20
468.2408329954034
 30
0.0
 11
663.2181297024661
 21
492.5932634021522
 31
0.0
1001
ACAD
1010
0.0
1020
0.0
1030
0.0
  0
LINE
  5
10E56
330
1F
100
AcDbEntity
  8
0
  6
Continuous
100
AcDbLine
 10
614.7146849232939
 20
441.8447545927128
 30
0.0
 11
630.2815284835049
 21
457.4115981529237
 31
0.0
1001
ACAD
1010
0.0
1020
0.0
1030
0.0
  0
LINE
  5
10E57
330
1F
100
AcDbEntity
  8
0
  6
Continuous
100
AcDbLine
 10
638.8656992957173
 20
465.9957689651361
 30
0.0
 11
665.4663401915939
 21
492.5964098610128
 31
0.0
1001
ACAD
1010
0.0
1020
0.0
1030
0.0
  0
LINE
  5
10E58
330
1F
100
AcDbEntity
  8
0
  6
Continuous
100
AcDbLine
 10
614.7802400033794
 20
439.6652456425309
 30
0.0
 11
630.2755490391786
 21
455.1605546783302
 31
0.0
1001
ACAD
1010
0.0
1020
0.0
1030
0.0
  0
LINE
  5
10E59
330
1F
100
AcDbEntity
  8
0
  6
Continuous
100
AcDbLine
 10
638.8656992957173
 20
463.7507049348688
 30
0.0
 11
654.5266345525481
 21
479.4116401916996
 31
0.0
1001
ACAD
1010
0.0
1020
0.0
1030
0.0
  0
LINE
  5
10E5A
330
1F
100
AcDbEntity
  8
0
  6
Continuous
100
AcDbLine
 10
656.7138761217979
 20
481.5988817609494
 30
0.0
 11
667.7145506807218
 21
492.5995563198734
 31
0.0
1001
ACAD
1010
0.0
1020
0.0
1030
0.0
  0
LINE
  5
10E5B
330
1F
100
AcDbEntity
  8
0
  6
Continuous
100
AcDbLine
 10
616.64403441716
 20
439.2839760260443
 30
0.0
 11
630.2694842498623
 21
452.9094258587466
 31
0.0
1001
ACAD
1010
0.0
1020
0.0
1030
0.0
  0
LINE
  5
10E5C
330
1F
100
AcDbEntity
  8
0
  6
Continuous
100
AcDbLine
 10
638.8656992957173
 20
461.5056409046015
 30
0.0
 11
654.5218115175632
 21
477.1617531264475
 31
0.0
1001
ACAD
1010
0.0
1020
0.0
1030
0.0
  0
LINE
  5
10E5D
330
1F
100
AcDbEntity
  8
0
  6
Continuous
100
AcDbLine
 10
658.9589401520651
 20
481.5988817609494
 30
0.0
 11
669.9627611698497
 21
492.602702778734
 31
0.0
1001
ACAD
1010
0.0
1020
0.0
1030
0.0
  0
LINE
  5
10E5E
330
1F
100
AcDbEntity
  8
0
  6
Continuous
100
AcDbLine
 10
618.8698169171348
 20
439.2646944957518
 30
0.0
 11
630.2634194605461
 21
450.6582970391631
 31
0.0
1001
ACAD
1010
0.0
1020
0.0
1030
0.0
  0
LINE
  5
10E5F
330
1F
100
AcDbEntity
  8
0
  6
Continuous
100
AcDbLine
 10
638.8664441243892
 20
459.2613217030063
 30
0.0
 11
654.5169884825783
 21
474.9118660611953
 31
0.0
1001
ACAD
1010
0.0
1020
0.0
1030
0.0
  0
LINE
  5
10E60
330
1F
100
AcDbEntity
  8
0
  6
Continuous
100
AcDbLine
 10
661.2040041823325
 20
481.5988817609494
 30
0.0
 11
672.2109716589777
 21
492.6058492375946
 31
0.0
1001
ACAD
1010
0.0
1020
0.0
1030
0.0
  0
LINE
  5
10E61
330
1F
100
AcDbEntity
  8
0
  6
Continuous
100
AcDbLine
 10
621.1200115785226
 20
439.2698251268723
 30
0.0
 11
630.2573546712298
 21
448.4071682195795
 31
0.0
1001
ACAD
1010
0.0
1020
0.0
1030
0.0
  0
LINE
  5
10E62
330
1F
100
AcDbEntity
  8
0
  6
Continuous
100
AcDbLine
 10
638.8676067346785
 20
457.0174202830282
 30
0.0
 11
654.5121654475934
 21
472.6619789959431
 31
0.0
1001
ACAD
1010
0.0
1020
0.0
1030
0.0
  0
LINE
  5
10E63
330
1F
100
AcDbEntity
  8
0
  6
Continuous
100
AcDbLine
 10
663.4490682125997
 20
481.5988817609494
 30
0.0
 11
674.4581234808358
 21
492.6079370291855
 31
0.0
1001
ACAD
1010
0.0
1020
0.0
1030
0.0
  0
LINE
  5
10E64
330
1F
100
AcDbEntity
  8
0
  6
Continuous
100
AcDbLine
 10
623.377092026927
 20
439.2818415450094
 30
0.0
 11
630.2512898819135
 21
446.156039399996
 31
0.0
1001
ACAD
1010
0.0
1020
0.0
1030
0.0
  0
LINE
  5
10E65
330
1F
100
AcDbEntity
  8
0
  6
Continuous
100
AcDbLine
 10
638.8706106039934
 20
454.7753601220758
 30
0.0
 11
654.5073424126085
 21
470.412091930691
 31
0.0
1001
ACAD
1010
0.0
1020
0.0
1030
0.0
  0
LINE
  5
10E66
330
1F
100
AcDbEntity
  8
0
  6
Continuous
100
AcDbLine
 10
665.694132242867
 20
481.5988817609494
 30
0.0
 11
676.7048843848892
 21
492.6096339029716
 31
0.0
1001
ACAD
1010
0.0
1020
0.0
1030
0.0
  0
LINE
  5
10E67
330
1F
100
AcDbEntity
  8
0
  6
Continuous
100
AcDbLine
 10
625.6360078953228
 20
439.2956933831379
 30
0.0
 11
630.2452250925973
 21
443.9049105804124
 31
0.0
1001
ACAD
1010
0.0
1020
0.0
1030
0.0
  0
LINE
  5
10E68
330
1F
100
AcDbEntity
  8
0
  6
Continuous
100
AcDbLine
 10
627.8949237637186
 20
439.3095452212664
 30
0.0
 11
630.239160303281
 21
441.6537817608288
 31
0.0
1001
ACAD
1010
0.0
1020
0.0
1030
0.0
  0
LINE
  5
10E69
330
1F
100
AcDbEntity
  8
0
  6
Continuous
100
AcDbLine
 10
638.8742059243912
 20
452.5338914122063
 30
0.0
 11
654.5025193776237
 21
468.1622048654388
 31
0.0
1001
ACAD
1010
0.0
1020
0.0
1030
0.0
  0
LINE
  5
10E6A
330
1F
100
AcDbEntity
  8
0
  6
Continuous
100
AcDbLine
 10
638.8804073275054
 20
450.2950287850533
 30
0.0
 11
654.4976963426387
 21
465.9123178001866
 31
0.0
1001
ACAD
1010
0.0
1020
0.0
1030
0.0
  0
LINE
  5
10E6B
330
1F
100
AcDbEntity
  8
0
  6
Continuous
100
AcDbLine
 10
667.9391962731343
 20
481.5988817609494
 30
0.0
 11
678.9516452889426
 21
492.6113307767577
 31
0.0
1001
ACAD
1010
0.0
1020
0.0
1030
0.0
  0
LINE
  5
10E6C
330
1F
100
AcDbEntity
  8
0
  6
Continuous
100
AcDbLine
 10
670.1842603034016
 20
481.5988817609494
 30
0.0
 11
681.1984061929959
 21
492.6130276505438
 31
0.0
1001
ACAD
1010
0.0
1020
0.0
1030
0.0
  0
LINE
  5
10E6D
330
1F
100
AcDbEntity
  8
0
  6
Continuous
100
AcDbLine
 10
630.1538396321143
 20
439.3233970593949
 30
0.0
 11
630.2330955139647
 21
439.4026529412453
 31
0.0
1001
ACAD
1010
0.0
1020
0.0
1030
0.0
  0
LINE
  5
10E6E
330
1F
100
AcDbEntity
  8
0
  6
Continuous
100
AcDbLine
 10
638.8879268057296
 20
448.0574842330102
 30
0.0
 11
654.4928733076539
 21
463.6624307349344
 31
0.0
1001
ACAD
1010
0.0
1020
0.0
1030
0.0
  0
LINE
  5
10E6F
330
1F
100
AcDbEntity
  8
0
  6
Continuous
100
AcDbLine
 10
662.4352376760739
 20
471.6047951033545
 30
0.0
 11
664.2042615275853
 21
473.373818954866
 31
0.0
1001
ACAD
1010
0.0
1020
0.0
1030
0.0
  0
LINE
  5
10E70
330
1F
100
AcDbEntity
  8
0
  6
Continuous
100
AcDbLine
 10
672.4293243336689
 20
481.5988817609494
 30
0.0
 11
683.445020960132
 21
492.6145783874125
 31
0.0
1001
ACAD
1010
0.0
1020
0.0
1030
0.0
  0
LINE
  5
10E71
330
1F
100
AcDbEntity
  8
0
  6
Continuous
100
AcDbLine
 10
638.897366587587
 20
445.8218599846003
 30
0.0
 11
654.4880502726689
 21
461.4125436696822
 31
0.0
1001
ACAD
1010
0.0
1020
0.0
1030
0.0
  0
LINE
  5
10E72
330
1F
100
AcDbEntity
  8
0
  6
Continuous
100
AcDbLine
 10
662.3941594079876
 20
469.3186528050009
 30
0.0
 11
666.4730766559171
 21
473.3975700529303
 31
0.0
1001
ACAD
1010
0.0
1020
0.0
1030
0.0
  0
LINE
  5
10E73
330
1F
100
AcDbEntity
  8
0
  6
Continuous
100
AcDbLine
 10
674.6743883639361
 20
481.5988817609494
 30
0.0
 11
685.690262121181
 21
492.6147555181943
 31
0.0
1001
ACAD
1010
0.0
1020
0.0
1030
0.0
  0
LINE
  5
10E74
330
1F
100
AcDbEntity
  8
0
  6
Continuous
100
AcDbLine
 10
638.9110471280293
 20
443.5904764947752
 30
0.0
 11
654.48322723874
 21
459.162656605486
 31
0.0
1001
ACAD
1010
0.0
1020
0.0
1030
0.0
  0
LINE
  5
10E75
330
1F
100
AcDbEntity
  8
0
  6
Continuous
100
AcDbLine
 10
662.3758205910543
 20
467.0552499578002
 30
0.0
 11
668.7264747732984
 21
473.4059041400444
 31
0.0
1001
ACAD
1010
0.0
1020
0.0
1030
0.0
  0
LINE
  5
10E76
330
1F
100
AcDbEntity
  8
0
  6
Continuous
100
AcDbLine
 10
676.9194523942035
 20
481.5988817609494
 30
0.0
 11
687.9355032822301
 21
492.6149326489761
 31
0.0
1001
ACAD
1010
0.0
1020
0.0
1030
0.0
  0
LINE
  5
10E77
330
1F
100
AcDbEntity
  8
0
  6
Continuous
100
AcDbLine
 10
638.9305811301907
 20
441.3649464666694
 30
0.0
 11
654.4784042055845
 21
456.9127695420632
 31
0.0
1001
ACAD
1010
0.0
1020
0.0
1030
0.0
  0
LINE
  5
10E78
330
1F
100
AcDbEntity
  8
0
  6
Continuous
100
AcDbLine
 10
662.3681653912525
 20
464.8025307277312
 30
0.0
 11
670.9688628719265
 21
473.4032282084052
 31
0.0
1001
ACAD
1010
0.0
1020
0.0
1030
0.0
  0
LINE
  5
10E79
330
1F
100
AcDbEntity
  8
0
  6
Continuous
100
AcDbLine
 10
679.1645164244708
 20
481.5988817609494
 30
0.0
 11
690.1807444432792
 21
492.6151097797579
 31
0.0
1001
ACAD
1010
0.0
1020
0.0
1030
0.0
  0
LINE
  5
10E7A
330
1F
100
AcDbEntity
  8
0
  6
Continuous
100
AcDbLine
 10
639.2051524070761
 20
439.3944537132875
 30
0.0
 11
654.4735811724289
 21
454.6628824786403
 31
0.0
1001
ACAD
1010
0.0
1020
0.0
1030
0.0
  0
LINE
  5
10E7B
330
1F
100
AcDbEntity
  8
0
  6
Continuous
100
AcDbLine
 10
662.3641291402364
 20
462.5534304464477
 30
0.0
 11
673.201310505807
 21
473.3906118120184
 31
0.0
1001
ACAD
1010
0.0
1020
0.0
1030
0.0
  0
LINE
  5
10E7C
330
1F
100
AcDbEntity
  8
0
  6
Continuous
100
AcDbLine
 10
681.409580454738
 20
481.5988817609494
 30
0.0
 11
692.4259856043282
 21
492.6152869105396
 31
0.0
1001
ACAD
1010
0.0
1020
0.0
1030
0.0
  0
LINE
  5
10E7D
330
1F
100
AcDbEntity
  8
0
  6
Continuous
100
AcDbLine
 10
641.3225065907503
 20
439.2667438666944
 30
0.0
 11
654.4687581392734
 21
452.4129954152175
 31
0.0
1001
ACAD
1010
0.0
1020
0.0
1030
0.0
  0
LINE
  5
10E7E
330
1F
100
AcDbEntity
  8
0
  6
Continuous
100
AcDbLine
 10
662.3621142499818
 20
460.3063515259259
 30
0.0
 11
675.4199124646765
 21
473.3641497406206
 31
0.0
1001
ACAD
1010
0.0
1020
0.0
1030
0.0
  0
LINE
  5
10E7F
330
1F
100
AcDbEntity
  8
0
  6
Continuous
100
AcDbLine
 10
683.6546444850053
 20
481.5988817609494
 30
0.0
 11
694.6704594192427
 21
492.6146966951867
 31
0.0
1001
ACAD
1010
0.0
1020
0.0
1030
0.0
  0
LINE
  5
10E80
330
1F
100
AcDbEntity
  8
0
  6
Continuous
100
AcDbLine
 10
643.5636830280096
 20
439.2628562736864
 30
0.0
 11
654.4639351061178
 21
450.1631083517946
 31
0.0
1001
ACAD
1010
0.0
1020
0.0
1030
0.0
  0
LINE
  5
10E81
330
1F
100
AcDbEntity
  8
0
  6
Continuous
100
AcDbLine
 10
662.3612579838659
 20
458.0604312295428
 30
0.0
 11
677.5975585622479
 21
473.2967318079246
 31
0.0
1001
ACAD
1010
0.0
1020
0.0
1030
0.0
  0
LINE
  5
10E82
330
1F
100
AcDbEntity
  8
0
  6
Continuous
100
AcDbLine
 10
685.8997085152726
 20
481.5988817609494
 30
0.0
 11
696.914424694192
 21
492.6135979398688
 31
0.0
1001
ACAD
1010
0.0
1020
0.0
1030
0.0
  0
LINE
  5
10E83
330
1F
100
AcDbEntity
  8
0
  6
Continuous
100
AcDbLine
 10
645.8179216052625
 20
439.2720308206721
 30
0.0
 11
654.4591120729623
 21
447.9132212883718
 31
0.0
1001
ACAD
1010
0.0
1020
0.0
1030
0.0
  0
LINE
  5
10E84
330
1F
100
AcDbEntity
  8
0
  6
Continuous
100
AcDbLine
 10
662.3613817446314
 20
455.815490960041
 30
0.0
 11
678.0578395014787
 21
471.5119487168883
 31
0.0
1001
ACAD
1010
0.0
1020
0.0
1030
0.0
  0
LINE
  5
10E85
330
1F
100
AcDbEntity
  8
0
  6
Continuous
100
AcDbLine
 10
688.1447725455399
 20
481.5988817609494
 30
0.0
 11
699.157952458807
 21
492.6120616742165
 31
0.0
1001
ACAD
1010
0.0
1020
0.0
1030
0.0
  0
LINE
  5
10E86
330
1F
100
AcDbEntity
  8
0
  6
Continuous
100
AcDbLine
 10
648.0759824425679
 20
439.2850276277101
 30
0.0
 11
654.4542890398067
 21
445.6633342249489
 31
0.0
1001
ACAD
1010
0.0
1020
0.0
1030
0.0
  0
LINE
  5
10E87
330
1F
100
AcDbEntity
  8
0
  6
Continuous
100
AcDbLine
 10
662.3629868821363
 20
453.5720320672785
 30
0.0
 11
682.1935001677598
 21
473.4025453529021
 31
0.0
1001
ACAD
1010
0.0
1020
0.0
1030
0.0
  0
LINE
  5
10E88
330
1F
100
AcDbEntity
  8
0
  6
Continuous
100
AcDbLine
 10
690.3898365758072
 20
481.5988817609494
 30
0.0
 11
701.4009488103503
 21
492.6099939954926
 31
0.0
1001
ACAD
1010
0.0
1020
0.0
1030
0.0
  0
LINE
  5
10E89
330
1F
100
AcDbEntity
  8
0
  6
Continuous
100
AcDbLine
 10
650.3348358990091
 20
439.2988170538841
 30
0.0
 11
654.4494660066512
 21
443.4134471615261
 31
0.0
1001
ACAD
1010
0.0
1020
0.0
1030
0.0
  0
LINE
  5
10E8A
330
1F
100
AcDbEntity
  8
0
  6
Continuous
100
AcDbLine
 10
662.3669758323236
 20
451.3309569871986
 30
0.0
 11
684.4402917962666
 21
473.4042729511416
 31
0.0
1001
ACAD
1010
0.0
1020
0.0
1030
0.0
  0
LINE
  5
10E8B
330
1F
100
AcDbEntity
  8
0
  6
Continuous
100
AcDbLine
 10
692.6349006060744
 20
481.5988817609494
 30
0.0
 11
703.643512222257
 21
492.607493377132
 31
0.0
1001
ACAD
1010
0.0
1020
0.0
1030
0.0
  0
LINE
  5
10E8C
330
1F
100
AcDbEntity
  8
0
  6
Continuous
100
AcDbLine
 10
652.5936893554505
 20
439.3126064800582
 30
0.0
 11
654.4446429734955
 21
441.1635600981032
 31
0.0
1001
ACAD
1010
0.0
1020
0.0
1030
0.0
  0
LINE
  5
10E8D
330
1F
100
AcDbEntity
  8
0
  6
Continuous
100
AcDbLine
 10
662.3730045721653
 20
449.091921696773
 30
0.0
 11
686.6870834247734
 21
473.4060005493811
 31
0.0
1001
ACAD
1010
0.0
1020
0.0
1030
0.0
  0
LINE
  5
10E8E
330
1F
100
AcDbEntity
  8
0
  6
Continuous
100
AcDbLine
 10
694.8799646363418
 20
481.5988817609494
 30
0.0
 11
705.8854006439778
 21
492.6043177685856
 31
0.0
1001
ACAD
1010
0.0
1020
0.0
1030
0.0
  0
LINE
  5
10E8F
330
1F
100
AcDbEntity
  8
0
  6
Continuous
100
AcDbLine
 10
662.381644928343
 20
446.8554980226834
 30
0.0
 11
688.9323638423405
 21
473.4062169366808
 31
0.0
1001
ACAD
1010
0.0
1020
0.0
1030
0.0
  0
LINE
  5
10E90
330
1F
100
AcDbEntity
  8
0
  6
Continuous
100
AcDbLine
 10
697.1250286666091
 20
481.5988817609494
 30
0.0
 11
708.1267188867082
 21
492.6005719810486
 31
0.0
1001
ACAD
1010
0.0
1020
0.0
1030
0.0
  0
LINE
  5
10E91
330
1F
100
AcDbEntity
  8
0
  6
Continuous
100
AcDbLine
 10
662.3945584357986
 20
444.6233474998716
 30
0.0
 11
691.1661662787602
 21
473.3949553428333
 31
0.0
1001
ACAD
1010
0.0
1020
0.0
1030
0.0
  0
LINE
  5
10E92
330
1F
100
AcDbEntity
  8
0
  6
Continuous
100
AcDbLine
 10
699.3700926968763
 20
481.5988817609494
 30
0.0
 11
710.367303054539
 21
492.5960921186121
 31
0.0
1001
ACAD
1010
0.0
1020
0.0
1030
0.0
  0
LINE
  5
10E93
330
1F
100
AcDbEntity
  8
0
  6
Continuous
100
AcDbLine
 10
662.4127661283726
 20
442.3964911621784
 30
0.0
 11
678.0266352957173
 21
458.0103603295231
 31
0.0
1001
ACAD
1010
0.0
1020
0.0
1030
0.0
  0
LINE
  5
10E94
330
1F
100
AcDbEntity
  8
0
  6
Continuous
100
AcDbLine
 10
679.7229572826872
 20
459.706682316493
 30
0.0
 11
693.3230528630119
 21
473.3067778968177
 31
0.0
1001
ACAD
1010
0.0
1020
0.0
1030
0.0
  0
LINE
  5
10E95
330
1F
100
AcDbEntity
  8
0
  6
Continuous
100
AcDbLine
 10
701.6151567271436
 20
481.5988817609494
 30
0.0
 11
712.6069213942028
 21
492.5906464280086
 31
0.0
1001
ACAD
1010
0.0
1020
0.0
1030
0.0
  0
LINE
  5
10E96
330
1F
100
AcDbEntity
  8
0
  6
Continuous
100
AcDbLine
 10
662.4457071109498
 20
440.1843681144883
 30
0.0
 11
678.0266352957173
 21
455.7652962992558
 31
0.0
1001
ACAD
1010
0.0
1020
0.0
1030
0.0
  0
LINE
  5
10E97
330
1F
100
AcDbEntity
  8
0
  6
Continuous
100
AcDbLine
 10
681.9739566601726
 20
459.7126176637111
 30
0.0
 11
690.9090742938358
 21
468.6477352973743
 31
0.0
1001
ACAD
1010
0.0
1020
0.0
1030
0.0
  0
LINE
  5
10E98
330
1F
100
AcDbEntity
  8
0
  6
Continuous
100
AcDbLine
 10
703.860220757411
 20
481.5988817609494
 30
0.0
 11
714.8459192119869
 21
492.5845802155254
 31
0.0
1001
ACAD
1010
0.0
1020
0.0
1030
0.0
  0
LINE
  5
10E99
330
1F
100
AcDbEntity
  8
0
  6
Continuous
100
AcDbLine
 10
663.7952192224873
 20
439.2888161957586
 30
0.0
 11
678.0266352957173
 21
453.5202322689885
 31
0.0
1001
ACAD
1010
0.0
1020
0.0
1030
0.0
  0
LINE
  5
10E9A
330
1F
100
AcDbEntity
  8
0
  6
Continuous
100
AcDbLine
 10
684.2725585166445
 20
459.7661554899158
 30
0.0
 11
686.7234272643623
 21
462.2170242376336
 31
0.0
1001
ACAD
1010
0.0
1020
0.0
1030
0.0
  0
LINE
  5
10E9B
330
1F
100
AcDbEntity
  8
0
  6
Continuous
100
AcDbLine
 10
706.1052847876782
 20
481.5988817609494
 30
0.0
 11
717.0830651271477
 21
492.576662100419
 31
0.0
1001
ACAD
1010
0.0
1020
0.0
1030
0.0
  0
LINE
  5
10E9C
330
1F
100
AcDbEntity
  8
0
  6
Continuous
100
AcDbLine
 10
666.0085387484439
 20
439.2570716914479
 30
0.0
 11
678.0266352957173
 21
451.2751682387212
 31
0.0
1001
ACAD
1010
0.0
1020
0.0
1030
0.0
  0
LINE
  5
10E9D
330
1F
100
AcDbEntity
  8
0
  6
Continuous
100
AcDbLine
 10
708.3503488179455
 20
481.5988817609494
 30
0.0
 11
719.3189958945093
 21
492.5675288375133
 31
0.0
1001
ACAD
1010
0.0
1020
0.0
1030
0.0
  0
LINE
  5
10E9E
330
1F
100
AcDbEntity
  8
0
  6
Continuous
100
AcDbLine
 10
668.2375781851956
 20
439.2410470979323
 30
0.0
 11
678.0250092688062
 21
449.0284781815429
 31
0.0
1001
ACAD
1010
0.0
1020
0.0
1030
0.0
  0
LINE
  5
10E9F
330
1F
100
AcDbEntity
  8
0
  6
Continuous
100
AcDbLine
 10
710.5954128482128
 20
481.5988817609494
 30
0.0
 11
721.5531247907867
 21
492.5565937035234
 31
0.0
1001
ACAD
1010
0.0
1020
0.0
1030
0.0
  0
LINE
  5
10EA0
330
1F
100
AcDbEntity
  8
0
  6
Continuous
100
AcDbLine
 10
670.476636731007
 20
439.2350416134764
 30
0.0
 11
678.0199524652984
 21
446.7783573477678
 31
0.0
1001
ACAD
1010
0.0
1020
0.0
1030
0.0
  0
LINE
  5
10EA1
330
1F
100
AcDbEntity
  8
0
  6
Continuous
100
AcDbLine
 10
702.2234972492196
 20
470.981902131689
 30
0.0
 11
704.540962422685
 21
473.2993673051544
 31
0.0
1001
ACAD
1010
0.0
1020
0.0
1030
0.0
  0
LINE
  5
10EA2
330
1F
100
AcDbEntity
  8
0
  6
Continuous
100
AcDbLine
 10
712.8404768784801
 20
481.5988817609494
 30
0.0
 11
718.7373750711874
 21
487.4957799536568
 31
0.0
1001
ACAD
1010
0.0
1020
0.0
1030
0.0
  0
LINE
  5
10EA3
330
1F
100
AcDbEntity
  8
0
  6
Continuous
100
AcDbLine
 10
719.9191044618335
 20
488.677509344303
 30
0.0
 11
720.5373407884517
 21
489.2957456709211
 31
0.0
1001
ACAD
1010
0.0
1020
0.0
1030
0.0
  0
LINE
  5
10EA4
330
1F
100
AcDbEntity
  8
0
  6
Continuous
100
AcDbLine
 10
721.717126654246
 20
490.4755315367154
 30
0.0
 11
723.7837288059802
 21
492.5421336884496
 31
0.0
1001
ACAD
1010
0.0
1020
0.0
1030
0.0
  0
LINE
  5
10EA5
330
1F
100
AcDbEntity
  8
0
  6
Continuous
100
AcDbLine
 10
672.7242503742008
 20
439.2375912264029
 30
0.0
 11
678.0099216974099
 21
444.5232625496121
 31
0.0
1001
ACAD
1010
0.0
1020
0.0
1030
0.0
  0
LINE
  5
10EA6
330
1F
100
AcDbEntity
  8
0
  6
Continuous
100
AcDbLine
 10
698.6708559676241
 20
465.1841968198262
 30
0.0
 11
706.8576588405155
 21
473.3709996927175
 31
0.0
1001
ACAD
1010
0.0
1020
0.0
1030
0.0
  0
LINE
  5
10EA7
330
1F
100
AcDbEntity
  8
0
  6
Continuous
100
AcDbLine
 10
715.0855409087474
 20
481.5988817609494
 30
0.0
 11
719.0493739527859
 21
485.562714804988
 31
0.0
1001
ACAD
1010
0.0
1020
0.0
1030
0.0
  0
LINE
  5
10EAB
330
1F
100
AcDbEntity
  8
0
  6
Continuous
100
AcDbLine
 10
723.6501967585862
 20
490.1635376107882
 30
0.0
 11
726.0091277017442
 21
492.5224685539463
 31
0.0
1001
ACAD
1010
0.0
1020
0.0
1030
0.0
  0
LINE
  5
10EAC
330
1F
100
AcDbEntity
  8
0
  6
Continuous
100
AcDbLine
 10
674.9829665559477
 20
439.2512433778825
 30
0.0
 11
677.9893025937399
 21
442.2575794156747
 31
0.0
1001
ACAD
1010
0.0
1020
0.0
1030
0.0
  0
LINE
  5
10EAD
330
1F
100
AcDbEntity
  8
0
  6
Continuous
100
AcDbLine
 10
695.1993870746123
 20
459.467663896547
 30
0.0
 11
709.122790367094
 21
473.3910671890288
 31
0.0
1001
ACAD
1010
0.0
1020
0.0
1030
0.0
  0
LINE
  5
10EAE
330
1F
100
AcDbEntity
  8
0
  6
Continuous
100
AcDbLine
 10
717.3306049390146
 20
481.5988817609494
 30
0.0
 11
720.0893815926968
 21
484.3576584146316
 31
0.0
1001
ACAD
1010
0.0
1020
0.0
1030
0.0
  0
LINE
  5
10EB1
330
1F
100
AcDbEntity
  8
0
  6
Continuous
100
AcDbLine
 10
722.7591449569562
 20
487.027421778891
 30
0.0
 11
722.9006631214004
 21
487.1689399433351
 31
0.0
1001
ACAD
1010
0.0
1020
0.0
1030
0.0
  0
LINE
  5
10EB3
330
1F
100
AcDbEntity
  8
0
  6
Continuous
100
AcDbLine
 10
724.8552519265181
 20
489.1235287484529
 30
0.0
 11
728.217957658231
 21
492.4862344801658
 31
0.0
1001
ACAD
1010
0.0
1020
0.0
1030
0.0
  0
LINE
  5
10EB4
330
1F
100
AcDbEntity
  8
0
  6
Continuous
100
AcDbLine
 10
677.3040004450198
 20
439.3272132366873
 30
0.0
 11
677.9452008431525
 21
439.96841363482
 31
0.0
1001
ACAD
1010
0.0
1020
0.0
1030
0.0
  0
LINE
  5
10EB5
330
1F
100
AcDbEntity
  8
0
  6
Continuous
100
AcDbLine
 10
691.760007120306
 20
453.7832199119735
 30
0.0
 11
711.3763187053555
 21
473.399531497023
 31
0.0
1001
ACAD
1010
0.0
1020
0.0
1030
0.0
  0
LINE
  5
10EB6
330
1F
100
AcDbEntity
  8
0
  6
Continuous
100
AcDbLine
 10
719.5756689692819
 20
481.5988817609494
 30
0.0
 11
721.6867910969628
 21
483.7100038886303
 31
0.0
1001
ACAD
1010
0.0
1020
0.0
1030
0.0
  0
LINE
  5
10EB9
330
1F
100
AcDbEntity
  8
0
  6
Continuous
100
AcDbLine
 10
725.5029044910276
 20
487.5261172826952
 30
0.0
 11
729.2521684099142
 21
491.2753812015818
 31
0.0
1001
ACAD
1010
0.0
1020
0.0
1030
0.0
  0
LINE
  5
10EBA
330
1F
100
AcDbEntity
  8
0
  6
Continuous
100
AcDbLine
 10
688.352550097489
 20
448.1306988588892
 30
0.0
 11
713.624938292687
 21
473.4030870540872
 31
0.0
1001
ACAD
1010
0.0
1020
0.0
1030
0.0
  0
LINE
  5
10EBB
330
1F
100
AcDbEntity
  8
0
  6
Continuous
100
AcDbLine
 10
721.8207329995493
 20
481.5988817609494
 30
0.0
 11
729.2872616076131
 21
489.0654103690134
 31
0.0
1001
ACAD
1010
0.0
1020
0.0
1030
0.0
  0
LINE
  5
10EBC
330
1F
100
AcDbEntity
  8
0
  6
Continuous
100
AcDbLine
 10
685.0066525936693
 20
442.5397373248022
 30
0.0
 11
715.8717744486748
 21
473.4048591798078
 31
0.0
1001
ACAD
1010
0.0
1020
0.0
1030
0.0
  0
LINE
  5
10EBD
330
1F
100
AcDbEntity
  8
0
  6
Continuous
100
AcDbLine
 10
724.0657970298165
 20
481.5988817609494
 30
0.0
 11
729.2906992957172
 21
486.8237840268501
 31
0.0
1001
ACAD
1010
0.0
1020
0.0
1030
0.0
  0
LINE
  5
10EBE
330
1F
100
AcDbEntity
  8
0
  6
Continuous
100
AcDbLine
 10
684.0279889215553
 20
439.3160096224209
 30
0.0
 11
718.1166867225013
 21
473.404707423367
 31
0.0
1001
ACAD
1010
0.0
1020
0.0
1030
0.0
  0
LINE
  5
10EBF
330
1F
100
AcDbEntity
  8
0
  6
Continuous
100
AcDbLine
 10
726.3108610600838
 20
481.5988817609494
 30
0.0
 11
729.2906992957172
 21
484.5787199965828
 31
0.0
1001
ACAD
1010
0.0
1020
0.0
1030
0.0
  0
LINE
  5
10EC0
330
1F
100
AcDbEntity
  8
0
  6
Continuous
100
AcDbLine
 10
686.214559505938
 20
439.2575161765365
 30
0.0
 11
720.3595871995896
 21
473.402543870188
 31
0.0
1001
ACAD
1010
0.0
1020
0.0
1030
0.0
  0
LINE
  5
10EC1
330
1F
100
AcDbEntity
  8
0
  6
Continuous
100
AcDbLine
 10
728.5559250903511
 20
481.5988817609494
 30
0.0
 11
729.2906992957172
 21
482.3336559663156
 31
0.0
1001
ACAD
1010
0.0
1020
0.0
1030
0.0
  0
LINE
  5
10EC2
330
1F
100
AcDbEntity
  8
0
  6
Continuous
100
AcDbLine
 10
688.443448020018
 20
439.2413406603491
 30
0.0
 11
722.5982454038003
 21
473.3961380441314
 31
0.0
1001
ACAD
1010
0.0
1020
0.0
1030
0.0
  0
LINE
  5
10EC3
330
1F
100
AcDbEntity
  8
0
  6
Continuous
100
AcDbLine
 10
690.6831443821386
 20
439.2359729922024
 30
0.0
 11
724.8277293520123
 21
473.380557962076
 31
0.0
1001
ACAD
1010
0.0
1020
0.0
1030
0.0
  0
LINE
  5
10EC4
330
1F
100
AcDbEntity
  8
0
  6
Continuous
100
AcDbLine
 10
692.9278975331579
 20
439.2356621129543
 30
0.0
 11
727.0361536426282
 21
473.3439182224246
 31
0.0
1001
ACAD
1010
0.0
1020
0.0
1030
0.0
  0
LINE
  5
10EC5
330
1F
100
AcDbEntity
  8
0
  6
Continuous
100
AcDbLine
 10
695.1768924483381
 20
439.2395929978674
 30
0.0
 11
709.1978350399883
 21
453.2605355895174
 31
0.0
1001
ACAD
1010
0.0
1020
0.0
1030
0.0
  0
LINE
  5
10EC6
330
1F
100
AcDbEntity
  8
0
  6
Continuous
100
AcDbLine
 10
713.6271629767069
 20
457.6898635262361
 30
0.0
 11
729.0431027636779
 21
473.1058033132071
 31
0.0
1001
ACAD
1010
0.0
1020
0.0
1030
0.0
  0
LINE
  5
10EC7
330
1F
100
AcDbEntity
  8
0
  6
Continuous
100
AcDbLine
 10
697.4360910977977
 20
439.2537276170596
 30
0.0
 11
705.8188264962599
 21
447.6364630155218
 31
0.0
1001
ACAD
1010
0.0
1020
0.0
1030
0.0
  0
LINE
  5
10EC8
330
1F
100
AcDbEntity
  8
0
  6
Continuous
100
AcDbLine
 10
713.627876833189
 20
455.4455133524509
 30
0.0
 11
729.2268411281824
 21
471.0444776474443
 31
0.0
1001
ACAD
1010
0.0
1020
0.0
1030
0.0
  0
LINE
  5
10EC9
330
1F
100
AcDbEntity
  8
0
  6
Continuous
100
AcDbLine
 10
699.739617303908
 20
439.3121897929025
 30
0.0
 11
702.356434548601
 21
441.9290070375956
 31
0.0
1001
ACAD
1010
0.0
1020
0.0
1030
0.0
  0
LINE
  5
10ECA
330
1F
100
AcDbEntity
  8
0
  6
Continuous
100
AcDbLine
 10
713.628590689671
 20
453.2011631786656
 30
0.0
 11
729.2569275789544
 21
468.8295000679491
 31
0.0
1001
ACAD
1010
0.0
1020
0.0
1030
0.0
  0
LINE
  5
10ECB
330
1F
100
AcDbEntity
  8
0
  6
Continuous
100
AcDbLine
 10
713.629304546153
 20
450.9568130048803
 30
0.0
 11
729.264788213426
 21
466.5922966721533
 31
0.0
1001
ACAD
1010
0.0
1020
0.0
1030
0.0
  0
LINE
  5
10ECC
330
1F
100
AcDbEntity
  8
0
  6
Continuous
100
AcDbLine
 10
713.6323297040581
 20
448.7147741325181
 30
0.0
 11
729.265267899492
 21
464.347712327952
 31
0.0
1001
ACAD
1010
0.0
1020
0.0
1030
0.0
  0
LINE
  5
10ECD
330
1F
100
AcDbEntity
  8
0
  6
Continuous
100
AcDbLine
 10
713.6395111919056
 20
446.4768915900984
 30
0.0
 11
729.2624727455873
 21
462.09985314378
 31
0.0
1001
ACAD
1010
0.0
1020
0.0
1030
0.0
  0
LINE
  5
10ECE
330
1F
100
AcDbEntity
  8
0
  6
Continuous
100
AcDbLine
 10
713.6536372388088
 20
444.2459536067342
 30
0.0
 11
729.257876659236
 21
459.8501930271614
 31
0.0
1001
ACAD
1010
0.0
1020
0.0
1030
0.0
  0
LINE
  5
10ECF
330
1F
100
AcDbEntity
  8
0
  6
Continuous
100
AcDbLine
 10
713.6817990831371
 20
442.0290514207953
 30
0.0
 11
729.2523250830156
 21
457.5995774206739
 31
0.0
1001
ACAD
1010
0.0
1020
0.0
1030
0.0
  0
LINE
  5
10ED0
330
1F
100
AcDbEntity
  8
0
  6
Continuous
100
AcDbLine
 10
713.740225240208
 20
439.842413547599
 30
0.0
 11
729.2462933984631
 21
455.348481705854
 31
0.0
1001
ACAD
1010
0.0
1020
0.0
1030
0.0
  0
LINE
  5
10ED1
330
1F
100
AcDbEntity
  8
0
  6
Continuous
100
AcDbLine
 10
715.430177724831
 20
439.2873020019546
 30
0.0
 11
729.2400192642313
 21
453.0971435413549
 31
0.0
1001
ACAD
1010
0.0
1020
0.0
1030
0.0
  0
LINE
  5
10ED2
330
1F
100
AcDbEntity
  8
0
  6
Continuous
100
AcDbLine
 10
717.6534322938588
 20
439.2654925407151
 30
0.0
 11
729.2337451299995
 21
450.8458053768558
 31
0.0
1001
ACAD
1010
0.0
1020
0.0
1030
0.0
  0
LINE
  5
10ED3
330
1F
100
AcDbEntity
  8
0
  6
Continuous
100
AcDbLine
 10
719.9019074786638
 20
439.2689036952528
 30
0.0
 11
729.2274709957677
 21
448.5944672123567
 31
0.0
1001
ACAD
1010
0.0
1020
0.0
1030
0.0
  0
LINE
  5
10ED4
330
1F
100
AcDbEntity
  8
0
  6
Continuous
100
AcDbLine
 10
722.1587532886663
 20
439.2806854749879
 30
0.0
 11
729.2211968615359
 21
446.3431290478576
 31
0.0
1001
ACAD
1010
0.0
1020
0.0
1030
0.0
  0
LINE
  5
10ED5
330
1F
100
AcDbEntity
  8
0
  6
Continuous
100
AcDbLine
 10
724.4176720020889
 20
439.2945401581434
 30
0.0
 11
729.214922727304
 21
444.0917908833585
 31
0.0
1001
ACAD
1010
0.0
1020
0.0
1030
0.0
  0
LINE
  5
10ED6
330
1F
100
AcDbEntity
  8
0
  6
Continuous
100
AcDbLine
 10
726.6765907155118
 20
439.3083948412989
 30
0.0
 11
729.2086485930722
 21
441.8404527188594
 31
0.0
1001
ACAD
1010
0.0
1020
0.0
1030
0.0
  0
LINE
  5
10ED7
330
1F
100
AcDbEntity
  8
0
  6
Continuous
100
AcDbLine
 10
728.9355094289346
 20
439.3222495244544
 30
0.0
 11
729.2023744588404
 21
439.5891145543603
 31
0.0
1001
ACAD
1010
0.0
1020
0.0
1030
0.0
  0
ENDSEC
  0
SECTION
  2
OBJECTS
  0
DICTIONARY
  5
C
330
0
100
AcDbDictionary
281
     1
  3
ACAD_COLOR
350
1002D
  3
ACAD_DETAILVIEWSTYLE
350
1079F
  3
ACAD_GROUP
350
D
  3
ACAD_IMAGE_VARS
350
1079A
  3
ACAD_LAYOUT
350
10045
  3
ACAD_MATERIAL
350
10003
  3
ACAD_MLEADERSTYLE
350
10042
  3
ACAD_MLINESTYLE
350
17
  3
ACAD_PLOTSETTINGS
350
10046
  3
ACAD_PLOTSTYLENAME
350
10001
  3
ACAD_SCALELIST
350
10030
  3
ACAD_SECTIONVIEWSTYLE
350
107A0
  3
ACAD_TABLESTYLE
350
1002E
  3
ACAD_VISUALSTYLE
350
1001C
  3
ACDB_RECOMPOSE_DATA
350
10EDA
  3
AcDbVariableDictionary
350
10769
  3
AcmDictionary
350
100A6
  3
AMG
350
10085
  3
AMGSNAPSETTINGS
350
100E5
  3
APPDATA
350
10798
  0
SUN
  5
10799
330
2E
100
AcDbSun
 90
        1
290
     0
 63
     7
421
 16777215
 40
1.0
291
     1
 91
  2455826
 92
 54000000
292
     0
 70
     2
 71
   256
280
     1
  0
DICTIONARY
  5
105BB
330
50
100
AcDbDictionary
280
     1
281
     1
  3
ADSK_XREC_LAYER_RECONCILED
360
105BC
  0
DICTIONARY
  5
105BD
330
51
100
AcDbDictionary
280
     1
281
     1
  3
ADSK_XREC_LAYER_RECONCILED
360
105BE
  0
DICTIONARY
  5
10162
330
1F
100
AcDbDictionary
280
     1
281
     1
  3
ACAD_SORTENTS
360
10163
  0
DICTIONARY
  5
1002D
102
{ACAD_REACTORS
330
C
102
}
330
C
100
AcDbDictionary
281
     1
  0
DICTIONARY
  5
1079F
102
{ACAD_REACTORS
330
C
102
}
330
C
100
AcDbDictionary
281
     1
  0
DICTIONARY
  5
D
330
C
100
AcDbDictionary
281
     1
  3
*A1
350
108E3
  3
*A2
350
10DFF
  0
RASTERVARIABLES
  5
1079A
102
{ACAD_REACTORS
330
C
102
}
330
C
100
AcDbRasterVariables
 90
        0
 70
     1
 71
     1
 72
     0
  0
DICTIONARY
  5
10045
102
{ACAD_REACTORS
330
C
102
}
330
C
100
AcDbDictionary
281
     1
  3
Layout1
350
10048
  3
Model
350
10047
  0
DICTIONARY
  5
10003
102
{ACAD_REACTORS
330
C
102
}
330
C
100
AcDbDictionary
281
     1
  3
ByBlock
350
1000C
  3
ByLayer
350
10004
  3
Global
350
10014
  0
DICTIONARY
  5
10042
102
{ACAD_REACTORS
330
C
102
}
330
C
100
AcDbDictionary
281
     1
  3
Standard
350
10043
  0
DICTIONARY
  5
17
330
C
100
AcDbDictionary
281
     1
  3
Standard
350
10772
  0
DICTIONARY
  5
10046
102
{ACAD_REACTORS
330
C
102
}
330
C
100
AcDbDictionary
281
     1
  0
ACDBDICTIONARYWDFLT
  5
10001
102
{ACAD_REACTORS
330
C
102
}
330
C
100
AcDbDictionary
281
     1
  3
Normal
350
10002
100
AcDbDictionaryWithDefault
340
10002
  0
DICTIONARY
  5
10030
102
{ACAD_REACTORS
330
C
102
}
330
C
100
AcDbDictionary
281
     1
  3
*A1
350
107AD
  3
A0
350
10031
  3
A1
350
10032
  3
A2
350
10033
  3
A3
350
10034
  3
A4
350
10035
  3
A5
350
10036
  3
A6
350
10037
  3
A7
350
10038
  3
A8
350
10039
  3
A9
350
1003A
  3
B0
350
1003B
  3
B1
350
1003C
  3
B2
350
1003D
  3
B3
350
1003E
  3
B4
350
1003F
  3
B5
350
10040
  3
B6
350
10041
  0
DICTIONARY
  5
107A0
102
{ACAD_REACTORS
330
C
102
}
330
C
100
AcDbDictionary
281
     1
  0
DICTIONARY
  5
1002E
102
{ACAD_REACTORS
330
C
102
}
330
C
100
AcDbDictionary
281
     1
  3
Standard
350
1002F
  0
DICTIONARY
  5
1001C
102
{ACAD_REACTORS
330
C
102
}
330
C
100
AcDbDictionary
281
     1
  3
2dWireframe
350
10022
  3
3D Hidden
350
10024
  3
3dWireframe
350
10023
  3
Basic
350
10021
  3
Brighten
350
10028
  3
ColorChange
350
1002C
  3
Conceptual
350
10025
  3
Dim
350
10027
  3
EdgeColorOff
350
10792
  3
Facepattern
350
1002B
  3
Flat
350
1001D
  3
FlatWithEdges
350
1001E
  3
Gouraud
350
1001F
  3
GouraudWithEdges
350
10020
  3
Hidden
350
1078F
  3
JitterOff
350
10790
  3
Linepattern
350
1002A
  3
OverhangOff
350
10791
  3
Realistic
350
10026
  3
Shaded
350
10797
  3
Shaded with edges
350
10796
  3
Shades of Gray
350
10793
  3
Sketchy
350
10794
  3
Thicken
350
10029
  3
Wireframe
350
1078E
  3
X-Ray
350
10795
  0
XRECORD
  5
10EDA
102
{ACAD_REACTORS
330
C
102
}
330
C
100
AcDbXrecord
280
     1
 90
        1
330
1002F
  0
DICTIONARY
  5
10769
102
{ACAD_REACTORS
330
C
102
}
330
C
100
AcDbDictionary
281
     1
  3
CANNOSCALE
350
1076D
  3
CMLEADERSTYLE
350
1076B
  3
CTABLESTYLE
350
1076A
  3
LAYEREVAL
350
1076F
  3
LAYERNOTIFY
350
10770
  3
LIGHTINGUNITS
350
1076E
  3
MSLTSCALE
350
1076C
  3
XCLIPFRAME
350
1079E
  0
DICTIONARY
  5
100A6
102
{ACAD_REACTORS
330
C
102
}
330
C
100
AcDbDictionary
281
     1
  3
AcmStdDictionary
350
100B1
  0
DICTIONARY
  5
10085
102
{ACAD_REACTORS
330
C
102
}
330
C
100
AcDbDictionary
281
     1
  0
DICTIONARY
  5
100E5
102
{ACAD_REACTORS
330
C
102
}
330
C
100
AcDbDictionary
281
     1
  0
DICTIONARY
  5
10798
102
{ACAD_REACTORS
330
C
102
}
330
C
100
AcDbDictionary
281
     1
  0
XRECORD
  5
105BC
102
{ACAD_REACTORS
330
105BB
102
}
330
105BB
100
AcDbXrecord
280
     1
290
     1
  0
XRECORD
  5
105BE
102
{ACAD_REACTORS
330
105BD
102
}
330
105BD
100
AcDbXrecord
280
     1
290
     1
  0
SORTENTSTABLE
  5
10163
102
{ACAD_REACTORS
330
10162
102
}
330
10162
100
AcDbSortentsTable
330
1F
331
0
  5
10344
331
0
  5
106F9
  0
GROUP
  5
108E3
102
{ACAD_REACTORS
330
D
102
}
330
D
100
AcDbGroup
300

 70
     1
 71
     1
  0
GROUP
  5
10DFF
102
{ACAD_REACTORS
330
D
102
}
330
D
100
AcDbGroup
300

 70
     1
 71
     1
340
10D9E
340
10D9F
340
10DA0
340
10DA1
340
10DA2
340
10DA3
340
10DA4
340
10DA5
340
10DA6
340
10DA7
340
10DA8
340
10DA9
340
10DAA
340
10DAB
340
10DAC
340
10DAD
340
10DAE
340
10DAF
340
10DB0
340
10DB1
340
10DB2
340
10DB3
340
10DB4
340
10DB5
340
10DB6
340
10DB7
340
10DB8
340
10DB9
340
10DBA
340
10DBB
340
10DBC
340
10DBD
340
10DBE
340
10DBF
340
10DC0
340
10DC1
340
10DC2
340
10DC3
340
10DC4
340
10DC5
340
10DC6
340
10DC7
340
10DC8
340
10DC9
340
10DCA
340
10DCB
340
10DCC
340
10DCD
340
10DCE
340
10DCF
340
10DD0
340
10DD1
340
10DD2
340
10DD3
340
10DD4
340
10DD5
340
10DD6
340
10DD7
340
10DD8
340
10DD9
340
10DDA
340
10DDB
340
10DDC
340
10DDD
340
10DDE
340
10DDF
340
10DE0
340
10DE1
340
10DE2
340
10DE3
340
10DE4
340
10DE5
340
10DE6
340
10DE7
340
10DE8
340
10DE9
340
10DEA
340
10DEB
340
10DEC
340
10DED
340
10DEE
340
10DEF
340
10DF0
340
10DF1
340
10DF2
340
10DF3
340
10DF4
340
10DF5
340
10DF6
340
10DF7
340
10DF8
340
10DF9
340
10DFA
340
10DFB
340
10DFC
340
10DFD
340
10DFE
  0
LAYOUT
  5
10048
102
{ACAD_REACTORS
330
10045
102
}
330
10045
100
AcDbPlotSettings
  1

  2
TOSHIBA e-STUDIO2330C XPS
  4

  6

 40
0.0
 41
0.0
 42
0.0
 43
0.0
 44
0.0
 45
0.0
 46
0.0
 47
0.0
 48
0.0
 49
0.0
140
0.0
141
0.0
142
1.0
143
1.0
 70
   688
 72
     0
 73
     0
 74
     5
  7

 75
    16
 76
     0
 77
     2
 78
   300
147
1.0
148
0.0
149
0.0
100
AcDbLayout
  1
Layout1
 70
     1
 71
     1
 10
0.0
 20
0.0
 11
12.0
 21
9.0
 12
0.0
 22
0.0
 32
0.0
 14
1.000000000000000E+20
 24
1.000000000000000E+20
 34
1.000000000000000E+20
 15
-1.000000000000000E+20
 25
-1.000000000000000E+20
 35
-1.000000000000000E+20
146
0.0
 13
0.0
 23
0.0
 33
0.0
 16
1.0
 26
0.0
 36
0.0
 17
0.0
 27
1.0
 37
0.0
 76
     0
330
1B
  0
LAYOUT
  5
10047
102
{ACAD_REACTORS
330
10045
102
}
330
10045
100
AcDbPlotSettings
  1

  2
TOSHIBA e-STUDIO2330C XPS
  4

  6

 40
0.0
 41
0.0
 42
0.0
 43
0.0
 44
0.0
 45
0.0
 46
0.0
 47
0.0
 48
0.0
 49
0.0
140
0.0
141
0.0
142
1.0
143
1.0
 70
  1712
 72
     0
 73
     0
 74
     0
  7

 75
     0
 76
     0
 77
     2
 78
   300
147
1.0
148
0.0
149
0.0
100
AcDbLayout
  1
Model
 70
     1
 71
     0
 10
0.0
 20
0.0
 11
12.0
 21
9.0
 12
0.0
 22
0.0
 32
0.0
 14
514.0438272957174
 24
439.2088307609495
 34
0.0
 15
729.2906992957172
 25
492.6153575109495
 35
0.0
146
0.0
 13
0.0
 23
0.0
 33
0.0
 16
1.0
 26
0.0
 36
0.0
 17
0.0
 27
1.0
 37
0.0
 76
     0
330
1F
331
2E
  0
MATERIAL
  5
1000C
102
{ACAD_REACTORS
330
10003
102
}
330
10003
100
AcDbMaterial
  1
ByBlock
 72
     0
 43
0.0208333333333333
 43
0.0
 43
0.0
 43
0.0
 43
0.0
 43
0.0208333333333333
 43
0.0
 43
0.0
 43
0.0
 43
0.0
 43
1.0
 43
0.0
 43
0.0
 43
0.0
 43
0.0
 43
1.0
 77
     0
 47
0.0208333333333333
 47
0.0
 47
0.0
 47
0.0
 47
0.0
 47
0.0208333333333333
 47
0.0
 47
0.0
 47
0.0
 47
0.0
 47
1.0
 47
0.0
 47
0.0
 47
0.0
 47
0.0
 47
1.0
171
     0
 49
0.0208333333333333
 49
0.0
 49
0.0
 49
0.0
 49
0.0
 49
0.0208333333333333
 49
0.0
 49
0.0
 49
0.0
 49
0.0
 49
1.0
 49
0.0
 49
0.0
 49
0.0
 49
0.0
 49
1.0
175
     0
142
0.0208333333333333
142
0.0
142
0.0
142
0.0
142
0.0
142
0.0208333333333333
142
0.0
142
0.0
142
0.0
142
0.0
142
1.0
142
0.0
142
0.0
142
0.0
142
0.0
142
1.0
179
     0
144
0.0208333333333333
144
0.0
144
0.0
144
0.0
144
0.0
144
0.0208333333333333
144
0.0
144
0.0
144
0.0
144
0.0
144
1.0
144
0.0
144
0.0
144
0.0
144
0.0
144
1.0
147
0.0208333333333333
147
0.0
147
0.0
147
0.0
147
0.0
147
0.0208333333333333
147
0.0
147
0.0
147
0.0
147
0.0
147
1.0
147
0.0
147
0.0
147
0.0
147
0.0
147
1.0
 94
      127
  0
MATERIAL
  5
10004
102
{ACAD_REACTORS
330
10003
102
}
330
10003
100
AcDbMaterial
  1
ByLayer
 72
     0
 43
0.0208333333333333
 43
0.0
 43
0.0
 43
0.0
 43
0.0
 43
0.0208333333333333
 43
0.0
 43
0.0
 43
0.0
 43
0.0
 43
1.0
 43
0.0
 43
0.0
 43
0.0
 43
0.0
 43
1.0
 77
     0
 47
0.0208333333333333
 47
0.0
 47
0.0
 47
0.0
 47
0.0
 47
0.0208333333333333
 47
0.0
 47
0.0
 47
0.0
 47
0.0
 47
1.0
 47
0.0
 47
0.0
 47
0.0
 47
0.0
 47
1.0
171
     0
 49
0.0208333333333333
 49
0.0
 49
0.0
 49
0.0
 49
0.0
 49
0.0208333333333333
 49
0.0
 49
0.0
 49
0.0
 49
0.0
 49
1.0
 49
0.0
 49
0.0
 49
0.0
 49
0.0
 49
1.0
175
     0
142
0.0208333333333333
142
0.0
142
0.0
142
0.0
142
0.0
142
0.0208333333333333
142
0.0
142
0.0
142
0.0
142
0.0
142
1.0
142
0.0
142
0.0
142
0.0
142
0.0
142
1.0
179
     0
144
0.0208333333333333
144
0.0
144
0.0
144
0.0
144
0.0
144
0.0208333333333333
144
0.0
144
0.0
144
0.0
144
0.0
144
1.0
144
0.0
144
0.0
144
0.0
144
0.0
144
1.0
147
0.0208333333333333
147
0.0
147
0.0
147
0.0
147
0.0
147
0.0208333333333333
147
0.0
147
0.0
147
0.0
147
0.0
147
1.0
147
0.0
147
0.0
147
0.0
147
0.0
147
1.0
 94
      127
  0
MATERIAL
  5
10014
102
{ACAD_REACTORS
330
10003
102
}
330
10003
100
AcDbMaterial
  1
Global
 72
     0
 43
0.0208333333333333
 43
0.0
 43
0.0
 43
0.0
 43
0.0
 43
0.0208333333333333
 43
0.0
 43
0.0
 43
0.0
 43
0.0
 43
1.0
 43
0.0
 43
0.0
 43
0.0
 43
0.0
 43
1.0
 77
     0
 47
0.0208333333333333
 47
0.0
 47
0.0
 47
0.0
 47
0.0
 47
0.0208333333333333
 47
0.0
 47
0.0
 47
0.0
 47
0.0
 47
1.0
 47
0.0
 47
0.0
 47
0.0
 47
0.0
 47
1.0
171
     0
 49
0.0208333333333333
 49
0.0
 49
0.0
 49
0.0
 49
0.0
 49
0.0208333333333333
 49
0.0
 49
0.0
 49
0.0
 49
0.0
 49
1.0
 49
0.0
 49
0.0
 49
0.0
 49
0.0
 49
1.0
175
     0
142
0.0208333333333333
142
0.0
142
0.0
142
0.0
142
0.0
142
0.0208333333333333
142
0.0
142
0.0
142
0.0
142
0.0
142
1.0
142
0.0
142
0.0
142
0.0
142
0.0
142
1.0
179
     0
144
0.0208333333333333
144
0.0
144
0.0
144
0.0
144
0.0
144
0.0208333333333333
144
0.0
144
0.0
144
0.0
144
0.0
144
1.0
144
0.0
144
0.0
144
0.0
144
0.0
144
1.0
147
0.0208333333333333
147
0.0
147
0.0
147
0.0
147
0.0
147
0.0208333333333333
147
0.0
147
0.0
147
0.0
147
0.0
147
1.0
147
0.0
147
0.0
147
0.0
147
0.0
147
1.0
 94
      127
  0
MLEADERSTYLE
  5
10043
102
{ACAD_REACTORS
330
10042
102
}
330
10042
100
AcDbMLeaderStyle
170
     2
171
     1
172
     0
 90
        2
 40
0.0
 41
0.0
173
     1
 91
-1056964608
340
14
 92
       -2
290
     1
 42
2.0
291
     1
 43
0.36
  3
Standard
341
0
 44
4.0
300

342
11
174
     1
178
     6
175
     1
176
     0
 93
-1056964608
 45
4.0
292
     0
297
     0
 46
4.0
343
0
 94
-1056964608
 47
1.0
 49
1.0
140
1.0
293
     1
141
0.0
294
     1
177
     0
142
1.0
295
     0
296
     0
143
0.125
1001
ACAD_MLEADERVER
1070
     2
  0
MLINESTYLE
  5
10772
102
{ACAD_REACTORS
330
17
102
}
330
17
100
AcDbMlineStyle
  2
STANDARD
 70
     0
  3

 62
   256
 51
90.0
 52
90.0
 71
     2
 49
0.5
 62
   256
  6
BYLAYER
 49
-0.5
 62
   256
  6
BYLAYER
  0
ACDBPLACEHOLDER
  5
10002
102
{ACAD_REACTORS
330
10001
102
}
330
10001
  0
SCALE
  5
107AD
102
{ACAD_REACTORS
330
10030
102
}
330
10030
100
AcDbScale
 70
     0
300
1:1_XREF_XREF
140
1.0
141
1.0
290
     1
  0
SCALE
  5
10031
102
{ACAD_REACTORS
330
10030
102
}
330
10030
100
AcDbScale
 70
     0
300
1:1
140
1.0
141
1.0
290
     0
  0
SCALE
  5
10032
102
{ACAD_REACTORS
330
10030
102
}
330
10030
100
AcDbScale
 70
     0
300
1:2
140
1.0
141
2.0
290
     0
  0
SCALE
  5
10033
102
{ACAD_REACTORS
330
10030
102
}
330
10030
100
AcDbScale
 70
     0
300
1:4
140
1.0
141
4.0
290
     0
  0
SCALE
  5
10034
102
{ACAD_REACTORS
330
10030
102
}
330
10030
100
AcDbScale
 70
     0
300
1:5
140
1.0
141
5.0
290
     0
  0
SCALE
  5
10035
102
{ACAD_REACTORS
330
10030
102
}
330
10030
100
AcDbScale
 70
     0
300
1:8
140
1.0
141
8.0
290
     0
  0
SCALE
  5
10036
102
{ACAD_REACTORS
330
10030
102
}
330
10030
100
AcDbScale
 70
     0
300
1:10
140
1.0
141
10.0
290
     0
  0
SCALE
  5
10037
102
{ACAD_REACTORS
330
10030
102
}
330
10030
100
AcDbScale
 70
     0
300
1:16
140
1.0
141
16.0
290
     0
  0
SCALE
  5
10038
102
{ACAD_REACTORS
330
10030
102
}
330
10030
100
AcDbScale
 70
     0
300
1:20
140
1.0
141
20.0
290
     0
  0
SCALE
  5
10039
102
{ACAD_REACTORS
330
10030
102
}
330
10030
100
AcDbScale
 70
     0
300
1:30
140
1.0
141
30.0
290
     0
  0
SCALE
  5
1003A
102
{ACAD_REACTORS
330
10030
102
}
330
10030
100
AcDbScale
 70
     0
300
1:40
140
1.0
141
40.0
290
     0
  0
SCALE
  5
1003B
102
{ACAD_REACTORS
330
10030
102
}
330
10030
100
AcDbScale
 70
     0
300
1:50
140
1.0
141
50.0
290
     0
  0
SCALE
  5
1003C
102
{ACAD_REACTORS
330
10030
102
}
330
10030
100
AcDbScale
 70
     0
300
1:100
140
1.0
141
100.0
290
     0
  0
SCALE
  5
1003D
102
{ACAD_REACTORS
330
10030
102
}
330
10030
100
AcDbScale
 70
     0
300
2:1
140
2.0
141
1.0
290
     0
  0
SCALE
  5
1003E
102
{ACAD_REACTORS
330
10030
102
}
330
10030
100
AcDbScale
 70
     0
300
4:1
140
4.0
141
1.0
290
     0
  0
SCALE
  5
1003F
102
{ACAD_REACTORS
330
10030
102
}
330
10030
100
AcDbScale
 70
     0
300
8:1
140
8.0
141
1.0
290
     0
  0
SCALE
  5
10040
102
{ACAD_REACTORS
330
10030
102
}
330
10030
100
AcDbScale
 70
     0
300
10:1
140
10.0
141
1.0
290
     0
  0
SCALE
  5
10041
102
{ACAD_REACTORS
330
10030
102
}
330
10030
100
AcDbScale
 70
     0
300
100:1
140
100.0
141
1.0
290
     0
  0
TABLESTYLE
  5
1002F
102
{ACAD_REACTORS
330
1002E
102
}
102
{ACAD_XDICTIONARY
360
10ED8
102
}
330
1002E
100
AcDbTableStyle
  3
Standard
 70
     0
 71
     0
 40
1.5
 41
1.5
280
     0
281
     0
  7
STANDARD
140
4.5
170
     2
 62
     0
 63
   257
283
     0
 90
      512
 91
        0
  1

274
    -2
284
     1
 64
     0
275
    -2
285
     1
 65
     0
276
    -2
286
     1
 66
     0
277
    -2
287
     1
 67
     0
278
    -2
288
     1
 68
     0
279
    -2
289
     1
 69
     0
  7
STANDARD
140
6.0
170
     5
 62
     0
 63
   257
283
     0
 90
      512
 91
        0
  1

274
    -2
284
     1
 64
     0
275
    -2
285
     1
 65
     0
276
    -2
286
     1
 66
     0
277
    -2
287
     1
 67
     0
278
    -2
288
     1
 68
     0
279
    -2
289
     1
 69
     0
  7
STANDARD
140
4.5
170
     5
 62
     0
 63
   257
283
     0
 90
      512
 91
        0
  1

274
    -2
284
     1
 64
     0
275
    -2
285
     1
 65
     0
276
    -2
286
     1
 66
     0
277
    -2
287
     1
 67
     0
278
    -2
288
     1
 68
     0
279
    -2
289
     1
 69
     0
  0
VISUALSTYLE
  5
10022
102
{ACAD_REACTORS
330
1001C
102
}
330
1001C
100
AcDbVisualStyle
  2
2dWireframe
 70
     4
 71
     0
 72
     2
 73
     0
 90
        0
 40
-0.6
 41
-30.0
 62
     5
 63
     7
421
 16777215
 74
     1
 91
        4
 64
     7
 65
   257
 75
     1
175
     1
 42
1.0
 92
        0
 66
   257
 43
1.0
 76
     1
 77
     6
 78
     2
 67
     7
 79
     5
170
     0
171
     0
290
     0
174
     0
 93
        1
 44
0.0
173
     0
291
     0
 45
0.0
  0
VISUALSTYLE
  5
10024
102
{ACAD_REACTORS
330
1001C
102
}
330
1001C
100
AcDbVisualStyle
  2
3D Hidden
 70
     6
 71
     1
 72
     2
 73
     2
 90
        0
 40
-0.6
 41
-30.0
 62
     5
 63
     7
421
 16777215
 74
     2
 91
        2
 64
     7
 65
   257
 75
     2
175
     1
 42
40.0
 92
        0
 66
   257
 43
1.0
 76
     1
 77
     6
 78
     2
 67
     7
 79
     3
170
     0
171
     0
290
     0
174
     0
 93
        1
 44
0.0
173
     0
291
     0
 45
0.0
  0
VISUALSTYLE
  5
10023
102
{ACAD_REACTORS
330
1001C
102
}
330
1001C
100
AcDbVisualStyle
  2
3dWireframe
 70
     5
 71
     0
 72
     2
 73
     0
 90
        0
 40
-0.6
 41
-30.0
 62
     5
 63
     7
421
 16777215
 74
     1
 91
        4
 64
     7
 65
   257
 75
     1
175
     1
 42
1.0
 92
        0
 66
   257
 43
1.0
 76
     1
 77
     6
 78
     2
 67
     7
 79
     5
170
     0
171
     0
290
     0
174
     0
 93
        1
 44
0.0
173
     0
291
     0
 45
0.0
  0
VISUALSTYLE
  5
10021
102
{ACAD_REACTORS
330
1001C
102
}
330
1001C
100
AcDbVisualStyle
  2
Basic
 70
     7
 71
     1
 72
     0
 73
     1
 90
        0
 40
-0.6
 41
-30.0
 62
     5
 63
     7
421
 16777215
 74
     0
 91
        4
 64
     7
 65
   257
 75
     1
175
     1
 42
1.0
 92
        8
 66
     7
 43
1.0
 76
     1
 77
     6
 78
     2
 67
     7
 79
     5
170
     0
171
     0
290
     0
174
     0
 93
        1
 44
0.0
173
     0
291
     1
 45
0.0
  0
VISUALSTYLE
  5
10028
102
{ACAD_REACTORS
330
1001C
102
}
330
1001C
100
AcDbVisualStyle
  2
Brighten
 70
    12
 71
     2
 72
     2
 73
     0
 90
        0
 40
-0.6
 41
-30.0
 62
     5
 63
     7
421
 16777215
 74
     1
 91
        4
 64
     7
 65
   257
 75
     1
175
     1
 42
1.0
 92
        8
 66
     7
 43
1.0
 76
     1
 77
     6
 78
     2
 67
     7
 79
     5
170
     0
171
     0
290
     0
174
     0
 93
        1
 44
50.0
173
     0
291
     1
 45
0.0
  0
VISUALSTYLE
  5
1002C
102
{ACAD_REACTORS
330
1001C
102
}
330
1001C
100
AcDbVisualStyle
  2
ColorChange
 70
    16
 71
     2
 72
     2
 73
     3
 90
        0
 40
-0.6
 41
-30.0
 62
     5
 63
     8
421
  8421504
 74
     1
 91
        4
 64
     7
 65
   257
 75
     1
175
     1
 42
1.0
 92
        8
 66
     8
424
  8421504
 43
1.0
 76
     1
 77
     6
 78
     2
 67
     7
 79
     5
170
     0
171
     0
290
     0
174
     0
 93
        1
 44
0.0
173
     0
291
     1
 45
0.0
  0
VISUALSTYLE
  5
10025
102
{ACAD_REACTORS
330
1001C
102
}
330
1001C
100
AcDbVisualStyle
  2
Conceptual
 70
     9
 71
     3
 72
     2
 73
     0
 90
        0
 40
-0.6
 41
-30.0
 62
     5
 63
     7
421
 16777215
 74
     2
 91
        2
 64
     7
 65
   257
 75
     1
175
     1
 42
40.0
 92
        8
 66
     7
 43
1.0
 76
     1
 77
     6
 78
     2
 67
     7
 79
     3
170
     0
171
     0
290
     0
174
     0
 93
        1
 44
0.0
173
     0
291
     0
 45
0.0
  0
VISUALSTYLE
  5
10027
102
{ACAD_REACTORS
330
1001C
102
}
330
1001C
100
AcDbVisualStyle
  2
Dim
 70
    11
 71
     2
 72
     2
 73
     0
 90
        0
 40
-0.6
 41
-30.0
 62
     5
 63
     7
421
 16777215
 74
     1
 91
        4
 64
     7
 65
   257
 75
     1
175
     1
 42
1.0
 92
        8
 66
     7
 43
1.0
 76
     1
 77
     6
 78
     2
 67
     7
 79
     5
170
     0
171
     0
290
     0
174
     0
 93
        1
 44
-50.0
173
     0
291
     1
 45
0.0
  0
VISUALSTYLE
  5
10792
102
{ACAD_REACTORS
330
1001C
102
}
330
1001C
100
AcDbVisualStyle
  2
EdgeColorOff
 70
    22
 71
     2
 72
     2
 73
     0
 90
        0
 40
0.6
 41
30.0
 62
     5
 63
     7
421
 16777215
 74
     1
 91
        4
 64
     7
 65
   257
 75
     1
175
     1
 42
1.0
 92
        8
 66
     7
 43
1.0
 76
     1
 77
     6
 78
     2
 67
     7
 79
     5
170
     0
171
     0
290
     0
174
     0
 93
        1
 44
0.0
173
     0
291
     1
 45
0.0
  0
VISUALSTYLE
  5
1002B
102
{ACAD_REACTORS
330
1001C
102
}
330
1001C
100
AcDbVisualStyle
  2
Facepattern
 70
    15
 71
     2
 72
     2
 73
     0
 90
        0
 40
-0.6
 41
-30.0
 62
     5
 63
     7
421
 16777215
 74
     1
 91
        4
 64
     7
 65
   257
 75
     1
175
     1
 42
1.0
 92
        8
 66
     7
 43
1.0
 76
     1
 77
     6
 78
     2
 67
     7
 79
     5
170
     0
171
     0
290
     0
174
     0
 93
        1
 44
0.0
173
     0
291
     1
 45
0.0
  0
VISUALSTYLE
  5
1001D
102
{ACAD_REACTORS
330
1001C
102
}
330
1001C
100
AcDbVisualStyle
  2
Flat
 70
     0
 71
     2
 72
     1
 73
     1
 90
        2
 40
-0.6
 41
30.0
 62
     5
 63
     7
421
 16777215
 74
     0
 91
        4
 64
     7
 65
   257
 75
     1
175
     1
 42
1.0
 92
        8
 66
     7
 43
1.0
 76
     1
 77
     6
 78
     2
 67
     7
 79
     5
170
     0
171
     0
290
     0
174
     0
 93
       13
 44
0.0
173
     0
291
     1
 45
0.0
  0
VISUALSTYLE
  5
1001E
102
{ACAD_REACTORS
330
1001C
102
}
330
1001C
100
AcDbVisualStyle
  2
FlatWithEdges
 70
     1
 71
     2
 72
     1
 73
     1
 90
        2
 40
-0.6
 41
30.0
 62
     5
 63
     7
421
 16777215
 74
     1
 91
        4
 64
     7
 65
   257
 75
     1
175
     1
 42
1.0
 92
        0
 66
   257
 43
1.0
 76
     1
 77
     6
 78
     2
 67
     7
 79
     5
170
     0
171
     0
290
     0
174
     0
 93
       13
 44
0.0
173
     0
291
     1
 45
0.0
  0
VISUALSTYLE
  5
1001F
102
{ACAD_REACTORS
330
1001C
102
}
330
1001C
100
AcDbVisualStyle
  2
Gouraud
 70
     2
 71
     2
 72
     2
 73
     1
 90
        2
 40
-0.6
 41
30.0
 62
     5
 63
     7
421
 16777215
 74
     0
 91
        4
 64
     7
 65
   257
 75
     1
175
     1
 42
1.0
 92
        0
 66
     7
 43
1.0
 76
     1
 77
     6
 78
     2
 67
     7
 79
     5
170
     0
171
     0
290
     0
174
     0
 93
       13
 44
0.0
173
     0
291
     1
 45
0.0
  0
VISUALSTYLE
  5
10020
102
{ACAD_REACTORS
330
1001C
102
}
330
1001C
100
AcDbVisualStyle
  2
GouraudWithEdges
 70
     3
 71
     2
 72
     2
 73
     1
 90
        2
 40
-0.6
 41
30.0
 62
     5
 63
     7
421
 16777215
 74
     1
 91
        4
 64
     7
 65
   257
 75
     1
175
     1
 42
1.0
 92
        0
 66
   257
 43
1.0
 76
     1
 77
     6
 78
     2
 67
     7
 79
     5
170
     0
171
     0
290
     0
174
     0
 93
       13
 44
0.0
173
     0
291
     1
 45
0.0
  0
VISUALSTYLE
  5
1078F
102
{ACAD_REACTORS
330
1001C
102
}
330
1001C
100
AcDbVisualStyle
  2
Hidden
 70
     6
 71
     1
 72
     2
 73
     2
 90
        0
 40
0.6
 41
30.0
 62
     5
 63
     7
421
 16777215
 74
     2
 91
        2
 64
     7
 65
   257
 75
     2
175
     1
 42
40.0
 92
        0
 66
   257
 43
1.0
 76
     1
 77
     6
 78
     2
 67
     7
 79
     3
170
     0
171
     0
290
     0
174
     0
 93
        1
 44
0.0
173
     0
291
     0
 45
0.0
  0
VISUALSTYLE
  5
10790
102
{ACAD_REACTORS
330
1001C
102
}
330
1001C
100
AcDbVisualStyle
  2
JitterOff
 70
    20
 71
     2
 72
     2
 73
     0
 90
        0
 40
0.6
 41
30.0
 62
     5
 63
     7
421
 16777215
 74
     1
 91
        4
 64
     7
 65
   257
 75
     1
175
     1
 42
1.0
 92
       10
 66
     7
 43
1.0
 76
     1
 77
     6
 78
     2
 67
     7
 79
     5
170
     0
171
     0
290
     0
174
     0
 93
        1
 44
0.0
173
     0
291
     1
 45
0.0
  0
VISUALSTYLE
  5
1002A
102
{ACAD_REACTORS
330
1001C
102
}
330
1001C
100
AcDbVisualStyle
  2
Linepattern
 70
    14
 71
     2
 72
     2
 73
     0
 90
        0
 40
-0.6
 41
-30.0
 62
     5
 63
     7
421
 16777215
 74
     1
 91
        4
 64
     7
 65
   257
 75
     7
175
     7
 42
1.0
 92
        8
 66
     7
 43
1.0
 76
     1
 77
     6
 78
     2
 67
     7
 79
     5
170
     0
171
     0
290
     0
174
     0
 93
        1
 44
0.0
173
     0
291
     1
 45
0.0
  0
VISUALSTYLE
  5
10791
102
{ACAD_REACTORS
330
1001C
102
}
330
1001C
100
AcDbVisualStyle
  2
OverhangOff
 70
    21
 71
     2
 72
     2
 73
     0
 90
        0
 40
0.6
 41
30.0
 62
     5
 63
     7
421
 16777215
 74
     1
 91
        4
 64
     7
 65
   257
 75
     1
175
     1
 42
1.0
 92
        9
 66
     7
 43
1.0
 76
     1
 77
     6
 78
     2
 67
     7
 79
     5
170
     0
171
     0
290
     0
174
     0
 93
        1
 44
0.0
173
     0
291
     1
 45
0.0
  0
VISUALSTYLE
  5
10026
102
{ACAD_REACTORS
330
1001C
102
}
330
1001C
100
AcDbVisualStyle
  2
Realistic
 70
     8
 71
     2
 72
     2
 73
     0
 90
        0
 40
-0.6
 41
-30.0
 62
     5
 63
     7
421
 16777215
 74
     1
 91
        0
 64
     7
 65
   257
 75
     1
175
     1
 42
1.0
 92
        8
 66
     8
424
  7895160
 43
1.0
 76
     1
 77
     6
 78
     2
 67
     7
 79
     5
170
     0
171
     0
290
     0
174
     0
 93
       13
 44
0.0
173
     0
291
     0
 45
0.0
  0
VISUALSTYLE
  5
10797
102
{ACAD_REACTORS
330
1001C
102
}
330
1001C
100
AcDbVisualStyle
  2
Shaded
 70
    27
 71
     2
 72
     2
 73
     1
 90
        2
 40
0.6
 41
30.0
 62
     5
 63
     7
421
 16777215
 74
     0
 91
        4
 64
     7
 65
   257
 75
     1
175
     1
 42
1.0
 92
        8
 66
   257
 43
1.0
 76
     1
 77
     6
 78
     2
 67
     8
425
  7895160
 79
     3
170
     0
171
     0
290
     0
174
     0
 93
        5
 44
0.0
173
     0
291
     0
 45
0.0
  0
VISUALSTYLE
  5
10796
102
{ACAD_REACTORS
330
1001C
102
}
330
1001C
100
AcDbVisualStyle
  2
Shaded with edges
 70
    26
 71
     2
 72
     2
 73
     1
 90
        2
 40
0.6
 41
30.0
 62
     5
 63
     7
421
 16777215
 74
     1
 91
       10
 64
     7
 65
   257
 75
     2
175
     1
 42
1.0
 92
        8
 66
   257
 43
1.0
 76
     1
 77
     6
 78
     2
 67
     7
 79
     3
170
     0
171
     0
290
     0
174
     0
 93
        5
 44
0.0
173
     0
291
     0
 45
0.0
  0
VISUALSTYLE
  5
10793
102
{ACAD_REACTORS
330
1001C
102
}
330
1001C
100
AcDbVisualStyle
  2
Shades of Gray
 70
    23
 71
     2
 72
     2
 73
     3
 90
        0
 40
0.6
 41
30.0
 62
     5
 63
     7
421
 16777215
 74
     2
 91
        2
 64
     7
 65
     7
 75
     1
175
     1
 42
40.0
 92
        8
 66
     7
 43
1.0
 76
     1
 77
     6
 78
     2
 67
     7
 79
     3
170
     0
171
     0
290
     0
174
     0
 93
        1
 44
0.0
173
     0
291
     0
 45
0.0
  0
VISUALSTYLE
  5
10794
102
{ACAD_REACTORS
330
1001C
102
}
330
1001C
100
AcDbVisualStyle
  2
Sketchy
 70
    24
 71
     1
 72
     2
 73
     2
 90
        0
 40
0.6
 41
30.0
 62
     5
 63
     7
421
 16777215
 74
     2
 91
        2
 64
     7
 65
     7
 75
     1
175
     1
 42
40.0
 92
       11
 66
     7
 43
1.0
 76
     1
 77
     6
 78
     2
 67
     7
 79
     6
170
     0
171
     0
290
     0
174
     0
 93
        1
 44
0.0
173
     0
291
     0
 45
0.0
  0
VISUALSTYLE
  5
10029
102
{ACAD_REACTORS
330
1001C
102
}
330
1001C
100
AcDbVisualStyle
  2
Thicken
 70
    13
 71
     2
 72
     2
 73
     0
 90
        0
 40
-0.6
 41
-30.0
 62
     5
 63
     7
421
 16777215
 74
     1
 91
        4
 64
     7
 65
   257
 75
     1
175
     1
 42
1.0
 92
       12
 66
     7
 43
1.0
 76
     1
 77
     6
 78
     2
 67
     7
 79
     5
170
     0
171
     0
290
     0
174
     0
 93
        1
 44
0.0
173
     0
291
     1
 45
0.0
  0
VISUALSTYLE
  5
1078E
102
{ACAD_REACTORS
330
1001C
102
}
330
1001C
100
AcDbVisualStyle
  2
Wireframe
 70
     5
 71
     0
 72
     2
 73
     0
 90
        0
 40
0.6
 41
30.0
 62
     5
 63
     7
421
 16777215
 74
     1
 91
        4
 64
     7
 65
   257
 75
     1
175
     1
 42
1.0
 92
        0
 66
   257
 43
1.0
 76
     1
 77
     6
 78
     2
 67
     7
 79
     3
170
     0
171
     0
290
     0
174
     0
 93
        1
 44
0.0
173
     0
291
     0
 45
0.0
  0
VISUALSTYLE
  5
10795
102
{ACAD_REACTORS
330
1001C
102
}
330
1001C
100
AcDbVisualStyle
  2
X-Ray
 70
    25
 71
     2
 72
     2
 73
     1
 90
        1
 40
0.5
 41
30.0
 62
     5
 63
     7
421
 16777215
 74
     1
 91
        0
 64
     7
 65
   257
 75
     1
175
     1
 42
1.0
 92
        8
 66
     7
 43
1.0
 76
     1
 77
     6
 78
     2
 67
     7
 79
     3
170
     0
171
     0
290
     0
174
     0
 93
       13
 44
0.0
173
     0
291
     0
 45
0.0
  0
DICTIONARYVAR
  5
1076D
102
{ACAD_REACTORS
330
10769
102
}
330
10769
100
DictionaryVariables
280
     0
  1
1:1
  0
DICTIONARYVAR
  5
1076B
102
{ACAD_REACTORS
330
10769
102
}
330
10769
100
DictionaryVariables
280
     0
  1
Standard
  0
DICTIONARYVAR
  5
1076A
102
{ACAD_REACTORS
330
10769
102
}
330
10769
100
DictionaryVariables
280
     0
  1
Standard
  0
DICTIONARYVAR
  5
1076F
102
{ACAD_REACTORS
330
10769
102
}
330
10769
100
DictionaryVariables
280
     0
  1
1
  0
DICTIONARYVAR
  5
10770
102
{ACAD_REACTORS
330
10769
102
}
330
10769
100
DictionaryVariables
280
     0
  1
15
  0
DICTIONARYVAR
  5
1076E
102
{ACAD_REACTORS
330
10769
102
}
330
10769
100
DictionaryVariables
280
     0
  1
0
  0
DICTIONARYVAR
  5
1076C
102
{ACAD_REACTORS
330
10769
102
}
330
10769
100
DictionaryVariables
280
     0
  1
0
  0
DICTIONARYVAR
  5
1079E
102
{ACAD_REACTORS
330
10769
102
}
330
10769
100
DictionaryVariables
280
     0
  1
0
  0
DICTIONARY
  5
100B1
102
{ACAD_REACTORS
330
100A6
102
}
330
100A6
100
AcDbDictionary
281
     1
  0
DICTIONARY
  5
10ED8
330
1002F
100
AcDbDictionary
280
     1
281
     1
  3
ACAD_ROUNDTRIP_2008_TABLESTYLE_CELLSTYLEMAP
360
10ED9
  0
CELLSTYLEMAP
  5
10ED9
102
{ACAD_REACTORS
330
10ED8
102
}
330
10ED8
100
AcDbCellStyleMap
 90
        3
300
CELLSTYLE
  1
TABLEFORMAT_BEGIN
 90
        5
170
     1
 91
        0
 92
    32768
 62
   257
 93
        1
300
CONTENTFORMAT
  1
CONTENTFORMAT_BEGIN
 90
        0
 91
        0
 92
      512
 93
        0
300

 40
0.0
140
1.0
 94
        5
 62
     0
340
11
144
6.0
309
CONTENTFORMAT_END
171
     1
301
MARGIN
  1
CELLMARGIN_BEGIN
 40
1.5
 40
1.5
 40
1.5
 40
1.5
 40
4.5
 40
4.5
309
CELLMARGIN_END
 94
        6
 95
        1
302
GRIDFORMAT
  1
GRIDFORMAT_BEGIN
 90
        0
 91
        1
 62
     0
 92
       -2
340
0
 93
        0
 40
1.125
309
GRIDFORMAT_END
 95
        2
302
GRIDFORMAT
  1
GRIDFORMAT_BEGIN
 90
        0
 91
        1
 62
     0
 92
       -2
340
0
 93
        0
 40
1.125
309
GRIDFORMAT_END
 95
        4
302
GRIDFORMAT
  1
GRIDFORMAT_BEGIN
 90
        0
 91
        1
 62
     0
 92
       -2
340
0
 93
        0
 40
1.125
309
GRIDFORMAT_END
 95
        8
302
GRIDFORMAT
  1
GRIDFORMAT_BEGIN
 90
        0
 91
        1
 62
     0
 92
       -2
340
0
 93
        0
 40
1.125
309
GRIDFORMAT_END
 95
       16
302
GRIDFORMAT
  1
GRIDFORMAT_BEGIN
 90
        0
 91
        1
 62
     0
 92
       -2
340
0
 93
        0
 40
1.125
309
GRIDFORMAT_END
 95
       32
302
GRIDFORMAT
  1
GRIDFORMAT_BEGIN
 90
        0
 91
        1
 62
     0
 92
       -2
340
0
 93
        0
 40
1.125
309
GRIDFORMAT_END
309
TABLEFORMAT_END
  1
CELLSTYLE_BEGIN
 90
        1
 91
        1
300
_TITLE
309
CELLSTYLE_END
300
CELLSTYLE
  1
TABLEFORMAT_BEGIN
 90
        5
170
     1
 91
        0
 92
        0
 62
   257
 93
        1
300
CONTENTFORMAT
  1
CONTENTFORMAT_BEGIN
 90
        0
 91
        0
 92
      512
 93
        0
300

 40
0.0
140
1.0
 94
        5
 62
     0
340
11
144
4.5
309
CONTENTFORMAT_END
171
     1
301
MARGIN
  1
CELLMARGIN_BEGIN
 40
1.5
 40
1.5
 40
1.5
 40
1.5
 40
4.5
 40
4.5
309
CELLMARGIN_END
 94
        6
 95
        1
302
GRIDFORMAT
  1
GRIDFORMAT_BEGIN
 90
        0
 91
        1
 62
     0
 92
       -2
340
0
 93
        0
 40
1.125
309
GRIDFORMAT_END
 95
        2
302
GRIDFORMAT
  1
GRIDFORMAT_BEGIN
 90
        0
 91
        1
 62
     0
 92
       -2
340
0
 93
        0
 40
1.125
309
GRIDFORMAT_END
 95
        4
302
GRIDFORMAT
  1
GRIDFORMAT_BEGIN
 90
        0
 91
        1
 62
     0
 92
       -2
340
0
 93
        0
 40
1.125
309
GRIDFORMAT_END
 95
        8
302
GRIDFORMAT
  1
GRIDFORMAT_BEGIN
 90
        0
 91
        1
 62
     0
 92
       -2
340
0
 93
        0
 40
1.125
309
GRIDFORMAT_END
 95
       16
302
GRIDFORMAT
  1
GRIDFORMAT_BEGIN
 90
        0
 91
        1
 62
     0
 92
       -2
340
0
 93
        0
 40
1.125
309
GRIDFORMAT_END
 95
       32
302
GRIDFORMAT
  1
GRIDFORMAT_BEGIN
 90
        0
 91
        1
 62
     0
 92
       -2
340
0
 93
        0
 40
1.125
309
GRIDFORMAT_END
309
TABLEFORMAT_END
  1
CELLSTYLE_BEGIN
 90
        2
 91
        1
300
_HEADER
309
CELLSTYLE_END
300
CELLSTYLE
  1
TABLEFORMAT_BEGIN
 90
        5
170
     1
 91
        0
 92
        0
 62
   257
 93
        1
300
CONTENTFORMAT
  1
CONTENTFORMAT_BEGIN
 90
        0
 91
        0
 92
      512
 93
        0
300

 40
0.0
140
1.0
 94
        2
 62
     0
340
11
144
4.5
309
CONTENTFORMAT_END
171
     1
301
MARGIN
  1
CELLMARGIN_BEGIN
 40
1.5
 40
1.5
 40
1.5
 40
1.5
 40
4.5
 40
4.5
309
CELLMARGIN_END
 94
        6
 95
        1
302
GRIDFORMAT
  1
GRIDFORMAT_BEGIN
 90
        0
 91
        1
 62
     0
 92
       -2
340
0
 93
        0
 40
1.125
309
GRIDFORMAT_END
 95
        2
302
GRIDFORMAT
  1
GRIDFORMAT_BEGIN
 90
        0
 91
        1
 62
     0
 92
       -2
340
0
 93
        0
 40
1.125
309
GRIDFORMAT_END
 95
        4
302
GRIDFORMAT
  1
GRIDFORMAT_BEGIN
 90
        0
 91
        1
 62
     0
 92
       -2
340
0
 93
        0
 40
1.125
309
GRIDFORMAT_END
 95
        8
302
GRIDFORMAT
  1
GRIDFORMAT_BEGIN
 90
        0
 91
        1
 62
     0
 92
       -2
340
0
 93
        0
 40
1.125
309
GRIDFORMAT_END
 95
       16
302
GRIDFORMAT
  1
GRIDFORMAT_BEGIN
 90
        0
 91
        1
 62
     0
 92
       -2
340
0
 93
        0
 40
1.125
309
GRIDFORMAT_END
 95
       32
302
GRIDFORMAT
  1
GRIDFORMAT_BEGIN
 90
        0
 91
        1
 62
     0
 92
       -2
340
0
 93
        0
 40
1.125
309
GRIDFORMAT_END
309
TABLEFORMAT_END
  1
CELLSTYLE_BEGIN
 90
        3
 91
        2
300
_DATA
309
CELLSTYLE_END
  0
ENDSEC
  0
EOF
