  0
SECTION
  2
HEADER
  9
$ACADVER
  1
AC1021
  9
$ACADMAINTVER
 70
    25
  9
$DWGCODEPAGE
  3
ANSI_1250
  9
$LASTSAVEDBY
  1
vdamir
  9
$INSBASE
 10
0.0
 20
0.0
 30
0.0
  9
$EXTMIN
 10
63.016288
 20
641.754564
 30
0.0
  9
$EXTMAX
 10
438.606888
 20
701.832564
 30
0.0
  9
$LIMMIN
 10
0.0
 20
0.0
  9
$LIMMAX
 10
12.0
 20
9.0
  9
$ORTHOMODE
 70
     0
  9
$REGENMODE
 70
     1
  9
$FILLMODE
 70
     1
  9
$QTEXTMODE
 70
     0
  9
$MIRRTEXT
 70
     1
  9
$LTSCALE
 40
1.0
  9
$ATTMODE
 70
     1
  9
$TEXTSIZE
 40
2.5
  9
$TRACEWID
 40
0.05
  9
$TEXTSTYLE
  7
STANDARD
  9
$CLAYER
  8
0
  9
$CELTYPE
  6
BYBLOCK
  9
$CECOLOR
 62
   256
  9
$CELTSCALE
 40
1.0
  9
$DISPSILH
 70
     0
  9
$DIMSCALE
 40
1.0
  9
$DIMASZ
 40
0.18
  9
$DIMEXO
 40
0.0625
  9
$DIMDLI
 40
0.38
  9
$DIMRND
 40
0.0
  9
$DIMDLE
 40
0.0
  9
$DIMEXE
 40
0.18
  9
$DIMTP
 40
0.0
  9
$DIMTM
 40
0.0
  9
$DIMTXT
 40
0.18
  9
$DIMCEN
 40
0.09
  9
$DIMTSZ
 40
0.0
  9
$DIMTOL
 70
     0
  9
$DIMLIM
 70
     0
  9
$DIMTIH
 70
     1
  9
$DIMTOH
 70
     1
  9
$DIMSE1
 70
     0
  9
$DIMSE2
 70
     0
  9
$DIMTAD
 70
     0
  9
$DIMZIN
 70
     0
  9
$DIMBLK
  1

  9
$DIMASO
 70
     1
  9
$DIMSHO
 70
     1
  9
$DIMPOST
  1

  9
$DIMAPOST
  1

  9
$DIMALT
 70
     0
  9
$DIMALTD
 70
     2
  9
$DIMALTF
 40
25.4
  9
$DIMLFAC
 40
1.0
  9
$DIMTOFL
 70
     0
  9
$DIMTVP
 40
0.0
  9
$DIMTIX
 70
     0
  9
$DIMSOXD
 70
     0
  9
$DIMSAH
 70
     0
  9
$DIMBLK1
  1

  9
$DIMBLK2
  1

  9
$DIMSTYLE
  2
ISO-25
  9
$DIMCLRD
 70
     0
  9
$DIMCLRE
 70
     0
  9
$DIMCLRT
 70
     0
  9
$DIMTFAC
 40
1.0
  9
$DIMGAP
 40
0.09
  9
$DIMJUST
 70
     0
  9
$DIMSD1
 70
     0
  9
$DIMSD2
 70
     0
  9
$DIMTOLJ
 70
     1
  9
$DIMTZIN
 70
     0
  9
$DIMALTZ
 70
     0
  9
$DIMALTTZ
 70
     0
  9
$DIMUPT
 70
     0
  9
$DIMDEC
 70
     4
  9
$DIMTDEC
 70
     4
  9
$DIMALTU
 70
     2
  9
$DIMALTTD
 70
     2
  9
$DIMTXSTY
  7
STANDARD
  9
$DIMAUNIT
 70
     0
  9
$DIMADEC
 70
     0
  9
$DIMALTRND
 40
0.0
  9
$DIMAZIN
 70
     0
  9
$DIMDSEP
 70
    46
  9
$DIMATFIT
 70
     3
  9
$DIMFRAC
 70
     0
  9
$DIMLDRBLK
  1

  9
$DIMLUNIT
 70
     2
  9
$DIMLWD
 70
    -2
  9
$DIMLWE
 70
    -2
  9
$DIMTMOVE
 70
     2
  9
$DIMFXL
 40
1.0
  9
$DIMFXLON
 70
     0
  9
$DIMJOGANG
 40
0.7853981633974483
  9
$DIMTFILL
 70
     0
  9
$DIMTFILLCLR
 70
     0
  9
$DIMARCSYM
 70
     0
  9
$DIMLTYPE
  6

  9
$DIMLTEX1
  6

  9
$DIMLTEX2
  6

  9
$LUNITS
 70
     2
  9
$LUPREC
 70
     4
  9
$SKETCHINC
 40
0.1
  9
$FILLETRAD
 40
0.5
  9
$AUNITS
 70
     0
  9
$AUPREC
 70
     0
  9
$MENU
  1
.
  9
$ELEVATION
 40
0.0
  9
$PELEVATION
 40
0.0
  9
$THICKNESS
 40
0.0
  9
$LIMCHECK
 70
     0
  9
$CHAMFERA
 40
0.0
  9
$CHAMFERB
 40
0.0
  9
$CHAMFERC
 40
0.0
  9
$CHAMFERD
 40
0.0
  9
$SKPOLY
 70
     0
  9
$TDCREATE
 40
2447893.083333333
  9
$TDUCREATE
 40
0.0
  9
$TDUPDATE
 40
2457527.649349607
  9
$TDUUPDATE
 40
2457527.566016273
  9
$TDINDWG
 40
0.0055458565
  9
$TDUSRTIMER
 40
2457527.564456215
  9
$USRTIMER
 70
     1
  9
$ANGBASE
 50
0.0
  9
$ANGDIR
 70
     0
  9
$PDMODE
 70
     0
  9
$PDSIZE
 40
0.0
  9
$PLINEWID
 40
0.0
  9
$SPLFRAME
 70
     0
  9
$SPLINETYPE
 70
     6
  9
$SPLINESEGS
 70
     8
  9
$HANDSEED
  5
100BE
  9
$SURFTAB1
 70
     6
  9
$SURFTAB2
 70
     6
  9
$SURFTYPE
 70
     6
  9
$SURFU
 70
     6
  9
$SURFV
 70
     6
  9
$UCSBASE
  2

  9
$UCSNAME
  2

  9
$UCSORG
 10
0.0
 20
0.0
 30
0.0
  9
$UCSXDIR
 10
1.0
 20
0.0
 30
0.0
  9
$UCSYDIR
 10
0.0
 20
1.0
 30
0.0
  9
$UCSORTHOREF
  2

  9
$UCSORTHOVIEW
 70
     0
  9
$UCSORGTOP
 10
0.0
 20
0.0
 30
0.0
  9
$UCSORGBOTTOM
 10
0.0
 20
0.0
 30
0.0
  9
$UCSORGLEFT
 10
0.0
 20
0.0
 30
0.0
  9
$UCSORGRIGHT
 10
0.0
 20
0.0
 30
0.0
  9
$UCSORGFRONT
 10
0.0
 20
0.0
 30
0.0
  9
$UCSORGBACK
 10
0.0
 20
0.0
 30
0.0
  9
$PUCSBASE
  2

  9
$PUCSNAME
  2

  9
$PUCSORG
 10
0.0
 20
0.0
 30
0.0
  9
$PUCSXDIR
 10
1.0
 20
0.0
 30
0.0
  9
$PUCSYDIR
 10
0.0
 20
1.0
 30
0.0
  9
$PUCSORTHOREF
  2

  9
$PUCSORTHOVIEW
 70
     0
  9
$PUCSORGTOP
 10
0.0
 20
0.0
 30
0.0
  9
$PUCSORGBOTTOM
 10
0.0
 20
0.0
 30
0.0
  9
$PUCSORGLEFT
 10
0.0
 20
0.0
 30
0.0
  9
$PUCSORGRIGHT
 10
0.0
 20
0.0
 30
0.0
  9
$PUCSORGFRONT
 10
0.0
 20
0.0
 30
0.0
  9
$PUCSORGBACK
 10
0.0
 20
0.0
 30
0.0
  9
$USERI1
 70
     0
  9
$USERI2
 70
     0
  9
$USERI3
 70
     0
  9
$USERI4
 70
     0
  9
$USERI5
 70
     0
  9
$USERR1
 40
0.0
  9
$USERR2
 40
0.0
  9
$USERR3
 40
0.0
  9
$USERR4
 40
0.0
  9
$USERR5
 40
0.0
  9
$WORLDVIEW
 70
     1
  9
$SHADEDGE
 70
     3
  9
$SHADEDIF
 70
    70
  9
$TILEMODE
 70
     1
  9
$MAXACTVP
 70
    64
  9
$PINSBASE
 10
0.0
 20
0.0
 30
0.0
  9
$PLIMCHECK
 70
     0
  9
$PEXTMIN
 10
1.000000000000000E+20
 20
1.000000000000000E+20
 30
1.000000000000000E+20
  9
$PEXTMAX
 10
-1.000000000000000E+20
 20
-1.000000000000000E+20
 30
-1.000000000000000E+20
  9
$PLIMMIN
 10
0.0
 20
0.0
  9
$PLIMMAX
 10
0.0
 20
0.0
  9
$UNITMODE
 70
     0
  9
$VISRETAIN
 70
     1
  9
$PLINEGEN
 70
     0
  9
$PSLTSCALE
 70
     1
  9
$TREEDEPTH
 70
  3020
  9
$CMLSTYLE
  2

  9
$CMLJUST
 70
     0
  9
$CMLSCALE
 40
1.0
  9
$PROXYGRAPHICS
 70
     1
  9
$MEASUREMENT
 70
     1
  9
$CELWEIGHT
370
    -1
  9
$ENDCAPS
280
     0
  9
$JOINSTYLE
280
     0
  9
$LWDISPLAY
290
     0
  9
$INSUNITS
 70
     0
  9
$HYPERLINKBASE
  1

  9
$STYLESHEET
  1

  9
$XEDIT
290
     1
  9
$CEPSNTYPE
380
     0
  9
$PSTYLEMODE
290
     1
  9
$FINGERPRINTGUID
  2
{82F48297-67C5-4753-8318-2CBE73CB8661}
  9
$VERSIONGUID
  2
{FAEB1C32-E019-11D5-929B-00C0DF256EC4}
  9
$EXTNAMES
290
     1
  9
$PSVPSCALE
 40
0.0
  9
$OLESTARTUP
290
     0
  9
$SORTENTS
280
   127
  9
$INDEXCTL
280
     0
  9
$HIDETEXT
280
     1
  9
$XCLIPFRAME
290
     0
  9
$HALOGAP
280
     0
  9
$OBSCOLOR
 70
   257
  9
$OBSLTYPE
280
     0
  9
$INTERSECTIONDISPLAY
280
     0
  9
$INTERSECTIONCOLOR
 70
   257
  9
$DIMASSOC
280
     2
  9
$PROJECTNAME
  1

  9
$CAMERADISPLAY
290
     0
  9
$LENSLENGTH
 40
50.0
  9
$CAMERAHEIGHT
 40
0.0
  9
$STEPSPERSEC
 40
2.0
  9
$STEPSIZE
 40
6.0
  9
$3DDWFPREC
 40
2.0
  9
$PSOLWIDTH
 40
0.25
  9
$PSOLHEIGHT
 40
4.0
  9
$LOFTANG1
 40
1.570796326794897
  9
$LOFTANG2
 40
1.570796326794897
  9
$LOFTMAG1
 40
0.0
  9
$LOFTMAG2
 40
0.0
  9
$LOFTPARAM
 70
     7
  9
$LOFTNORMALS
280
     1
  9
$LATITUDE
 40
37.795
  9
$LONGITUDE
 40
-122.394
  9
$NORTHDIRECTION
 40
0.0
  9
$TIMEZONE
 70
 -8000
  9
$LIGHTGLYPHDISPLAY
280
     1
  9
$TILEMODELIGHTSYNCH
280
     1
  9
$SOLIDHIST
280
     0
  9
$SHOWHIST
280
     1
  9
$DWFFRAME
280
     2
  9
$DGNFRAME
280
     2
  9
$REALWORLDSCALE
290
     1
  9
$INTERFERECOLOR
 62
   256
  9
$CSHADOW
280
     0
  9
$SHADOWPLANELOCATION
 40
0.0
  0
ENDSEC
  0
SECTION
  2
CLASSES
  0
CLASS
  1
SCALE
  2
AcDbScale
  3
ObjectDBX Classes
 90
     1153
 91
        4
280
     0
281
     0
  0
CLASS
  1
VISUALSTYLE
  2
AcDbVisualStyle
  3
ObjectDBX Classes
 90
     4095
 91
        4
280
     0
281
     0
  0
CLASS
  1
MATERIAL
  2
AcDbMaterial
  3
ObjectDBX Classes
 90
     1153
 91
        4
280
     0
281
     0
  0
CLASS
  1
TABLESTYLE
  2
AcDbTableStyle
  3
ObjectDBX Classes
 90
     4095
 91
        4
280
     0
281
     0
  0
CLASS
  1
MLEADERSTYLE
  2
AcDbMLeaderStyle
  3
ACDB_MLEADERSTYLE_CLASS
 90
     4095
 91
        4
280
     0
281
     0
  0
CLASS
  1
SUN
  2
AcDbSun
  3
SCENEOE
 90
     1153
 91
        4
280
     0
281
     0
  0
CLASS
  1
RASTERVARIABLES
  2
AcDbRasterVariables
  3
ISM
 90
        0
 91
        4
280
     0
281
     0
  0
CLASS
  1
DICTIONARYVAR
  2
AcDbDictionaryVar
  3
ObjectDBX Classes
 90
        0
 91
        4
280
     0
281
     0
  0
CLASS
  1
CELLSTYLEMAP
  2
AcDbCellStyleMap
  3
ObjectDBX Classes
 90
     1152
 91
        4
280
     0
281
     0
  0
ENDSEC
  0
SECTION
  2
TABLES
  0
TABLE
  2
VPORT
  5
8
330
0
100
AcDbSymbolTable
 70
     1
  0
VPORT
  5
2E
330
8
100
AcDbSymbolTableRecord
100
AcDbViewportTableRecord
  2
*ACTIVE
 70
     0
 10
0.0
 20
0.0
 11
1.0
 21
1.0
 12
346.9566485884674
 22
646.560020286886
 13
0.0
 23
0.0
 14
10.0
 24
10.0
 15
10.0
 25
10.0
 16
0.0
 26
0.0
 36
1.0
 17
0.0
 27
0.0
 37
0.0
 40
354.64
 41
2.165151515151515
 42
50.0
 43
0.0
 44
0.0
 50
0.0
 51
0.0
 71
    16
 72
   100
 73
     1
 74
     3
 75
     0
 76
     0
 77
     0
 78
     0
281
     0
 65
     1
110
0.0
120
0.0
130
0.0
111
1.0
121
0.0
131
0.0
112
0.0
122
1.0
132
0.0
 79
     0
146
0.0
348
10029
 60
     3
 61
     5
292
     1
282
     1
141
0.0
142
0.0
 63
   250
361
10046
  0
ENDTAB
  0
TABLE
  2
LTYPE
  5
5
330
0
100
AcDbSymbolTable
 70
     1
  0
LTYPE
  5
14
330
5
100
AcDbSymbolTableRecord
100
AcDbLinetypeTableRecord
  2
BYBLOCK
 70
     0
  3

 72
    65
 73
     0
 40
0.0
  0
LTYPE
  5
15
330
5
100
AcDbSymbolTableRecord
100
AcDbLinetypeTableRecord
  2
BYLAYER
 70
     0
  3

 72
    65
 73
     0
 40
0.0
  0
LTYPE
  5
16
330
5
100
AcDbSymbolTableRecord
100
AcDbLinetypeTableRecord
  2
CONTINUOUS
 70
     0
  3
Solid line
 72
    65
 73
     0
 40
0.0
  0
ENDTAB
  0
TABLE
  2
LAYER
  5
2
330
0
100
AcDbSymbolTable
 70
     2
  0
LAYER
  5
50
330
2
100
AcDbSymbolTableRecord
100
AcDbLayerTableRecord
  2
0
 70
     0
 62
     7
  6
CONTINUOUS
370
    -3
390
0
347
10040
  0
LAYER
  5
51
330
2
100
AcDbSymbolTableRecord
100
AcDbLayerTableRecord
  2
Layer_1
 70
     0
 62
     7
  6
CONTINUOUS
370
    -3
390
0
347
10040
  0
ENDTAB
  0
TABLE
  2
STYLE
  5
3
330
0
100
AcDbSymbolTable
 70
     1
  0
STYLE
  5
11
330
3
100
AcDbSymbolTableRecord
100
AcDbTextStyleTableRecord
  2
STANDARD
 70
     0
 40
0.0
 41
1.0
 50
0.0
 71
     0
 42
2.5
  3
txt
  4

  0
ENDTAB
  0
TABLE
  2
VIEW
  5
6
330
0
100
AcDbSymbolTable
 70
     0
  0
ENDTAB
  0
TABLE
  2
UCS
  5
7
330
0
100
AcDbSymbolTable
 70
     0
  0
ENDTAB
  0
TABLE
  2
APPID
  5
9
330
0
100
AcDbSymbolTable
 70
     2
  0
APPID
  5
12
330
9
100
AcDbSymbolTableRecord
100
AcDbRegAppTableRecord
  2
ACAD
 70
     0
  0
APPID
  5
100B1
330
9
100
AcDbSymbolTableRecord
100
AcDbRegAppTableRecord
  2
ACAD_MLEADERVER
 70
     0
  0
ENDTAB
  0
TABLE
  2
DIMSTYLE
  5
A
330
0
100
AcDbSymbolTable
 70
     1
100
AcDbDimStyleTable
  0
DIMSTYLE
105
27
330
A
100
AcDbSymbolTableRecord
100
AcDbDimStyleTableRecord
  2
ISO-25
 70
     0
 41
2.5
 42
0.625
 43
3.75
 44
1.25
 73
     0
 74
     0
 77
     1
 78
     8
140
2.5
141
2.5
143
0.03937007874016
147
0.625
171
     3
172
     1
178
     0
271
     2
272
     2
274
     3
283
     0
284
     8
340
11
  0
ENDTAB
  0
TABLE
  2
BLOCK_RECORD
  5
1
330
0
100
AcDbSymbolTable
 70
     0
  0
BLOCK_RECORD
  5
1F
330
1
100
AcDbSymbolTableRecord
100
AcDbBlockTableRecord
  2
*MODEL_SPACE
340
10022
 70
     0
280
     1
281
     0
  0
BLOCK_RECORD
  5
1B
330
1
100
AcDbSymbolTableRecord
100
AcDbBlockTableRecord
  2
*PAPER_SPACE
340
10023
 70
     0
280
     1
281
     0
  0
ENDTAB
  0
ENDSEC
  0
SECTION
  2
BLOCKS
  0
BLOCK
  5
20
330
1F
100
AcDbEntity
  8
0
100
AcDbBlockBegin
  2
*MODEL_SPACE
 70
     0
 10
0.0
 20
0.0
 30
0.0
  3
*MODEL_SPACE
  1
*MODEL_SPACE
  0
ENDBLK
  5
21
330
1F
100
AcDbEntity
  8
0
100
AcDbBlockEnd
  0
BLOCK
  5
1C
330
1B
100
AcDbEntity
 67
     1
  8
0
100
AcDbBlockBegin
  2
*PAPER_SPACE
 70
     0
 10
0.0
 20
0.0
 30
0.0
  3
*PAPER_SPACE
  1
*PAPER_SPACE
  0
ENDBLK
  5
1D
330
1B
100
AcDbEntity
 67
     1
  8
0
100
AcDbBlockEnd
  0
ENDSEC
  0
SECTION
  2
ENTITIES
  0
SPLINE
  5
100
102
{ACAD_REACTORS
330
100A2
330
100BA
102
}
330
1F
100
AcDbEntity
  8
Layer_1
 62
     7
100
AcDbSpline
210
0.0
220
0.0
230
1.0
 70
     8
 71
     3
 72
     8
 73
     4
 74
     0
 42
0.000000001
 43
0.0000001
 40
0.0
 40
0.0
 40
0.0
 40
0.0
 40
1.0
 40
1.0
 40
1.0
 40
1.0
 10
165.680592
 20
670.625564
 30
0.0
 10
168.359592
 20
670.625564
 30
0.0
 10
169.046592
 20
671.569564
 30
0.0
 10
169.046592
 20
675.604564
 30
0.0
  0
LWPOLYLINE
  5
101
102
{ACAD_REACTORS
330
100A2
330
100BA
102
}
330
1F
100
AcDbEntity
  8
Layer_1
 62
     7
100
AcDbPolyline
 90
        2
 70
     1
 43
0.0
 10
151.326592
 20
670.625564
 10
165.680592
 20
670.625564
  0
SPLINE
  5
102
102
{ACAD_REACTORS
330
100A2
330
100BA
102
}
330
1F
100
AcDbEntity
  8
Layer_1
 62
     7
100
AcDbSpline
210
0.0
220
0.0
230
1.0
 70
     8
 71
     3
 72
     8
 73
     4
 74
     0
 42
0.000000001
 43
0.0000001
 40
0.0
 40
0.0
 40
0.0
 40
0.0
 40
1.0
 40
1.0
 40
1.0
 40
1.0
 10
169.046592
 20
687.022564
 30
0.0
 10
169.046592
 20
691.057564
 30
0.0
 10
168.359592
 20
692.087564
 30
0.0
 10
165.680592
 20
692.087564
 30
0.0
  0
LWPOLYLINE
  5
103
102
{ACAD_REACTORS
330
100A2
330
100BA
102
}
330
1F
100
AcDbEntity
  8
Layer_1
 62
     7
100
AcDbPolyline
 90
        2
 70
     1
 43
0.0
 10
169.046592
 20
675.604564
 10
169.046592
 20
687.022564
  0
SPLINE
  5
104
102
{ACAD_REACTORS
330
100A2
330
100BA
102
}
330
1F
100
AcDbEntity
  8
Layer_1
 62
     7
100
AcDbSpline
210
0.0
220
0.0
230
1.0
 70
     8
 71
     3
 72
     8
 73
     4
 74
     0
 42
0.000000001
 43
0.0000001
 40
0.0
 40
0.0
 40
0.0
 40
0.0
 40
1.0
 40
1.0
 40
1.0
 40
1.0
 10
151.326592
 20
651.566564
 30
0.0
 10
151.326592
 20
649.077564
 30
0.0
 10
151.464592
 20
646.759564
 30
0.0
 10
152.150592
 20
644.183564
 30
0.0
  0
SPLINE
  5
106
102
{ACAD_REACTORS
330
100A2
330
100BA
102
}
330
1F
100
AcDbEntity
  8
Layer_1
 62
     7
100
AcDbSpline
210
0.0
220
0.0
230
1.0
 70
     8
 71
     3
 72
     8
 73
     4
 74
     0
 42
0.000000001
 43
0.0000001
 40
0.0
 40
0.0
 40
0.0
 40
0.0
 40
1.0
 40
1.0
 40
1.0
 40
1.0
 10
137.590592
 20
644.183564
 30
0.0
 10
138.277592
 20
646.759564
 30
0.0
 10
138.414592
 20
649.077564
 30
0.0
 10
138.414592
 20
651.566564
 30
0.0
  0
LWPOLYLINE
  5
107
102
{ACAD_REACTORS
330
100A2
330
100BA
102
}
330
1F
100
AcDbEntity
  8
Layer_1
 62
     7
100
AcDbPolyline
 90
        2
 70
     1
 43
0.0
 10
152.150592
 20
644.183564
 10
137.590592
 20
644.183564
  0
SPLINE
  5
108
102
{ACAD_REACTORS
330
100A2
330
100BA
102
}
330
1F
100
AcDbEntity
  8
Layer_1
 62
     7
100
AcDbSpline
210
0.0
220
0.0
230
1.0
 70
     8
 71
     3
 72
     8
 73
     4
 74
     0
 42
0.000000001
 43
0.0000001
 40
0.0
 40
0.0
 40
0.0
 40
0.0
 40
1.0
 40
1.0
 40
1.0
 40
1.0
 10
138.414592
 20
691.744564
 30
0.0
 10
138.414592
 20
694.234564
 30
0.0
 10
138.277592
 20
696.552564
 30
0.0
 10
137.590592
 20
699.127564
 30
0.0
  0
LWPOLYLINE
  5
109
102
{ACAD_REACTORS
330
100A2
330
100BA
102
}
330
1F
100
AcDbEntity
  8
Layer_1
 62
     7
100
AcDbPolyline
 90
        2
 70
     1
 43
0.0
 10
138.414592
 20
651.566564
 10
138.414592
 20
691.744564
  0
SPLINE
  5
10A
102
{ACAD_REACTORS
330
100A2
330
100BA
102
}
330
1F
100
AcDbEntity
  8
Layer_1
 62
     7
100
AcDbSpline
210
0.0
220
0.0
230
1.0
 70
     8
 71
     3
 72
     8
 73
     4
 74
     0
 42
0.000000001
 43
0.0000001
 40
0.0
 40
0.0
 40
0.0
 40
0.0
 40
1.0
 40
1.0
 40
1.0
 40
1.0
 10
170.969592
 20
699.127564
 30
0.0
 10
178.112592
 20
699.127564
 30
0.0
 10
181.545592
 20
695.693564
 30
0.0
 10
181.545592
 20
687.881564
 30
0.0
  0
LWPOLYLINE
  5
10B
102
{ACAD_REACTORS
330
100A2
330
100BA
102
}
330
1F
100
AcDbEntity
  8
Layer_1
 62
     7
100
AcDbPolyline
 90
        2
 70
     1
 43
0.0
 10
137.590592
 20
699.127564
 10
170.969592
 20
699.127564
  0
SPLINE
  5
10C
102
{ACAD_REACTORS
330
100A2
330
100BA
102
}
330
1F
100
AcDbEntity
  8
Layer_1
 62
     7
100
AcDbSpline
210
0.0
220
0.0
230
1.0
 70
     8
 71
     3
 72
     8
 73
     4
 74
     0
 42
0.000000001
 43
0.0000001
 40
0.0
 40
0.0
 40
0.0
 40
0.0
 40
1.0
 40
1.0
 40
1.0
 40
1.0
 10
181.545592
 20
674.832564
 30
0.0
 10
181.545592
 20
667.019564
 30
0.0
 10
178.112592
 20
663.585564
 30
0.0
 10
170.969592
 20
663.585564
 30
0.0
  0
LWPOLYLINE
  5
10D
102
{ACAD_REACTORS
330
100A2
330
100BA
102
}
330
1F
100
AcDbEntity
  8
Layer_1
 62
     7
100
AcDbPolyline
 90
        2
 70
     1
 43
0.0
 10
181.545592
 20
687.881564
 10
181.545592
 20
674.832564
  0
SPLINE
  5
10F
102
{ACAD_REACTORS
330
100A2
330
100BA
102
}
330
1F
100
AcDbEntity
  8
Layer_1
 62
     7
100
AcDbSpline
210
0.0
220
0.0
230
1.0
 70
     8
 71
     3
 72
     8
 73
     4
 74
     0
 42
0.000000001
 43
0.0000001
 40
0.0
 40
0.0
 40
0.0
 40
0.0
 40
1.0
 40
1.0
 40
1.0
 40
1.0
 10
211.627688
 20
675.26166
 30
0.0
 10
211.627688
 20
677.40766
 30
0.0
 10
211.146688
 20
678.18066
 30
0.0
 10
209.566688
 20
678.18066
 30
0.0
  0
LWPOLYLINE
  5
110
102
{ACAD_REACTORS
330
100A2
330
100BA
102
}
330
1F
100
AcDbEntity
  8
Layer_1
 62
     7
100
AcDbPolyline
 90
        2
 70
     1
 43
0.0
 10
211.627688
 20
667.01966
 10
211.627688
 20
675.26166
  0
SPLINE
  5
111
102
{ACAD_REACTORS
330
100A2
330
100BA
102
}
330
1F
100
AcDbEntity
  8
Layer_1
 62
     7
100
AcDbSpline
210
0.0
220
0.0
230
1.0
 70
     8
 71
     3
 72
     8
 73
     4
 74
     0
 42
0.000000001
 43
0.0000001
 40
0.0
 40
0.0
 40
0.0
 40
0.0
 40
1.0
 40
1.0
 40
1.0
 40
1.0
 10
198.990688
 20
678.18066
 30
0.0
 10
197.410688
 20
678.18066
 30
0.0
 10
196.929688
 20
677.40766
 30
0.0
 10
196.929688
 20
675.26166
 30
0.0
  0
LWPOLYLINE
  5
112
102
{ACAD_REACTORS
330
100A2
330
100BA
102
}
330
1F
100
AcDbEntity
  8
Layer_1
 62
     7
100
AcDbPolyline
 90
        2
 70
     1
 43
0.0
 10
209.566688
 20
678.18066
 10
198.990688
 20
678.18066
  0
SPLINE
  5
114
102
{ACAD_REACTORS
330
100A2
330
100BA
102
}
330
1F
100
AcDbEntity
  8
Layer_1
 62
     7
100
AcDbSpline
210
0.0
220
0.0
230
1.0
 70
     8
 71
     3
 72
     8
 73
     4
 74
     0
 42
0.000000001
 43
0.0000001
 40
0.0
 40
0.0
 40
0.0
 40
0.0
 40
1.0
 40
1.0
 40
1.0
 40
1.0
 10
196.929688
 20
653.45566
 30
0.0
 10
196.929688
 20
651.30966
 30
0.0
 10
197.410688
 20
650.53666
 30
0.0
 10
198.990688
 20
650.53666
 30
0.0
  0
LWPOLYLINE
  5
115
102
{ACAD_REACTORS
330
100A2
330
100BA
102
}
330
1F
100
AcDbEntity
  8
Layer_1
 62
     7
100
AcDbPolyline
 90
        2
 70
     1
 43
0.0
 10
196.929688
 20
660.66666
 10
196.929688
 20
653.45566
  0
SPLINE
  5
116
102
{ACAD_REACTORS
330
100A2
330
100BA
102
}
330
1F
100
AcDbEntity
  8
Layer_1
 62
     7
100
AcDbSpline
210
0.0
220
0.0
230
1.0
 70
     8
 71
     3
 72
     8
 73
     4
 74
     0
 42
0.000000001
 43
0.0000001
 40
0.0
 40
0.0
 40
0.0
 40
0.0
 40
1.0
 40
1.0
 40
1.0
 40
1.0
 10
219.800688
 20
650.53666
 30
0.0
 10
220.830688
 20
650.53666
 30
0.0
 10
222.135688
 20
650.70866
 30
0.0
 10
223.577688
 20
651.05166
 30
0.0
  0
LWPOLYLINE
  5
117
102
{ACAD_REACTORS
330
100A2
330
100BA
102
}
330
1F
100
AcDbEntity
  8
Layer_1
 62
     7
100
AcDbPolyline
 90
        2
 70
     1
 43
0.0
 10
198.990688
 20
650.53666
 10
219.800688
 20
650.53666
  0
SPLINE
  5
118
102
{ACAD_REACTORS
330
100A2
330
100BA
102
}
330
1F
100
AcDbEntity
  8
Layer_1
 62
     7
100
AcDbSpline
210
0.0
220
0.0
230
1.0
 70
     8
 71
     3
 72
     8
 73
     4
 74
     0
 42
0.000000001
 43
0.0000001
 40
0.0
 40
0.0
 40
0.0
 40
0.0
 40
1.0
 40
1.0
 40
1.0
 40
1.0
 10
193.083688
 20
644.18366
 30
0.0
 10
187.589688
 20
644.18366
 30
0.0
 10
184.979688
 20
647.53166
 30
0.0
 10
184.979688
 20
655.00066
 30
0.0
  0
SPLINE
  5
11A
102
{ACAD_REACTORS
330
100A2
330
100BA
102
}
330
1F
100
AcDbEntity
  8
Layer_1
 62
     7
100
AcDbSpline
210
0.0
220
0.0
230
1.0
 70
     8
 71
     3
 72
     8
 73
     4
 74
     0
 42
0.000000001
 43
0.0000001
 40
0.0
 40
0.0
 40
0.0
 40
0.0
 40
1.0
 40
1.0
 40
1.0
 40
1.0
 10
184.979688
 20
673.71566
 30
0.0
 10
184.979688
 20
681.18466
 30
0.0
 10
187.589688
 20
684.53366
 30
0.0
 10
193.083688
 20
684.53366
 30
0.0
  0
LWPOLYLINE
  5
11B
102
{ACAD_REACTORS
330
100A2
330
100BA
102
}
330
1F
100
AcDbEntity
  8
Layer_1
 62
     7
100
AcDbPolyline
 90
        2
 70
     1
 43
0.0
 10
184.979688
 20
655.00066
 10
184.979688
 20
673.71566
  0
SPLINE
  5
11C
102
{ACAD_REACTORS
330
100A2
330
100BA
102
}
330
1F
100
AcDbEntity
  8
Layer_1
 62
     7
100
AcDbSpline
210
0.0
220
0.0
230
1.0
 70
     8
 71
     3
 72
     8
 73
     4
 74
     0
 42
0.000000001
 43
0.0000001
 40
0.0
 40
0.0
 40
0.0
 40
0.0
 40
1.0
 40
1.0
 40
1.0
 40
1.0
 10
215.473688
 20
684.53366
 30
0.0
 10
220.968688
 20
684.53366
 30
0.0
 10
223.577688
 20
681.18466
 30
0.0
 10
223.577688
 20
673.71566
 30
0.0
  0
LWPOLYLINE
  5
11D
102
{ACAD_REACTORS
330
100A2
330
100BA
102
}
330
1F
100
AcDbEntity
  8
Layer_1
 62
     7
100
AcDbPolyline
 90
        2
 70
     1
 43
0.0
 10
193.083688
 20
684.53366
 10
215.473688
 20
684.53366
  0
SPLINE
  5
11E
102
{ACAD_REACTORS
330
100A2
330
100BA
102
}
330
1F
100
AcDbEntity
  8
Layer_1
 62
     7
100
AcDbSpline
210
0.0
220
0.0
230
1.0
 70
     8
 71
     3
 72
     8
 73
     4
 74
     0
 42
0.000000001
 43
0.0000001
 40
0.0
 40
0.0
 40
0.0
 40
0.0
 40
1.0
 40
1.0
 40
1.0
 40
1.0
 10
253.378488
 20
675.60466
 30
0.0
 10
251.249488
 20
676.11966
 30
0.0
 10
251.596488
 20
676.46266
 30
0.0
 10
246.995488
 20
676.46266
 30
0.0
  0
SPLINE
  5
120
102
{ACAD_REACTORS
330
100A2
330
100BA
102
}
330
1F
100
AcDbEntity
  8
Layer_1
 62
     7
100
AcDbSpline
210
0.0
220
0.0
230
1.0
 70
     8
 71
     3
 72
     8
 73
     4
 74
     0
 42
0.000000001
 43
0.0000001
 40
0.0
 40
0.0
 40
0.0
 40
0.0
 40
1.0
 40
1.0
 40
1.0
 40
1.0
 10
243.356488
 20
676.46266
 30
0.0
 10
242.052488
 20
676.46266
 30
0.0
 10
241.296488
 20
675.69066
 30
0.0
 10
241.296488
 20
674.31666
 30
0.0
  0
LWPOLYLINE
  5
121
102
{ACAD_REACTORS
330
100A2
330
100BA
102
}
330
1F
100
AcDbEntity
  8
Layer_1
 62
     7
100
AcDbPolyline
 90
        2
 70
     1
 43
0.0
 10
246.995488
 20
676.46266
 10
243.356488
 20
676.46266
  0
SPLINE
  5
122
102
{ACAD_REACTORS
330
100A2
330
100BA
102
}
330
1F
100
AcDbEntity
  8
Layer_1
 62
     7
100
AcDbSpline
210
0.0
220
0.0
230
1.0
 70
     8
 71
     3
 72
     8
 73
     4
 74
     0
 42
0.000000001
 43
0.0000001
 40
0.0
 40
0.0
 40
0.0
 40
0.0
 40
1.0
 40
1.0
 40
1.0
 40
1.0
 10
241.296488
 20
653.28366
 30
0.0
 10
241.296488
 20
648.47566
 30
0.0
 10
241.571488
 20
646.07266
 30
0.0
 10
241.983488
 20
644.18366
 30
0.0
  0
LWPOLYLINE
  5
123
102
{ACAD_REACTORS
330
100A2
330
100BA
102
}
330
1F
100
AcDbEntity
  8
Layer_1
 62
     7
100
AcDbPolyline
 90
        2
 70
     1
 43
0.0
 10
241.296488
 20
674.31666
 10
241.296488
 20
653.28366
  0
SPLINE
  5
124
102
{ACAD_REACTORS
330
100A2
330
100BA
102
}
330
1F
100
AcDbEntity
  8
Layer_1
 62
     7
100
AcDbSpline
210
0.0
220
0.0
230
1.0
 70
     8
 71
     3
 72
     8
 73
     4
 74
     0
 42
0.000000001
 43
0.0000001
 40
0.0
 40
0.0
 40
0.0
 40
0.0
 40
1.0
 40
1.0
 40
1.0
 40
1.0
 10
228.659488
 20
644.18366
 30
0.0
 10
229.071488
 20
646.07266
 30
0.0
 10
229.345488
 20
648.47566
 30
0.0
 10
229.345488
 20
653.28366
 30
0.0
  0
LWPOLYLINE
  5
125
102
{ACAD_REACTORS
330
100A2
330
100BA
102
}
330
1F
100
AcDbEntity
  8
Layer_1
 62
     7
100
AcDbPolyline
 90
        2
 70
     1
 43
0.0
 10
241.983488
 20
644.18366
 10
228.659488
 20
644.18366
  0
SPLINE
  5
126
102
{ACAD_REACTORS
330
100A2
330
100BA
102
}
330
1F
100
AcDbEntity
  8
Layer_1
 62
     7
100
AcDbSpline
210
0.0
220
0.0
230
1.0
 70
     8
 71
     3
 72
     8
 73
     4
 74
     0
 42
0.000000001
 43
0.0000001
 40
0.0
 40
0.0
 40
0.0
 40
0.0
 40
1.0
 40
1.0
 40
1.0
 40
1.0
 10
229.345488
 20
675.43266
 30
0.0
 10
229.345488
 20
680.24066
 30
0.0
 10
229.071488
 20
682.64466
 30
0.0
 10
228.659488
 20
684.53366
 30
0.0
  0
LWPOLYLINE
  5
127
102
{ACAD_REACTORS
330
100A2
330
100BA
102
}
330
1F
100
AcDbEntity
  8
Layer_1
 62
     7
100
AcDbPolyline
 90
        2
 70
     1
 43
0.0
 10
229.345488
 20
653.28366
 10
229.345488
 20
675.43266
  0
SPLINE
  5
128
102
{ACAD_REACTORS
330
100A2
330
100BA
102
}
330
1F
100
AcDbEntity
  8
Layer_1
 62
     7
100
AcDbSpline
210
0.0
220
0.0
230
1.0
 70
     8
 71
     3
 72
     8
 73
     4
 74
     0
 42
0.000000001
 43
0.0000001
 40
0.0
 40
0.0
 40
0.0
 40
0.0
 40
1.0
 40
1.0
 40
1.0
 40
1.0
 10
240.747488
 20
680.15466
 30
0.0
 10
241.089488
 20
683.41666
 30
0.0
 10
242.601488
 20
684.53366
 30
0.0
 10
246.310488
 20
684.53366
 30
0.0
  0
SPLINE
  5
12B
102
{ACAD_REACTORS
330
100A2
330
100BA
102
}
330
1F
100
AcDbEntity
  8
Layer_1
 62
     7
100
AcDbSpline
210
0.0
220
0.0
230
1.0
 70
     8
 71
     3
 72
     8
 73
     4
 74
     0
 42
0.000000001
 43
0.0000001
 40
0.0
 40
0.0
 40
0.0
 40
0.0
 40
1.0
 40
1.0
 40
1.0
 40
1.0
 10
262.170088
 20
688.310364
 30
0.0
 10
262.170088
 20
695.779364
 30
0.0
 10
264.779088
 20
699.127364
 30
0.0
 10
270.274088
 20
699.127364
 30
0.0
  0
SPLINE
  5
12D
102
{ACAD_REACTORS
330
100A2
330
100BA
102
}
330
1F
100
AcDbEntity
  8
Layer_1
 62
     7
100
AcDbSpline
210
0.0
220
0.0
230
1.0
 70
     8
 71
     3
 72
     8
 73
     4
 74
     0
 42
0.000000001
 43
0.0000001
 40
0.0
 40
0.0
 40
0.0
 40
0.0
 40
1.0
 40
1.0
 40
1.0
 40
1.0
 10
288.405088
 20
692.259364
 30
0.0
 10
286.963088
 20
692.603364
 30
0.0
 10
285.658088
 20
692.774364
 30
0.0
 10
284.628088
 20
692.774364
 30
0.0
  0
SPLINE
  5
12F
102
{ACAD_REACTORS
330
100A2
330
100BA
102
}
330
1F
100
AcDbEntity
  8
Layer_1
 62
     7
100
AcDbSpline
210
0.0
220
0.0
230
1.0
 70
     8
 71
     3
 72
     8
 73
     4
 74
     0
 42
0.000000001
 43
0.0000001
 40
0.0
 40
0.0
 40
0.0
 40
0.0
 40
1.0
 40
1.0
 40
1.0
 40
1.0
 10
276.180088
 20
692.774364
 30
0.0
 10
274.601088
 20
692.774364
 30
0.0
 10
274.120088
 20
692.002364
 30
0.0
 10
274.120088
 20
689.856364
 30
0.0
  0
LWPOLYLINE
  5
130
102
{ACAD_REACTORS
330
100A2
330
100BA
102
}
330
1F
100
AcDbEntity
  8
Layer_1
 62
     7
100
AcDbPolyline
 90
        2
 70
     1
 43
0.0
 10
284.628088
 20
692.774364
 10
276.180088
 20
692.774364
  0
SPLINE
  5
131
102
{ACAD_REACTORS
330
100A2
330
100BA
102
}
330
1F
100
AcDbEntity
  8
Layer_1
 62
     7
100
AcDbSpline
210
0.0
220
0.0
230
1.0
 70
     8
 71
     3
 72
     8
 73
     4
 74
     0
 42
0.000000001
 43
0.0000001
 40
0.0
 40
0.0
 40
0.0
 40
0.0
 40
1.0
 40
1.0
 40
1.0
 40
1.0
 10
274.120088
 20
653.284364
 30
0.0
 10
274.120088
 20
648.476364
 30
0.0
 10
274.394088
 20
646.072364
 30
0.0
 10
274.806088
 20
644.183364
 30
0.0
  0
SPLINE
  5
133
102
{ACAD_REACTORS
330
100A2
330
100BA
102
}
330
1F
100
AcDbEntity
  8
Layer_1
 62
     7
100
AcDbSpline
210
0.0
220
0.0
230
1.0
 70
     8
 71
     3
 72
     8
 73
     4
 74
     0
 42
0.000000001
 43
0.0000001
 40
0.0
 40
0.0
 40
0.0
 40
0.0
 40
1.0
 40
1.0
 40
1.0
 40
1.0
 10
261.482088
 20
644.183364
 30
0.0
 10
261.895088
 20
646.072364
 30
0.0
 10
262.170088
 20
648.476364
 30
0.0
 10
262.170088
 20
653.284364
 30
0.0
  0
LWPOLYLINE
  5
134
102
{ACAD_REACTORS
330
100A2
330
100BA
102
}
330
1F
100
AcDbEntity
  8
Layer_1
 62
     7
100
AcDbPolyline
 90
        2
 70
     1
 43
0.0
 10
274.806088
 20
644.183364
 10
261.482088
 20
644.183364
  0
SPLINE
  5
136
102
{ACAD_REACTORS
330
100A2
330
100BA
102
}
330
1F
100
AcDbEntity
  8
Layer_1
 62
     7
100
AcDbSpline
210
0.0
220
0.0
230
1.0
 70
     8
 71
     3
 72
     8
 73
     4
 74
     0
 42
0.000000001
 43
0.0000001
 40
0.0
 40
0.0
 40
0.0
 40
0.0
 40
1.0
 40
1.0
 40
1.0
 40
1.0
 10
314.228888
 20
675.26166
 30
0.0
 10
314.228888
 20
677.40766
 30
0.0
 10
313.747888
 20
678.18066
 30
0.0
 10
312.168888
 20
678.18066
 30
0.0
  0
LWPOLYLINE
  5
137
102
{ACAD_REACTORS
330
100A2
330
100BA
102
}
330
1F
100
AcDbEntity
  8
Layer_1
 62
     7
100
AcDbPolyline
 90
        2
 70
     1
 43
0.0
 10
314.228888
 20
667.01966
 10
314.228888
 20
675.26166
  0
SPLINE
  5
138
102
{ACAD_REACTORS
330
100A2
330
100BA
102
}
330
1F
100
AcDbEntity
  8
Layer_1
 62
     7
100
AcDbSpline
210
0.0
220
0.0
230
1.0
 70
     8
 71
     3
 72
     8
 73
     4
 74
     0
 42
0.000000001
 43
0.0000001
 40
0.0
 40
0.0
 40
0.0
 40
0.0
 40
1.0
 40
1.0
 40
1.0
 40
1.0
 10
301.591888
 20
678.18066
 30
0.0
 10
300.012888
 20
678.18066
 30
0.0
 10
299.530888
 20
677.40766
 30
0.0
 10
299.530888
 20
675.26166
 30
0.0
  0
LWPOLYLINE
  5
139
102
{ACAD_REACTORS
330
100A2
330
100BA
102
}
330
1F
100
AcDbEntity
  8
Layer_1
 62
     7
100
AcDbPolyline
 90
        2
 70
     1
 43
0.0
 10
312.168888
 20
678.18066
 10
301.591888
 20
678.18066
  0
SPLINE
  5
13B
102
{ACAD_REACTORS
330
100A2
330
100BA
102
}
330
1F
100
AcDbEntity
  8
Layer_1
 62
     7
100
AcDbSpline
210
0.0
220
0.0
230
1.0
 70
     8
 71
     3
 72
     8
 73
     4
 74
     0
 42
0.000000001
 43
0.0000001
 40
0.0
 40
0.0
 40
0.0
 40
0.0
 40
1.0
 40
1.0
 40
1.0
 40
1.0
 10
299.530888
 20
653.45566
 30
0.0
 10
299.530888
 20
651.30966
 30
0.0
 10
300.012888
 20
650.53666
 30
0.0
 10
301.591888
 20
650.53666
 30
0.0
  0
LWPOLYLINE
  5
13C
102
{ACAD_REACTORS
330
100A2
330
100BA
102
}
330
1F
100
AcDbEntity
  8
Layer_1
 62
     7
100
AcDbPolyline
 90
        2
 70
     1
 43
0.0
 10
299.530888
 20
660.66666
 10
299.530888
 20
653.45566
  0
SPLINE
  5
13D
102
{ACAD_REACTORS
330
100A2
330
100BA
102
}
330
1F
100
AcDbEntity
  8
Layer_1
 62
     7
100
AcDbSpline
210
0.0
220
0.0
230
1.0
 70
     8
 71
     3
 72
     8
 73
     4
 74
     0
 42
0.000000001
 43
0.0000001
 40
0.0
 40
0.0
 40
0.0
 40
0.0
 40
1.0
 40
1.0
 40
1.0
 40
1.0
 10
322.401888
 20
650.53666
 30
0.0
 10
323.431888
 20
650.53666
 30
0.0
 10
324.736888
 20
650.70866
 30
0.0
 10
326.179888
 20
651.05166
 30
0.0
  0
LWPOLYLINE
  5
13E
102
{ACAD_REACTORS
330
100A2
330
100BA
102
}
330
1F
100
AcDbEntity
  8
Layer_1
 62
     7
100
AcDbPolyline
 90
        2
 70
     1
 43
0.0
 10
301.591888
 20
650.53666
 10
322.401888
 20
650.53666
  0
SPLINE
  5
13F
102
{ACAD_REACTORS
330
100A2
330
100BA
102
}
330
1F
100
AcDbEntity
  8
Layer_1
 62
     7
100
AcDbSpline
210
0.0
220
0.0
230
1.0
 70
     8
 71
     3
 72
     8
 73
     4
 74
     0
 42
0.000000001
 43
0.0000001
 40
0.0
 40
0.0
 40
0.0
 40
0.0
 40
1.0
 40
1.0
 40
1.0
 40
1.0
 10
295.685888
 20
644.18366
 30
0.0
 10
290.189888
 20
644.18366
 30
0.0
 10
287.580888
 20
647.53166
 30
0.0
 10
287.580888
 20
655.00066
 30
0.0
  0
SPLINE
  5
141
102
{ACAD_REACTORS
330
100A2
330
100BA
102
}
330
1F
100
AcDbEntity
  8
Layer_1
 62
     7
100
AcDbSpline
210
0.0
220
0.0
230
1.0
 70
     8
 71
     3
 72
     8
 73
     4
 74
     0
 42
0.000000001
 43
0.0000001
 40
0.0
 40
0.0
 40
0.0
 40
0.0
 40
1.0
 40
1.0
 40
1.0
 40
1.0
 10
287.580888
 20
673.71566
 30
0.0
 10
287.580888
 20
681.18466
 30
0.0
 10
290.189888
 20
684.53366
 30
0.0
 10
295.685888
 20
684.53366
 30
0.0
  0
LWPOLYLINE
  5
142
102
{ACAD_REACTORS
330
100A2
330
100BA
102
}
330
1F
100
AcDbEntity
  8
Layer_1
 62
     7
100
AcDbPolyline
 90
        2
 70
     1
 43
0.0
 10
287.580888
 20
655.00066
 10
287.580888
 20
673.71566
  0
SPLINE
  5
143
102
{ACAD_REACTORS
330
100A2
330
100BA
102
}
330
1F
100
AcDbEntity
  8
Layer_1
 62
     7
100
AcDbSpline
210
0.0
220
0.0
230
1.0
 70
     8
 71
     3
 72
     8
 73
     4
 74
     0
 42
0.000000001
 43
0.0000001
 40
0.0
 40
0.0
 40
0.0
 40
0.0
 40
1.0
 40
1.0
 40
1.0
 40
1.0
 10
318.074888
 20
684.53366
 30
0.0
 10
323.569888
 20
684.53366
 30
0.0
 10
326.179888
 20
681.18466
 30
0.0
 10
326.179888
 20
673.71566
 30
0.0
  0
LWPOLYLINE
  5
144
102
{ACAD_REACTORS
330
100A2
330
100BA
102
}
330
1F
100
AcDbEntity
  8
Layer_1
 62
     7
100
AcDbPolyline
 90
        2
 70
     1
 43
0.0
 10
295.685888
 20
684.53366
 10
318.074888
 20
684.53366
  0
SPLINE
  5
145
102
{ACAD_REACTORS
330
100A2
330
100BA
102
}
330
1F
100
AcDbEntity
  8
Layer_1
 62
     7
100
AcDbSpline
210
0.0
220
0.0
230
1.0
 70
     8
 71
     3
 72
     8
 73
     4
 74
     0
 42
0.000000001
 43
0.0000001
 40
0.0
 40
0.0
 40
0.0
 40
0.0
 40
1.0
 40
1.0
 40
1.0
 40
1.0
 10
344.858792
 20
678.180164
 30
0.0
 10
343.280792
 20
678.180164
 30
0.0
 10
342.798792
 20
677.407164
 30
0.0
 10
342.798792
 20
675.261164
 30
0.0
  0
SPLINE
  5
147
102
{ACAD_REACTORS
330
100A2
330
100BA
102
}
330
1F
100
AcDbEntity
  8
Layer_1
 62
     7
100
AcDbSpline
210
0.0
220
0.0
230
1.0
 70
     8
 71
     3
 72
     8
 73
     4
 74
     0
 42
0.000000001
 43
0.0000001
 40
0.0
 40
0.0
 40
0.0
 40
0.0
 40
1.0
 40
1.0
 40
1.0
 40
1.0
 10
342.798792
 20
653.455164
 30
0.0
 10
342.798792
 20
651.309164
 30
0.0
 10
343.280792
 20
650.537164
 30
0.0
 10
344.858792
 20
650.537164
 30
0.0
  0
LWPOLYLINE
  5
148
102
{ACAD_REACTORS
330
100A2
330
100BA
102
}
330
1F
100
AcDbEntity
  8
Layer_1
 62
     7
100
AcDbPolyline
 90
        2
 70
     1
 43
0.0
 10
342.798792
 20
675.261164
 10
342.798792
 20
653.455164
  0
SPLINE
  5
149
102
{ACAD_REACTORS
330
100A2
330
100BA
102
}
330
1F
100
AcDbEntity
  8
Layer_1
 62
     7
100
AcDbSpline
210
0.0
220
0.0
230
1.0
 70
     8
 71
     3
 72
     8
 73
     4
 74
     0
 42
0.000000001
 43
0.0000001
 40
0.0
 40
0.0
 40
0.0
 40
0.0
 40
1.0
 40
1.0
 40
1.0
 40
1.0
 10
360.999792
 20
650.537164
 30
0.0
 10
362.029792
 20
650.537164
 30
0.0
 10
363.333792
 20
650.708164
 30
0.0
 10
364.777792
 20
651.051164
 30
0.0
  0
LWPOLYLINE
  5
14A
102
{ACAD_REACTORS
330
100A2
330
100BA
102
}
330
1F
100
AcDbEntity
  8
Layer_1
 62
     7
100
AcDbPolyline
 90
        2
 70
     1
 43
0.0
 10
344.858792
 20
650.537164
 10
360.999792
 20
650.537164
  0
SPLINE
  5
14B
102
{ACAD_REACTORS
330
100A2
330
100BA
102
}
330
1F
100
AcDbEntity
  8
Layer_1
 62
     7
100
AcDbSpline
210
0.0
220
0.0
230
1.0
 70
     8
 71
     3
 72
     8
 73
     4
 74
     0
 42
0.000000001
 43
0.0000001
 40
0.0
 40
0.0
 40
0.0
 40
0.0
 40
1.0
 40
1.0
 40
1.0
 40
1.0
 10
338.952792
 20
644.184164
 30
0.0
 10
333.457792
 20
644.184164
 30
0.0
 10
330.847792
 20
647.532164
 30
0.0
 10
330.847792
 20
655.000164
 30
0.0
  0
SPLINE
  5
14D
102
{ACAD_REACTORS
330
100A2
330
100BA
102
}
330
1F
100
AcDbEntity
  8
Layer_1
 62
     7
100
AcDbSpline
210
0.0
220
0.0
230
1.0
 70
     8
 71
     3
 72
     8
 73
     4
 74
     0
 42
0.000000001
 43
0.0000001
 40
0.0
 40
0.0
 40
0.0
 40
0.0
 40
1.0
 40
1.0
 40
1.0
 40
1.0
 10
330.847792
 20
673.716164
 30
0.0
 10
330.847792
 20
681.185164
 30
0.0
 10
333.457792
 20
684.533164
 30
0.0
 10
338.952792
 20
684.533164
 30
0.0
  0
LWPOLYLINE
  5
14E
102
{ACAD_REACTORS
330
100A2
330
100BA
102
}
330
1F
100
AcDbEntity
  8
Layer_1
 62
     7
100
AcDbPolyline
 90
        2
 70
     1
 43
0.0
 10
330.847792
 20
655.000164
 10
330.847792
 20
673.716164
  0
SPLINE
  5
14F
102
{ACAD_REACTORS
330
100A2
330
100BA
102
}
330
1F
100
AcDbEntity
  8
Layer_1
 62
     7
100
AcDbSpline
210
0.0
220
0.0
230
1.0
 70
     8
 71
     3
 72
     8
 73
     4
 74
     0
 42
0.000000001
 43
0.0000001
 40
0.0
 40
0.0
 40
0.0
 40
0.0
 40
1.0
 40
1.0
 40
1.0
 40
1.0
 10
362.987792
 20
677.665164
 30
0.0
 10
361.543792
 20
678.008164
 30
0.0
 10
361.134792
 20
678.180164
 30
0.0
 10
360.104792
 20
678.180164
 30
0.0
  0
LWPOLYLINE
  5
151
102
{ACAD_REACTORS
330
100A2
330
100BA
102
}
330
1F
100
AcDbEntity
  8
Layer_1
 62
     7
100
AcDbPolyline
 90
        3
 70
     1
 43
0.0
 10
360.104792
 20
678.180164
 10
344.858792
 20
678.180164
 10
344.858792
 20
678.180164
  0
SPLINE
  5
152
102
{ACAD_REACTORS
330
100A2
330
100BA
102
}
330
1F
100
AcDbEntity
  8
Layer_1
 62
     7
100
AcDbSpline
210
0.0
220
0.0
230
1.0
 70
     8
 71
     3
 72
     8
 73
     4
 74
     0
 42
0.000000001
 43
0.0000001
 40
0.0
 40
0.0
 40
0.0
 40
0.0
 40
1.0
 40
1.0
 40
1.0
 40
1.0
 10
383.457888
 20
654.65786
 30
0.0
 10
383.457888
 20
651.30886
 30
0.0
 10
384.281888
 20
650.53686
 30
0.0
 10
386.410888
 20
650.53686
 30
0.0
  0
SPLINE
  5
154
102
{ACAD_REACTORS
330
100A2
330
100BA
102
}
330
1F
100
AcDbEntity
  8
Layer_1
 62
     7
100
AcDbSpline
210
0.0
220
0.0
230
1.0
 70
     8
 71
     3
 72
     8
 73
     4
 74
     0
 42
0.000000001
 43
0.0000001
 40
0.0
 40
0.0
 40
0.0
 40
0.0
 40
1.0
 40
1.0
 40
1.0
 40
1.0
 10
391.286888
 20
650.53686
 30
0.0
 10
394.652888
 20
650.53686
 30
0.0
 10
397.330888
 20
650.96586
 30
0.0
 10
398.017888
 20
651.48086
 30
0.0
  0
LWPOLYLINE
  5
155
102
{ACAD_REACTORS
330
100A2
330
100BA
102
}
330
1F
100
AcDbEntity
  8
Layer_1
 62
     7
100
AcDbPolyline
 90
        2
 70
     1
 43
0.0
 10
386.410888
 20
650.53686
 10
391.286888
 20
650.53686
  0
SPLINE
  5
156
102
{ACAD_REACTORS
330
100A2
330
100BA
102
}
330
1F
100
AcDbEntity
  8
Layer_1
 62
     7
100
AcDbSpline
210
0.0
220
0.0
230
1.0
 70
     8
 71
     3
 72
     8
 73
     4
 74
     0
 42
0.000000001
 43
0.0000001
 40
0.0
 40
0.0
 40
0.0
 40
0.0
 40
1.0
 40
1.0
 40
1.0
 40
1.0
 10
379.336888
 20
644.18386
 30
0.0
 10
374.528888
 20
644.18386
 30
0.0
 10
371.506888
 20
647.70386
 30
0.0
 10
371.506888
 20
655.60186
 30
0.0
  0
SPLINE
  5
158
102
{ACAD_REACTORS
330
100A2
330
100BA
102
}
330
1F
100
AcDbEntity
  8
Layer_1
 62
     7
100
AcDbSpline
210
0.0
220
0.0
230
1.0
 70
     8
 71
     3
 72
     8
 73
     4
 74
     0
 42
0.000000001
 43
0.0000001
 40
0.0
 40
0.0
 40
0.0
 40
0.0
 40
1.0
 40
1.0
 40
1.0
 40
1.0
 10
413.331888
 20
665.81806
 30
0.0
 10
411.752888
 20
665.81806
 30
0.0
 10
411.272888
 20
665.04506
 30
0.0
 10
411.272888
 20
662.89906
 30
0.0
  0
SPLINE
  5
15A
102
{ACAD_REACTORS
330
100A2
330
100BA
102
}
330
1F
100
AcDbEntity
  8
Layer_1
 62
     7
100
AcDbSpline
210
0.0
220
0.0
230
1.0
 70
     8
 71
     3
 72
     8
 73
     4
 74
     0
 42
0.000000001
 43
0.0000001
 40
0.0
 40
0.0
 40
0.0
 40
0.0
 40
1.0
 40
1.0
 40
1.0
 40
1.0
 10
411.272888
 20
653.45606
 30
0.0
 10
411.272888
 20
651.30906
 30
0.0
 10
411.752888
 20
650.53706
 30
0.0
 10
413.331888
 20
650.53706
 30
0.0
  0
LWPOLYLINE
  5
15B
102
{ACAD_REACTORS
330
100A2
330
100BA
102
}
330
1F
100
AcDbEntity
  8
Layer_1
 62
     7
100
AcDbPolyline
 90
        2
 70
     1
 43
0.0
 10
411.272888
 20
662.89906
 10
411.272888
 20
653.45606
  0
SPLINE
  5
15C
102
{ACAD_REACTORS
330
100A2
330
100BA
102
}
330
1F
100
AcDbEntity
  8
Layer_1
 62
     7
100
AcDbSpline
210
0.0
220
0.0
230
1.0
 70
     8
 71
     3
 72
     8
 73
     4
 74
     0
 42
0.000000001
 43
0.0000001
 40
0.0
 40
0.0
 40
0.0
 40
0.0
 40
1.0
 40
1.0
 40
1.0
 40
1.0
 10
423.908888
 20
650.53706
 30
0.0
 10
425.488888
 20
650.53706
 30
0.0
 10
425.968888
 20
651.30906
 30
0.0
 10
425.968888
 20
653.45606
 30
0.0
  0
LWPOLYLINE
  5
15D
102
{ACAD_REACTORS
330
100A2
330
100BA
102
}
330
1F
100
AcDbEntity
  8
Layer_1
 62
     7
100
AcDbPolyline
 90
        2
 70
     1
 43
0.0
 10
413.331888
 20
650.53706
 10
423.908888
 20
650.53706
  0
SPLINE
  5
15E
102
{ACAD_REACTORS
330
100A2
330
100BA
102
}
330
1F
100
AcDbEntity
  8
Layer_1
 62
     7
100
AcDbSpline
210
0.0
220
0.0
230
1.0
 70
     8
 71
     3
 72
     8
 73
     4
 74
     0
 42
0.000000001
 43
0.0000001
 40
0.0
 40
0.0
 40
0.0
 40
0.0
 40
1.0
 40
1.0
 40
1.0
 40
1.0
 10
437.919888
 20
653.28406
 30
0.0
 10
437.919888
 20
648.47606
 30
0.0
 10
438.194888
 20
646.07206
 30
0.0
 10
438.606888
 20
644.18406
 30
0.0
  0
SPLINE
  5
160
102
{ACAD_REACTORS
330
100A2
330
100BA
102
}
330
1F
100
AcDbEntity
  8
Layer_1
 62
     7
100
AcDbSpline
210
0.0
220
0.0
230
1.0
 70
     8
 71
     3
 72
     8
 73
     4
 74
     0
 42
0.000000001
 43
0.0000001
 40
0.0
 40
0.0
 40
0.0
 40
0.0
 40
1.0
 40
1.0
 40
1.0
 40
1.0
 10
426.862888
 20
648.39006
 30
0.0
 10
425.832888
 20
645.12806
 30
0.0
 10
424.664888
 20
644.18406
 30
0.0
 10
422.260888
 20
644.18406
 30
0.0
  0
SPLINE
  5
162
102
{ACAD_REACTORS
330
100A2
330
100BA
102
}
330
1F
100
AcDbEntity
  8
Layer_1
 62
     7
100
AcDbSpline
210
0.0
220
0.0
230
1.0
 70
     8
 71
     3
 72
     8
 73
     4
 74
     0
 42
0.000000001
 43
0.0000001
 40
0.0
 40
0.0
 40
0.0
 40
0.0
 40
1.0
 40
1.0
 40
1.0
 40
1.0
 10
407.425888
 20
644.18406
 30
0.0
 10
401.793888
 20
644.18406
 30
0.0
 10
399.320888
 20
647.10206
 30
0.0
 10
399.320888
 20
658.17706
 30
0.0
  0
SPLINE
  5
163
102
{ACAD_REACTORS
330
100A2
330
100BA
102
}
330
1F
100
AcDbEntity
  8
Layer_1
 62
     7
100
AcDbSpline
210
0.0
220
0.0
230
1.0
 70
     8
 71
     3
 72
     8
 73
     4
 74
     0
 42
0.000000001
 43
0.0000001
 40
0.0
 40
0.0
 40
0.0
 40
0.0
 40
1.0
 40
1.0
 40
1.0
 40
1.0
 10
399.320888
 20
658.17706
 30
0.0
 10
399.320888
 20
669.25206
 30
0.0
 10
401.793888
 20
672.17106
 30
0.0
 10
407.425888
 20
672.17106
 30
0.0
  0
LWPOLYLINE
  5
164
102
{ACAD_REACTORS
330
100A2
330
100BA
102
}
330
1F
100
AcDbEntity
  8
Layer_1
 62
     7
100
AcDbPolyline
 90
        2
 70
     1
 43
0.0
 10
422.260888
 20
644.18406
 10
407.425888
 20
644.18406
  0
SPLINE
  5
165
102
{ACAD_REACTORS
330
100A2
330
100BA
102
}
330
1F
100
AcDbEntity
  8
Layer_1
 62
     7
100
AcDbSpline
210
0.0
220
0.0
230
1.0
 70
     8
 71
     3
 72
     8
 73
     4
 74
     0
 42
0.000000001
 43
0.0000001
 40
0.0
 40
0.0
 40
0.0
 40
0.0
 40
1.0
 40
1.0
 40
1.0
 40
1.0
 10
424.252888
 20
672.17106
 30
0.0
 10
425.351888
 20
672.17106
 30
0.0
 10
425.968888
 20
672.68606
 30
0.0
 10
425.968888
 20
674.05906
 30
0.0
  0
LWPOLYLINE
  5
166
102
{ACAD_REACTORS
330
100A2
330
100BA
102
}
330
1F
100
AcDbEntity
  8
Layer_1
 62
     7
100
AcDbPolyline
 90
        2
 70
     1
 43
0.0
 10
407.425888
 20
672.17106
 10
424.252888
 20
672.17106
  0
SPLINE
  5
167
102
{ACAD_REACTORS
330
100A2
330
100BA
102
}
330
1F
100
AcDbEntity
  8
Layer_1
 62
     7
100
AcDbSpline
210
0.0
220
0.0
230
1.0
 70
     8
 71
     3
 72
     8
 73
     4
 74
     0
 42
0.000000001
 43
0.0000001
 40
0.0
 40
0.0
 40
0.0
 40
0.0
 40
1.0
 40
1.0
 40
1.0
 40
1.0
 10
425.968888
 20
676.63506
 30
0.0
 10
425.968888
 20
678.00906
 30
0.0
 10
425.351888
 20
678.52406
 30
0.0
 10
424.252888
 20
678.52406
 30
0.0
  0
LWPOLYLINE
  5
168
102
{ACAD_REACTORS
330
100A2
330
100BA
102
}
330
1F
100
AcDbEntity
  8
Layer_1
 62
     7
100
AcDbPolyline
 90
        2
 70
     1
 43
0.0
 10
425.968888
 20
674.05906
 10
425.968888
 20
676.63506
  0
SPLINE
  5
169
102
{ACAD_REACTORS
330
100A2
330
100BA
102
}
330
1F
100
AcDbEntity
  8
Layer_1
 62
     7
100
AcDbSpline
210
0.0
220
0.0
230
1.0
 70
     8
 71
     3
 72
     8
 73
     4
 74
     0
 42
0.000000001
 43
0.0000001
 40
0.0
 40
0.0
 40
0.0
 40
0.0
 40
1.0
 40
1.0
 40
1.0
 40
1.0
 10
406.257888
 20
678.52406
 30
0.0
 10
404.266888
 20
678.52406
 30
0.0
 10
403.029888
 20
678.43806
 30
0.0
 10
400.488888
 20
677.66506
 30
0.0
  0
LWPOLYLINE
  5
16A
102
{ACAD_REACTORS
330
100A2
330
100BA
102
}
330
1F
100
AcDbEntity
  8
Layer_1
 62
     7
100
AcDbPolyline
 90
        2
 70
     1
 43
0.0
 10
424.252888
 20
678.52406
 10
406.257888
 20
678.52406
  0
SPLINE
  5
16B
102
{ACAD_REACTORS
330
100A2
330
100BA
102
}
330
1F
100
AcDbEntity
  8
Layer_1
 62
     7
100
AcDbSpline
210
0.0
220
0.0
230
1.0
 70
     8
 71
     3
 72
     8
 73
     4
 74
     0
 42
0.000000001
 43
0.0000001
 40
0.0
 40
0.0
 40
0.0
 40
0.0
 40
1.0
 40
1.0
 40
1.0
 40
1.0
 10
429.815888
 20
684.53306
 30
0.0
 10
435.309888
 20
684.53306
 30
0.0
 10
437.919888
 20
681.18506
 30
0.0
 10
437.919888
 20
673.71606
 30
0.0
  0
SPLINE
  5
16D
102
{ACAD_REACTORS
330
100A2
330
100BA
102
}
330
1F
100
AcDbEntity
  8
Layer_1
 62
     7
100
AcDbSpline
210
0.0
220
0.0
230
1.0
 70
     8
 71
     3
 72
     8
 73
     4
 74
     0
 42
0.000000001
 43
0.0000001
 40
0.0
 40
0.0
 40
0.0
 40
0.0
 40
1.0
 40
1.0
 40
1.0
 40
1.0
 10
123.093288
 20
671.793564
 30
0.0
 10
123.093288
 20
655.204564
 30
0.0
 10
109.643288
 20
641.754564
 30
0.0
 10
93.054288
 20
641.754564
 30
0.0
  0
SPLINE
  5
16E
102
{ACAD_REACTORS
330
100A2
330
100BA
102
}
330
1F
100
AcDbEntity
  8
Layer_1
 62
     7
100
AcDbSpline
210
0.0
220
0.0
230
1.0
 70
     8
 71
     3
 72
     8
 73
     4
 74
     0
 42
0.000000001
 43
0.0000001
 40
0.0
 40
0.0
 40
0.0
 40
0.0
 40
1.0
 40
1.0
 40
1.0
 40
1.0
 10
93.054288
 20
641.754564
 30
0.0
 10
76.465288
 20
641.754564
 30
0.0
 10
63.016288
 20
655.204564
 30
0.0
 10
63.016288
 20
671.793564
 30
0.0
  0
SPLINE
  5
16F
102
{ACAD_REACTORS
330
100A2
330
100BA
102
}
330
1F
100
AcDbEntity
  8
Layer_1
 62
     7
100
AcDbSpline
210
0.0
220
0.0
230
1.0
 70
     8
 71
     3
 72
     8
 73
     4
 74
     0
 42
0.000000001
 43
0.0000001
 40
0.0
 40
0.0
 40
0.0
 40
0.0
 40
1.0
 40
1.0
 40
1.0
 40
1.0
 10
63.016288
 20
671.793564
 30
0.0
 10
63.016288
 20
688.382564
 30
0.0
 10
76.465288
 20
701.832564
 30
0.0
 10
93.054288
 20
701.832564
 30
0.0
  0
SPLINE
  5
170
102
{ACAD_REACTORS
330
100A2
330
100BA
102
}
330
1F
100
AcDbEntity
  8
Layer_1
 62
     7
100
AcDbSpline
210
0.0
220
0.0
230
1.0
 70
     8
 71
     3
 72
     8
 73
     4
 74
     0
 42
0.000000001
 43
0.0000001
 40
0.0
 40
0.0
 40
0.0
 40
0.0
 40
1.0
 40
1.0
 40
1.0
 40
1.0
 10
93.054288
 20
701.832564
 30
0.0
 10
109.643288
 20
701.832564
 30
0.0
 10
123.093288
 20
688.382564
 30
0.0
 10
123.093288
 20
671.793564
 30
0.0
  0
LWPOLYLINE
  5
171
102
{ACAD_REACTORS
330
100A2
330
100BA
102
}
330
1F
100
AcDbEntity
  8
Layer_1
 62
     7
100
AcDbPolyline
 90
        3
 70
     1
 43
0.0
 10
437.919888
 20
673.71606
 10
437.919888
 20
653.28406
 10
437.919888
 20
653.28406
  0
LWPOLYLINE
  5
172
102
{ACAD_REACTORS
330
100A2
330
100BA
102
}
330
1F
100
AcDbEntity
  8
Layer_1
 62
     7
100
AcDbPolyline
 90
        5
 70
     1
 43
0.0
 10
80.231088
 20
695.36726
 10
118.359088
 20
672.01126
 10
80.249088
 20
648.13726
 10
80.231088
 20
695.36726
 10
80.231088
 20
695.36726
  0
LINE
  5
10048
102
{ACAD_REACTORS
330
100A2
330
100BA
102
}
330
1F
100
AcDbEntity
  8
Layer_1
 62
     7
100
AcDbLine
 10
165.680592
 20
692.087564
 30
0.0
 11
151.326592
 21
692.087564
 31
0.0
  0
LINE
  5
10049
102
{ACAD_REACTORS
330
100A2
330
100BA
102
}
330
1F
100
AcDbEntity
  8
Layer_1
 62
     7
100
AcDbLine
 10
151.326592
 20
692.087564
 30
0.0
 11
151.326592
 21
670.625564
 31
0.0
  0
LINE
  5
1004A
102
{ACAD_REACTORS
330
100A2
102
}
330
1F
100
AcDbEntity
  8
Layer_1
 62
     7
100
AcDbLine
 10
151.326592
 20
670.625564
 30
0.0
 11
151.326592
 21
670.625564
 31
0.0
  0
LINE
  5
1004C
102
{ACAD_REACTORS
330
100A2
330
100BA
102
}
330
1F
100
AcDbEntity
  8
Layer_1
 62
     7
100
AcDbLine
 10
170.969592
 20
663.585564
 30
0.0
 11
151.326592
 21
663.585564
 31
0.0
  0
LINE
  5
1004D
102
{ACAD_REACTORS
330
100A2
330
100BA
102
}
330
1F
100
AcDbEntity
  8
Layer_1
 62
     7
100
AcDbLine
 10
151.326592
 20
663.585564
 30
0.0
 11
151.326592
 21
651.566564
 31
0.0
  0
LINE
  5
1004E
102
{ACAD_REACTORS
330
100A2
102
}
330
1F
100
AcDbEntity
  8
Layer_1
 62
     7
100
AcDbLine
 10
151.326592
 20
651.566564
 30
0.0
 11
151.326592
 21
651.566564
 31
0.0
  0
LINE
  5
10050
102
{ACAD_REACTORS
330
100A2
330
100BA
102
}
330
1F
100
AcDbEntity
  8
Layer_1
 62
     7
100
AcDbLine
 10
196.929688
 20
675.26166
 30
0.0
 11
196.929688
 21
667.01966
 31
0.0
  0
LINE
  5
10051
102
{ACAD_REACTORS
330
100A2
330
100BA
102
}
330
1F
100
AcDbEntity
  8
Layer_1
 62
     7
100
AcDbLine
 10
196.929688
 20
667.01966
 30
0.0
 11
211.627688
 21
667.01966
 31
0.0
  0
LINE
  5
10052
102
{ACAD_REACTORS
330
100A2
102
}
330
1F
100
AcDbEntity
  8
Layer_1
 62
     7
100
AcDbLine
 10
211.627688
 20
667.01966
 30
0.0
 11
211.627688
 21
667.01966
 31
0.0
  0
LINE
  5
10054
102
{ACAD_REACTORS
330
100A2
330
100BA
102
}
330
1F
100
AcDbEntity
  8
Layer_1
 62
     7
100
AcDbLine
 10
223.577688
 20
673.71566
 30
0.0
 11
223.577688
 21
660.66666
 31
0.0
  0
LINE
  5
10055
102
{ACAD_REACTORS
330
100A2
330
100BA
102
}
330
1F
100
AcDbEntity
  8
Layer_1
 62
     7
100
AcDbLine
 10
223.577688
 20
660.66666
 30
0.0
 11
196.929688
 21
660.66666
 31
0.0
  0
LINE
  5
10056
102
{ACAD_REACTORS
330
100A2
102
}
330
1F
100
AcDbEntity
  8
Layer_1
 62
     7
100
AcDbLine
 10
196.929688
 20
660.66666
 30
0.0
 11
196.929688
 21
660.66666
 31
0.0
  0
LINE
  5
10058
102
{ACAD_REACTORS
330
100A2
330
100BA
102
}
330
1F
100
AcDbEntity
  8
Layer_1
 62
     7
100
AcDbLine
 10
223.577688
 20
651.05166
 30
0.0
 11
222.616688
 21
644.18366
 31
0.0
  0
LINE
  5
10059
102
{ACAD_REACTORS
330
100A2
330
100BA
102
}
330
1F
100
AcDbEntity
  8
Layer_1
 62
     7
100
AcDbLine
 10
222.616688
 20
644.18366
 30
0.0
 11
193.083688
 21
644.18366
 31
0.0
  0
LINE
  5
1005B
102
{ACAD_REACTORS
330
100A2
330
100BA
102
}
330
1F
100
AcDbEntity
  8
Layer_1
 62
     7
100
AcDbLine
 10
228.659488
 20
684.53366
 30
0.0
 11
240.128488
 21
684.53366
 31
0.0
  0
LINE
  5
1005C
102
{ACAD_REACTORS
330
100A2
330
100BA
102
}
330
1F
100
AcDbEntity
  8
Layer_1
 62
     7
100
AcDbLine
 10
240.128488
 20
684.53366
 30
0.0
 11
240.609488
 21
680.15466
 31
0.0
  0
LINE
  5
1005D
102
{ACAD_REACTORS
330
100A2
330
100BA
102
}
330
1F
100
AcDbEntity
  8
Layer_1
 62
     7
100
AcDbLine
 10
240.609488
 20
680.15466
 30
0.0
 11
240.747488
 21
680.15466
 31
0.0
  0
LINE
  5
1005F
102
{ACAD_REACTORS
330
100A2
330
100BA
102
}
330
1F
100
AcDbEntity
  8
Layer_1
 62
     7
100
AcDbLine
 10
246.310488
 20
684.53366
 30
0.0
 11
253.378488
 21
684.53366
 31
0.0
  0
LINE
  5
10060
102
{ACAD_REACTORS
330
100A2
330
100BA
102
}
330
1F
100
AcDbEntity
  8
Layer_1
 62
     7
100
AcDbLine
 10
253.378488
 20
684.53366
 30
0.0
 11
253.378488
 21
675.60466
 31
0.0
  0
LINE
  5
10061
102
{ACAD_REACTORS
330
100A2
102
}
330
1F
100
AcDbEntity
  8
Layer_1
 62
     7
100
AcDbLine
 10
253.378488
 20
675.60466
 30
0.0
 11
253.378488
 21
675.60466
 31
0.0
  0
LINE
  5
10063
102
{ACAD_REACTORS
330
100A2
330
100BA
102
}
330
1F
100
AcDbEntity
  8
Layer_1
 62
     7
100
AcDbLine
 10
262.170088
 20
653.284364
 30
0.0
 11
262.170088
 21
678.523364
 31
0.0
  0
LINE
  5
10064
102
{ACAD_REACTORS
330
100A2
330
100BA
102
}
330
1F
100
AcDbEntity
  8
Layer_1
 62
     7
100
AcDbLine
 10
262.170088
 20
678.523364
 30
0.0
 11
255.714088
 21
678.523364
 31
0.0
  0
LINE
  5
10065
102
{ACAD_REACTORS
330
100A2
330
100BA
102
}
330
1F
100
AcDbEntity
  8
Layer_1
 62
     7
100
AcDbLine
 10
255.714088
 20
678.523364
 30
0.0
 11
255.714088
 21
684.533364
 31
0.0
  0
LINE
  5
10066
102
{ACAD_REACTORS
330
100A2
102
}
330
1F
100
AcDbEntity
  8
Layer_1
 62
     7
100
AcDbLine
 10
255.714088
 20
684.533364
 30
0.0
 11
255.714088
 21
684.533364
 31
0.0
  0
LINE
  5
10068
102
{ACAD_REACTORS
330
100A2
330
100BA
102
}
330
1F
100
AcDbEntity
  8
Layer_1
 62
     7
100
AcDbLine
 10
255.714088
 20
684.533364
 30
0.0
 11
262.170088
 21
684.533364
 31
0.0
  0
LINE
  5
10069
102
{ACAD_REACTORS
330
100A2
330
100BA
102
}
330
1F
100
AcDbEntity
  8
Layer_1
 62
     7
100
AcDbLine
 10
262.170088
 20
684.533364
 30
0.0
 11
262.170088
 21
688.310364
 31
0.0
  0
LINE
  5
1006B
102
{ACAD_REACTORS
330
100A2
330
100BA
102
}
330
1F
100
AcDbEntity
  8
Layer_1
 62
     7
100
AcDbLine
 10
270.274088
 20
699.127364
 30
0.0
 11
287.444088
 21
699.127364
 31
0.0
  0
LINE
  5
1006C
102
{ACAD_REACTORS
330
100A2
330
100BA
102
}
330
1F
100
AcDbEntity
  8
Layer_1
 62
     7
100
AcDbLine
 10
287.444088
 20
699.127364
 30
0.0
 11
288.405088
 21
692.259364
 31
0.0
  0
LINE
  5
1006E
102
{ACAD_REACTORS
330
100A2
330
100BA
102
}
330
1F
100
AcDbEntity
  8
Layer_1
 62
     7
100
AcDbLine
 10
299.530888
 20
675.26166
 30
0.0
 11
299.530888
 21
667.01966
 31
0.0
  0
LINE
  5
1006F
102
{ACAD_REACTORS
330
100A2
330
100BA
102
}
330
1F
100
AcDbEntity
  8
Layer_1
 62
     7
100
AcDbLine
 10
299.530888
 20
667.01966
 30
0.0
 11
314.228888
 21
667.01966
 31
0.0
  0
LINE
  5
10070
102
{ACAD_REACTORS
330
100A2
102
}
330
1F
100
AcDbEntity
  8
Layer_1
 62
     7
100
AcDbLine
 10
314.228888
 20
667.01966
 30
0.0
 11
314.228888
 21
667.01966
 31
0.0
  0
LINE
  5
10072
102
{ACAD_REACTORS
330
100A2
330
100BA
102
}
330
1F
100
AcDbEntity
  8
Layer_1
 62
     7
100
AcDbLine
 10
326.179888
 20
673.71566
 30
0.0
 11
326.179888
 21
660.66666
 31
0.0
  0
LINE
  5
10073
102
{ACAD_REACTORS
330
100A2
330
100BA
102
}
330
1F
100
AcDbEntity
  8
Layer_1
 62
     7
100
AcDbLine
 10
326.179888
 20
660.66666
 30
0.0
 11
299.530888
 21
660.66666
 31
0.0
  0
LINE
  5
10074
102
{ACAD_REACTORS
330
100A2
102
}
330
1F
100
AcDbEntity
  8
Layer_1
 62
     7
100
AcDbLine
 10
299.530888
 20
660.66666
 30
0.0
 11
299.530888
 21
660.66666
 31
0.0
  0
LINE
  5
10076
102
{ACAD_REACTORS
330
100A2
330
100BA
102
}
330
1F
100
AcDbEntity
  8
Layer_1
 62
     7
100
AcDbLine
 10
326.179888
 20
651.05166
 30
0.0
 11
325.216888
 21
644.18366
 31
0.0
  0
LINE
  5
10077
102
{ACAD_REACTORS
330
100A2
330
100BA
102
}
330
1F
100
AcDbEntity
  8
Layer_1
 62
     7
100
AcDbLine
 10
325.216888
 20
644.18366
 30
0.0
 11
295.685888
 21
644.18366
 31
0.0
  0
LINE
  5
10079
102
{ACAD_REACTORS
330
100A2
330
100BA
102
}
330
1F
100
AcDbEntity
  8
Layer_1
 62
     7
100
AcDbLine
 10
338.952792
 20
684.533164
 30
0.0
 11
362.024792
 21
684.533164
 31
0.0
  0
LINE
  5
1007A
102
{ACAD_REACTORS
330
100A2
330
100BA
102
}
330
1F
100
AcDbEntity
  8
Layer_1
 62
     7
100
AcDbLine
 10
362.024792
 20
684.533164
 30
0.0
 11
362.987792
 21
677.665164
 31
0.0
  0
LINE
  5
1007C
102
{ACAD_REACTORS
330
100A2
330
100BA
102
}
330
1F
100
AcDbEntity
  8
Layer_1
 62
     7
100
AcDbLine
 10
364.777792
 20
651.051164
 30
0.0
 11
363.814792
 21
644.184164
 31
0.0
  0
LINE
  5
1007D
102
{ACAD_REACTORS
330
100A2
330
100BA
102
}
330
1F
100
AcDbEntity
  8
Layer_1
 62
     7
100
AcDbLine
 10
363.814792
 20
644.184164
 30
0.0
 11
338.952792
 21
644.184164
 31
0.0
  0
LINE
  5
1007F
102
{ACAD_REACTORS
330
100A2
330
100BA
102
}
330
1F
100
AcDbEntity
  8
Layer_1
 62
     7
100
AcDbLine
 10
371.506888
 20
655.60186
 30
0.0
 11
371.506888
 21
678.52386
 31
0.0
  0
LINE
  5
10080
102
{ACAD_REACTORS
330
100A2
330
100BA
102
}
330
1F
100
AcDbEntity
  8
Layer_1
 62
     7
100
AcDbLine
 10
371.506888
 20
678.52386
 30
0.0
 11
365.257888
 21
678.52386
 31
0.0
  0
LINE
  5
10081
102
{ACAD_REACTORS
330
100A2
330
100BA
102
}
330
1F
100
AcDbEntity
  8
Layer_1
 62
     7
100
AcDbLine
 10
365.257888
 20
678.52386
 30
0.0
 11
365.257888
 21
684.53386
 31
0.0
  0
LINE
  5
10082
102
{ACAD_REACTORS
330
100A2
330
100BA
102
}
330
1F
100
AcDbEntity
  8
Layer_1
 62
     7
100
AcDbLine
 10
365.257888
 20
684.53386
 30
0.0
 11
371.506888
 21
684.53386
 31
0.0
  0
LINE
  5
10083
102
{ACAD_REACTORS
330
100A2
330
100BA
102
}
330
1F
100
AcDbEntity
  8
Layer_1
 62
     7
100
AcDbLine
 10
371.506888
 20
684.53386
 30
0.0
 11
371.506888
 21
692.77486
 31
0.0
  0
LINE
  5
10084
102
{ACAD_REACTORS
330
100A2
330
100BA
102
}
330
1F
100
AcDbEntity
  8
Layer_1
 62
     7
100
AcDbLine
 10
371.506888
 20
692.77486
 30
0.0
 11
383.457888
 21
694.74886
 31
0.0
  0
LINE
  5
10085
102
{ACAD_REACTORS
330
100A2
330
100BA
102
}
330
1F
100
AcDbEntity
  8
Layer_1
 62
     7
100
AcDbLine
 10
383.457888
 20
694.74886
 30
0.0
 11
383.457888
 21
684.53386
 31
0.0
  0
LINE
  5
10086
102
{ACAD_REACTORS
330
100A2
330
100BA
102
}
330
1F
100
AcDbEntity
  8
Layer_1
 62
     7
100
AcDbLine
 10
383.457888
 20
684.53386
 30
0.0
 11
395.064888
 21
684.53386
 31
0.0
  0
LINE
  5
10087
102
{ACAD_REACTORS
330
100A2
330
100BA
102
}
330
1F
100
AcDbEntity
  8
Layer_1
 62
     7
100
AcDbLine
 10
395.064888
 20
684.53386
 30
0.0
 11
395.064888
 21
678.52386
 31
0.0
  0
LINE
  5
10088
102
{ACAD_REACTORS
330
100A2
102
}
330
1F
100
AcDbEntity
  8
Layer_1
 62
     7
100
AcDbLine
 10
395.064888
 20
678.52386
 30
0.0
 11
395.064888
 21
678.52386
 31
0.0
  0
LINE
  5
1008A
102
{ACAD_REACTORS
330
100A2
330
100BA
102
}
330
1F
100
AcDbEntity
  8
Layer_1
 62
     7
100
AcDbLine
 10
395.064888
 20
678.52386
 30
0.0
 11
383.457888
 21
678.52386
 31
0.0
  0
LINE
  5
1008B
102
{ACAD_REACTORS
330
100A2
330
100BA
102
}
330
1F
100
AcDbEntity
  8
Layer_1
 62
     7
100
AcDbLine
 10
383.457888
 20
678.52386
 30
0.0
 11
383.457888
 21
654.65786
 31
0.0
  0
LINE
  5
1008D
102
{ACAD_REACTORS
330
100A2
330
100BA
102
}
330
1F
100
AcDbEntity
  8
Layer_1
 62
     7
100
AcDbLine
 10
398.017888
 20
651.48086
 30
0.0
 11
396.919888
 21
644.18386
 31
0.0
  0
LINE
  5
1008E
102
{ACAD_REACTORS
330
100A2
330
100BA
102
}
330
1F
100
AcDbEntity
  8
Layer_1
 62
     7
100
AcDbLine
 10
396.919888
 20
644.18386
 30
0.0
 11
379.336888
 21
644.18386
 31
0.0
  0
LINE
  5
10090
102
{ACAD_REACTORS
330
100A2
330
100BA
102
}
330
1F
100
AcDbEntity
  8
Layer_1
 62
     7
100
AcDbLine
 10
400.488888
 20
677.66506
 30
0.0
 11
401.244888
 21
684.53306
 31
0.0
  0
LINE
  5
10091
102
{ACAD_REACTORS
330
100A2
330
100BA
102
}
330
1F
100
AcDbEntity
  8
Layer_1
 62
     7
100
AcDbLine
 10
401.244888
 20
684.53306
 30
0.0
 11
429.815888
 21
684.53306
 31
0.0
  0
LINE
  5
10093
102
{ACAD_REACTORS
330
100A2
330
100BA
102
}
330
1F
100
AcDbEntity
  8
Layer_1
 62
     7
100
AcDbLine
 10
425.968888
 20
653.45606
 30
0.0
 11
425.968888
 21
665.81806
 31
0.0
  0
LINE
  5
10094
102
{ACAD_REACTORS
330
100A2
330
100BA
102
}
330
1F
100
AcDbEntity
  8
Layer_1
 62
     7
100
AcDbLine
 10
425.968888
 20
665.81806
 30
0.0
 11
413.331888
 21
665.81806
 31
0.0
  0
LINE
  5
10095
102
{ACAD_REACTORS
330
100A2
102
}
330
1F
100
AcDbEntity
  8
Layer_1
 62
     7
100
AcDbLine
 10
413.331888
 20
665.81806
 30
0.0
 11
413.331888
 21
665.81806
 31
0.0
  0
LINE
  5
10097
102
{ACAD_REACTORS
330
100A2
330
100BA
102
}
330
1F
100
AcDbEntity
  8
Layer_1
 62
     7
100
AcDbLine
 10
438.606888
 20
644.18406
 30
0.0
 11
427.548888
 21
644.18406
 31
0.0
  0
LINE
  5
10098
102
{ACAD_REACTORS
330
100A2
330
100BA
102
}
330
1F
100
AcDbEntity
  8
Layer_1
 62
     7
100
AcDbLine
 10
427.548888
 20
644.18406
 30
0.0
 11
426.998888
 21
648.39006
 31
0.0
  0
LINE
  5
10099
102
{ACAD_REACTORS
330
100A2
330
100BA
102
}
330
1F
100
AcDbEntity
  8
Layer_1
 62
     7
100
AcDbLine
 10
426.998888
 20
648.39006
 30
0.0
 11
426.862888
 21
648.39006
 31
0.0
  0
LINE
  5
1009B
102
{ACAD_REACTORS
330
100A2
102
}
330
1F
100
AcDbEntity
  8
Layer_1
 62
     7
100
AcDbLine
 10
274.120088
 20
689.856364
 30
0.0
 11
274.120088
 21
684.533364
 31
0.0
  0
LINE
  5
1009C
102
{ACAD_REACTORS
330
100A2
330
100BA
102
}
330
1F
100
AcDbEntity
  8
Layer_1
 62
     7
100
AcDbLine
 10
274.120088
 20
684.533364
 30
0.0
 11
285.521088
 21
684.533364
 31
0.0
  0
LINE
  5
1009D
102
{ACAD_REACTORS
330
100A2
330
100BA
102
}
330
1F
100
AcDbEntity
  8
Layer_1
 62
     7
100
AcDbLine
 10
285.521088
 20
684.533364
 30
0.0
 11
285.521088
 21
678.523364
 31
0.0
  0
LINE
  5
1009E
102
{ACAD_REACTORS
330
100A2
330
100BA
102
}
330
1F
100
AcDbEntity
  8
Layer_1
 62
     7
100
AcDbLine
 10
285.521088
 20
678.523364
 30
0.0
 11
274.120088
 21
678.523364
 31
0.0
  0
LINE
  5
1009F
102
{ACAD_REACTORS
330
100A2
102
}
330
1F
100
AcDbEntity
  8
Layer_1
 62
     7
100
AcDbLine
 10
274.120088
 20
678.523364
 30
0.0
 11
274.120088
 21
653.284364
 31
0.0
  0
LINE
  5
100A0
102
{ACAD_REACTORS
330
100A2
330
100BA
102
}
330
1F
100
AcDbEntity
  8
Layer_1
 62
     7
100
AcDbLine
 10
274.120088
 20
653.284364
 30
0.0
 11
274.120088
 21
678.523364
 31
0.0
  0
LINE
  5
100A1
102
{ACAD_REACTORS
330
100A2
330
100BA
102
}
330
1F
100
AcDbEntity
  8
Layer_1
 62
     7
100
AcDbLine
 10
274.120088
 20
684.533364
 30
0.0
 11
274.120088
 21
689.856364
 31
0.0
  0
HATCH
  5
100BA
330
1F
100
AcDbEntity
  8
0
  6
ByBlock
100
AcDbHatch
 10
0.0
 20
0.0
 30
0.0
210
0.0
220
0.0
230
1.0
  2
ANSI31
 70
     0
 71
     1
 91
       14
 92
        5
 93
        4
 72
     4
 94
        3
 73
     0
 74
     0
 95
        8
 96
        4
 40
0.0
 40
0.0
 40
0.0
 40
0.0
 40
1.0
 40
1.0
 40
1.0
 40
1.0
 10
93.054288
 20
641.754564
 10
109.643288
 20
641.754564
 10
123.093288
 20
655.204564
 10
123.093288
 20
671.793564
 72
     4
 94
        3
 73
     0
 74
     0
 95
        8
 96
        4
 40
0.0
 40
0.0
 40
0.0
 40
0.0
 40
1.0
 40
1.0
 40
1.0
 40
1.0
 10
123.093288
 20
671.793564
 10
123.093288
 20
688.382564
 10
109.643288
 20
701.832564
 10
93.054288
 20
701.832564
 72
     4
 94
        3
 73
     0
 74
     0
 95
        8
 96
        4
 40
0.0
 40
0.0
 40
0.0
 40
0.0
 40
1.0
 40
1.0
 40
1.0
 40
1.0
 10
93.054288
 20
701.832564
 10
76.465288
 20
701.832564
 10
63.016288
 20
688.382564
 10
63.016288
 20
671.793564
 72
     4
 94
        3
 73
     0
 74
     0
 95
        8
 96
        4
 40
0.0
 40
0.0
 40
0.0
 40
0.0
 40
1.0
 40
1.0
 40
1.0
 40
1.0
 10
63.016288
 20
671.793564
 10
63.016288
 20
655.204564
 10
76.465288
 20
641.754564
 10
93.054288
 20
641.754564
 97
        4
330
16D
330
170
330
16F
330
16E
 92
        5
 93
       11
 72
     4
 94
        3
 73
     0
 74
     0
 95
        8
 96
        4
 40
0.0
 40
0.0
 40
0.0
 40
0.0
 40
1.0
 40
1.0
 40
1.0
 40
1.0
 10
170.969592
 20
663.585564
 10
178.112592
 20
663.585564
 10
181.545592
 20
667.019564
 10
181.545592
 20
674.832564
 72
     1
 10
181.545592
 20
674.832564
 11
181.545592
 21
687.8815640000001
 72
     4
 94
        3
 73
     0
 74
     0
 95
        8
 96
        4
 40
0.0
 40
0.0
 40
0.0
 40
0.0
 40
1.0
 40
1.0
 40
1.0
 40
1.0
 10
181.545592
 20
687.881564
 10
181.545592
 20
695.693564
 10
178.112592
 20
699.127564
 10
170.969592
 20
699.127564
 72
     1
 10
170.969592
 20
699.127564
 11
137.590592
 21
699.127564
 72
     4
 94
        3
 73
     0
 74
     0
 95
        8
 96
        4
 40
0.0
 40
0.0
 40
0.0
 40
0.0
 40
1.0
 40
1.0
 40
1.0
 40
1.0
 10
137.590592
 20
699.127564
 10
138.277592
 20
696.552564
 10
138.414592
 20
694.234564
 10
138.414592
 20
691.744564
 72
     1
 10
138.414592
 20
691.744564
 11
138.414592
 21
651.5665639999999
 72
     4
 94
        3
 73
     0
 74
     0
 95
        8
 96
        4
 40
0.0
 40
0.0
 40
0.0
 40
0.0
 40
1.0
 40
1.0
 40
1.0
 40
1.0
 10
138.414592
 20
651.566564
 10
138.414592
 20
649.077564
 10
138.277592
 20
646.759564
 10
137.590592
 20
644.183564
 72
     1
 10
137.590592
 20
644.183564
 11
152.150592
 21
644.183564
 72
     4
 94
        3
 73
     0
 74
     0
 95
        8
 96
        4
 40
0.0
 40
0.0
 40
0.0
 40
0.0
 40
1.0
 40
1.0
 40
1.0
 40
1.0
 10
152.150592
 20
644.183564
 10
151.464592
 20
646.759564
 10
151.326592
 20
649.077564
 10
151.326592
 20
651.566564
 72
     1
 10
151.326592
 20
651.566564
 11
151.326592
 21
663.585564
 72
     1
 10
151.326592
 20
663.585564
 11
170.969592
 21
663.585564
 97
       11
330
10C
330
10D
330
10A
330
10B
330
108
330
109
330
106
330
107
330
104
330
1004D
330
1004C
 92
        5
 93
       13
 72
     1
 10
223.577688
 20
660.66666
 11
223.577688
 21
673.71566
 72
     4
 94
        3
 73
     0
 74
     0
 95
        8
 96
        4
 40
0.0
 40
0.0
 40
0.0
 40
0.0
 40
1.0
 40
1.0
 40
1.0
 40
1.0
 10
223.577688
 20
673.71566
 10
223.577688
 20
681.18466
 10
220.968688
 20
684.53366
 10
215.473688
 20
684.53366
 72
     1
 10
215.473688
 20
684.53366
 11
193.083688
 21
684.53366
 72
     4
 94
        3
 73
     0
 74
     0
 95
        8
 96
        4
 40
0.0
 40
0.0
 40
0.0
 40
0.0
 40
1.0
 40
1.0
 40
1.0
 40
1.0
 10
193.083688
 20
684.53366
 10
187.589688
 20
684.53366
 10
184.979688
 20
681.18466
 10
184.979688
 20
673.71566
 72
     1
 10
184.979688
 20
673.71566
 11
184.979688
 21
655.0006599999999
 72
     4
 94
        3
 73
     0
 74
     0
 95
        8
 96
        4
 40
0.0
 40
0.0
 40
0.0
 40
0.0
 40
1.0
 40
1.0
 40
1.0
 40
1.0
 10
184.979688
 20
655.00066
 10
184.979688
 20
647.53166
 10
187.589688
 20
644.18366
 10
193.083688
 20
644.18366
 72
     1
 10
193.083688
 20
644.1836599999999
 11
222.616688
 21
644.18366
 72
     1
 10
222.616688
 20
644.18366
 11
223.577688
 21
651.0516599999999
 72
     4
 94
        3
 73
     0
 74
     0
 95
        8
 96
        4
 40
0.0
 40
0.0
 40
0.0
 40
0.0
 40
1.0
 40
1.0
 40
1.0
 40
1.0
 10
223.577688
 20
651.05166
 10
222.135688
 20
650.70866
 10
220.830688
 20
650.53666
 10
219.800688
 20
650.53666
 72
     1
 10
219.800688
 20
650.5366599999999
 11
198.990688
 21
650.5366599999999
 72
     4
 94
        3
 73
     0
 74
     0
 95
        8
 96
        4
 40
0.0
 40
0.0
 40
0.0
 40
0.0
 40
1.0
 40
1.0
 40
1.0
 40
1.0
 10
198.990688
 20
650.53666
 10
197.410688
 20
650.53666
 10
196.929688
 20
651.30966
 10
196.929688
 20
653.45566
 72
     1
 10
196.929688
 20
653.4556599999999
 11
196.929688
 21
660.66666
 72
     1
 10
196.929688
 20
660.66666
 11
223.577688
 21
660.66666
 97
       13
330
10054
330
11C
330
11D
330
11A
330
11B
330
118
330
10059
330
10058
330
116
330
117
330
114
330
115
330
10055
 92
        5
 93
       15
 72
     1
 10
241.296488
 20
653.28366
 11
241.296488
 21
674.31666
 72
     4
 94
        3
 73
     0
 74
     0
 95
        8
 96
        4
 40
0.0
 40
0.0
 40
0.0
 40
0.0
 40
1.0
 40
1.0
 40
1.0
 40
1.0
 10
241.296488
 20
674.31666
 10
241.296488
 20
675.69066
 10
242.052488
 20
676.46266
 10
243.356488
 20
676.46266
 72
     1
 10
243.3564879999999
 20
676.46266
 11
246.995488
 21
676.46266
 72
     4
 94
        3
 73
     0
 74
     0
 95
        8
 96
        4
 40
0.0
 40
0.0
 40
0.0
 40
0.0
 40
1.0
 40
1.0
 40
1.0
 40
1.0
 10
246.995488
 20
676.46266
 10
251.596488
 20
676.46266
 10
251.249488
 20
676.11966
 10
253.378488
 20
675.60466
 72
     1
 10
253.378488
 20
675.60466
 11
253.378488
 21
684.53366
 72
     1
 10
253.378488
 20
684.53366
 11
246.310488
 21
684.53366
 72
     4
 94
        3
 73
     0
 74
     0
 95
        8
 96
        4
 40
0.0
 40
0.0
 40
0.0
 40
0.0
 40
1.0
 40
1.0
 40
1.0
 40
1.0
 10
246.310488
 20
684.53366
 10
242.601488
 20
684.53366
 10
241.089488
 20
683.41666
 10
240.747488
 20
680.15466
 72
     1
 10
240.747488
 20
680.1546599999999
 11
240.609488
 21
680.1546599999999
 72
     1
 10
240.609488
 20
680.1546599999999
 11
240.128488
 21
684.53366
 72
     1
 10
240.128488
 20
684.53366
 11
228.659488
 21
684.53366
 72
     4
 94
        3
 73
     0
 74
     0
 95
        8
 96
        4
 40
0.0
 40
0.0
 40
0.0
 40
0.0
 40
1.0
 40
1.0
 40
1.0
 40
1.0
 10
228.659488
 20
684.53366
 10
229.071488
 20
682.64466
 10
229.345488
 20
680.24066
 10
229.345488
 20
675.43266
 72
     1
 10
229.345488
 20
675.43266
 11
229.345488
 21
653.28366
 72
     4
 94
        3
 73
     0
 74
     0
 95
        8
 96
        4
 40
0.0
 40
0.0
 40
0.0
 40
0.0
 40
1.0
 40
1.0
 40
1.0
 40
1.0
 10
229.345488
 20
653.28366
 10
229.345488
 20
648.47566
 10
229.071488
 20
646.07266
 10
228.659488
 20
644.18366
 72
     1
 10
228.659488
 20
644.1836599999999
 11
241.983488
 21
644.1836599999998
 72
     4
 94
        3
 73
     0
 74
     0
 95
        8
 96
        4
 40
0.0
 40
0.0
 40
0.0
 40
0.0
 40
1.0
 40
1.0
 40
1.0
 40
1.0
 10
241.983488
 20
644.18366
 10
241.571488
 20
646.07266
 10
241.296488
 20
648.47566
 10
241.296488
 20
653.28366
 97
       15
330
123
330
120
330
121
330
11E
330
10060
330
1005F
330
128
330
1005D
330
1005C
330
1005B
330
126
330
127
330
124
330
125
330
122
 92
        5
 93
       19
 72
     1
 10
285.521088
 20
678.523364
 11
285.521088
 21
684.533364
 72
     1
 10
285.521088
 20
684.533364
 11
274.120088
 21
684.533364
 72
     1
 10
274.120088
 20
684.533364
 11
274.120088
 21
689.856364
 72
     4
 94
        3
 73
     0
 74
     0
 95
        8
 96
        4
 40
0.0
 40
0.0
 40
0.0
 40
0.0
 40
1.0
 40
1.0
 40
1.0
 40
1.0
 10
274.120088
 20
689.856364
 10
274.120088
 20
692.002364
 10
274.601088
 20
692.774364
 10
276.180088
 20
692.774364
 72
     1
 10
276.180088
 20
692.774364
 11
284.628088
 21
692.774364
 72
     4
 94
        3
 73
     0
 74
     0
 95
        8
 96
        4
 40
0.0
 40
0.0
 40
0.0
 40
0.0
 40
1.0
 40
1.0
 40
1.0
 40
1.0
 10
284.628088
 20
692.774364
 10
285.658088
 20
692.774364
 10
286.963088
 20
692.603364
 10
288.405088
 20
692.259364
 72
     1
 10
288.405088
 20
692.259364
 11
287.444088
 21
699.127364
 72
     1
 10
287.444088
 20
699.127364
 11
270.274088
 21
699.127364
 72
     4
 94
        3
 73
     0
 74
     0
 95
        8
 96
        4
 40
0.0
 40
0.0
 40
0.0
 40
0.0
 40
1.0
 40
1.0
 40
1.0
 40
1.0
 10
270.274088
 20
699.127364
 10
264.779088
 20
699.127364
 10
262.170088
 20
695.779364
 10
262.170088
 20
688.310364
 72
     1
 10
262.170088
 20
688.310364
 11
262.170088
 21
684.533364
 72
     1
 10
262.170088
 20
684.533364
 11
255.714088
 21
684.533364
 72
     1
 10
255.714088
 20
684.533364
 11
255.714088
 21
678.5233639999999
 72
     1
 10
255.714088
 20
678.5233639999999
 11
262.170088
 21
678.5233639999999
 72
     1
 10
262.170088
 20
678.5233639999999
 11
262.170088
 21
653.2843639999999
 72
     4
 94
        3
 73
     0
 74
     0
 95
        8
 96
        4
 40
0.0
 40
0.0
 40
0.0
 40
0.0
 40
1.0
 40
1.0
 40
1.0
 40
1.0
 10
262.170088
 20
653.284364
 10
262.170088
 20
648.476364
 10
261.895088
 20
646.072364
 10
261.482088
 20
644.183364
 72
     1
 10
261.4820879999999
 20
644.183364
 11
274.8060879999999
 21
644.183364
 72
     4
 94
        3
 73
     0
 74
     0
 95
        8
 96
        4
 40
0.0
 40
0.0
 40
0.0
 40
0.0
 40
1.0
 40
1.0
 40
1.0
 40
1.0
 10
274.806088
 20
644.183364
 10
274.394088
 20
646.072364
 10
274.120088
 20
648.476364
 10
274.120088
 20
653.284364
 72
     1
 10
274.120088
 20
653.2843639999999
 11
274.120088
 21
678.523364
 72
     1
 10
274.120088
 20
678.523364
 11
285.521088
 21
678.523364
 97
       19
330
1009D
330
1009C
330
100A1
330
12F
330
130
330
12D
330
1006C
330
1006B
330
12B
330
10069
330
10068
330
10065
330
10064
330
10063
330
133
330
134
330
131
330
100A0
330
1009E
 92
        5
 93
       13
 72
     1
 10
326.179888
 20
660.66666
 11
326.179888
 21
673.71566
 72
     4
 94
        3
 73
     0
 74
     0
 95
        8
 96
        4
 40
0.0
 40
0.0
 40
0.0
 40
0.0
 40
1.0
 40
1.0
 40
1.0
 40
1.0
 10
326.179888
 20
673.71566
 10
326.179888
 20
681.18466
 10
323.569888
 20
684.53366
 10
318.074888
 20
684.53366
 72
     1
 10
318.074888
 20
684.53366
 11
295.685888
 21
684.53366
 72
     4
 94
        3
 73
     0
 74
     0
 95
        8
 96
        4
 40
0.0
 40
0.0
 40
0.0
 40
0.0
 40
1.0
 40
1.0
 40
1.0
 40
1.0
 10
295.685888
 20
684.53366
 10
290.189888
 20
684.53366
 10
287.580888
 20
681.18466
 10
287.580888
 20
673.71566
 72
     1
 10
287.580888
 20
673.71566
 11
287.580888
 21
655.0006599999998
 72
     4
 94
        3
 73
     0
 74
     0
 95
        8
 96
        4
 40
0.0
 40
0.0
 40
0.0
 40
0.0
 40
1.0
 40
1.0
 40
1.0
 40
1.0
 10
287.580888
 20
655.00066
 10
287.580888
 20
647.53166
 10
290.189888
 20
644.18366
 10
295.685888
 20
644.18366
 72
     1
 10
295.685888
 20
644.1836599999999
 11
325.216888
 21
644.18366
 72
     1
 10
325.216888
 20
644.18366
 11
326.179888
 21
651.0516599999999
 72
     4
 94
        3
 73
     0
 74
     0
 95
        8
 96
        4
 40
0.0
 40
0.0
 40
0.0
 40
0.0
 40
1.0
 40
1.0
 40
1.0
 40
1.0
 10
326.179888
 20
651.05166
 10
324.736888
 20
650.70866
 10
323.431888
 20
650.53666
 10
322.401888
 20
650.53666
 72
     1
 10
322.4018879999999
 20
650.5366599999999
 11
301.591888
 21
650.5366599999999
 72
     4
 94
        3
 73
     0
 74
     0
 95
        8
 96
        4
 40
0.0
 40
0.0
 40
0.0
 40
0.0
 40
1.0
 40
1.0
 40
1.0
 40
1.0
 10
301.591888
 20
650.53666
 10
300.012888
 20
650.53666
 10
299.530888
 20
651.30966
 10
299.530888
 20
653.45566
 72
     1
 10
299.530888
 20
653.4556599999997
 11
299.530888
 21
660.66666
 72
     1
 10
299.530888
 20
660.66666
 11
326.179888
 21
660.66666
 97
       13
330
10072
330
143
330
144
330
141
330
142
330
13F
330
10077
330
10076
330
13D
330
13E
330
13B
330
13C
330
10073
 92
        5
 93
       14
 72
     1
 10
342.7987919999999
 20
653.455164
 11
342.7987919999999
 21
675.2611639999999
 72
     4
 94
        3
 73
     0
 74
     0
 95
        8
 96
        4
 40
0.0
 40
0.0
 40
0.0
 40
0.0
 40
1.0
 40
1.0
 40
1.0
 40
1.0
 10
342.798792
 20
675.261164
 10
342.798792
 20
677.407164
 10
343.280792
 20
678.180164
 10
344.858792
 20
678.180164
 72
     1
 10
344.858792
 20
678.1801640000001
 11
360.104792
 21
678.180164
 72
     4
 94
        3
 73
     0
 74
     0
 95
        8
 96
        4
 40
0.0
 40
0.0
 40
0.0
 40
0.0
 40
1.0
 40
1.0
 40
1.0
 40
1.0
 10
360.104792
 20
678.180164
 10
361.134792
 20
678.180164
 10
361.543792
 20
678.008164
 10
362.987792
 20
677.665164
 72
     1
 10
362.987792
 20
677.665164
 11
362.024792
 21
684.533164
 72
     1
 10
362.024792
 20
684.533164
 11
338.9527919999999
 21
684.533164
 72
     4
 94
        3
 73
     0
 74
     0
 95
        8
 96
        4
 40
0.0
 40
0.0
 40
0.0
 40
0.0
 40
1.0
 40
1.0
 40
1.0
 40
1.0
 10
338.952792
 20
684.533164
 10
333.457792
 20
684.533164
 10
330.847792
 20
681.185164
 10
330.847792
 20
673.716164
 72
     1
 10
330.847792
 20
673.716164
 11
330.847792
 21
655.000164
 72
     4
 94
        3
 73
     0
 74
     0
 95
        8
 96
        4
 40
0.0
 40
0.0
 40
0.0
 40
0.0
 40
1.0
 40
1.0
 40
1.0
 40
1.0
 10
330.847792
 20
655.000164
 10
330.847792
 20
647.532164
 10
333.457792
 20
644.184164
 10
338.952792
 20
644.184164
 72
     1
 10
338.9527919999999
 20
644.184164
 11
363.814792
 21
644.184164
 72
     1
 10
363.814792
 20
644.184164
 11
364.777792
 21
651.051164
 72
     4
 94
        3
 73
     0
 74
     0
 95
        8
 96
        4
 40
0.0
 40
0.0
 40
0.0
 40
0.0
 40
1.0
 40
1.0
 40
1.0
 40
1.0
 10
364.777792
 20
651.051164
 10
363.333792
 20
650.708164
 10
362.029792
 20
650.537164
 10
360.999792
 20
650.537164
 72
     1
 10
360.999792
 20
650.537164
 11
344.858792
 21
650.537164
 72
     4
 94
        3
 73
     0
 74
     0
 95
        8
 96
        4
 40
0.0
 40
0.0
 40
0.0
 40
0.0
 40
1.0
 40
1.0
 40
1.0
 40
1.0
 10
344.858792
 20
650.537164
 10
343.280792
 20
650.537164
 10
342.798792
 20
651.309164
 10
342.798792
 20
653.455164
 97
       14
330
148
330
145
330
151
330
14F
330
1007A
330
10079
330
14D
330
14E
330
14B
330
1007D
330
1007C
330
149
330
14A
330
147
 92
        5
 93
       17
 72
     1
 10
383.457888
 20
654.65786
 11
383.457888
 21
678.52386
 72
     1
 10
383.457888
 20
678.52386
 11
395.064888
 21
678.52386
 72
     1
 10
395.064888
 20
678.52386
 11
395.064888
 21
684.53386
 72
     1
 10
395.064888
 20
684.53386
 11
383.457888
 21
684.53386
 72
     1
 10
383.457888
 20
684.53386
 11
383.457888
 21
694.74886
 72
     1
 10
383.457888
 20
694.74886
 11
371.506888
 21
692.77486
 72
     1
 10
371.506888
 20
692.77486
 11
371.506888
 21
684.53386
 72
     1
 10
371.506888
 20
684.53386
 11
365.257888
 21
684.53386
 72
     1
 10
365.257888
 20
684.53386
 11
365.257888
 21
678.52386
 72
     1
 10
365.257888
 20
678.52386
 11
371.506888
 21
678.52386
 72
     1
 10
371.506888
 20
678.52386
 11
371.506888
 21
655.60186
 72
     4
 94
        3
 73
     0
 74
     0
 95
        8
 96
        4
 40
0.0
 40
0.0
 40
0.0
 40
0.0
 40
1.0
 40
1.0
 40
1.0
 40
1.0
 10
371.506888
 20
655.60186
 10
371.506888
 20
647.70386
 10
374.528888
 20
644.18386
 10
379.336888
 20
644.18386
 72
     1
 10
379.336888
 20
644.1838599999999
 11
396.919888
 21
644.1838599999999
 72
     1
 10
396.919888
 20
644.1838599999999
 11
398.017888
 21
651.4808599999999
 72
     4
 94
        3
 73
     0
 74
     0
 95
        8
 96
        4
 40
0.0
 40
0.0
 40
0.0
 40
0.0
 40
1.0
 40
1.0
 40
1.0
 40
1.0
 10
398.017888
 20
651.48086
 10
397.330888
 20
650.96586
 10
394.652888
 20
650.53686
 10
391.286888
 20
650.53686
 72
     1
 10
391.286888
 20
650.53686
 11
386.4108879999999
 21
650.5368599999999
 72
     4
 94
        3
 73
     0
 74
     0
 95
        8
 96
        4
 40
0.0
 40
0.0
 40
0.0
 40
0.0
 40
1.0
 40
1.0
 40
1.0
 40
1.0
 10
386.410888
 20
650.53686
 10
384.281888
 20
650.53686
 10
383.457888
 20
651.30886
 10
383.457888
 20
654.65786
 97
       17
330
1008B
330
1008A
330
10087
330
10086
330
10085
330
10084
330
10083
330
10082
330
10081
330
10080
330
1007F
330
156
330
1008E
330
1008D
330
154
330
155
330
152
 92
        5
 93
       18
 72
     1
 10
437.919888
 20
653.28406
 11
437.919888
 21
673.7160599999999
 72
     4
 94
        3
 73
     0
 74
     0
 95
        8
 96
        4
 40
0.0
 40
0.0
 40
0.0
 40
0.0
 40
1.0
 40
1.0
 40
1.0
 40
1.0
 10
437.919888
 20
673.71606
 10
437.919888
 20
681.18506
 10
435.309888
 20
684.53306
 10
429.815888
 20
684.53306
 72
     1
 10
429.815888
 20
684.53306
 11
401.244888
 21
684.53306
 72
     1
 10
401.244888
 20
684.53306
 11
400.488888
 21
677.66506
 72
     4
 94
        3
 73
     0
 74
     0
 95
        8
 96
        4
 40
0.0
 40
0.0
 40
0.0
 40
0.0
 40
1.0
 40
1.0
 40
1.0
 40
1.0
 10
400.488888
 20
677.66506
 10
403.029888
 20
678.43806
 10
404.266888
 20
678.52406
 10
406.257888
 20
678.52406
 72
     1
 10
406.257888
 20
678.5240599999998
 11
424.252888
 21
678.5240599999998
 72
     4
 94
        3
 73
     0
 74
     0
 95
        8
 96
        4
 40
0.0
 40
0.0
 40
0.0
 40
0.0
 40
1.0
 40
1.0
 40
1.0
 40
1.0
 10
424.252888
 20
678.52406
 10
425.351888
 20
678.52406
 10
425.968888
 20
678.00906
 10
425.968888
 20
676.63506
 72
     1
 10
425.9688879999999
 20
676.6350599999997
 11
425.9688879999999
 21
674.05906
 72
     4
 94
        3
 73
     0
 74
     0
 95
        8
 96
        4
 40
0.0
 40
0.0
 40
0.0
 40
0.0
 40
1.0
 40
1.0
 40
1.0
 40
1.0
 10
425.968888
 20
674.05906
 10
425.968888
 20
672.68606
 10
425.351888
 20
672.17106
 10
424.252888
 20
672.17106
 72
     1
 10
424.252888
 20
672.1710599999998
 11
407.425888
 21
672.17106
 72
     4
 94
        3
 73
     0
 74
     0
 95
        8
 96
        4
 40
0.0
 40
0.0
 40
0.0
 40
0.0
 40
1.0
 40
1.0
 40
1.0
 40
1.0
 10
407.425888
 20
672.17106
 10
401.793888
 20
672.17106
 10
399.320888
 20
669.25206
 10
399.320888
 20
658.17706
 72
     4
 94
        3
 73
     0
 74
     0
 95
        8
 96
        4
 40
0.0
 40
0.0
 40
0.0
 40
0.0
 40
1.0
 40
1.0
 40
1.0
 40
1.0
 10
399.320888
 20
658.17706
 10
399.320888
 20
647.10206
 10
401.793888
 20
644.18406
 10
407.425888
 20
644.18406
 72
     1
 10
407.4258879999999
 20
644.1840599999999
 11
422.260888
 21
644.18406
 72
     4
 94
        3
 73
     0
 74
     0
 95
        8
 96
        4
 40
0.0
 40
0.0
 40
0.0
 40
0.0
 40
1.0
 40
1.0
 40
1.0
 40
1.0
 10
422.260888
 20
644.18406
 10
424.664888
 20
644.18406
 10
425.832888
 20
645.12806
 10
426.862888
 20
648.39006
 72
     1
 10
426.862888
 20
648.39006
 11
426.998888
 21
648.39006
 72
     1
 10
426.998888
 20
648.39006
 11
427.548888
 21
644.18406
 72
     1
 10
427.548888
 20
644.18406
 11
438.606888
 21
644.18406
 72
     4
 94
        3
 73
     0
 74
     0
 95
        8
 96
        4
 40
0.0
 40
0.0
 40
0.0
 40
0.0
 40
1.0
 40
1.0
 40
1.0
 40
1.0
 10
438.606888
 20
644.18406
 10
438.194888
 20
646.07206
 10
437.919888
 20
648.47606
 10
437.919888
 20
653.28406
 97
       18
330
171
330
16B
330
10091
330
10090
330
169
330
16A
330
167
330
168
330
165
330
166
330
163
330
162
330
164
330
160
330
10099
330
10098
330
10097
330
15E
 92
       22
 72
     0
 73
     1
 93
        3
 10
80.231088
 20
695.36726
 10
118.359088
 20
672.01126
 10
80.249088
 20
648.13726
 97
        1
330
172
 92
       20
 93
        6
 72
     1
 10
151.326592
 20
692.087564
 11
165.680592
 21
692.087564
 72
     4
 94
        3
 73
     0
 74
     0
 95
        8
 96
        4
 40
0.0
 40
0.0
 40
0.0
 40
0.0
 40
1.0
 40
1.0
 40
1.0
 40
1.0
 10
165.680592
 20
692.087564
 10
168.359592
 20
692.087564
 10
169.046592
 20
691.057564
 10
169.046592
 20
687.022564
 72
     1
 10
169.046592
 20
687.022564
 11
169.046592
 21
675.6045640000001
 72
     4
 94
        3
 73
     0
 74
     0
 95
        8
 96
        4
 40
0.0
 40
0.0
 40
0.0
 40
0.0
 40
1.0
 40
1.0
 40
1.0
 40
1.0
 10
169.046592
 20
675.604564
 10
169.046592
 20
671.569564
 10
168.359592
 20
670.625564
 10
165.680592
 20
670.625564
 72
     1
 10
165.680592
 20
670.625564
 11
151.326592
 21
670.625564
 72
     1
 10
151.326592
 20
670.625564
 11
151.326592
 21
692.087564
 97
        6
330
10048
330
102
330
103
330
100
330
101
330
10049
 92
       20
 93
        6
 72
     1
 10
196.929688
 20
667.01966
 11
196.929688
 21
675.26166
 72
     4
 94
        3
 73
     0
 74
     0
 95
        8
 96
        4
 40
0.0
 40
0.0
 40
0.0
 40
0.0
 40
1.0
 40
1.0
 40
1.0
 40
1.0
 10
196.929688
 20
675.26166
 10
196.929688
 20
677.40766
 10
197.410688
 20
678.18066
 10
198.990688
 20
678.18066
 72
     1
 10
198.990688
 20
678.18066
 11
209.566688
 21
678.18066
 72
     4
 94
        3
 73
     0
 74
     0
 95
        8
 96
        4
 40
0.0
 40
0.0
 40
0.0
 40
0.0
 40
1.0
 40
1.0
 40
1.0
 40
1.0
 10
209.566688
 20
678.18066
 10
211.146688
 20
678.18066
 10
211.627688
 20
677.40766
 10
211.627688
 20
675.26166
 72
     1
 10
211.627688
 20
675.2616599999999
 11
211.627688
 21
667.01966
 72
     1
 10
211.627688
 20
667.01966
 11
196.929688
 21
667.01966
 97
        6
330
10050
330
111
330
112
330
10F
330
110
330
10051
 92
       20
 93
        6
 72
     1
 10
299.530888
 20
667.01966
 11
299.530888
 21
675.26166
 72
     4
 94
        3
 73
     0
 74
     0
 95
        8
 96
        4
 40
0.0
 40
0.0
 40
0.0
 40
0.0
 40
1.0
 40
1.0
 40
1.0
 40
1.0
 10
299.530888
 20
675.26166
 10
299.530888
 20
677.40766
 10
300.012888
 20
678.18066
 10
301.591888
 20
678.18066
 72
     1
 10
301.591888
 20
678.18066
 11
312.1688879999999
 21
678.18066
 72
     4
 94
        3
 73
     0
 74
     0
 95
        8
 96
        4
 40
0.0
 40
0.0
 40
0.0
 40
0.0
 40
1.0
 40
1.0
 40
1.0
 40
1.0
 10
312.168888
 20
678.18066
 10
313.747888
 20
678.18066
 10
314.228888
 20
677.40766
 10
314.228888
 20
675.26166
 72
     1
 10
314.228888
 20
675.2616599999999
 11
314.2288879999999
 21
667.01966
 72
     1
 10
314.2288879999999
 20
667.01966
 11
299.530888
 21
667.01966
 97
        6
330
1006E
330
138
330
139
330
136
330
137
330
1006F
 92
       20
 93
        7
 72
     4
 94
        3
 73
     0
 74
     0
 95
        8
 96
        4
 40
0.0
 40
0.0
 40
0.0
 40
0.0
 40
1.0
 40
1.0
 40
1.0
 40
1.0
 10
411.272888
 20
662.89906
 10
411.272888
 20
665.04506
 10
411.752888
 20
665.81806
 10
413.331888
 20
665.81806
 72
     1
 10
413.331888
 20
665.8180599999998
 11
425.968888
 21
665.81806
 72
     1
 10
425.968888
 20
665.81806
 11
425.968888
 21
653.45606
 72
     4
 94
        3
 73
     0
 74
     0
 95
        8
 96
        4
 40
0.0
 40
0.0
 40
0.0
 40
0.0
 40
1.0
 40
1.0
 40
1.0
 40
1.0
 10
425.968888
 20
653.45606
 10
425.968888
 20
651.30906
 10
425.488888
 20
650.53706
 10
423.908888
 20
650.53706
 72
     1
 10
423.9088879999999
 20
650.5370599999998
 11
413.3318879999999
 21
650.53706
 72
     4
 94
        3
 73
     0
 74
     0
 95
        8
 96
        4
 40
0.0
 40
0.0
 40
0.0
 40
0.0
 40
1.0
 40
1.0
 40
1.0
 40
1.0
 10
413.331888
 20
650.53706
 10
411.752888
 20
650.53706
 10
411.272888
 20
651.30906
 10
411.272888
 20
653.45606
 72
     1
 10
411.272888
 20
653.4560599999999
 11
411.272888
 21
662.8990599999998
 97
        7
330
158
330
10094
330
10093
330
15C
330
15D
330
15A
330
15B
 75
     0
 76
     1
 52
0.0
 41
0.5
 77
     0
 78
     1
 53
45.0
 43
0.0
 44
0.0
 45
-1.122532015133644
 46
1.122532015133644
 79
     0
 47
0.0
 98
       14
 10
103.2661923801342
 20
656.1629561618861
 10
144.6408590468008
 20
668.5216228285528
 10
188.1648590468009
 20
663.6856228285528
 10
236.5248590468009
 20
671.2082894952194
 10
266.6155257134675
 20
681.4176228285528
 10
296.5127523801341
 20
663.8790628285527
 10
339.7057550468008
 20
664.4292921618861
 10
379.0471523801342
 20
670.7569294952194
 10
412.8862563801342
 20
670.4818148285527
 10
103.2661923801342
 20
656.1629561618861
 10
144.6408590468008
 20
668.5216228285528
 10
188.1648590468009
 20
663.6856228285528
 10
296.5127523801341
 20
663.8790628285527
 10
412.8862563801342
 20
670.4818148285527
1001
ACAD
1010
0.0
1020
0.0
1030
0.0
  0
ENDSEC
  0
SECTION
  2
OBJECTS
  0
DICTIONARY
  5
C
330
0
100
AcDbDictionary
281
     1
  3
ACAD_DETAILVIEWSTYLE
350
100A9
  3
ACAD_GROUP
350
D
  3
ACAD_IMAGE_VARS
350
10047
  3
ACAD_LAYOUT
350
10021
  3
ACAD_MATERIAL
350
1003D
  3
ACAD_MLEADERSTYLE
350
10043
  3
ACAD_MLINESTYLE
350
17
  3
ACAD_SCALELIST
350
FFFF
  3
ACAD_SECTIONVIEWSTYLE
350
100AA
  3
ACAD_TABLESTYLE
350
10041
  3
ACAD_VISUALSTYLE
350
10024
  3
ACDB_RECOMPOSE_DATA
350
100BD
  3
AcDbVariableDictionary
350
100A4
  3
APPDATA
350
10045
  0
SUN
  5
10046
330
2E
100
AcDbSun
 90
        1
290
     0
 63
     7
421
 16777215
 40
1.0
291
     1
 91
  2455826
 92
 54000000
292
     0
 70
     2
 71
   256
280
     1
  0
DICTIONARY
  5
100A9
102
{ACAD_REACTORS
330
C
102
}
330
C
100
AcDbDictionary
281
     1
  0
DICTIONARY
  5
D
330
C
100
AcDbDictionary
281
     1
  3
*A1
350
100A2
  0
RASTERVARIABLES
  5
10047
102
{ACAD_REACTORS
330
C
102
}
330
C
100
AcDbRasterVariables
 90
        0
 70
     1
 71
     1
 72
     0
  0
DICTIONARY
  5
10021
102
{ACAD_REACTORS
330
C
102
}
330
C
100
AcDbDictionary
281
     1
  3
Model
350
10022
  3
Sheet 1
350
10023
  0
DICTIONARY
  5
1003D
102
{ACAD_REACTORS
330
C
102
}
330
C
100
AcDbDictionary
281
     1
  3
ByBlock
350
1003F
  3
ByLayer
350
1003E
  3
Global
350
10040
  0
DICTIONARY
  5
10043
102
{ACAD_REACTORS
330
C
102
}
330
C
100
AcDbDictionary
281
     1
  3
Standard
350
10044
  0
DICTIONARY
  5
17
330
C
100
AcDbDictionary
281
     1
  3
Standard
350
100B3
  0
DICTIONARY
  5
FFFF
102
{ACAD_REACTORS
330
C
102
}
330
C
100
AcDbDictionary
281
     1
  3
A0
350
10000
  3
A1
350
10001
  3
A2
350
10002
  3
A3
350
10003
  3
A4
350
10004
  3
A5
350
10005
  3
A6
350
10006
  3
A7
350
10007
  3
A8
350
10008
  3
A9
350
10009
  3
B0
350
1000A
  3
B1
350
1000B
  3
B2
350
1000C
  3
B3
350
1000D
  3
B4
350
1000E
  3
B5
350
1000F
  3
B6
350
10010
  3
B7
350
10011
  3
B8
350
10012
  3
B9
350
10013
  3
C0
350
10014
  3
C1
350
10015
  3
C2
350
10016
  3
C3
350
10017
  3
C4
350
10018
  3
C5
350
10019
  3
C6
350
1001A
  3
C7
350
1001B
  3
C8
350
1001C
  3
C9
350
1001D
  3
D0
350
1001E
  3
D1
350
1001F
  3
D2
350
10020
  0
DICTIONARY
  5
100AA
102
{ACAD_REACTORS
330
C
102
}
330
C
100
AcDbDictionary
281
     1
  0
DICTIONARY
  5
10041
102
{ACAD_REACTORS
330
C
102
}
330
C
100
AcDbDictionary
281
     1
  3
Standard
350
10042
  0
DICTIONARY
  5
10024
102
{ACAD_REACTORS
330
C
102
}
330
C
100
AcDbDictionary
281
     1
  3
2dWireframe
350
10029
  3
Basic
350
1002C
  3
Brighten
350
10030
  3
ColorChange
350
10034
  3
Conceptual
350
1002E
  3
Dim
350
1002F
  3
EdgeColorOff
350
10037
  3
Facepattern
350
10033
  3
Flat
350
10025
  3
FlatWithEdges
350
10026
  3
Gouraud
350
10027
  3
GouraudWithEdges
350
10028
  3
Hidden
350
1002B
  3
JitterOff
350
10035
  3
Linepattern
350
10032
  3
OverhangOff
350
10036
  3
Realistic
350
1002D
  3
Shaded
350
1003C
  3
Shaded with edges
350
1003B
  3
Shades of Gray
350
10038
  3
Sketchy
350
10039
  3
Thicken
350
10031
  3
Wireframe
350
1002A
  3
X-Ray
350
1003A
  0
XRECORD
  5
100BD
102
{ACAD_REACTORS
330
C
102
}
330
C
100
AcDbXrecord
280
     1
 90
        1
330
10042
  0
DICTIONARY
  5
100A4
102
{ACAD_REACTORS
330
C
102
}
330
C
100
AcDbDictionary
281
     1
  3
CANNOSCALE
350
100A5
  3
CMLEADERSTYLE
350
100A7
  3
CTABLESTYLE
350
100A6
  3
MSLTSCALE
350
100A8
  3
XCLIPFRAME
350
100B4
  0
DICTIONARY
  5
10045
102
{ACAD_REACTORS
330
C
102
}
330
C
100
AcDbDictionary
281
     1
  0
GROUP
  5
100A2
102
{ACAD_REACTORS
330
D
102
}
330
D
100
AcDbGroup
300

 70
     1
 71
     1
340
100
340
101
340
102
340
103
340
104
340
106
340
107
340
108
340
109
340
10A
340
10B
340
10C
340
10D
340
10F
340
110
340
111
340
112
340
114
340
115
340
116
340
117
340
118
340
11A
340
11B
340
11C
340
11D
340
11E
340
120
340
121
340
122
340
123
340
124
340
125
340
126
340
127
340
128
340
12B
340
12D
340
12F
340
130
340
131
340
133
340
134
340
136
340
137
340
138
340
139
340
13B
340
13C
340
13D
340
13E
340
13F
340
141
340
142
340
143
340
144
340
145
340
147
340
148
340
149
340
14A
340
14B
340
14D
340
14E
340
14F
340
151
340
152
340
154
340
155
340
156
340
158
340
15A
340
15B
340
15C
340
15D
340
15E
340
160
340
162
340
163
340
164
340
165
340
166
340
167
340
168
340
169
340
16A
340
16B
340
16D
340
16E
340
16F
340
170
340
171
340
172
340
10048
340
10049
340
1004A
340
1004C
340
1004D
340
1004E
340
10050
340
10051
340
10052
340
10054
340
10055
340
10056
340
10058
340
10059
340
1005B
340
1005C
340
1005D
340
1005F
340
10060
340
10061
340
10063
340
10064
340
10065
340
10066
340
10068
340
10069
340
1006B
340
1006C
340
1006E
340
1006F
340
10070
340
10072
340
10073
340
10074
340
10076
340
10077
340
10079
340
1007A
340
1007C
340
1007D
340
1007F
340
10080
340
10081
340
10082
340
10083
340
10084
340
10085
340
10086
340
10087
340
10088
340
1008A
340
1008B
340
1008D
340
1008E
340
10090
340
10091
340
10093
340
10094
340
10095
340
10097
340
10098
340
10099
340
1009B
340
1009C
340
1009D
340
1009E
340
1009F
340
100A1
340
100A0
  0
LAYOUT
  5
10022
102
{ACAD_REACTORS
330
10021
102
}
330
10021
100
AcDbPlotSettings
  1

  2
none_device
  4
Letter_(8.50_x_11.00_Inches)
  6

 40
6.35
 41
6.35
 42
6.35
 43
6.35
 44
215.9
 45
279.4
 46
0.0
 47
0.0
 48
0.0
 49
0.0
140
0.0
141
0.0
142
1.0
143
52.855
 70
  1712
 72
     0
 73
     0
 74
     0
  7

 75
     0
 76
     0
 77
     2
 78
   300
147
0.0189196859332135
148
36.06799999999968
149
558.8
100
AcDbLayout
  1
Model
 70
     1
 71
     0
 10
0.0
 20
0.0
 11
12.0
 21
9.0
 12
0.0
 22
0.0
 32
0.0
 14
63.016288
 24
641.754564
 34
0.0
 15
438.606888
 25
701.832564
 35
0.0
146
0.0
 13
0.0
 23
0.0
 33
0.0
 16
1.0
 26
0.0
 36
0.0
 17
0.0
 27
1.0
 37
0.0
 76
     0
330
1F
331
2E
  0
LAYOUT
  5
10023
102
{ACAD_REACTORS
330
10021
102
}
330
10021
100
AcDbPlotSettings
  1

  2
none_device
  4

  6

 40
0.0
 41
0.0
 42
0.0
 43
0.0
 44
0.0
 45
0.0
 46
0.0
 47
0.0
 48
0.0
 49
0.0
140
0.0
141
0.0
142
1.0
143
1.0
 70
   688
 72
     1
 73
     0
 74
     5
  7

 75
    16
 76
     0
 77
     2
 78
   300
147
1.0
148
0.0
149
0.0
100
AcDbLayout
  1
Sheet 1
 70
     1
 71
     1
 10
0.0
 20
0.0
 11
0.0
 21
0.0
 12
0.0
 22
0.0
 32
0.0
 14
1.000000000000000E+20
 24
1.000000000000000E+20
 34
1.000000000000000E+20
 15
-1.000000000000000E+20
 25
-1.000000000000000E+20
 35
-1.000000000000000E+20
146
0.0
 13
0.0
 23
0.0
 33
0.0
 16
1.0
 26
0.0
 36
0.0
 17
0.0
 27
1.0
 37
0.0
 76
     0
330
1B
  0
MATERIAL
  5
1003F
102
{ACAD_REACTORS
330
1003D
102
}
330
1003D
100
AcDbMaterial
  1
ByBlock
 72
     1
 94
      127
  0
MATERIAL
  5
1003E
102
{ACAD_REACTORS
330
1003D
102
}
330
1003D
100
AcDbMaterial
  1
ByLayer
 72
     1
 94
      127
  0
MATERIAL
  5
10040
102
{ACAD_REACTORS
330
1003D
102
}
330
1003D
100
AcDbMaterial
  1
Global
 72
     1
 94
      127
  0
MLEADERSTYLE
  5
10044
102
{ACAD_REACTORS
330
10043
102
}
330
10043
100
AcDbMLeaderStyle
170
     2
171
     1
172
     0
 90
        2
 40
0.0
 41
0.0
173
     1
 91
-1056964608
340
14
 92
       -2
290
     1
 42
2.0
291
     1
 43
8.0
  3
Standard
341
0
 44
4.0
300

342
11
174
     1
178
     6
175
     1
176
     0
 93
-1056964608
 45
4.0
292
     0
297
     0
 46
4.0
343
0
 94
-1056964608
 47
1.0
 49
1.0
140
1.0
293
     1
141
0.0
294
     1
177
     0
142
1.0
295
     0
296
     0
143
3.75
1001
ACAD_MLEADERVER
1070
     2
  0
MLINESTYLE
  5
100B3
102
{ACAD_REACTORS
330
17
102
}
330
17
100
AcDbMlineStyle
  2
Standard
 70
     0
  3

 62
   256
 51
90.0
 52
90.0
 71
     2
 49
0.5
 62
   256
  6
BYLAYER
 49
-0.5
 62
   256
  6
BYLAYER
  0
SCALE
  5
10000
102
{ACAD_REACTORS
330
FFFF
102
}
330
FFFF
100
AcDbScale
 70
     0
300
1:1
140
1.0
141
1.0
290
     1
  0
SCALE
  5
10001
102
{ACAD_REACTORS
330
FFFF
102
}
330
FFFF
100
AcDbScale
 70
     0
300
1:2
140
1.0
141
2.0
290
     0
  0
SCALE
  5
10002
102
{ACAD_REACTORS
330
FFFF
102
}
330
FFFF
100
AcDbScale
 70
     0
300
1:4
140
1.0
141
4.0
290
     0
  0
SCALE
  5
10003
102
{ACAD_REACTORS
330
FFFF
102
}
330
FFFF
100
AcDbScale
 70
     0
300
1:5
140
1.0
141
5.0
290
     0
  0
SCALE
  5
10004
102
{ACAD_REACTORS
330
FFFF
102
}
330
FFFF
100
AcDbScale
 70
     0
300
1:8
140
1.0
141
8.0
290
     0
  0
SCALE
  5
10005
102
{ACAD_REACTORS
330
FFFF
102
}
330
FFFF
100
AcDbScale
 70
     0
300
1:10
140
1.0
141
10.0
290
     0
  0
SCALE
  5
10006
102
{ACAD_REACTORS
330
FFFF
102
}
330
FFFF
100
AcDbScale
 70
     0
300
1:16
140
1.0
141
16.0
290
     0
  0
SCALE
  5
10007
102
{ACAD_REACTORS
330
FFFF
102
}
330
FFFF
100
AcDbScale
 70
     0
300
1:20
140
1.0
141
20.0
290
     0
  0
SCALE
  5
10008
102
{ACAD_REACTORS
330
FFFF
102
}
330
FFFF
100
AcDbScale
 70
     0
300
1:30
140
1.0
141
30.0
290
     0
  0
SCALE
  5
10009
102
{ACAD_REACTORS
330
FFFF
102
}
330
FFFF
100
AcDbScale
 70
     0
300
1:40
140
1.0
141
40.0
290
     0
  0
SCALE
  5
1000A
102
{ACAD_REACTORS
330
FFFF
102
}
330
FFFF
100
AcDbScale
 70
     0
300
1:50
140
1.0
141
50.0
290
     0
  0
SCALE
  5
1000B
102
{ACAD_REACTORS
330
FFFF
102
}
330
FFFF
100
AcDbScale
 70
     0
300
1:100
140
1.0
141
100.0
290
     0
  0
SCALE
  5
1000C
102
{ACAD_REACTORS
330
FFFF
102
}
330
FFFF
100
AcDbScale
 70
     0
300
2:1
140
2.0
141
1.0
290
     0
  0
SCALE
  5
1000D
102
{ACAD_REACTORS
330
FFFF
102
}
330
FFFF
100
AcDbScale
 70
     0
300
4:1
140
4.0
141
1.0
290
     0
  0
SCALE
  5
1000E
102
{ACAD_REACTORS
330
FFFF
102
}
330
FFFF
100
AcDbScale
 70
     0
300
8:1
140
8.0
141
1.0
290
     0
  0
SCALE
  5
1000F
102
{ACAD_REACTORS
330
FFFF
102
}
330
FFFF
100
AcDbScale
 70
     0
300
10:1
140
10.0
141
1.0
290
     0
  0
SCALE
  5
10010
102
{ACAD_REACTORS
330
FFFF
102
}
330
FFFF
100
AcDbScale
 70
     0
300
100:1
140
100.0
141
1.0
290
     0
  0
SCALE
  5
10011
102
{ACAD_REACTORS
330
FFFF
102
}
330
FFFF
100
AcDbScale
 70
     0
300
1/128" = 1'-0"
140
0.0078125
141
12.0
290
     0
  0
SCALE
  5
10012
102
{ACAD_REACTORS
330
FFFF
102
}
330
FFFF
100
AcDbScale
 70
     0
300
1/64" = 1'-0"
140
0.015625
141
12.0
290
     0
  0
SCALE
  5
10013
102
{ACAD_REACTORS
330
FFFF
102
}
330
FFFF
100
AcDbScale
 70
     0
300
1/32" = 1'-0"
140
0.03125
141
12.0
290
     0
  0
SCALE
  5
10014
102
{ACAD_REACTORS
330
FFFF
102
}
330
FFFF
100
AcDbScale
 70
     0
300
1/16" = 1'-0"
140
0.0625
141
12.0
290
     0
  0
SCALE
  5
10015
102
{ACAD_REACTORS
330
FFFF
102
}
330
FFFF
100
AcDbScale
 70
     0
300
3/32" = 1'-0"
140
0.09375
141
12.0
290
     0
  0
SCALE
  5
10016
102
{ACAD_REACTORS
330
FFFF
102
}
330
FFFF
100
AcDbScale
 70
     0
300
1/8" = 1'-0"
140
0.125
141
12.0
290
     0
  0
SCALE
  5
10017
102
{ACAD_REACTORS
330
FFFF
102
}
330
FFFF
100
AcDbScale
 70
     0
300
3/16" = 1'-0"
140
0.1875
141
12.0
290
     0
  0
SCALE
  5
10018
102
{ACAD_REACTORS
330
FFFF
102
}
330
FFFF
100
AcDbScale
 70
     0
300
1/4" = 1'-0"
140
0.25
141
12.0
290
     0
  0
SCALE
  5
10019
102
{ACAD_REACTORS
330
FFFF
102
}
330
FFFF
100
AcDbScale
 70
     0
300
3/8" = 1'-0"
140
0.375
141
12.0
290
     0
  0
SCALE
  5
1001A
102
{ACAD_REACTORS
330
FFFF
102
}
330
FFFF
100
AcDbScale
 70
     0
300
1/2" = 1'-0"
140
0.5
141
12.0
290
     0
  0
SCALE
  5
1001B
102
{ACAD_REACTORS
330
FFFF
102
}
330
FFFF
100
AcDbScale
 70
     0
300
3/4" = 1'-0"
140
0.75
141
12.0
290
     0
  0
SCALE
  5
1001C
102
{ACAD_REACTORS
330
FFFF
102
}
330
FFFF
100
AcDbScale
 70
     0
300
1" = 1'-0"
140
1.0
141
12.0
290
     0
  0
SCALE
  5
1001D
102
{ACAD_REACTORS
330
FFFF
102
}
330
FFFF
100
AcDbScale
 70
     0
300
1-1/2" = 1'-0"
140
1.5
141
12.0
290
     0
  0
SCALE
  5
1001E
102
{ACAD_REACTORS
330
FFFF
102
}
330
FFFF
100
AcDbScale
 70
     0
300
3" = 1'-0"
140
3.0
141
12.0
290
     0
  0
SCALE
  5
1001F
102
{ACAD_REACTORS
330
FFFF
102
}
330
FFFF
100
AcDbScale
 70
     0
300
6" = 1'-0"
140
6.0
141
12.0
290
     0
  0
SCALE
  5
10020
102
{ACAD_REACTORS
330
FFFF
102
}
330
FFFF
100
AcDbScale
 70
     0
300
1'-0" = 1'-0"
140
12.0
141
12.0
290
     0
  0
TABLESTYLE
  5
10042
102
{ACAD_REACTORS
330
10041
102
}
102
{ACAD_XDICTIONARY
360
100BB
102
}
330
10041
100
AcDbTableStyle
  3
Standard
 70
     0
 71
     0
 40
0.06
 41
0.06
280
     0
281
     0
  7
STANDARD
140
4.5
170
     2
 62
     0
 63
   257
283
     0
 90
        4
 91
        0
  1

274
    -2
284
     1
 64
     0
275
    -2
285
     1
 65
     0
276
    -2
286
     1
 66
     0
277
    -2
287
     1
 67
     0
278
    -2
288
     1
 68
     0
279
    -2
289
     1
 69
     0
  7
STANDARD
140
6.0
170
     5
 62
     0
 63
   257
283
     0
 90
        4
 91
        0
  1

274
    -2
284
     1
 64
     0
275
    -2
285
     1
 65
     0
276
    -2
286
     1
 66
     0
277
    -2
287
     1
 67
     0
278
    -2
288
     1
 68
     0
279
    -2
289
     1
 69
     0
  7
STANDARD
140
4.5
170
     5
 62
     0
 63
   257
283
     0
 90
        4
 91
        0
  1

274
    -2
284
     1
 64
     0
275
    -2
285
     1
 65
     0
276
    -2
286
     1
 66
     0
277
    -2
287
     1
 67
     0
278
    -2
288
     1
 68
     0
279
    -2
289
     1
 69
     0
  0
VISUALSTYLE
  5
10029
102
{ACAD_REACTORS
330
10024
102
}
330
10024
100
AcDbVisualStyle
  2
2dWireframe
 70
     4
 71
     0
 72
     2
 73
     0
 90
        0
 40
0.6
 41
30.0
 62
     5
 63
     7
421
 16777215
 74
     1
 91
        4
 64
     7
 65
   257
 75
     1
175
     1
 42
1.0
 92
        0
 66
   257
 43
1.0
 76
     1
 77
     6
 78
     2
 67
     7
 79
     5
170
     0
171
     0
290
     0
174
     0
 93
        1
 44
0.0
173
     0
291
     0
 45
0.0
  0
VISUALSTYLE
  5
1002C
102
{ACAD_REACTORS
330
10024
102
}
330
10024
100
AcDbVisualStyle
  2
Basic
 70
     7
 71
     1
 72
     0
 73
     1
 90
        0
 40
0.6
 41
30.0
 62
     5
 63
     7
421
 16777215
 74
     0
 91
        4
 64
     7
 65
   257
 75
     1
175
     1
 42
1.0
 92
        8
 66
     7
 43
1.0
 76
     1
 77
     6
 78
     2
 67
     7
 79
     5
170
     0
171
     0
290
     0
174
     0
 93
        1
 44
0.0
173
     0
291
     1
 45
0.0
  0
VISUALSTYLE
  5
10030
102
{ACAD_REACTORS
330
10024
102
}
330
10024
100
AcDbVisualStyle
  2
Brighten
 70
    12
 71
     2
 72
     2
 73
     0
 90
        0
 40
0.6
 41
30.0
 62
     5
 63
     7
421
 16777215
 74
     1
 91
        4
 64
     7
 65
   257
 75
     1
175
     1
 42
1.0
 92
        8
 66
     7
 43
1.0
 76
     1
 77
     6
 78
     2
 67
     7
 79
     5
170
     0
171
     0
290
     0
174
     0
 93
        1
 44
50.0
173
     0
291
     1
 45
0.0
  0
VISUALSTYLE
  5
10034
102
{ACAD_REACTORS
330
10024
102
}
330
10024
100
AcDbVisualStyle
  2
ColorChange
 70
    16
 71
     2
 72
     2
 73
     3
 90
        0
 40
0.6
 41
30.0
 62
     5
 63
     8
421
  8421504
 74
     1
 91
        4
 64
     7
 65
   257
 75
     1
175
     1
 42
1.0
 92
        8
 66
     8
424
  8421504
 43
1.0
 76
     1
 77
     6
 78
     2
 67
     7
 79
     5
170
     0
171
     0
290
     0
174
     0
 93
        1
 44
0.0
173
     0
291
     1
 45
0.0
  0
VISUALSTYLE
  5
1002E
102
{ACAD_REACTORS
330
10024
102
}
330
10024
100
AcDbVisualStyle
  2
Conceptual
 70
     9
 71
     3
 72
     2
 73
     0
 90
        0
 40
0.6
 41
30.0
 62
     5
 63
     7
421
 16777215
 74
     2
 91
        2
 64
     7
 65
   257
 75
     1
175
     1
 42
179.0
 92
        8
 66
     7
 43
1.0
 76
     1
 77
     6
 78
     2
 67
     7
 79
     3
170
     0
171
     0
290
     0
174
     0
 93
        1
 44
0.0
173
     0
291
     0
 45
0.0
  0
VISUALSTYLE
  5
1002F
102
{ACAD_REACTORS
330
10024
102
}
330
10024
100
AcDbVisualStyle
  2
Dim
 70
    11
 71
     2
 72
     2
 73
     0
 90
        0
 40
0.6
 41
30.0
 62
     5
 63
     7
421
 16777215
 74
     1
 91
        4
 64
     7
 65
   257
 75
     1
175
     1
 42
1.0
 92
        8
 66
     7
 43
1.0
 76
     1
 77
     6
 78
     2
 67
     7
 79
     5
170
     0
171
     0
290
     0
174
     0
 93
        1
 44
-50.0
173
     0
291
     1
 45
0.0
  0
VISUALSTYLE
  5
10037
102
{ACAD_REACTORS
330
10024
102
}
330
10024
100
AcDbVisualStyle
  2
EdgeColorOff
 70
    22
 71
     2
 72
     2
 73
     0
 90
        0
 40
0.6
 41
30.0
 62
     5
 63
     7
421
 16777215
 74
     1
 91
        4
 64
     7
 65
   257
 75
     1
175
     1
 42
1.0
 92
        8
 66
     7
 43
1.0
 76
     1
 77
     6
 78
     2
 67
     7
 79
     5
170
     0
171
     0
290
     0
174
     0
 93
        1
 44
0.0
173
     0
291
     1
 45
0.0
  0
VISUALSTYLE
  5
10033
102
{ACAD_REACTORS
330
10024
102
}
330
10024
100
AcDbVisualStyle
  2
Facepattern
 70
    15
 71
     2
 72
     2
 73
     0
 90
        0
 40
0.6
 41
30.0
 62
     5
 63
     7
421
 16777215
 74
     1
 91
        4
 64
     7
 65
   257
 75
     1
175
     1
 42
1.0
 92
        8
 66
     7
 43
1.0
 76
     1
 77
     6
 78
     2
 67
     7
 79
     5
170
     0
171
     0
290
     0
174
     0
 93
        1
 44
0.0
173
     0
291
     1
 45
0.0
  0
VISUALSTYLE
  5
10025
102
{ACAD_REACTORS
330
10024
102
}
330
10024
100
AcDbVisualStyle
  2
Flat
 70
     0
 71
     2
 72
     1
 73
     1
 90
        2
 40
0.6
 41
30.0
 62
     5
 63
     7
421
 16777215
 74
     0
 91
        0
 64
     7
 65
   257
 75
     1
175
     1
 42
1.0
 92
        8
 66
     7
 43
1.0
 76
     1
 77
     6
 78
     2
 67
     7
 79
     5
170
     0
171
     0
290
     0
174
     0
 93
       13
 44
0.0
173
     0
291
     1
 45
0.0
  0
VISUALSTYLE
  5
10026
102
{ACAD_REACTORS
330
10024
102
}
330
10024
100
AcDbVisualStyle
  2
FlatWithEdges
 70
     1
 71
     2
 72
     1
 73
     1
 90
        2
 40
0.6
 41
30.0
 62
     5
 63
     7
421
 16777215
 74
     1
 91
        0
 64
     7
 65
   257
 75
     1
175
     1
 42
1.0
 92
        0
 66
   257
 43
1.0
 76
     1
 77
     6
 78
     2
 67
     7
 79
     5
170
     0
171
     0
290
     0
174
     0
 93
       13
 44
0.0
173
     0
291
     1
 45
0.0
  0
VISUALSTYLE
  5
10027
102
{ACAD_REACTORS
330
10024
102
}
330
10024
100
AcDbVisualStyle
  2
Gouraud
 70
     2
 71
     2
 72
     2
 73
     1
 90
        2
 40
0.6
 41
30.0
 62
     5
 63
     7
421
 16777215
 74
     0
 91
        0
 64
     7
 65
   257
 75
     1
175
     1
 42
1.0
 92
        0
 66
     7
 43
1.0
 76
     1
 77
     6
 78
     2
 67
     7
 79
     5
170
     0
171
     0
290
     0
174
     0
 93
       13
 44
0.0
173
     0
291
     1
 45
0.0
  0
VISUALSTYLE
  5
10028
102
{ACAD_REACTORS
330
10024
102
}
330
10024
100
AcDbVisualStyle
  2
GouraudWithEdges
 70
     3
 71
     2
 72
     2
 73
     1
 90
        2
 40
0.6
 41
30.0
 62
     5
 63
     7
421
 16777215
 74
     1
 91
        0
 64
     7
 65
   257
 75
     1
175
     1
 42
1.0
 92
        0
 66
   257
 43
1.0
 76
     1
 77
     6
 78
     2
 67
     7
 79
     5
170
     0
171
     0
290
     0
174
     0
 93
       13
 44
0.0
173
     0
291
     1
 45
0.0
  0
VISUALSTYLE
  5
1002B
102
{ACAD_REACTORS
330
10024
102
}
330
10024
100
AcDbVisualStyle
  2
Hidden
 70
     6
 71
     1
 72
     2
 73
     2
 90
        0
 40
0.6
 41
30.0
 62
     5
 63
     7
421
 16777215
 74
     2
 91
        2
 64
     7
 65
   257
 75
     2
175
     1
 42
40.0
 92
        0
 66
   257
 43
1.0
 76
     1
 77
     6
 78
     2
 67
     7
 79
     3
170
     0
171
     0
290
     0
174
     0
 93
        1
 44
0.0
173
     0
291
     0
 45
0.0
  0
VISUALSTYLE
  5
10035
102
{ACAD_REACTORS
330
10024
102
}
330
10024
100
AcDbVisualStyle
  2
JitterOff
 70
    20
 71
     2
 72
     2
 73
     0
 90
        0
 40
0.6
 41
30.0
 62
     5
 63
     7
421
 16777215
 74
     1
 91
        4
 64
     7
 65
   257
 75
     1
175
     1
 42
1.0
 92
       10
 66
     7
 43
1.0
 76
     1
 77
     6
 78
     2
 67
     7
 79
     5
170
     0
171
     0
290
     0
174
     0
 93
        1
 44
0.0
173
     0
291
     1
 45
0.0
  0
VISUALSTYLE
  5
10032
102
{ACAD_REACTORS
330
10024
102
}
330
10024
100
AcDbVisualStyle
  2
Linepattern
 70
    14
 71
     2
 72
     2
 73
     0
 90
        0
 40
0.6
 41
30.0
 62
     5
 63
     7
421
 16777215
 74
     1
 91
        4
 64
     7
 65
   257
 75
     7
175
     7
 42
1.0
 92
        8
 66
     7
 43
1.0
 76
     1
 77
     6
 78
     2
 67
     7
 79
     5
170
     0
171
     0
290
     0
174
     0
 93
        1
 44
0.0
173
     0
291
     1
 45
0.0
  0
VISUALSTYLE
  5
10036
102
{ACAD_REACTORS
330
10024
102
}
330
10024
100
AcDbVisualStyle
  2
OverhangOff
 70
    21
 71
     2
 72
     2
 73
     0
 90
        0
 40
0.6
 41
30.0
 62
     5
 63
     7
421
 16777215
 74
     1
 91
        4
 64
     7
 65
   257
 75
     1
175
     1
 42
1.0
 92
        9
 66
     7
 43
1.0
 76
     1
 77
     6
 78
     2
 67
     7
 79
     5
170
     0
171
     0
290
     0
174
     0
 93
        1
 44
0.0
173
     0
291
     1
 45
0.0
  0
VISUALSTYLE
  5
1002D
102
{ACAD_REACTORS
330
10024
102
}
330
10024
100
AcDbVisualStyle
  2
Realistic
 70
     8
 71
     2
 72
     3
 73
     0
 90
        2
 40
0.6
 41
30.0
 62
     5
 63
     7
421
 16777215
 74
     0
 91
        0
 64
     7
 65
   257
 75
     1
175
     1
 42
1.0
 92
        8
 66
   257
 43
1.0
 76
     1
 77
     6
 78
     2
 67
     7
 79
     3
170
     0
171
     0
290
     0
174
     0
 93
       13
 44
0.0
173
     0
291
     0
 45
0.0
  0
VISUALSTYLE
  5
1003C
102
{ACAD_REACTORS
330
10024
102
}
330
10024
100
AcDbVisualStyle
  2
Shaded
 70
    27
 71
     2
 72
     2
 73
     1
 90
        2
 40
0.6
 41
30.0
 62
     5
 63
     7
421
 16777215
 74
     0
 91
        4
 64
     7
 65
   257
 75
     1
175
     1
 42
1.0
 92
        8
 66
   257
 43
1.0
 76
     1
 77
     6
 78
     2
 67
     8
425
  7895160
 79
     3
170
     0
171
     0
290
     0
174
     0
 93
        5
 44
0.0
173
     0
291
     0
 45
0.0
  0
VISUALSTYLE
  5
1003B
102
{ACAD_REACTORS
330
10024
102
}
330
10024
100
AcDbVisualStyle
  2
Shaded with edges
 70
    26
 71
     2
 72
     2
 73
     1
 90
        2
 40
0.6
 41
30.0
 62
     5
 63
     7
421
 16777215
 74
     1
 91
       10
 64
     7
 65
   257
 75
     2
175
     1
 42
1.0
 92
        8
 66
   257
 43
1.0
 76
     1
 77
     6
 78
     2
 67
     7
 79
     3
170
     0
171
     0
290
     0
174
     0
 93
        5
 44
0.0
173
     0
291
     0
 45
0.0
  0
VISUALSTYLE
  5
10038
102
{ACAD_REACTORS
330
10024
102
}
330
10024
100
AcDbVisualStyle
  2
Shades of Gray
 70
    23
 71
     2
 72
     2
 73
     3
 90
        0
 40
0.6
 41
30.0
 62
     5
 63
     7
421
 16777215
 74
     2
 91
        2
 64
     7
 65
     7
 75
     1
175
     1
 42
40.0
 92
        8
 66
     7
 43
1.0
 76
     1
 77
     6
 78
     2
 67
     7
 79
     3
170
     0
171
     0
290
     0
174
     0
 93
        1
 44
0.0
173
     0
291
     0
 45
0.0
  0
VISUALSTYLE
  5
10039
102
{ACAD_REACTORS
330
10024
102
}
330
10024
100
AcDbVisualStyle
  2
Sketchy
 70
    24
 71
     1
 72
     2
 73
     2
 90
        0
 40
0.6
 41
30.0
 62
     5
 63
     7
421
 16777215
 74
     2
 91
        2
 64
     7
 65
     7
 75
     1
175
     1
 42
40.0
 92
       11
 66
     7
 43
1.0
 76
     1
 77
     6
 78
     2
 67
     7
 79
     6
170
     0
171
     0
290
     0
174
     0
 93
        1
 44
0.0
173
     0
291
     0
 45
0.0
  0
VISUALSTYLE
  5
10031
102
{ACAD_REACTORS
330
10024
102
}
330
10024
100
AcDbVisualStyle
  2
Thicken
 70
    13
 71
     2
 72
     2
 73
     0
 90
        0
 40
0.6
 41
30.0
 62
     5
 63
     7
421
 16777215
 74
     1
 91
        4
 64
     7
 65
   257
 75
     1
175
     1
 42
1.0
 92
       12
 66
     7
 43
1.0
 76
     1
 77
     6
 78
     2
 67
     7
 79
     5
170
     0
171
     0
290
     0
174
     0
 93
        1
 44
0.0
173
     0
291
     1
 45
0.0
  0
VISUALSTYLE
  5
1002A
102
{ACAD_REACTORS
330
10024
102
}
330
10024
100
AcDbVisualStyle
  2
Wireframe
 70
     5
 71
     0
 72
     2
 73
     0
 90
        0
 40
0.6
 41
30.0
 62
     5
 63
     7
421
 16777215
 74
     1
 91
        4
 64
     7
 65
   257
 75
     1
175
     1
 42
1.0
 92
        0
 66
   257
 43
1.0
 76
     1
 77
     6
 78
     2
 67
     7
 79
     3
170
     0
171
     0
290
     0
174
     0
 93
        1
 44
0.0
173
     0
291
     0
 45
0.0
  0
VISUALSTYLE
  5
1003A
102
{ACAD_REACTORS
330
10024
102
}
330
10024
100
AcDbVisualStyle
  2
X-Ray
 70
    25
 71
     2
 72
     2
 73
     1
 90
        1
 40
0.5
 41
30.0
 62
     5
 63
     7
421
 16777215
 74
     1
 91
        0
 64
     7
 65
   257
 75
     1
175
     1
 42
1.0
 92
        8
 66
     7
 43
1.0
 76
     1
 77
     6
 78
     2
 67
     7
 79
     3
170
     0
171
     0
290
     0
174
     0
 93
       13
 44
0.0
173
     0
291
     0
 45
0.0
  0
DICTIONARYVAR
  5
100A5
102
{ACAD_REACTORS
330
100A4
102
}
330
100A4
100
DictionaryVariables
280
     0
  1
1:1
  0
DICTIONARYVAR
  5
100A7
102
{ACAD_REACTORS
330
100A4
102
}
330
100A4
100
DictionaryVariables
280
     0
  1
Standard
  0
DICTIONARYVAR
  5
100A6
102
{ACAD_REACTORS
330
100A4
102
}
330
100A4
100
DictionaryVariables
280
     0
  1
Standard
  0
DICTIONARYVAR
  5
100A8
102
{ACAD_REACTORS
330
100A4
102
}
330
100A4
100
DictionaryVariables
280
     0
  1
0
  0
DICTIONARYVAR
  5
100B4
102
{ACAD_REACTORS
330
100A4
102
}
330
100A4
100
DictionaryVariables
280
     0
  1
0
  0
DICTIONARY
  5
100BB
330
10042
100
AcDbDictionary
280
     1
281
     1
  3
ACAD_ROUNDTRIP_2008_TABLESTYLE_CELLSTYLEMAP
360
100BC
  0
CELLSTYLEMAP
  5
100BC
102
{ACAD_REACTORS
330
100BB
102
}
330
100BB
100
AcDbCellStyleMap
 90
        3
300
CELLSTYLE
  1
TABLEFORMAT_BEGIN
 90
        5
170
     1
 91
        0
 92
    32768
 62
   257
 93
        1
300
CONTENTFORMAT
  1
CONTENTFORMAT_BEGIN
 90
        0
 91
        0
 92
        4
 93
        0
300

 40
0.0
140
1.0
 94
        5
 62
     0
340
11
144
6.0
309
CONTENTFORMAT_END
171
     1
301
MARGIN
  1
CELLMARGIN_BEGIN
 40
1.5
 40
1.5
 40
1.5
 40
1.5
 40
1.5
 40
1.5
309
CELLMARGIN_END
 94
        6
 95
        1
302
GRIDFORMAT
  1
GRIDFORMAT_BEGIN
 90
        0
 91
        1
 62
     0
 92
       -2
340
14
 93
        0
 40
0.045
309
GRIDFORMAT_END
 95
        2
302
GRIDFORMAT
  1
GRIDFORMAT_BEGIN
 90
        0
 91
        1
 62
     0
 92
       -2
340
14
 93
        0
 40
0.045
309
GRIDFORMAT_END
 95
        4
302
GRIDFORMAT
  1
GRIDFORMAT_BEGIN
 90
        0
 91
        1
 62
     0
 92
       -2
340
14
 93
        0
 40
0.045
309
GRIDFORMAT_END
 95
        8
302
GRIDFORMAT
  1
GRIDFORMAT_BEGIN
 90
        0
 91
        1
 62
     0
 92
       -2
340
14
 93
        0
 40
0.045
309
GRIDFORMAT_END
 95
       16
302
GRIDFORMAT
  1
GRIDFORMAT_BEGIN
 90
        0
 91
        1
 62
     0
 92
       -2
340
14
 93
        0
 40
0.045
309
GRIDFORMAT_END
 95
       32
302
GRIDFORMAT
  1
GRIDFORMAT_BEGIN
 90
        0
 91
        1
 62
     0
 92
       -2
340
14
 93
        0
 40
0.045
309
GRIDFORMAT_END
309
TABLEFORMAT_END
  1
CELLSTYLE_BEGIN
 90
        1
 91
        1
300
_TITLE
309
CELLSTYLE_END
300
CELLSTYLE
  1
TABLEFORMAT_BEGIN
 90
        5
170
     1
 91
        0
 92
        0
 62
   257
 93
        1
300
CONTENTFORMAT
  1
CONTENTFORMAT_BEGIN
 90
        0
 91
        0
 92
        4
 93
        0
300

 40
0.0
140
1.0
 94
        5
 62
     0
340
11
144
4.5
309
CONTENTFORMAT_END
171
     1
301
MARGIN
  1
CELLMARGIN_BEGIN
 40
1.5
 40
1.5
 40
1.5
 40
1.5
 40
1.5
 40
1.5
309
CELLMARGIN_END
 94
        6
 95
        1
302
GRIDFORMAT
  1
GRIDFORMAT_BEGIN
 90
        0
 91
        1
 62
     0
 92
       -2
340
14
 93
        0
 40
0.045
309
GRIDFORMAT_END
 95
        2
302
GRIDFORMAT
  1
GRIDFORMAT_BEGIN
 90
        0
 91
        1
 62
     0
 92
       -2
340
14
 93
        0
 40
0.045
309
GRIDFORMAT_END
 95
        4
302
GRIDFORMAT
  1
GRIDFORMAT_BEGIN
 90
        0
 91
        1
 62
     0
 92
       -2
340
14
 93
        0
 40
0.045
309
GRIDFORMAT_END
 95
        8
302
GRIDFORMAT
  1
GRIDFORMAT_BEGIN
 90
        0
 91
        1
 62
     0
 92
       -2
340
14
 93
        0
 40
0.045
309
GRIDFORMAT_END
 95
       16
302
GRIDFORMAT
  1
GRIDFORMAT_BEGIN
 90
        0
 91
        1
 62
     0
 92
       -2
340
14
 93
        0
 40
0.045
309
GRIDFORMAT_END
 95
       32
302
GRIDFORMAT
  1
GRIDFORMAT_BEGIN
 90
        0
 91
        1
 62
     0
 92
       -2
340
14
 93
        0
 40
0.045
309
GRIDFORMAT_END
309
TABLEFORMAT_END
  1
CELLSTYLE_BEGIN
 90
        2
 91
        1
300
_HEADER
309
CELLSTYLE_END
300
CELLSTYLE
  1
TABLEFORMAT_BEGIN
 90
        5
170
     1
 91
        0
 92
        0
 62
   257
 93
        1
300
CONTENTFORMAT
  1
CONTENTFORMAT_BEGIN
 90
        0
 91
        0
 92
        4
 93
        0
300

 40
0.0
140
1.0
 94
        2
 62
     0
340
11
144
4.5
309
CONTENTFORMAT_END
171
     1
301
MARGIN
  1
CELLMARGIN_BEGIN
 40
1.5
 40
1.5
 40
1.5
 40
1.5
 40
1.5
 40
1.5
309
CELLMARGIN_END
 94
        6
 95
        1
302
GRIDFORMAT
  1
GRIDFORMAT_BEGIN
 90
        0
 91
        1
 62
     0
 92
       -2
340
14
 93
        0
 40
0.045
309
GRIDFORMAT_END
 95
        2
302
GRIDFORMAT
  1
GRIDFORMAT_BEGIN
 90
        0
 91
        1
 62
     0
 92
       -2
340
14
 93
        0
 40
0.045
309
GRIDFORMAT_END
 95
        4
302
GRIDFORMAT
  1
GRIDFORMAT_BEGIN
 90
        0
 91
        1
 62
     0
 92
       -2
340
14
 93
        0
 40
0.045
309
GRIDFORMAT_END
 95
        8
302
GRIDFORMAT
  1
GRIDFORMAT_BEGIN
 90
        0
 91
        1
 62
     0
 92
       -2
340
14
 93
        0
 40
0.045
309
GRIDFORMAT_END
 95
       16
302
GRIDFORMAT
  1
GRIDFORMAT_BEGIN
 90
        0
 91
        1
 62
     0
 92
       -2
340
14
 93
        0
 40
0.045
309
GRIDFORMAT_END
 95
       32
302
GRIDFORMAT
  1
GRIDFORMAT_BEGIN
 90
        0
 91
        1
 62
     0
 92
       -2
340
14
 93
        0
 40
0.045
309
GRIDFORMAT_END
309
TABLEFORMAT_END
  1
CELLSTYLE_BEGIN
 90
        3
 91
        2
300
_DATA
309
CELLSTYLE_END
  0
ENDSEC
  0
EOF
