  0
SECTION
  2
HEADER
  9
$ACADVER
  1
AC1014
  9
$ACADMAINTVER
 70
     9
  9
$DWGCODEPAGE
  3
ANSI_1250
  9
$INSBASE
 10
0.0
 20
0.0
 30
0.0
  9
$EXTMIN
 10
333.37184
 20
207.50425875
 30
0.0
  9
$EXTMAX
 10
756.515224
 20
509.950648
 30
0.0
  9
$LIMMIN
 10
0.0
 20
0.0
  9
$LIMMAX
 10
12.0
 20
9.0
  9
$ORTHOMODE
 70
     0
  9
$REGENMODE
 70
     1
  9
$FILLMODE
 70
     1
  9
$QTEXTMODE
 70
     0
  9
$MIRRTEXT
 70
     1
  9
$DRAGMODE
 70
     2
  9
$LTSCALE
 40
1.0
  9
$OSMODE
 70
   511
  9
$ATTMODE
 70
     1
  9
$TEXTSIZE
 40
2.5
  9
$TRACEWID
 40
0.05
  9
$TEXTSTYLE
  7
STANDARD
  9
$CLAYER
  8
0
  9
$CELTYPE
  6
BYBLOCK
  9
$CECOLOR
 62
   256
  9
$CELTSCALE
 40
1.0
  9
$DELOBJ
 70
     1
  9
$DISPSILH
 70
     0
  9
$DIMSCALE
 40
1.0
  9
$DIMASZ
 40
0.18
  9
$DIMEXO
 40
0.0625
  9
$DIMDLI
 40
0.38
  9
$DIMRND
 40
0.0
  9
$DIMDLE
 40
0.0
  9
$DIMEXE
 40
0.18
  9
$DIMTP
 40
0.0
  9
$DIMTM
 40
0.0
  9
$DIMTXT
 40
0.18
  9
$DIMCEN
 40
0.09
  9
$DIMTSZ
 40
0.0
  9
$DIMTOL
 70
     0
  9
$DIMLIM
 70
     0
  9
$DIMTIH
 70
     1
  9
$DIMTOH
 70
     1
  9
$DIMSE1
 70
     0
  9
$DIMSE2
 70
     0
  9
$DIMTAD
 70
     0
  9
$DIMZIN
 70
     0
  9
$DIMBLK
  1

  9
$DIMASO
 70
     1
  9
$DIMSHO
 70
     1
  9
$DIMPOST
  1

  9
$DIMAPOST
  1

  9
$DIMALT
 70
     0
  9
$DIMALTD
 70
     2
  9
$DIMALTF
 40
25.4
  9
$DIMLFAC
 40
1.0
  9
$DIMTOFL
 70
     0
  9
$DIMTVP
 40
0.0
  9
$DIMTIX
 70
     0
  9
$DIMSOXD
 70
     0
  9
$DIMSAH
 70
     0
  9
$DIMBLK1
  1

  9
$DIMBLK2
  1

  9
$DIMSTYLE
  2
ISO-25
  9
$DIMCLRD
 70
     0
  9
$DIMCLRE
 70
     0
  9
$DIMCLRT
 70
     0
  9
$DIMTFAC
 40
1.0
  9
$DIMGAP
 40
0.09
  9
$DIMJUST
 70
     0
  9
$DIMSD1
 70
     0
  9
$DIMSD2
 70
     0
  9
$DIMTOLJ
 70
     1
  9
$DIMTZIN
 70
     0
  9
$DIMALTZ
 70
     0
  9
$DIMALTTZ
 70
     0
  9
$DIMFIT
 70
     5
  9
$DIMUPT
 70
     0
  9
$DIMUNIT
 70
     2
  9
$DIMDEC
 70
     4
  9
$DIMTDEC
 70
     4
  9
$DIMALTU
 70
     2
  9
$DIMALTTD
 70
     2
  9
$DIMTXSTY
  7
STANDARD
  9
$DIMAUNIT
 70
     0
  9
$LUNITS
 70
     2
  9
$LUPREC
 70
     4
  9
$SKETCHINC
 40
0.1
  9
$FILLETRAD
 40
0.5
  9
$AUNITS
 70
     0
  9
$AUPREC
 70
     0
  9
$MENU
  1
.
  9
$ELEVATION
 40
0.0
  9
$PELEVATION
 40
0.0
  9
$THICKNESS
 40
0.0
  9
$LIMCHECK
 70
     0
  9
$CHAMFERA
 40
0.0
  9
$CHAMFERB
 40
0.0
  9
$CHAMFERC
 40
0.0
  9
$CHAMFERD
 40
0.0
  9
$SKPOLY
 70
     0
  9
$TDCREATE
 40
2447893.083333333
  9
$TDUPDATE
 40
2457528.547720602
  9
$TDINDWG
 40
0.0007710185
  9
$TDUSRTIMER
 40
2457528.463616308
  9
$USRTIMER
 70
     1
  9
$ANGBASE
 50
0.0
  9
$ANGDIR
 70
     0
  9
$PDMODE
 70
     0
  9
$PDSIZE
 40
0.0
  9
$PLINEWID
 40
0.0
  9
$COORDS
 70
     1
  9
$SPLFRAME
 70
     0
  9
$SPLINETYPE
 70
     6
  9
$SPLINESEGS
 70
     8
  9
$ATTDIA
 70
     0
  9
$ATTREQ
 70
     1
  9
$HANDLING
 70
     1
  9
$HANDSEED
  5
1013D
  9
$SURFTAB1
 70
     6
  9
$SURFTAB2
 70
     6
  9
$SURFTYPE
 70
     6
  9
$SURFU
 70
     6
  9
$SURFV
 70
     6
  9
$UCSNAME
  2

  9
$UCSORG
 10
0.0
 20
0.0
 30
0.0
  9
$UCSXDIR
 10
1.0
 20
0.0
 30
0.0
  9
$UCSYDIR
 10
0.0
 20
1.0
 30
0.0
  9
$PUCSNAME
  2

  9
$PUCSORG
 10
0.0
 20
0.0
 30
0.0
  9
$PUCSXDIR
 10
1.0
 20
0.0
 30
0.0
  9
$PUCSYDIR
 10
0.0
 20
1.0
 30
0.0
  9
$USERI1
 70
     0
  9
$USERI2
 70
     0
  9
$USERI3
 70
     0
  9
$USERI4
 70
     0
  9
$USERI5
 70
     0
  9
$USERR1
 40
0.0
  9
$USERR2
 40
0.0
  9
$USERR3
 40
0.0
  9
$USERR4
 40
0.0
  9
$USERR5
 40
0.0
  9
$WORLDVIEW
 70
     1
  9
$SHADEDGE
 70
     3
  9
$SHADEDIF
 70
    70
  9
$TILEMODE
 70
     1
  9
$MAXACTVP
 70
    64
  9
$PINSBASE
 10
0.0
 20
0.0
 30
0.0
  9
$PLIMCHECK
 70
     0
  9
$PEXTMIN
 10
1.000000000000000E+20
 20
1.000000000000000E+20
 30
1.000000000000000E+20
  9
$PEXTMAX
 10
-1.000000000000000E+20
 20
-1.000000000000000E+20
 30
-1.000000000000000E+20
  9
$PLIMMIN
 10
0.0
 20
0.0
  9
$PLIMMAX
 10
0.0
 20
0.0
  9
$UNITMODE
 70
     0
  9
$VISRETAIN
 70
     1
  9
$PLINEGEN
 70
     0
  9
$PSLTSCALE
 70
     1
  9
$TREEDEPTH
 70
  3020
  9
$PICKSTYLE
 70
     1
  9
$CMLSTYLE
  2

  9
$CMLJUST
 70
     0
  9
$CMLSCALE
 40
1.0
  9
$PROXYGRAPHICS
 70
     1
  9
$MEASUREMENT
 70
     1
  0
ENDSEC
  0
SECTION
  2
CLASSES
  0
CLASS
  1
SCALE
  2
AcDbScale
  3
ObjectDBX Classes
 90
     1153
280
     0
281
     0
  0
CLASS
  1
VISUALSTYLE
  2
AcDbVisualStyle
  3
ObjectDBX Classes
 90
     4095
280
     0
281
     0
  0
CLASS
  1
MATERIAL
  2
AcDbMaterial
  3
ObjectDBX Classes
 90
     1153
280
     0
281
     0
  0
CLASS
  1
TABLESTYLE
  2
AcDbTableStyle
  3
ObjectDBX Classes
 90
     4095
280
     0
281
     0
  0
CLASS
  1
MLEADERSTYLE
  2
AcDbMLeaderStyle
  3
ACDB_MLEADERSTYLE_CLASS
 90
     4095
280
     0
281
     0
  0
CLASS
  1
SUN
  2
AcDbSun
  3
SCENEOE
 90
     1153
280
     0
281
     0
  0
CLASS
  1
RASTERVARIABLES
  2
AcDbRasterVariables
  3
ISM
 90
        0
280
     0
281
     0
  0
CLASS
  1
XRECORD
  2
AcDbXrecord
  3
ObjectDBX Classes
 90
        0
280
     0
281
     0
  0
CLASS
  1
LWPOLYLINE
  2
AcDbPolyline
  3
ObjectDBX Classes
 90
        0
280
     0
281
     1
  0
CLASS
  1
HATCH
  2
AcDbHatch
  3
ObjectDBX Classes
 90
        0
280
     0
281
     1
  0
ENDSEC
  0
SECTION
  2
TABLES
  0
TABLE
  2
VPORT
  5
8
330
0
100
AcDbSymbolTable
 70
     1
  0
VPORT
  5
2E
330
8
100
AcDbSymbolTableRecord
100
AcDbViewportTableRecord
  2
*ACTIVE
 70
     0
 10
0.0
 20
0.0
 11
1.0
 21
1.0
 12
608.7783998533174
 22
378.6130115608821
 13
0.0
 23
0.0
 14
10.0
 24
10.0
 15
10.0
 25
10.0
 16
0.0
 26
0.0
 36
1.0
 17
0.0
 27
0.0
 37
0.0
 40
426.2499999999996
 41
2.158610271903323
 42
50.0
 43
0.0
 44
0.0
 50
0.0
 51
0.0
 71
    16
 72
   100
 73
     1
 74
     3
 75
     0
 76
     0
 77
     0
 78
     0
  0
ENDTAB
  0
TABLE
  2
LTYPE
  5
5
330
0
100
AcDbSymbolTable
 70
     1
  0
LTYPE
  5
14
330
5
100
AcDbSymbolTableRecord
100
AcDbLinetypeTableRecord
  2
BYBLOCK
 70
     0
  3

 72
    65
 73
     0
 40
0.0
  0
LTYPE
  5
15
330
5
100
AcDbSymbolTableRecord
100
AcDbLinetypeTableRecord
  2
BYLAYER
 70
     0
  3

 72
    65
 73
     0
 40
0.0
  0
LTYPE
  5
16
330
5
100
AcDbSymbolTableRecord
100
AcDbLinetypeTableRecord
  2
CONTINUOUS
 70
     0
  3
Solid line
 72
    65
 73
     0
 40
0.0
  0
ENDTAB
  0
TABLE
  2
LAYER
  5
2
330
0
100
AcDbSymbolTable
 70
     1
  0
LAYER
  5
50
330
2
100
AcDbSymbolTableRecord
100
AcDbLayerTableRecord
  2
0
 70
     0
 62
     7
  6
CONTINUOUS
  0
ENDTAB
  0
TABLE
  2
STYLE
  5
3
330
0
100
AcDbSymbolTable
 70
     1
  0
STYLE
  5
11
330
3
100
AcDbSymbolTableRecord
100
AcDbTextStyleTableRecord
  2
STANDARD
 70
     0
 40
0.0
 41
1.0
 50
0.0
 71
     0
 42
2.5
  3
txt
  4

  0
ENDTAB
  0
TABLE
  2
VIEW
  5
6
330
0
100
AcDbSymbolTable
 70
     0
  0
ENDTAB
  0
TABLE
  2
UCS
  5
7
330
0
100
AcDbSymbolTable
 70
     0
  0
ENDTAB
  0
TABLE
  2
APPID
  5
9
330
0
100
AcDbSymbolTable
 70
     1
  0
APPID
  5
12
330
9
100
AcDbSymbolTableRecord
100
AcDbRegAppTableRecord
  2
ACAD
 70
     0
  0
ENDTAB
  0
TABLE
  2
DIMSTYLE
  5
A
330
0
100
AcDbSymbolTable
 70
     1
  0
DIMSTYLE
105
27
330
A
100
AcDbSymbolTableRecord
100
AcDbDimStyleTableRecord
  2
ISO-25
 70
     0
  3

  4

  5

  6

  7

 40
1.0
 41
2.5
 42
0.625
 43
3.75
 44
1.25
 45
0.0
 46
0.0
 47
0.0
 48
0.0
140
2.5
141
2.5
142
0.0
143
0.03937007874016
144
1.0
145
0.0
146
1.0
147
0.625
 71
     0
 72
     0
 73
     0
 74
     0
 75
     0
 76
     0
 77
     1
 78
     8
170
     0
171
     3
172
     1
173
     0
174
     0
175
     0
176
     0
177
     0
178
     0
270
     2
271
     2
272
     2
273
     2
274
     3
340
11
275
     0
280
     0
281
     0
282
     0
283
     0
284
     8
285
     0
286
     0
287
     3
288
     0
  0
ENDTAB
  0
TABLE
  2
BLOCK_RECORD
  5
1
330
0
100
AcDbSymbolTable
 70
     0
  0
BLOCK_RECORD
  5
1F
330
1
100
AcDbSymbolTableRecord
100
AcDbBlockTableRecord
  2
*MODEL_SPACE
  0
BLOCK_RECORD
  5
1B
330
1
100
AcDbSymbolTableRecord
100
AcDbBlockTableRecord
  2
*PAPER_SPACE
  0
ENDTAB
  0
ENDSEC
  0
SECTION
  2
BLOCKS
  0
BLOCK
  5
20
330
1F
100
AcDbEntity
  8
0
100
AcDbBlockBegin
  2
*MODEL_SPACE
 70
     0
 10
0.0
 20
0.0
 30
0.0
  3
*MODEL_SPACE
  1

  0
ENDBLK
  5
21
330
1F
100
AcDbEntity
  8
0
100
AcDbBlockEnd
  0
BLOCK
  5
1C
330
1B
100
AcDbEntity
 67
     1
  8
0
100
AcDbBlockBegin
  2
*PAPER_SPACE
 70
     0
 10
0.0
 20
0.0
 30
0.0
  3
*PAPER_SPACE
  1

  0
ENDBLK
  5
1D
330
1B
100
AcDbEntity
 67
     1
  8
0
100
AcDbBlockEnd
  0
ENDSEC
  0
SECTION
  2
ENTITIES
  0
SPLINE
  5
100
102
{ACAD_REACTORS
330
10061
102
}
330
1F
100
AcDbEntity
  8
0
 62
     7
100
AcDbSpline
210
0.0
220
0.0
230
1.0
 70
     8
 71
     3
 72
     8
 73
     4
 74
     0
 42
0.000000001
 43
0.0000001
 40
0.0
 40
0.0
 40
0.0
 40
0.0
 40
1.0
 40
1.0
 40
1.0
 40
1.0
 10
478.186464
 20
207.57216
 30
0.0
 10
463.930272
 20
208.41688
 30
0.0
 10
453.335168
 20
210.20144
 30
0.0
 10
441.227616
 20
213.79728
 30
0.0
  0
SPLINE
  5
101
102
{ACAD_REACTORS
330
10061
102
}
330
1F
100
AcDbEntity
  8
0
 62
     7
100
AcDbSpline
210
0.0
220
0.0
230
1.0
 70
     8
 71
     3
 72
     8
 73
     4
 74
     0
 42
0.000000001
 43
0.0000001
 40
0.0
 40
0.0
 40
0.0
 40
0.0
 40
1.0
 40
1.0
 40
1.0
 40
1.0
 10
441.227616
 20
213.79728
 30
0.0
 10
413.340816
 20
222.0792
 30
0.0
 10
387.990272
 20
238.65032
 30
0.0
 10
369.151928
 20
260.91176
 30
0.0
  0
SPLINE
  5
102
102
{ACAD_REACTORS
330
10061
102
}
330
1F
100
AcDbEntity
  8
0
 62
     7
100
AcDbSpline
210
0.0
220
0.0
230
1.0
 70
     8
 71
     3
 72
     8
 73
     4
 74
     0
 42
0.000000001
 43
0.0000001
 40
0.0
 40
0.0
 40
0.0
 40
0.0
 40
1.0
 40
1.0
 40
1.0
 40
1.0
 10
369.151928
 20
260.91176
 30
0.0
 10
351.10068
 20
282.24304
 30
0.0
 10
339.315
 20
308.05472
 30
0.0
 10
335.072296
 20
335.5492
 30
0.0
  0
SPLINE
  5
103
102
{ACAD_REACTORS
330
10061
102
}
330
1F
100
AcDbEntity
  8
0
 62
     7
100
AcDbSpline
210
0.0
220
0.0
230
1.0
 70
     8
 71
     3
 72
     8
 73
     4
 74
     0
 42
0.000000001
 43
0.0000001
 40
0.0
 40
0.0
 40
0.0
 40
0.0
 40
1.0
 40
1.0
 40
1.0
 40
1.0
 10
335.072296
 20
335.5492
 30
0.0
 10
333.748896
 20
344.125376
 30
0.0
 10
333.37184
 20
349.266392
 30
0.0
 10
333.37184
 20
358.734416
 30
0.0
  0
SPLINE
  5
104
102
{ACAD_REACTORS
330
10061
102
}
330
1F
100
AcDbEntity
  8
0
 62
     7
100
AcDbSpline
210
0.0
220
0.0
230
1.0
 70
     8
 71
     3
 72
     8
 73
     4
 74
     0
 42
0.000000001
 43
0.0000001
 40
0.0
 40
0.0
 40
0.0
 40
0.0
 40
1.0
 40
1.0
 40
1.0
 40
1.0
 10
333.37184
 20
358.734416
 30
0.0
 10
333.37184
 20
366.343384
 30
0.0
 10
333.540528
 20
369.71416
 30
0.0
 10
334.219544
 20
375.6734
 30
0.0
  0
SPLINE
  5
105
102
{ACAD_REACTORS
330
10061
102
}
330
1F
100
AcDbEntity
  8
0
 62
     7
100
AcDbSpline
210
0.0
220
0.0
230
1.0
 70
     8
 71
     3
 72
     8
 73
     4
 74
     0
 42
0.000000001
 43
0.0000001
 40
0.0
 40
0.0
 40
0.0
 40
0.0
 40
1.0
 40
1.0
 40
1.0
 40
1.0
 10
334.219544
 20
375.6734
 30
0.0
 10
339.67988
 20
423.594744
 30
0.0
 10
367.420584
 20
465.876808
 30
0.0
 10
409.166416
 20
489.9066
 30
0.0
  0
SPLINE
  5
106
102
{ACAD_REACTORS
330
10061
102
}
330
1F
100
AcDbEntity
  8
0
 62
     7
100
AcDbSpline
210
0.0
220
0.0
230
1.0
 70
     8
 71
     3
 72
     8
 73
     4
 74
     0
 42
0.000000001
 43
0.0000001
 40
0.0
 40
0.0
 40
0.0
 40
0.0
 40
1.0
 40
1.0
 40
1.0
 40
1.0
 10
409.166416
 20
489.9066
 30
0.0
 10
413.47924
 20
492.38916
 30
0.0
 10
421.730416
 20
496.46692
 30
0.0
 10
426.098976
 20
498.274744
 30
0.0
  0
SPLINE
  5
107
102
{ACAD_REACTORS
330
10061
102
}
330
1F
100
AcDbEntity
  8
0
 62
     7
100
AcDbSpline
210
0.0
220
0.0
230
1.0
 70
     8
 71
     3
 72
     8
 73
     4
 74
     0
 42
0.000000001
 43
0.0000001
 40
0.0
 40
0.0
 40
0.0
 40
0.0
 40
1.0
 40
1.0
 40
1.0
 40
1.0
 10
426.098976
 20
498.274744
 30
0.0
 10
445.86976
 20
506.4564
 30
0.0
 10
466.795808
 20
510.442344
 30
0.0
 10
487.39704
 20
509.950648
 30
0.0
  0
SPLINE
  5
108
102
{ACAD_REACTORS
330
10061
102
}
330
1F
100
AcDbEntity
  8
0
 62
     7
100
AcDbSpline
210
0.0
220
0.0
230
1.0
 70
     8
 71
     3
 72
     8
 73
     4
 74
     0
 42
0.000000001
 43
0.0000001
 40
0.0
 40
0.0
 40
0.0
 40
0.0
 40
1.0
 40
1.0
 40
1.0
 40
1.0
 10
487.39704
 20
509.950648
 30
0.0
 10
492.438952
 20
509.830312
 30
0.0
 10
497.61016
 20
509.531432
 30
0.0
 10
499.2014
 20
509.268392
 30
0.0
  0
SPLINE
  5
109
102
{ACAD_REACTORS
330
10061
102
}
330
1F
100
AcDbEntity
  8
0
 62
     7
100
AcDbSpline
210
0.0
220
0.0
230
1.0
 70
     8
 71
     3
 72
     8
 73
     4
 74
     0
 42
0.000000001
 43
0.0000001
 40
0.0
 40
0.0
 40
0.0
 40
0.0
 40
1.0
 40
1.0
 40
1.0
 40
1.0
 10
499.307272
 20
463.104768
 30
0.0
 10
495.233296
 20
463.96776
 30
0.0
 10
482.17904
 20
464.341648
 30
0.0
 10
475.751488
 20
463.779448
 30
0.0
  0
SPLINE
  5
10A
102
{ACAD_REACTORS
330
10061
102
}
330
1F
100
AcDbEntity
  8
0
 62
     7
100
AcDbSpline
210
0.0
220
0.0
230
1.0
 70
     8
 71
     3
 72
     8
 73
     4
 74
     0
 42
0.000000001
 43
0.0000001
 40
0.0
 40
0.0
 40
0.0
 40
0.0
 40
1.0
 40
1.0
 40
1.0
 40
1.0
 10
475.751488
 20
463.779448
 30
0.0
 10
462.156192
 20
462.590288
 30
0.0
 10
450.046744
 20
459.224872
 30
0.0
 10
437.956368
 20
453.275552
 30
0.0
  0
SPLINE
  5
10B
102
{ACAD_REACTORS
330
10061
102
}
330
1F
100
AcDbEntity
  8
0
 62
     7
100
AcDbSpline
210
0.0
220
0.0
230
1.0
 70
     8
 71
     3
 72
     8
 73
     4
 74
     0
 42
0.000000001
 43
0.0000001
 40
0.0
 40
0.0
 40
0.0
 40
0.0
 40
1.0
 40
1.0
 40
1.0
 40
1.0
 10
437.956368
 20
453.275552
 30
0.0
 10
408.532888
 20
438.79712
 30
0.0
 10
387.47028
 20
411.363008
 30
0.0
 10
381.117
 20
379.242112
 30
0.0
  0
SPLINE
  5
10C
102
{ACAD_REACTORS
330
10061
102
}
330
1F
100
AcDbEntity
  8
0
 62
     7
100
AcDbSpline
210
0.0
220
0.0
230
1.0
 70
     8
 71
     3
 72
     8
 73
     4
 74
     0
 42
0.000000001
 43
0.0000001
 40
0.0
 40
0.0
 40
0.0
 40
0.0
 40
1.0
 40
1.0
 40
1.0
 40
1.0
 10
381.117
 20
379.242112
 30
0.0
 10
379.594208
 20
371.543184
 30
0.0
 10
379.112712
 20
365.728376
 30
0.0
 10
379.256496
 20
356.773784
 30
0.0
  0
SPLINE
  5
10D
102
{ACAD_REACTORS
330
10061
102
}
330
1F
100
AcDbEntity
  8
0
 62
     7
100
AcDbSpline
210
0.0
220
0.0
230
1.0
 70
     8
 71
     3
 72
     8
 73
     4
 74
     0
 42
0.000000001
 43
0.0000001
 40
0.0
 40
0.0
 40
0.0
 40
0.0
 40
1.0
 40
1.0
 40
1.0
 40
1.0
 10
379.256496
 20
356.773784
 30
0.0
 10
379.368384
 20
349.805784
 30
0.0
 10
379.596736
 20
347.1324
 30
0.0
 10
380.58692
 20
341.19816
 30
0.0
  0
SPLINE
  5
10E
102
{ACAD_REACTORS
330
10061
102
}
330
1F
100
AcDbEntity
  8
0
 62
     7
100
AcDbSpline
210
0.0
220
0.0
230
1.0
 70
     8
 71
     3
 72
     8
 73
     4
 74
     0
 42
0.000000001
 43
0.0000001
 40
0.0
 40
0.0
 40
0.0
 40
0.0
 40
1.0
 40
1.0
 40
1.0
 40
1.0
 10
380.58692
 20
341.19816
 30
0.0
 10
386.274256
 20
307.11392
 30
0.0
 10
408.698688
 20
277.68592
 30
0.0
 10
440.034272
 20
263.18432
 30
0.0
  0
SPLINE
  5
10F
102
{ACAD_REACTORS
330
10061
102
}
330
1F
100
AcDbEntity
  8
0
 62
     7
100
AcDbSpline
210
0.0
220
0.0
230
1.0
 70
     8
 71
     3
 72
     8
 73
     4
 74
     0
 42
0.000000001
 43
0.0000001
 40
0.0
 40
0.0
 40
0.0
 40
0.0
 40
1.0
 40
1.0
 40
1.0
 40
1.0
 10
440.034272
 20
263.18432
 30
0.0
 10
450.78188
 20
258.21048
 30
0.0
 10
461.095416
 20
255.32888
 30
0.0
 10
473.316504
 20
253.8852
 30
0.0
  0
SPLINE
  5
110
102
{ACAD_REACTORS
330
10061
102
}
330
1F
100
AcDbEntity
  8
0
 62
     7
100
AcDbSpline
210
0.0
220
0.0
230
1.0
 70
     8
 71
     3
 72
     8
 73
     4
 74
     0
 42
0.000000001
 43
0.0000001
 40
0.0
 40
0.0
 40
0.0
 40
0.0
 40
1.0
 40
1.0
 40
1.0
 40
1.0
 10
473.316504
 20
253.8852
 30
0.0
 10
477.882544
 20
253.34584
 30
0.0
 10
491.213776
 20
253.34712
 30
0.0
 10
495.760672
 20
253.8852
 30
0.0
  0
SPLINE
  5
111
102
{ACAD_REACTORS
330
10061
102
}
330
1F
100
AcDbEntity
  8
0
 62
     7
100
AcDbSpline
210
0.0
220
0.0
230
1.0
 70
     8
 71
     3
 72
     8
 73
     4
 74
     0
 42
0.000000001
 43
0.0000001
 40
0.0
 40
0.0
 40
0.0
 40
0.0
 40
1.0
 40
1.0
 40
1.0
 40
1.0
 10
495.760672
 20
253.8852
 30
0.0
 10
497.507504
 20
254.0928
 30
0.0
 10
499.151112
 20
254.31544
 30
0.0
 10
499.413136
 20
254.38
 30
0.0
  0
SPLINE
  5
113
102
{ACAD_REACTORS
330
10061
102
}
330
1F
100
AcDbEntity
  8
0
 62
     7
100
AcDbSpline
210
0.0
220
0.0
230
1.0
 70
     8
 71
     3
 72
     8
 73
     4
 74
     0
 42
0.000000001
 43
0.0000001
 40
0.0
 40
0.0
 40
0.0
 40
0.0
 40
1.0
 40
1.0
 40
1.0
 40
1.0
 10
499.2014
 20
208.19808
 30
0.0
 10
496.529104
 20
207.75584
 30
0.0
 10
482.25136
 20
207.32904
 30
0.0
 10
478.186464
 20
207.56992
 30
0.0
  0
SPLINE
  5
115
102
{ACAD_REACTORS
330
10061
102
}
330
1F
100
AcDbEntity
  8
0
 62
     7
100
AcDbSpline
210
0.0
220
0.0
230
1.0
 70
     8
 71
     3
 72
     8
 73
     4
 74
     0
 42
0.000000001
 43
0.0000001
 40
0.0
 40
0.0
 40
0.0
 40
0.0
 40
1.0
 40
1.0
 40
1.0
 40
1.0
 10
734.812184
 20
207.57216
 30
0.0
 10
720.555976
 20
208.41688
 30
0.0
 10
709.960864
 20
210.20144
 30
0.0
 10
697.85332
 20
213.79728
 30
0.0
  0
SPLINE
  5
116
102
{ACAD_REACTORS
330
10061
102
}
330
1F
100
AcDbEntity
  8
0
 62
     7
100
AcDbSpline
210
0.0
220
0.0
230
1.0
 70
     8
 71
     3
 72
     8
 73
     4
 74
     0
 42
0.000000001
 43
0.0000001
 40
0.0
 40
0.0
 40
0.0
 40
0.0
 40
1.0
 40
1.0
 40
1.0
 40
1.0
 10
697.85332
 20
213.79728
 30
0.0
 10
677.486088
 20
219.846
 30
0.0
 10
657.8884
 20
230.62848
 30
0.0
 10
641.859456
 20
244.60464
 30
0.0
  0
SPLINE
  5
117
102
{ACAD_REACTORS
330
10061
102
}
330
1F
100
AcDbEntity
  8
0
 62
     7
100
AcDbSpline
210
0.0
220
0.0
230
1.0
 70
     8
 71
     3
 72
     8
 73
     4
 74
     0
 42
0.000000001
 43
0.0000001
 40
0.0
 40
0.0
 40
0.0
 40
0.0
 40
1.0
 40
1.0
 40
1.0
 40
1.0
 10
641.859456
 20
244.60464
 30
0.0
 10
613.293776
 20
269.512
 30
0.0
 10
595.140792
 20
304.09648
 30
0.0
 10
590.845256
 20
341.79544
 30
0.0
  0
SPLINE
  5
118
102
{ACAD_REACTORS
330
10061
102
}
330
1F
100
AcDbEntity
  8
0
 62
     7
100
AcDbSpline
210
0.0
220
0.0
230
1.0
 70
     8
 71
     3
 72
     8
 73
     4
 74
     0
 42
0.000000001
 43
0.0000001
 40
0.0
 40
0.0
 40
0.0
 40
0.0
 40
1.0
 40
1.0
 40
1.0
 40
1.0
 10
590.845256
 20
341.79544
 30
0.0
 10
590.166232
 20
347.754664
 30
0.0
 10
589.997544
 20
351.12544
 30
0.0
 10
589.997544
 20
358.734416
 30
0.0
  0
SPLINE
  5
119
102
{ACAD_REACTORS
330
10061
102
}
330
1F
100
AcDbEntity
  8
0
 62
     7
100
AcDbSpline
210
0.0
220
0.0
230
1.0
 70
     8
 71
     3
 72
     8
 73
     4
 74
     0
 42
0.000000001
 43
0.0000001
 40
0.0
 40
0.0
 40
0.0
 40
0.0
 40
1.0
 40
1.0
 40
1.0
 40
1.0
 10
589.997544
 20
358.734416
 30
0.0
 10
589.997544
 20
366.343384
 30
0.0
 10
590.166232
 20
369.71416
 30
0.0
 10
590.845256
 20
375.6734
 30
0.0
  0
SPLINE
  5
11A
102
{ACAD_REACTORS
330
10061
102
}
330
1F
100
AcDbEntity
  8
0
 62
     7
100
AcDbSpline
210
0.0
220
0.0
230
1.0
 70
     8
 71
     3
 72
     8
 73
     4
 74
     0
 42
0.000000001
 43
0.0000001
 40
0.0
 40
0.0
 40
0.0
 40
0.0
 40
1.0
 40
1.0
 40
1.0
 40
1.0
 10
590.845256
 20
375.6734
 30
0.0
 10
596.30528
 20
423.59208
 30
0.0
 10
624.049128
 20
465.881248
 30
0.0
 10
665.785784
 20
489.903168
 30
0.0
  0
SPLINE
  5
11B
102
{ACAD_REACTORS
330
10061
102
}
330
1F
100
AcDbEntity
  8
0
 62
     7
100
AcDbSpline
210
0.0
220
0.0
230
1.0
 70
     8
 71
     3
 72
     8
 73
     4
 74
     0
 42
0.000000001
 43
0.0000001
 40
0.0
 40
0.0
 40
0.0
 40
0.0
 40
1.0
 40
1.0
 40
1.0
 40
1.0
 10
665.785784
 20
489.903168
 30
0.0
 10
670.1052
 20
492.389248
 30
0.0
 10
678.35472
 20
496.466344
 30
0.0
 10
682.724688
 20
498.274744
 30
0.0
  0
SPLINE
  5
11C
102
{ACAD_REACTORS
330
10061
102
}
330
1F
100
AcDbEntity
  8
0
 62
     7
100
AcDbSpline
210
0.0
220
0.0
230
1.0
 70
     8
 71
     3
 72
     8
 73
     4
 74
     0
 42
0.000000001
 43
0.0000001
 40
0.0
 40
0.0
 40
0.0
 40
0.0
 40
1.0
 40
1.0
 40
1.0
 40
1.0
 10
682.724688
 20
498.274744
 30
0.0
 10
702.495456
 20
506.4564
 30
0.0
 10
723.421496
 20
510.442344
 30
0.0
 10
744.022744
 20
509.950648
 30
0.0
  0
SPLINE
  5
11D
102
{ACAD_REACTORS
330
10061
102
}
330
1F
100
AcDbEntity
  8
0
 62
     7
100
AcDbSpline
210
0.0
220
0.0
230
1.0
 70
     8
 71
     3
 72
     8
 73
     4
 74
     0
 42
0.000000001
 43
0.0000001
 40
0.0
 40
0.0
 40
0.0
 40
0.0
 40
1.0
 40
1.0
 40
1.0
 40
1.0
 10
744.022744
 20
509.950648
 30
0.0
 10
749.064664
 20
509.830312
 30
0.0
 10
754.235864
 20
509.531432
 30
0.0
 10
755.827064
 20
509.268392
 30
0.0
  0
LWPOLYLINE
  5
11E
102
{ACAD_REACTORS
330
10061
102
}
330
1F
100
AcDbEntity
  8
0
 62
     7
100
AcDbPolyline
 90
        2
 70
     1
 43
0.0
 10
478.186464
 20
207.56992
 10
478.186464
 20
207.57216
  0
SPLINE
  5
11F
102
{ACAD_REACTORS
330
10061
102
}
330
1F
100
AcDbEntity
  8
0
 62
     7
100
AcDbSpline
210
0.0
220
0.0
230
1.0
 70
     8
 71
     3
 72
     8
 73
     4
 74
     0
 42
0.000000001
 43
0.0000001
 40
0.0
 40
0.0
 40
0.0
 40
0.0
 40
1.0
 40
1.0
 40
1.0
 40
1.0
 10
756.038824
 20
463.086592
 30
0.0
 10
755.776824
 20
463.151152
 30
0.0
 10
754.133224
 20
463.374512
 30
0.0
 10
752.386344
 20
463.582888
 30
0.0
  0
SPLINE
  5
120
102
{ACAD_REACTORS
330
10061
102
}
330
1F
100
AcDbEntity
  8
0
 62
     7
100
AcDbSpline
210
0.0
220
0.0
230
1.0
 70
     8
 71
     3
 72
     8
 73
     4
 74
     0
 42
0.000000001
 43
0.0000001
 40
0.0
 40
0.0
 40
0.0
 40
0.0
 40
1.0
 40
1.0
 40
1.0
 40
1.0
 10
752.386344
 20
463.582888
 30
0.0
 10
747.813304
 20
464.128408
 30
0.0
 10
734.294824
 20
464.127808
 30
0.0
 10
729.730504
 20
463.582088
 30
0.0
  0
SPLINE
  5
121
102
{ACAD_REACTORS
330
10061
102
}
330
1F
100
AcDbEntity
  8
0
 62
     7
100
AcDbSpline
210
0.0
220
0.0
230
1.0
 70
     8
 71
     3
 72
     8
 73
     4
 74
     0
 42
0.000000001
 43
0.0000001
 40
0.0
 40
0.0
 40
0.0
 40
0.0
 40
1.0
 40
1.0
 40
1.0
 40
1.0
 10
729.730504
 20
463.582088
 30
0.0
 10
716.149888
 20
461.957768
 30
0.0
 10
704.258864
 20
458.349648
 30
0.0
 10
692.676424
 20
452.338688
 30
0.0
  0
SPLINE
  5
122
102
{ACAD_REACTORS
330
10061
102
}
330
1F
100
AcDbEntity
  8
0
 62
     7
100
AcDbSpline
210
0.0
220
0.0
230
1.0
 70
     8
 71
     3
 72
     8
 73
     4
 74
     0
 42
0.000000001
 43
0.0000001
 40
0.0
 40
0.0
 40
0.0
 40
0.0
 40
1.0
 40
1.0
 40
1.0
 40
1.0
 10
692.676424
 20
452.338688
 30
0.0
 10
678.95104
 20
445.2156
 30
0.0
 10
667.135712
 20
435.356872
 30
0.0
 10
657.638232
 20
423.102776
 30
0.0
  0
SPLINE
  5
123
102
{ACAD_REACTORS
330
10061
102
}
330
1F
100
AcDbEntity
  8
0
 62
     7
100
AcDbSpline
210
0.0
220
0.0
230
1.0
 70
     8
 71
     3
 72
     8
 73
     4
 74
     0
 42
0.000000001
 43
0.0000001
 40
0.0
 40
0.0
 40
0.0
 40
0.0
 40
1.0
 40
1.0
 40
1.0
 40
1.0
 10
657.638232
 20
423.102776
 30
0.0
 10
655.349376
 20
420.149592
 30
0.0
 10
651.495032
 20
414.378696
 30
0.0
 10
649.577408
 20
411.033744
 30
0.0
  0
SPLINE
  5
124
102
{ACAD_REACTORS
330
10061
102
}
330
1F
100
AcDbEntity
  8
0
 62
     7
100
AcDbSpline
210
0.0
220
0.0
230
1.0
 70
     8
 71
     3
 72
     8
 73
     4
 74
     0
 42
0.000000001
 43
0.0000001
 40
0.0
 40
0.0
 40
0.0
 40
0.0
 40
1.0
 40
1.0
 40
1.0
 40
1.0
 10
649.577408
 20
411.033744
 30
0.0
 10
646.33768
 20
405.382632
 30
0.0
 10
643.074024
 20
397.97816
 30
0.0
 10
640.944664
 20
391.44804
 30
0.0
  0
SPLINE
  5
125
102
{ACAD_REACTORS
330
10061
102
}
330
1F
100
AcDbEntity
  8
0
 62
     7
100
AcDbSpline
210
0.0
220
0.0
230
1.0
 70
     8
 71
     3
 72
     8
 73
     4
 74
     0
 42
0.000000001
 43
0.0000001
 40
0.0
 40
0.0
 40
0.0
 40
0.0
 40
1.0
 40
1.0
 40
1.0
 40
1.0
 10
640.944664
 20
391.44804
 30
0.0
 10
639.903088
 20
388.253872
 30
0.0
 10
638.365792
 20
382.630304
 30
0.0
 10
638.365792
 20
382.01436
 30
0.0
  0
SPLINE
  5
126
102
{ACAD_REACTORS
330
10061
102
}
330
1F
100
AcDbEntity
  8
0
 62
     7
100
AcDbSpline
210
0.0
220
0.0
230
1.0
 70
     8
 71
     3
 72
     8
 73
     4
 74
     0
 42
0.000000001
 43
0.0000001
 40
0.0
 40
0.0
 40
0.0
 40
0.0
 40
1.0
 40
1.0
 40
1.0
 40
1.0
 10
638.365792
 20
382.01436
 30
0.0
 10
638.365792
 20
381.748184
 30
0.0
 10
644.113528
 20
381.70812
 30
0.0
 10
682.301296
 20
381.70812
 30
0.0
  0
SPLINE
  5
128
102
{ACAD_REACTORS
330
10061
102
}
330
1F
100
AcDbEntity
  8
0
 62
     7
100
AcDbSpline
210
0.0
220
0.0
230
1.0
 70
     8
 71
     3
 72
     8
 73
     4
 74
     0
 42
0.000000001
 43
0.0000001
 40
0.0
 40
0.0
 40
0.0
 40
0.0
 40
1.0
 40
1.0
 40
1.0
 40
1.0
 10
682.301296
 20
335.76112
 30
0.0
 10
645.127368
 20
335.76112
 30
0.0
 10
638.365792
 20
335.71632
 30
0.0
 10
638.365792
 20
335.46944
 30
0.0
  0
SPLINE
  5
129
102
{ACAD_REACTORS
330
10061
102
}
330
1F
100
AcDbEntity
  8
0
 62
     7
100
AcDbSpline
210
0.0
220
0.0
230
1.0
 70
     8
 71
     3
 72
     8
 73
     4
 74
     0
 42
0.000000001
 43
0.0000001
 40
0.0
 40
0.0
 40
0.0
 40
0.0
 40
1.0
 40
1.0
 40
1.0
 40
1.0
 10
638.365792
 20
335.46944
 30
0.0
 10
638.365792
 20
334.89728
 30
0.0
 10
639.895848
 20
329.25256
 30
0.0
 10
640.840744
 20
326.3388
 30
0.0
  0
SPLINE
  5
12A
102
{ACAD_REACTORS
330
10061
102
}
330
1F
100
AcDbEntity
  8
0
 62
     7
100
AcDbSpline
210
0.0
220
0.0
230
1.0
 70
     8
 71
     3
 72
     8
 73
     4
 74
     0
 42
0.000000001
 43
0.0000001
 40
0.0
 40
0.0
 40
0.0
 40
0.0
 40
1.0
 40
1.0
 40
1.0
 40
1.0
 10
640.840744
 20
326.3388
 30
0.0
 10
648.239168
 20
303.5244
 30
0.0
 10
663.05568
 20
283.99664
 30
0.0
 10
682.936512
 20
270.85792
 30
0.0
  0
SPLINE
  5
12B
102
{ACAD_REACTORS
330
10061
102
}
330
1F
100
AcDbEntity
  8
0
 62
     7
100
AcDbSpline
210
0.0
220
0.0
230
1.0
 70
     8
 71
     3
 72
     8
 73
     4
 74
     0
 42
0.000000001
 43
0.0000001
 40
0.0
 40
0.0
 40
0.0
 40
0.0
 40
1.0
 40
1.0
 40
1.0
 40
1.0
 10
682.936512
 20
270.85792
 30
0.0
 10
698.112616
 20
260.8284
 30
0.0
 10
714.940232
 20
255.06048
 30
0.0
 10
733.309544
 20
253.592
 30
0.0
  0
SPLINE
  5
12C
102
{ACAD_REACTORS
330
10061
102
}
330
1F
100
AcDbEntity
  8
0
 62
     7
100
AcDbSpline
210
0.0
220
0.0
230
1.0
 70
     8
 71
     3
 72
     8
 73
     4
 74
     0
 42
0.000000001
 43
0.0000001
 40
0.0
 40
0.0
 40
0.0
 40
0.0
 40
1.0
 40
1.0
 40
1.0
 40
1.0
 10
733.309544
 20
253.592
 30
0.0
 10
739.062904
 20
253.132
 30
0.0
 10
751.187224
 20
253.5416
 30
0.0
 10
755.827064
 20
254.35288
 30
0.0
  0
SPLINE
  5
12E
102
{ACAD_REACTORS
330
10061
102
}
330
1F
100
AcDbEntity
  8
0
 62
     7
100
AcDbSpline
210
0.0
220
0.0
230
1.0
 70
     8
 71
     3
 72
     8
 73
     4
 74
     0
 42
0.000000001
 43
0.0000001
 40
0.0
 40
0.0
 40
0.0
 40
0.0
 40
1.0
 40
1.0
 40
1.0
 40
1.0
 10
755.827064
 20
208.20048
 30
0.0
 10
753.154824
 20
207.75824
 30
0.0
 10
738.877064
 20
207.33144
 30
0.0
 10
734.812184
 20
207.57232
 30
0.0
  0
LWPOLYLINE
  5
130
102
{ACAD_REACTORS
330
10061
102
}
330
1F
100
AcDbEntity
  8
0
 62
     7
100
AcDbPolyline
 90
        2
 70
     1
 43
0.0
 10
734.812184
 20
207.57232
 10
734.812184
 20
207.57216
  0
LINE
  5
10048
102
{ACAD_REACTORS
330
10061
102
}
330
1F
100
AcDbEntity
  8
0
 62
     7
100
AcDbLine
 10
499.413136
 20
254.38
 30
0.0
 11
499.889544
 21
254.49744
 31
0.0
  0
LINE
  5
10049
102
{ACAD_REACTORS
330
10061
102
}
330
1F
100
AcDbEntity
  8
0
 62
     7
100
AcDbLine
 10
499.889544
 20
254.49744
 30
0.0
 11
499.889544
 21
231.40472
 31
0.0
  0
LINE
  5
1004A
102
{ACAD_REACTORS
330
10061
102
}
330
1F
100
AcDbEntity
  8
0
 62
     7
100
AcDbLine
 10
499.889544
 20
231.40472
 30
0.0
 11
499.889544
 21
208.312
 31
0.0
  0
LINE
  5
1004B
102
{ACAD_REACTORS
330
10061
102
}
330
1F
100
AcDbEntity
  8
0
 62
     7
100
AcDbLine
 10
499.889544
 20
208.312
 30
0.0
 11
499.2014
 21
208.19808
 31
0.0
  0
LINE
  5
1004D
102
{ACAD_REACTORS
330
10061
102
}
330
1F
100
AcDbEntity
  8
0
 62
     7
100
AcDbLine
 10
499.2014
 20
509.268392
 30
0.0
 11
499.889544
 21
509.15464
 31
0.0
  0
LINE
  5
1004E
102
{ACAD_REACTORS
330
10061
102
}
330
1F
100
AcDbEntity
  8
0
 62
     7
100
AcDbLine
 10
499.889544
 20
509.15464
 30
0.0
 11
499.889544
 21
486.068032
 31
0.0
  0
LINE
  5
1004F
102
{ACAD_REACTORS
330
10061
102
}
330
1F
100
AcDbEntity
  8
0
 62
     7
100
AcDbLine
 10
499.889544
 20
486.068032
 30
0.0
 11
499.889544
 21
462.981432
 31
0.0
  0
LINE
  5
10050
102
{ACAD_REACTORS
330
10061
102
}
330
1F
100
AcDbEntity
  8
0
 62
     7
100
AcDbLine
 10
499.889544
 20
462.981432
 30
0.0
 11
499.307272
 21
463.104768
 31
0.0
  0
LINE
  5
10052
102
{ACAD_REACTORS
330
10061
102
}
330
1F
100
AcDbEntity
  8
0
 62
     7
100
AcDbLine
 10
682.301296
 20
381.70812
 30
0.0
 11
726.2368
 21
381.70812
 31
0.0
  0
LINE
  5
10053
102
{ACAD_REACTORS
330
10061
102
}
330
1F
100
AcDbEntity
  8
0
 62
     7
100
AcDbLine
 10
726.2368
 20
381.70812
 30
0.0
 11
726.2368
 21
358.734616
 31
0.0
  0
LINE
  5
10054
102
{ACAD_REACTORS
330
10061
102
}
330
1F
100
AcDbEntity
  8
0
 62
     7
100
AcDbLine
 10
726.2368
 20
358.734616
 30
0.0
 11
726.2368
 21
335.76112
 31
0.0
  0
LINE
  5
10055
102
{ACAD_REACTORS
330
10061
102
}
330
1F
100
AcDbEntity
  8
0
 62
     7
100
AcDbLine
 10
726.2368
 20
335.76112
 30
0.0
 11
682.301296
 21
335.76112
 31
0.0
  0
LINE
  5
10057
102
{ACAD_REACTORS
330
10061
102
}
330
1F
100
AcDbEntity
  8
0
 62
     7
100
AcDbLine
 10
755.827064
 20
509.268392
 30
0.0
 11
756.515224
 21
509.15464
 31
0.0
  0
LINE
  5
10058
102
{ACAD_REACTORS
330
10061
102
}
330
1F
100
AcDbEntity
  8
0
 62
     7
100
AcDbLine
 10
756.515224
 20
509.15464
 30
0.0
 11
756.515224
 21
486.061904
 31
0.0
  0
LINE
  5
10059
102
{ACAD_REACTORS
330
10061
102
}
330
1F
100
AcDbEntity
  8
0
 62
     7
100
AcDbLine
 10
756.515224
 20
486.061904
 30
0.0
 11
756.515224
 21
462.969168
 31
0.0
  0
LINE
  5
1005A
102
{ACAD_REACTORS
330
10061
102
}
330
1F
100
AcDbEntity
  8
0
 62
     7
100
AcDbLine
 10
756.515224
 20
462.969168
 30
0.0
 11
756.038824
 21
463.086592
 31
0.0
  0
LINE
  5
1005C
102
{ACAD_REACTORS
330
10061
102
}
330
1F
100
AcDbEntity
  8
0
 62
     7
100
AcDbLine
 10
755.827064
 20
254.35288
 30
0.0
 11
756.515224
 21
254.47312
 31
0.0
  0
LINE
  5
1005D
102
{ACAD_REACTORS
330
10061
102
}
330
1F
100
AcDbEntity
  8
0
 62
     7
100
AcDbLine
 10
756.515224
 20
254.47312
 30
0.0
 11
756.515224
 21
231.39376
 31
0.0
  0
LINE
  5
1005E
102
{ACAD_REACTORS
330
10061
102
}
330
1F
100
AcDbEntity
  8
0
 62
     7
100
AcDbLine
 10
756.515224
 20
231.39376
 30
0.0
 11
756.515224
 21
208.3144
 31
0.0
  0
LINE
  5
1005F
102
{ACAD_REACTORS
330
10061
102
}
330
1F
100
AcDbEntity
  8
0
 62
     7
100
AcDbLine
 10
756.515224
 20
208.3144
 30
0.0
 11
755.827064
 21
208.20048
 31
0.0
  0
LINE
  5
10063
330
1F
100
AcDbEntity
  8
0
  6
BYBLOCK
100
AcDbLine
 10
362.841513059816
 20
448.153946209973
 30
0.0
 11
395.8390545191429
 21
481.1514876693
 31
0.0
1001
ACAD
1010
0.0
1020
0.0
1030
0.0
  0
LINE
  5
10064
330
1F
100
AcDbEntity
  8
0
  6
BYBLOCK
100
AcDbLine
 10
354.2261076663979
 20
435.0484127560204
 30
0.0
 11
408.9270464007814
 21
489.7493514904038
 31
0.0
1001
ACAD
1010
0.0
1020
0.0
1030
0.0
  0
LINE
  5
10065
330
1F
100
AcDbEntity
  8
0
  6
BYBLOCK
100
AcDbLine
 10
348.6586644382481
 20
424.990841467336
 30
0.0
 11
418.3803609861013
 21
494.7125380151891
 31
0.0
1001
ACAD
1010
0.0
1020
0.0
1030
0.0
  0
LINE
  5
10066
330
1F
100
AcDbEntity
  8
0
  6
BYBLOCK
100
AcDbLine
 10
345.2672891398801
 20
417.1093381084334
 30
0.0
 11
426.6170372636302
 21
498.4590862321835
 31
0.0
1001
ACAD
1010
0.0
1020
0.0
1030
0.0
  0
LINE
  5
10067
330
1F
100
AcDbEntity
  8
0
  6
BYBLOCK
100
AcDbLine
 10
342.0892569687559
 20
409.4411778767746
 30
0.0
 11
433.5874560821728
 21
500.9393769901916
 31
0.0
1001
ACAD
1010
0.0
1020
0.0
1030
0.0
  0
LINE
  5
10068
330
1F
100
AcDbEntity
  8
0
  6
BYBLOCK
100
AcDbLine
 10
340.1831035106084
 20
403.0448963580925
 30
0.0
 11
440.5578749007155
 21
503.4196677481997
 31
0.0
1001
ACAD
1010
0.0
1020
0.0
1030
0.0
  0
LINE
  5
10069
330
1F
100
AcDbEntity
  8
0
  6
BYBLOCK
100
AcDbLine
 10
338.2769500524609
 20
396.6486148394105
 30
0.0
 11
446.5843025178343
 21
504.9559673047839
 31
0.0
1001
ACAD
1010
0.0
1020
0.0
1030
0.0
  0
LINE
  5
1006A
330
1F
100
AcDbEntity
  8
0
  6
BYBLOCK
100
AcDbLine
 10
336.8367293915267
 20
390.7182661179417
 30
0.0
 11
452.5278366689323
 21
506.4093733953473
 31
0.0
1001
ACAD
1010
0.0
1020
0.0
1030
0.0
  0
LINE
  5
1006B
330
1F
100
AcDbEntity
  8
0
  6
BYBLOCK
100
AcDbLine
 10
335.8911388324502
 20
385.2825474983306
 30
0.0
 11
458.2177479222789
 21
507.6091565881594
 31
0.0
1001
ACAD
1010
0.0
1020
0.0
1030
0.0
  0
LINE
  5
1006C
330
1F
100
AcDbEntity
  8
0
  6
BYBLOCK
100
AcDbLine
 10
334.9455482733737
 20
379.8468288787195
 30
0.0
 11
463.4204571454798
 21
508.3217377508257
 31
0.0
1001
ACAD
1010
0.0
1020
0.0
1030
0.0
  0
LINE
  5
1006D
330
1F
100
AcDbEntity
  8
0
  6
BYBLOCK
100
AcDbLine
 10
334.1209075024245
 20
374.5320600472358
 30
0.0
 11
468.6231663686806
 21
509.034318913492
 31
0.0
1001
ACAD
1010
0.0
1020
0.0
1030
0.0
  0
LINE
  5
1006E
330
1F
100
AcDbEntity
  8
0
  6
BYBLOCK
100
AcDbLine
 10
333.6961553800905
 20
369.6171798643672
 30
0.0
 11
473.6146210023238
 21
509.5356454866005
 31
0.0
1001
ACAD
1010
0.0
1020
0.0
1030
0.0
  0
LINE
  5
1006F
330
1F
100
AcDbEntity
  8
0
  6
BYBLOCK
100
AcDbLine
 10
333.4453058814721
 20
364.8762023052142
 30
0.0
 11
478.2441488064662
 21
509.6750452302084
 31
0.0
1001
ACAD
1010
0.0
1020
0.0
1030
0.0
  0
LINE
  5
10070
330
1F
100
AcDbEntity
  8
0
  6
BYBLOCK
100
AcDbLine
 10
333.3835509582014
 20
360.324319321409
 30
0.0
 11
482.8736766106086
 21
509.8144449738162
 31
0.0
1001
ACAD
1010
0.0
1020
0.0
1030
0.0
  0
LINE
  5
10071
330
1F
100
AcDbEntity
  8
0
  6
BYBLOCK
100
AcDbLine
 10
333.4075486772277
 20
355.8581889799007
 30
0.0
 11
403.7721386193328
 21
426.2227789220058
 31
0.0
1001
ACAD
1010
0.0
1020
0.0
1030
0.0
  0
LINE
  5
10072
330
1F
100
AcDbEntity
  8
0
  6
BYBLOCK
100
AcDbLine
 10
417.9656257754602
 20
440.4162660781332
 30
0.0
 11
487.49605048747
 21
509.946690790143
 31
0.0
1001
ACAD
1010
0.0
1020
0.0
1030
0.0
  0
LINE
  5
10073
330
1F
100
AcDbEntity
  8
0
  6
BYBLOCK
100
AcDbLine
 10
333.4946206944593
 20
351.4551329365977
 30
0.0
 11
393.1714656938825
 21
411.1319779360209
 31
0.0
1001
ACAD
1010
0.0
1020
0.0
1030
0.0
  0
LINE
  5
10074
330
1F
100
AcDbEntity
  8
0
  6
BYBLOCK
100
AcDbLine
 10
431.8647222927822
 20
449.8252345349206
 30
0.0
 11
491.8136158950404
 21
509.7741281371788
 31
0.0
1001
ACAD
1010
0.0
1020
0.0
1030
0.0
  0
LINE
  5
10075
330
1F
100
AcDbEntity
  8
0
  6
BYBLOCK
100
AcDbLine
 10
333.7073704319866
 20
347.1777546135905
 30
0.0
 11
388.3426352515577
 21
401.8130194331615
 31
0.0
1001
ACAD
1010
0.0
1020
0.0
1030
0.0
  0
LINE
  5
10076
330
1F
100
AcDbEntity
  8
0
  6
BYBLOCK
100
AcDbLine
 10
441.2464236144054
 20
454.7168077960092
 30
0.0
 11
496.0890675550492
 21
509.559451736653
 31
0.0
1001
ACAD
1010
0.0
1020
0.0
1030
0.0
  0
LINE
  5
10077
330
1F
100
AcDbEntity
  8
0
  6
BYBLOCK
100
AcDbLine
 10
334.1639191081155
 20
343.1441752291847
 30
0.0
 11
385.5063806293201
 21
394.4866367503893
 31
0.0
1001
ACAD
1010
0.0
1020
0.0
1030
0.0
  0
LINE
  5
10078
330
1F
100
AcDbEntity
  8
0
  6
BYBLOCK
100
AcDbLine
 10
448.8855386744976
 20
457.8657947955669
 30
0.0
 11
499.889544
 21
508.8698001210693
 31
0.0
1001
ACAD
1010
0.0
1020
0.0
1030
0.0
  0
LINE
  5
10079
330
1F
100
AcDbEntity
  8
0
  6
BYBLOCK
100
AcDbLine
 10
334.6435803656666
 20
339.1337084262012
 30
0.0
 11
383.3426541156455
 21
387.8327821761801
 31
0.0
1001
ACAD
1010
0.0
1020
0.0
1030
0.0
  0
LINE
  5
1007A
330
1F
100
AcDbEntity
  8
0
  6
BYBLOCK
100
AcDbLine
 10
455.5918601011211
 20
460.0819881616558
 30
0.0
 11
499.889544
 21
504.3796720605347
 31
0.0
1001
ACAD
1010
0.0
1020
0.0
1030
0.0
  0
LINE
  5
1007B
330
1F
100
AcDbEntity
  8
0
  6
BYBLOCK
100
AcDbLine
 10
335.1601650855231
 20
335.1601650855232
 30
0.0
 11
381.7725917775994
 21
381.7725917775995
 31
0.0
1001
ACAD
1010
0.0
1020
0.0
1030
0.0
  0
LINE
  5
1007C
330
1F
100
AcDbEntity
  8
0
  6
BYBLOCK
100
AcDbLine
 10
461.4934625977309
 20
461.4934625977309
 30
0.0
 11
499.889544
 21
499.8895440000001
 31
0.0
1001
ACAD
1010
0.0
1020
0.0
1030
0.0
  0
LINE
  5
1007D
330
1F
100
AcDbEntity
  8
0
  6
BYBLOCK
100
AcDbLine
 10
335.9874666945707
 20
331.4973386340362
 30
0.0
 11
380.6752931566495
 21
376.185165096115
 31
0.0
1001
ACAD
1010
0.0
1020
0.0
1030
0.0
  0
LINE
  5
1007E
330
1F
100
AcDbEntity
  8
0
  6
BYBLOCK
100
AcDbLine
 10
336.8147683036182
 20
327.8345121825491
 30
0.0
 11
379.9169228939008
 21
370.9366667728318
 31
0.0
1001
ACAD
1010
0.0
1020
0.0
1030
0.0
  0
LINE
  5
1007F
330
1F
100
AcDbEntity
  8
0
  6
BYBLOCK
100
AcDbLine
 10
467.1376609726121
 20
462.6475329120776
 30
0.0
 11
499.889544
 21
495.3994159394655
 31
0.0
1001
ACAD
1010
0.0
1020
0.0
1030
0.0
  0
LINE
  5
10080
330
1F
100
AcDbEntity
  8
0
  6
BYBLOCK
100
AcDbLine
 10
472.3070864827215
 20
463.3268303616525
 30
0.0
 11
499.889544
 21
490.909287878931
 31
0.0
1001
ACAD
1010
0.0
1020
0.0
1030
0.0
  0
LINE
  5
10081
330
1F
100
AcDbEntity
  8
0
  6
BYBLOCK
100
AcDbLine
 10
337.6420699126658
 20
324.1716857310621
 30
0.0
 11
379.4978466460813
 21
366.0274624644777
 31
0.0
1001
ACAD
1010
0.0
1020
0.0
1030
0.0
  0
LINE
  5
10082
330
1F
100
AcDbEntity
  8
0
  6
BYBLOCK
100
AcDbLine
 10
477.3179680215773
 20
463.8475838399736
 30
0.0
 11
499.889544
 21
486.4191598183963
 31
0.0
1001
ACAD
1010
0.0
1020
0.0
1030
0.0
  0
LINE
  5
10083
330
1F
100
AcDbEntity
  8
0
  6
BYBLOCK
100
AcDbLine
 10
338.4693715217133
 20
320.5088592795751
 30
0.0
 11
379.3776007639702
 21
361.4170885218319
 31
0.0
1001
ACAD
1010
0.0
1020
0.0
1030
0.0
  0
LINE
  5
10084
330
1F
100
AcDbEntity
  8
0
  6
BYBLOCK
100
AcDbLine
 10
339.2966731307608
 20
316.846032828088
 30
0.0
 11
379.257354881859
 21
356.8067145791862
 31
0.0
1001
ACAD
1010
0.0
1020
0.0
1030
0.0
  0
LINE
  5
10085
330
1F
100
AcDbEntity
  8
0
  6
BYBLOCK
100
AcDbLine
 10
481.9896486325434
 20
464.0291363904052
 30
0.0
 11
499.889544
 21
481.9290317578618
 31
0.0
1001
ACAD
1010
0.0
1020
0.0
1030
0.0
  0
LINE
  5
10086
330
1F
100
AcDbEntity
  8
0
  6
BYBLOCK
100
AcDbLine
 10
486.4433132666936
 20
463.9926729640209
 30
0.0
 11
499.889544
 21
477.4389036973272
 31
0.0
1001
ACAD
1010
0.0
1020
0.0
1030
0.0
  0
LINE
  5
10087
330
1F
100
AcDbEntity
  8
0
  6
BYBLOCK
100
AcDbLine
 10
340.3537770714668
 20
313.4130087082594
 30
0.0
 11
379.3674403778475
 21
352.4266720146401
 31
0.0
1001
ACAD
1010
0.0
1020
0.0
1030
0.0
  0
LINE
  5
10088
330
1F
100
AcDbEntity
  8
0
  6
BYBLOCK
100
AcDbLine
 10
490.7968708629431
 20
463.8561024997358
 30
0.0
 11
499.889544
 21
472.9487756367927
 31
0.0
1001
ACAD
1010
0.0
1020
0.0
1030
0.0
  0
LINE
  5
10089
330
1F
100
AcDbEntity
  8
0
  6
BYBLOCK
100
AcDbLine
 10
341.581068040591
 20
310.150171616849
 30
0.0
 11
379.6441045711886
 21
348.2132081474466
 31
0.0
1001
ACAD
1010
0.0
1020
0.0
1030
0.0
  0
LINE
  5
1008A
330
1F
100
AcDbEntity
  8
0
  6
BYBLOCK
100
AcDbLine
 10
342.8083590097152
 20
306.8873345254386
 30
0.0
 11
380.1760767484249
 21
344.2550522641483
 31
0.0
1001
ACAD
1010
0.0
1020
0.0
1030
0.0
  0
LINE
  5
1008B
330
1F
100
AcDbEntity
  8
0
  6
BYBLOCK
100
AcDbLine
 10
495.0545958950123
 20
463.6236994712703
 30
0.0
 11
499.889544
 21
468.458647576258
 31
0.0
1001
ACAD
1010
0.0
1020
0.0
1030
0.0
  0
LINE
  5
1008C
330
1F
100
AcDbEntity
  8
0
  6
BYBLOCK
100
AcDbLine
 10
499.0564045111233
 20
463.1353800268468
 30
0.0
 11
499.889544
 21
463.9685195157235
 31
0.0
1001
ACAD
1010
0.0
1020
0.0
1030
0.0
  0
LINE
  5
1008D
330
1F
100
AcDbEntity
  8
0
  6
BYBLOCK
100
AcDbLine
 10
344.0356499788393
 20
303.6244974340282
 30
0.0
 11
380.7790174889085
 21
340.3678649440974
 31
0.0
1001
ACAD
1010
0.0
1020
0.0
1030
0.0
  0
LINE
  5
1008E
330
1F
100
AcDbEntity
  8
0
  6
BYBLOCK
100
AcDbLine
 10
345.2629409479634
 20
300.3616603426178
 30
0.0
 11
381.6226683250612
 21
336.7213877197156
 31
0.0
1001
ACAD
1010
0.0
1020
0.0
1030
0.0
  0
LINE
  5
1008F
330
1F
100
AcDbEntity
  8
0
  6
BYBLOCK
100
AcDbLine
 10
346.4902319170876
 20
297.0988232512073
 30
0.0
 11
382.466319161214
 21
333.0749104953337
 31
0.0
1001
ACAD
1010
0.0
1020
0.0
1030
0.0
  0
LINE
  5
10090
330
1F
100
AcDbEntity
  8
0
  6
BYBLOCK
100
AcDbLine
 10
347.9418045026503
 20
294.0602677762354
 30
0.0
 11
383.3099699973667
 21
329.4284332709519
 31
0.0
1001
ACAD
1010
0.0
1020
0.0
1030
0.0
  0
LINE
  5
10091
330
1F
100
AcDbEntity
  8
0
  6
BYBLOCK
100
AcDbLine
 10
349.5203634316343
 20
291.1486986446849
 30
0.0
 11
384.4355866661038
 21
326.0639218791543
 31
0.0
1001
ACAD
1010
0.0
1020
0.0
1030
0.0
  0
LINE
  5
10092
330
1F
100
AcDbEntity
  8
0
  6
BYBLOCK
100
AcDbLine
 10
351.0989223606184
 20
288.2371295131344
 30
0.0
 11
385.6371231854361
 21
322.7753303379521
 31
0.0
1001
ACAD
1010
0.0
1020
0.0
1030
0.0
  0
LINE
  5
10093
330
1F
100
AcDbEntity
  8
0
  6
BYBLOCK
100
AcDbLine
 10
352.6774812896025
 20
285.325560381584
 30
0.0
 11
386.8386597047684
 21
319.4867387967498
 31
0.0
1001
ACAD
1010
0.0
1020
0.0
1030
0.0
  0
LINE
  5
10094
330
1F
100
AcDbEntity
  8
0
  6
BYBLOCK
100
AcDbLine
 10
354.2560402185866
 20
282.4139912500335
 30
0.0
 11
388.0851841555399
 21
316.2431351869867
 31
0.0
1001
ACAD
1010
0.0
1020
0.0
1030
0.0
  0
LINE
  5
10095
330
1F
100
AcDbEntity
  8
0
  6
BYBLOCK
100
AcDbLine
 10
355.8345991475708
 20
279.502422118483
 30
0.0
 11
389.6012678144047
 21
313.269090785317
 31
0.0
1001
ACAD
1010
0.0
1020
0.0
1030
0.0
  0
LINE
  5
10096
330
1F
100
AcDbEntity
  8
0
  6
BYBLOCK
100
AcDbLine
 10
357.5371456151718
 20
276.7148405255494
 30
0.0
 11
391.1173514732695
 21
310.2950463836472
 31
0.0
1001
ACAD
1010
0.0
1020
0.0
1030
0.0
  0
LINE
  5
10097
330
1F
100
AcDbEntity
  8
0
  6
BYBLOCK
100
AcDbLine
 10
359.4392581347942
 20
274.1268249846373
 30
0.0
 11
392.6334351321343
 21
307.3210019819774
 31
0.0
1001
ACAD
1010
0.0
1020
0.0
1030
0.0
  0
LINE
  5
10098
330
1F
100
AcDbEntity
  8
0
  6
BYBLOCK
100
AcDbLine
 10
361.3413706544166
 20
271.5388094437251
 30
0.0
 11
394.2475003914466
 21
304.4449391807552
 31
0.0
1001
ACAD
1010
0.0
1020
0.0
1030
0.0
  0
LINE
  5
10099
330
1F
100
AcDbEntity
  8
0
  6
BYBLOCK
100
AcDbLine
 10
363.2434831740389
 20
268.9507939028129
 30
0.0
 11
396.0514239103121
 21
301.7587346390861
 31
0.0
1001
ACAD
1010
0.0
1020
0.0
1030
0.0
  0
LINE
  5
1009A
330
1F
100
AcDbEntity
  8
0
  6
BYBLOCK
100
AcDbLine
 10
365.1455956936613
 20
266.3627783619007
 30
0.0
 11
397.8553474291775
 21
299.0725300974169
 31
0.0
1001
ACAD
1010
0.0
1020
0.0
1030
0.0
  0
LINE
  5
1009B
330
1F
100
AcDbEntity
  8
0
  6
BYBLOCK
100
AcDbLine
 10
367.0477082132837
 20
263.7747628209885
 30
0.0
 11
399.6592709480429
 21
296.3863255557478
 31
0.0
1001
ACAD
1010
0.0
1020
0.0
1030
0.0
  0
LINE
  5
1009C
330
1F
100
AcDbEntity
  8
0
  6
BYBLOCK
100
AcDbLine
 10
368.9498207329061
 20
261.1867472800764
 30
0.0
 11
401.5800916562894
 21
293.8170182034596
 31
0.0
1001
ACAD
1010
0.0
1020
0.0
1030
0.0
  0
LINE
  5
1009D
330
1F
100
AcDbEntity
  8
0
  6
BYBLOCK
100
AcDbLine
 10
371.1388927150512
 20
258.8856912016869
 30
0.0
 11
403.6576312696206
 21
291.4044297562563
 31
0.0
1001
ACAD
1010
0.0
1020
0.0
1030
0.0
  0
LINE
  5
1009E
330
1F
100
AcDbEntity
  8
0
  6
BYBLOCK
100
AcDbLine
 10
373.3620802345753
 20
256.6187506606764
 30
0.0
 11
405.7351708829518
 21
288.9918413090529
 31
0.0
1001
ACAD
1010
0.0
1020
0.0
1030
0.0
  0
LINE
  5
1009F
330
1F
100
AcDbEntity
  8
0
  6
BYBLOCK
100
AcDbLine
 10
375.5852677540994
 20
254.3518101196659
 30
0.0
 11
407.812710496283
 21
286.5792528618495
 31
0.0
1001
ACAD
1010
0.0
1020
0.0
1030
0.0
  0
LINE
  5
100A0
330
1F
100
AcDbEntity
  8
0
  6
BYBLOCK
100
AcDbLine
 10
377.8084552736235
 20
252.0848695786554
 30
0.0
 11
410.0118491879903
 21
284.2882634930222
 31
0.0
1001
ACAD
1010
0.0
1020
0.0
1030
0.0
  0
LINE
  5
100A1
330
1F
100
AcDbEntity
  8
0
  6
BYBLOCK
100
AcDbLine
 10
380.0316427931475
 20
249.8179290376449
 30
0.0
 11
412.3591678238178
 21
282.1454540683151
 31
0.0
1001
ACAD
1010
0.0
1020
0.0
1030
0.0
  0
LINE
  5
100A2
330
1F
100
AcDbEntity
  8
0
  6
BYBLOCK
100
AcDbLine
 10
382.2548303126716
 20
247.5509884966344
 30
0.0
 11
414.7064864596452
 21
280.0026446436081
 31
0.0
1001
ACAD
1010
0.0
1020
0.0
1030
0.0
  0
LINE
  5
100A3
330
1F
100
AcDbEntity
  8
0
  6
BYBLOCK
100
AcDbLine
 10
384.4836578934329
 20
245.2896880168611
 30
0.0
 11
417.0538050954728
 21
277.859835218901
 31
0.0
1001
ACAD
1010
0.0
1020
0.0
1030
0.0
  0
LINE
  5
100A4
330
1F
100
AcDbEntity
  8
0
  6
BYBLOCK
100
AcDbLine
 10
387.0332227499791
 20
243.3491248128728
 30
0.0
 11
419.5274064866726
 21
275.8433085495662
 31
0.0
1001
ACAD
1010
0.0
1020
0.0
1030
0.0
  0
LINE
  5
100A5
330
1F
100
AcDbEntity
  8
0
  6
BYBLOCK
100
AcDbLine
 10
389.5827876065254
 20
241.4085616088844
 30
0.0
 11
422.1503628437019
 21
273.976136846061
 31
0.0
1001
ACAD
1010
0.0
1020
0.0
1030
0.0
  0
LINE
  5
100A6
330
1F
100
AcDbEntity
  8
0
  6
BYBLOCK
100
AcDbLine
 10
392.1323524630716
 20
239.467998404896
 30
0.0
 11
424.7733192007313
 21
272.1089651425557
 31
0.0
1001
ACAD
1010
0.0
1020
0.0
1030
0.0
  0
LINE
  5
100A7
330
1F
100
AcDbEntity
  8
0
  6
BYBLOCK
100
AcDbLine
 10
394.6819173196178
 20
237.5274352009077
 30
0.0
 11
427.3962755577606
 21
270.2417934390505
 31
0.0
1001
ACAD
1010
0.0
1020
0.0
1030
0.0
  0
LINE
  5
100A8
330
1F
100
AcDbEntity
  8
0
  6
BYBLOCK
100
AcDbLine
 10
397.231482176164
 20
235.5868719969193
 30
0.0
 11
430.1641152134844
 21
268.5195050342397
 31
0.0
1001
ACAD
1010
0.0
1020
0.0
1030
0.0
  0
LINE
  5
100A9
330
1F
100
AcDbEntity
  8
0
  6
BYBLOCK
100
AcDbLine
 10
399.7810470327103
 20
233.6463087929309
 30
0.0
 11
433.0787664243184
 21
266.9440281845391
 31
0.0
1001
ACAD
1010
0.0
1020
0.0
1030
0.0
  0
LINE
  5
100AA
330
1F
100
AcDbEntity
  8
0
  6
BYBLOCK
100
AcDbLine
 10
402.4010933166586
 20
231.7762270163447
 30
0.0
 11
435.9934176351524
 21
265.3685513348386
 31
0.0
1001
ACAD
1010
0.0
1020
0.0
1030
0.0
  0
LINE
  5
100AB
330
1F
100
AcDbEntity
  8
0
  6
BYBLOCK
100
AcDbLine
 10
621.4507680244362
 20
450.8259017241224
 30
0.0
 11
650.064668170074
 21
479.4398018697602
 31
0.0
1001
ACAD
1010
0.0
1020
0.0
1030
0.0
  0
LINE
  5
100AC
330
1F
100
AcDbEntity
  8
0
  6
BYBLOCK
100
AcDbLine
 10
405.2871624916729
 20
230.1721681308245
 30
0.0
 11
438.9080688459864
 21
263.793074485138
 31
0.0
1001
ACAD
1010
0.0
1020
0.0
1030
0.0
  0
LINE
  5
100AD
330
1F
100
AcDbEntity
  8
0
  6
BYBLOCK
100
AcDbLine
 10
611.7873913754875
 20
436.672397014639
 30
0.0
 11
663.5484647922266
 21
488.4334704313782
 31
0.0
1001
ACAD
1010
0.0
1020
0.0
1030
0.0
  0
LINE
  5
100AE
330
1F
100
AcDbEntity
  8
0
  6
BYBLOCK
100
AcDbLine
 10
408.1732316666873
 20
228.5681092453043
 30
0.0
 11
442.0434672689824
 21
262.4383448475994
 31
0.0
1001
ACAD
1010
0.0
1020
0.0
1030
0.0
  0
LINE
  5
100AF
330
1F
100
AcDbEntity
  8
0
  6
BYBLOCK
100
AcDbLine
 10
605.80495306754
 20
426.1998306461571
 30
0.0
 11
673.6292992601145
 21
494.0241768387316
 31
0.0
1001
ACAD
1010
0.0
1020
0.0
1030
0.0
  0
LINE
  5
100B0
330
1F
100
AcDbEntity
  8
0
  6
BYBLOCK
100
AcDbLine
 10
411.0593008417017
 20
226.964050359784
 30
0.0
 11
445.3178723607091
 21
261.2226218787915
 31
0.0
1001
ACAD
1010
0.0
1020
0.0
1030
0.0
  0
LINE
  5
100B1
330
1F
100
AcDbEntity
  8
0
  6
BYBLOCK
100
AcDbLine
 10
602.4136227129425
 20
418.3183722310249
 30
0.0
 11
682.0875232958388
 21
497.9922728139213
 31
0.0
1001
ACAD
1010
0.0
1020
0.0
1030
0.0
  0
LINE
  5
100B2
330
1F
100
AcDbEntity
  8
0
  6
BYBLOCK
100
AcDbLine
 10
413.945370016716
 20
225.3599914742638
 30
0.0
 11
448.5922774524357
 21
260.0068989099836
 31
0.0
1001
ACAD
1010
0.0
1020
0.0
1030
0.0
  0
LINE
  5
100B3
330
1F
100
AcDbEntity
  8
0
  6
BYBLOCK
100
AcDbLine
 10
599.0222923583448
 20
410.4369138158927
 30
0.0
 11
689.1444874431375
 21
500.5591089006854
 31
0.0
1001
ACAD
1010
0.0
1020
0.0
1030
0.0
  0
LINE
  5
100B4
330
1F
100
AcDbEntity
  8
0
  6
BYBLOCK
100
AcDbLine
 10
416.8314391917303
 20
223.7559325887436
 30
0.0
 11
451.8666825441624
 21
258.7911759411757
 31
0.0
1001
ACAD
1010
0.0
1020
0.0
1030
0.0
  0
LINE
  5
100B5
330
1F
100
AcDbEntity
  8
0
  6
BYBLOCK
100
AcDbLine
 10
597.1014588878578
 20
404.0259522848712
 30
0.0
 11
696.114908888992
 21
503.0394022860053
 31
0.0
1001
ACAD
1010
0.0
1020
0.0
1030
0.0
  0
LINE
  5
100B6
330
1F
100
AcDbEntity
  8
0
  6
BYBLOCK
100
AcDbLine
 10
419.7175083667446
 20
222.1518737032233
 30
0.0
 11
455.141087635889
 21
257.5754529723677
 31
0.0
1001
ACAD
1010
0.0
1020
0.0
1030
0.0
  0
LINE
  5
100B7
330
1F
100
AcDbEntity
  8
0
  6
BYBLOCK
100
AcDbLine
 10
595.1952290819314
 20
397.6295944184102
 30
0.0
 11
702.2987741118715
 21
504.7331394483501
 31
0.0
1001
ACAD
1010
0.0
1020
0.0
1030
0.0
  0
LINE
  5
100B8
330
1F
100
AcDbEntity
  8
0
  6
BYBLOCK
100
AcDbLine
 10
422.8282278359396
 20
220.7724651118838
 30
0.0
 11
458.7571584831112
 21
256.7013957590553
 31
0.0
1001
ACAD
1010
0.0
1020
0.0
1030
0.0
  0
LINE
  5
100B9
330
1F
100
AcDbEntity
  8
0
  6
BYBLOCK
100
AcDbLine
 10
593.6075433156876
 20
391.5517805916318
 30
0.0
 11
708.242308985231
 21
506.1865462611752
 31
0.0
1001
ACAD
1010
0.0
1020
0.0
1030
0.0
  0
LINE
  5
100BA
330
1F
100
AcDbEntity
  8
0
  6
BYBLOCK
100
AcDbLine
 10
426.0840701389287
 20
219.5381793543383
 30
0.0
 11
462.5195348494181
 21
255.9736440648276
 31
0.0
1001
ACAD
1010
0.0
1020
0.0
1030
0.0
  0
LINE
  5
100BB
330
1F
100
AcDbEntity
  8
0
  6
BYBLOCK
100
AcDbLine
 10
429.3399124419178
 20
218.3038935967928
 30
0.0
 11
466.2819112157248
 21
255.2458923705998
 31
0.0
1001
ACAD
1010
0.0
1020
0.0
1030
0.0
  0
LINE
  5
100BC
330
1F
100
AcDbEntity
  8
0
  6
BYBLOCK
100
AcDbLine
 10
592.6619093127505
 20
386.1160185281601
 30
0.0
 11
714.0457991690571
 21
507.4999083844667
 31
0.0
1001
ACAD
1010
0.0
1020
0.0
1030
0.0
  0
LINE
  5
100BD
330
1F
100
AcDbEntity
  8
0
  6
BYBLOCK
100
AcDbLine
 10
591.7162753098133
 20
380.6802564646883
 30
0.0
 11
719.2485083789164
 21
508.2124895337915
 31
0.0
1001
ACAD
1010
0.0
1020
0.0
1030
0.0
  0
LINE
  5
100BE
330
1F
100
AcDbEntity
  8
0
  6
BYBLOCK
100
AcDbLine
 10
432.5957547449069
 20
217.0696078392473
 30
0.0
 11
470.0442875820316
 21
254.518140676372
 31
0.0
1001
ACAD
1010
0.0
1020
0.0
1030
0.0
  0
LINE
  5
100BF
330
1F
100
AcDbEntity
  8
0
  6
BYBLOCK
100
AcDbLine
 10
590.8117408058836
 20
375.2855939002241
 30
0.0
 11
724.4512175887758
 21
508.9250706831162
 31
0.0
1001
ACAD
1010
0.0
1020
0.0
1030
0.0
  0
LINE
  5
100C0
330
1F
100
AcDbEntity
  8
0
  6
BYBLOCK
100
AcDbLine
 10
435.851597047896
 20
215.8353220817018
 30
0.0
 11
473.8666762664271
 21
253.850401300233
 31
0.0
1001
ACAD
1010
0.0
1020
0.0
1030
0.0
  0
LINE
  5
100C1
330
1F
100
AcDbEntity
  8
0
  6
BYBLOCK
100
AcDbLine
 10
590.3869838867756
 20
370.3707089205814
 30
0.0
 11
729.5305485886588
 21
509.5142736224647
 31
0.0
1001
ACAD
1010
0.0
1020
0.0
1030
0.0
  0
LINE
  5
100C2
330
1F
100
AcDbEntity
  8
0
  6
BYBLOCK
100
AcDbLine
 10
439.1074393508851
 20
214.6010363241563
 30
0.0
 11
478.0896959962516
 21
253.5832929695229
 31
0.0
1001
ACAD
1010
0.0
1020
0.0
1030
0.0
  0
LINE
  5
100C3
330
1F
100
AcDbEntity
  8
0
  6
BYBLOCK
100
AcDbLine
 10
590.0941347754251
 20
365.5877317486964
 30
0.0
 11
734.1600763208851
 21
509.6536732941563
 31
0.0
1001
ACAD
1010
0.0
1020
0.0
1030
0.0
  0
LINE
  5
100C4
330
1F
100
AcDbEntity
  8
0
  6
BYBLOCK
100
AcDbLine
 10
442.4963182716583
 20
213.4997871843949
 30
0.0
 11
482.5095935498746
 21
253.5130624626113
 31
0.0
1001
ACAD
1010
0.0
1020
0.0
1030
0.0
  0
LINE
  5
100C5
330
1F
100
AcDbEntity
  8
0
  6
BYBLOCK
100
AcDbLine
 10
590.0143633135036
 20
361.0178322262403
 30
0.0
 11
738.7896040531114
 21
509.7930729658481
 31
0.0
1001
ACAD
1010
0.0
1020
0.0
1030
0.0
  0
LINE
  5
100C6
330
1F
100
AcDbEntity
  8
0
  6
BYBLOCK
100
AcDbLine
 10
446.1335635399924
 20
212.6469043921945
 30
0.0
 11
487.0065333169649
 21
253.5198741691669
 31
0.0
1001
ACAD
1010
0.0
1020
0.0
1030
0.0
  0
LINE
  5
100C7
330
1F
100
AcDbEntity
  8
0
  6
BYBLOCK
100
AcDbLine
 10
590.0138024372126
 20
356.5271432894147
 30
0.0
 11
664.3228113771928
 21
430.8361522293949
 31
0.0
1001
ACAD
1010
0.0
1020
0.0
1030
0.0
  0
LINE
  5
100C8
330
1F
100
AcDbEntity
  8
0
  6
BYBLOCK
100
AcDbLine
 10
667.1674487990573
 20
433.6807896512594
 30
0.0
 11
743.4191317853376
 21
509.9324726375397
 31
0.0
1001
ACAD
1010
0.0
1020
0.0
1030
0.0
  0
LINE
  5
100C9
330
1F
100
AcDbEntity
  8
0
  6
BYBLOCK
100
AcDbLine
 10
449.7708088083265
 20
211.794021599994
 30
0.0
 11
491.5984445896786
 21
253.6216573813461
 31
0.0
1001
ACAD
1010
0.0
1020
0.0
1030
0.0
  0
LINE
  5
100CA
330
1F
100
AcDbEntity
  8
0
  6
BYBLOCK
100
AcDbLine
 10
590.0866983296512
 20
352.1099111213187
 30
0.0
 11
650.7174421617293
 21
412.7406549533969
 31
0.0
1001
ACAD
1010
0.0
1020
0.0
1030
0.0
  0
LINE
  5
100CB
330
1F
100
AcDbEntity
  8
0
  6
BYBLOCK
100
AcDbLine
 10
686.929998033615
 20
448.9532108252826
 30
0.0
 11
747.7773717702964
 21
509.800584561964
 31
0.0
1001
ACAD
1010
0.0
1020
0.0
1030
0.0
  0
LINE
  5
100CC
330
1F
100
AcDbEntity
  8
0
  6
BYBLOCK
100
AcDbLine
 10
453.4080540766606
 20
210.9411388077936
 30
0.0
 11
496.4376332848372
 21
253.9707180159701
 31
0.0
1001
ACAD
1010
0.0
1020
0.0
1030
0.0
  0
LINE
  5
100CD
330
1F
100
AcDbEntity
  8
0
  6
BYBLOCK
100
AcDbLine
 10
590.321599742126
 20
347.8546844732589
 30
0.0
 11
645.6522525236569
 21
403.1853372547898
 31
0.0
1001
ACAD
1010
0.0
1020
0.0
1030
0.0
  0
LINE
  5
100CE
330
1F
100
AcDbEntity
  8
0
  6
BYBLOCK
100
AcDbLine
 10
696.6459743096267
 20
454.1790590407597
 30
0.0
 11
752.0709491118109
 21
509.604033842944
 31
0.0
1001
ACAD
1010
0.0
1020
0.0
1030
0.0
  0
LINE
  5
100CF
330
1F
100
AcDbEntity
  8
0
  6
BYBLOCK
100
AcDbLine
 10
457.0452993449948
 20
210.0882560155931
 30
0.0
 11
499.889544
 21
252.9325006705984
 31
0.0
1001
ACAD
1010
0.0
1020
0.0
1030
0.0
  0
LINE
  5
100D0
330
1F
100
AcDbEntity
  8
0
  6
BYBLOCK
100
AcDbLine
 10
590.6787802243463
 20
343.7217368949447
 30
0.0
 11
642.5363603196188
 21
395.5793169902172
 31
0.0
1001
ACAD
1010
0.0
1020
0.0
1030
0.0
  0
LINE
  5
100D1
330
1F
100
AcDbEntity
  8
0
  6
BYBLOCK
100
AcDbLine
 10
704.416944164133
 20
457.4599008347315
 30
0.0
 11
756.168925967449
 21
509.2118826380474
 31
0.0
1001
ACAD
1010
0.0
1020
0.0
1030
0.0
  0
LINE
  5
100D2
330
1F
100
AcDbEntity
  8
0
  6
BYBLOCK
100
AcDbLine
 10
460.8357671163799
 20
209.3885957264437
 30
0.0
 11
499.889544
 21
248.4423726100638
 31
0.0
1001
ACAD
1010
0.0
1020
0.0
1030
0.0
  0
LINE
  5
100D3
330
1F
100
AcDbEntity
  8
0
  6
BYBLOCK
100
AcDbLine
 10
591.1781077103584
 20
339.7309363204222
 30
0.0
 11
640.1261671944943
 21
388.6789958045582
 31
0.0
1001
ACAD
1010
0.0
1020
0.0
1030
0.0
  0
LINE
  5
100D4
330
1F
100
AcDbEntity
  8
0
  6
BYBLOCK
100
AcDbLine
 10
711.2558237286352
 20
459.808652338699
 30
0.0
 11
756.515224
 21
505.0680526100638
 31
0.0
1001
ACAD
1010
0.0
1020
0.0
1030
0.0
  0
LINE
  5
100D5
330
1F
100
AcDbEntity
  8
0
  6
BYBLOCK
100
AcDbLine
 10
464.7858878988653
 20
208.8485884483945
 30
0.0
 11
499.889544
 21
243.9522445495292
 31
0.0
1001
ACAD
1010
0.0
1020
0.0
1030
0.0
  0
LINE
  5
100D6
330
1F
100
AcDbEntity
  8
0
  6
BYBLOCK
100
AcDbLine
 10
591.8015224994011
 20
335.8642230489304
 30
0.0
 11
638.4690937073265
 21
382.5317942568557
 31
0.0
1001
ACAD
1010
0.0
1020
0.0
1030
0.0
  0
LINE
  5
100D7
330
1F
100
AcDbEntity
  8
0
  6
BYBLOCK
100
AcDbLine
 10
717.271228681118
 20
461.3339292306473
 30
0.0
 11
756.515224
 21
500.5779245495293
 31
0.0
1001
ACAD
1010
0.0
1020
0.0
1030
0.0
  0
LINE
  5
100D8
330
1F
100
AcDbEntity
  8
0
  6
BYBLOCK
100
AcDbLine
 10
468.7683965787784
 20
208.340969067773
 30
0.0
 11
499.889544
 21
239.4621164889946
 31
0.0
1001
ACAD
1010
0.0
1020
0.0
1030
0.0
  0
LINE
  5
100D9
330
1F
100
AcDbEntity
  8
0
  6
BYBLOCK
100
AcDbLine
 10
592.4249372884439
 20
331.9975097774386
 30
0.0
 11
642.2276183193264
 21
381.8001908083211
 31
0.0
1001
ACAD
1010
0.0
1020
0.0
1030
0.0
  0
LINE
  5
100DA
330
1F
100
AcDbEntity
  8
0
  6
BYBLOCK
100
AcDbLine
 10
722.9080508149318
 20
462.4806233039264
 30
0.0
 11
756.515224
 21
496.0877964889947
 31
0.0
1001
ACAD
1010
0.0
1020
0.0
1030
0.0
  0
LINE
  5
100DB
330
1F
100
AcDbEntity
  8
0
  6
BYBLOCK
100
AcDbLine
 10
472.9196522506931
 20
208.0020966791532
 30
0.0
 11
499.889544
 21
234.9719884284601
 31
0.0
1001
ACAD
1010
0.0
1020
0.0
1030
0.0
  0
LINE
  5
100DC
330
1F
100
AcDbEntity
  8
0
  6
BYBLOCK
100
AcDbLine
 10
593.0483520774867
 20
328.1307965059467
 30
0.0
 11
646.675835590913
 21
381.7582800193732
 31
0.0
1001
ACAD
1010
0.0
1020
0.0
1030
0.0
  0
LINE
  5
100DD
330
1F
100
AcDbEntity
  8
0
  6
BYBLOCK
100
AcDbLine
 10
728.2626654146443
 20
463.3451098431044
 30
0.0
 11
756.515224
 21
491.5976684284601
 31
0.0
1001
ACAD
1010
0.0
1020
0.0
1030
0.0
  0
LINE
  5
100DE
330
1F
100
AcDbEntity
  8
0
  6
BYBLOCK
100
AcDbLine
 10
477.0709079226078
 20
207.6632242905333
 30
0.0
 11
499.889544
 21
230.4818603679255
 31
0.0
1001
ACAD
1010
0.0
1020
0.0
1030
0.0
  0
LINE
  5
100DF
330
1F
100
AcDbEntity
  8
0
  6
BYBLOCK
100
AcDbLine
 10
593.9453230657673
 20
324.5376394336928
 30
0.0
 11
651.1447623209382
 21
381.7370786888637
 31
0.0
1001
ACAD
1010
0.0
1020
0.0
1030
0.0
  0
LINE
  5
100E0
330
1F
100
AcDbEntity
  8
0
  6
BYBLOCK
100
AcDbLine
 10
733.2114142588467
 20
463.8037306267723
 30
0.0
 11
756.515224
 21
487.1075403679255
 31
0.0
1001
ACAD
1010
0.0
1020
0.0
1030
0.0
  0
LINE
  5
100E1
330
1F
100
AcDbEntity
  8
0
  6
BYBLOCK
100
AcDbLine
 10
481.4217767203496
 20
207.5239650277405
 30
0.0
 11
499.889544
 21
225.9917323073909
 31
0.0
1001
ACAD
1010
0.0
1020
0.0
1030
0.0
  0
LINE
  5
100E2
330
1F
100
AcDbEntity
  8
0
  6
BYBLOCK
100
AcDbLine
 10
594.8664431214314
 20
320.9686314288224
 30
0.0
 11
655.6241760617684
 21
381.7263643691593
 31
0.0
1001
ACAD
1010
0.0
1020
0.0
1030
0.0
  0
LINE
  5
100E3
330
1F
100
AcDbEntity
  8
0
  6
BYBLOCK
100
AcDbLine
 10
737.8387870717693
 20
463.9409753791602
 30
0.0
 11
756.515224
 21
482.617412307391
 31
0.0
1001
ACAD
1010
0.0
1020
0.0
1030
0.0
  0
LINE
  5
100E4
330
1F
100
AcDbEntity
  8
0
  6
BYBLOCK
100
AcDbLine
 10
485.9528304840635
 20
207.5648907309198
 30
0.0
 11
499.889544
 21
221.5016042468563
 31
0.0
1001
ACAD
1010
0.0
1020
0.0
1030
0.0
  0
LINE
  5
100E5
330
1F
100
AcDbEntity
  8
0
  6
BYBLOCK
100
AcDbLine
 10
595.7875631770955
 20
317.3996234239519
 30
0.0
 11
660.1058487263475
 21
381.7179089732039
 31
0.0
1001
ACAD
1010
0.0
1020
0.0
1030
0.0
  0
LINE
  5
100E6
330
1F
100
AcDbEntity
  8
0
  6
BYBLOCK
100
AcDbLine
 10
742.3591801922909
 20
463.9712404391473
 30
0.0
 11
756.515224
 21
478.1272842468563
 31
0.0
1001
ACAD
1010
0.0
1020
0.0
1030
0.0
  0
LINE
  5
100E7
330
1F
100
AcDbEntity
  8
0
  6
BYBLOCK
100
AcDbLine
 10
490.5609635318775
 20
207.6828957181993
 30
0.0
 11
499.889544
 21
217.0114761863218
 31
0.0
1001
ACAD
1010
0.0
1020
0.0
1030
0.0
  0
LINE
  5
100E8
330
1F
100
AcDbEntity
  8
0
  6
BYBLOCK
100
AcDbLine
 10
596.736784674161
 20
313.8587168604827
 30
0.0
 11
664.5923526385833
 21
381.7142848249051
 31
0.0
1001
ACAD
1010
0.0
1020
0.0
1030
0.0
  0
LINE
  5
100E9
330
1F
100
AcDbEntity
  8
0
  6
BYBLOCK
100
AcDbLine
 10
746.7799384537561
 20
463.9018706400778
 30
0.0
 11
756.515224
 21
473.6371561863218
 31
0.0
1001
ACAD
1010
0.0
1020
0.0
1030
0.0
  0
LINE
  5
100EA
330
1F
100
AcDbEntity
  8
0
  6
BYBLOCK
100
AcDbLine
 10
495.2427984251632
 20
207.8746025509504
 30
0.0
 11
499.889544
 21
212.5213481257872
 31
0.0
1001
ACAD
1010
0.0
1020
0.0
1030
0.0
  0
LINE
  5
100EB
330
1F
100
AcDbEntity
  8
0
  6
BYBLOCK
100
AcDbLine
 10
597.923859088827
 20
310.5556632146142
 30
0.0
 11
669.0788565508192
 21
381.7106606766063
 31
0.0
1001
ACAD
1010
0.0
1020
0.0
1030
0.0
  0
LINE
  5
100EC
330
1F
100
AcDbEntity
  8
0
  6
BYBLOCK
100
AcDbLine
 10
751.0368390017726
 20
463.6686431275598
 30
0.0
 11
756.515224
 21
469.1470281257872
 31
0.0
1001
ACAD
1010
0.0
1020
0.0
1030
0.0
  0
LINE
  5
100ED
330
1F
100
AcDbEntity
  8
0
  6
BYBLOCK
100
AcDbLine
 10
599.110933503493
 20
307.2526095687457
 30
0.0
 11
673.5679670274365
 21
381.709643092689
 31
0.0
1001
ACAD
1010
0.0
1020
0.0
1030
0.0
  0
LINE
  5
100EE
330
1F
100
AcDbEntity
  8
0
  6
BYBLOCK
100
AcDbLine
 10
755.090072824248
 20
463.2317488895006
 30
0.0
 11
756.515224
 21
464.6569000652527
 31
0.0
1001
ACAD
1010
0.0
1020
0.0
1030
0.0
  0
LINE
  5
100EF
330
1F
100
AcDbEntity
  8
0
  6
BYBLOCK
100
AcDbLine
 10
600.2980079181591
 20
303.9495559228772
 30
0.0
 11
678.0573121461225
 21
381.7088601508406
 31
0.0
1001
ACAD
1010
0.0
1020
0.0
1030
0.0
  0
LINE
  5
100F0
330
1F
100
AcDbEntity
  8
0
  6
BYBLOCK
100
AcDbLine
 10
601.5143593778663
 20
300.6757793220497
 30
0.0
 11
682.5467000558166
 21
381.70812
 31
0.0
1001
ACAD
1010
0.0
1020
0.0
1030
0.0
  0
LINE
  5
100F1
330
1F
100
AcDbEntity
  8
0
  6
BYBLOCK
100
AcDbLine
 10
602.944648747378
 20
297.6159406310268
 30
0.0
 11
638.8089859823738
 21
333.4802778660227
 31
0.0
1001
ACAD
1010
0.0
1020
0.0
1030
0.0
  0
LINE
  5
100F2
330
1F
100
AcDbEntity
  8
0
  6
BYBLOCK
100
AcDbLine
 10
640.9678780799067
 20
335.6391699635556
 30
0.0
 11
687.0368281163511
 21
381.70812
 31
0.0
1001
ACAD
1010
0.0
1020
0.0
1030
0.0
  0
LINE
  5
100F3
330
1F
100
AcDbEntity
  8
0
  6
BYBLOCK
100
AcDbLine
 10
604.3749381168897
 20
294.5561019400039
 30
0.0
 11
639.7811304392635
 21
329.9622942623779
 31
0.0
1001
ACAD
1010
0.0
1020
0.0
1030
0.0
  0
LINE
  5
100F4
330
1F
100
AcDbEntity
  8
0
  6
BYBLOCK
100
AcDbLine
 10
645.5183112886364
 20
335.6994751117507
 30
0.0
 11
691.5269561768857
 21
381.70812
 31
0.0
1001
ACAD
1010
0.0
1020
0.0
1030
0.0
  0
LINE
  5
100F5
330
1F
100
AcDbEntity
  8
0
  6
BYBLOCK
100
AcDbLine
 10
605.8052274864012
 20
291.496263248981
 30
0.0
 11
640.7970798391264
 21
326.4881156017061
 31
0.0
1001
ACAD
1010
0.0
1020
0.0
1030
0.0
  0
LINE
  5
100F6
330
1F
100
AcDbEntity
  8
0
  6
BYBLOCK
100
AcDbLine
 10
650.0335581063864
 20
335.7245938689662
 30
0.0
 11
696.0170842374202
 21
381.70812
 31
0.0
1001
ACAD
1010
0.0
1020
0.0
1030
0.0
  0
LINE
  5
100F7
330
1F
100
AcDbEntity
  8
0
  6
BYBLOCK
100
AcDbLine
 10
607.235516855913
 20
288.4364245579581
 30
0.0
 11
642.1111584447892
 21
323.3120661468344
 31
0.0
1001
ACAD
1010
0.0
1020
0.0
1030
0.0
  0
LINE
  5
100F8
330
1F
100
AcDbEntity
  8
0
  6
BYBLOCK
100
AcDbLine
 10
654.5382753547191
 20
335.7391830567642
 30
0.0
 11
700.5072122979549
 21
381.70812
 31
0.0
1001
ACAD
1010
0.0
1020
0.0
1030
0.0
  0
LINE
  5
100F9
330
1F
100
AcDbEntity
  8
0
  6
BYBLOCK
100
AcDbLine
 10
608.8906379145369
 20
285.6014175560475
 30
0.0
 11
643.438625674573
 21
320.1494053160836
 31
0.0
1001
ACAD
1010
0.0
1020
0.0
1030
0.0
  0
LINE
  5
100FA
330
1F
100
AcDbEntity
  8
0
  6
BYBLOCK
100
AcDbLine
 10
659.0379625157115
 20
335.7487421572221
 30
0.0
 11
704.9973403584894
 21
381.70812
 31
0.0
1001
ACAD
1010
0.0
1020
0.0
1030
0.0
  0
LINE
  5
100FB
330
1F
100
AcDbEntity
  8
0
  6
BYBLOCK
100
AcDbLine
 10
610.5482278067032
 20
282.7688793876791
 30
0.0
 11
644.7660929043568
 21
316.9867444853328
 31
0.0
1001
ACAD
1010
0.0
1020
0.0
1030
0.0
  0
LINE
  5
100FC
330
1F
100
AcDbEntity
  8
0
  6
BYBLOCK
100
AcDbLine
 10
612.2058176988693
 20
279.9363412193107
 30
0.0
 11
646.0935601341407
 21
313.8240836545821
 31
0.0
1001
ACAD
1010
0.0
1020
0.0
1030
0.0
  0
LINE
  5
100FD
330
1F
100
AcDbEntity
  8
0
  6
BYBLOCK
100
AcDbLine
 10
663.5328086586817
 20
335.7534602396576
 30
0.0
 11
709.487468419024
 21
381.70812
 31
0.0
1001
ACAD
1010
0.0
1020
0.0
1030
0.0
  0
LINE
  5
100FE
330
1F
100
AcDbEntity
  8
0
  6
BYBLOCK
100
AcDbLine
 10
668.0267392364511
 20
335.7572627568925
 30
0.0
 11
713.9775964795585
 21
381.70812
 31
0.0
1001
ACAD
1010
0.0
1020
0.0
1030
0.0
  0
LINE
  5
100FF
330
1F
100
AcDbEntity
  8
0
  6
BYBLOCK
100
AcDbLine
 10
613.8634075910354
 20
277.1038030509423
 30
0.0
 11
647.4210273639245
 21
310.6614228238313
 31
0.0
1001
ACAD
1010
0.0
1020
0.0
1030
0.0
  0
LINE
  5
10100
330
1F
100
AcDbEntity
  8
0
  6
BYBLOCK
100
AcDbLine
 10
672.518849809744
 20
335.7592452696508
 30
0.0
 11
718.4677245400931
 21
381.70812
 31
0.0
1001
ACAD
1010
0.0
1020
0.0
1030
0.0
  0
LINE
  5
10101
330
1F
100
AcDbEntity
  8
0
  6
BYBLOCK
100
AcDbLine
 10
615.6810127258343
 20
274.4312801252066
 30
0.0
 11
649.0626764917426
 21
307.8129438911149
 31
0.0
1001
ACAD
1010
0.0
1020
0.0
1030
0.0
  0
LINE
  5
10102
330
1F
100
AcDbEntity
  8
0
  6
BYBLOCK
100
AcDbLine
 10
677.0098385336233
 20
335.7601059329956
 30
0.0
 11
722.9578526006278
 21
381.70812
 31
0.0
1001
ACAD
1010
0.0
1020
0.0
1030
0.0
  0
LINE
  5
10103
330
1F
100
AcDbEntity
  8
0
  6
BYBLOCK
100
AcDbLine
 10
617.5554046735909
 20
271.8155440124286
 30
0.0
 11
650.8052098086391
 21
305.0653491474768
 31
0.0
1001
ACAD
1010
0.0
1020
0.0
1030
0.0
  0
LINE
  5
10104
330
1F
100
AcDbEntity
  8
0
  6
BYBLOCK
100
AcDbLine
 10
681.5008272575028
 20
335.7609665963404
 30
0.0
 11
726.2368
 21
380.4969393388377
 31
0.0
1001
ACAD
1010
0.0
1020
0.0
1030
0.0
  0
LINE
  5
10105
330
1F
100
AcDbEntity
  8
0
  6
BYBLOCK
100
AcDbLine
 10
619.4297966213476
 20
269.1998078996508
 30
0.0
 11
652.5477431255355
 21
302.3177544038386
 31
0.0
1001
ACAD
1010
0.0
1020
0.0
1030
0.0
  0
LINE
  5
10106
330
1F
100
AcDbEntity
  8
0
  6
BYBLOCK
100
AcDbLine
 10
621.3041885691042
 20
266.5840717868728
 30
0.0
 11
654.290276442432
 21
299.5701596602005
 31
0.0
1001
ACAD
1010
0.0
1020
0.0
1030
0.0
  0
LINE
  5
10107
330
1F
100
AcDbEntity
  8
0
  6
BYBLOCK
100
AcDbLine
 10
685.991108721697
 20
335.76112
 30
0.0
 11
726.2368
 21
376.0068112783031
 31
0.0
1001
ACAD
1010
0.0
1020
0.0
1030
0.0
  0
LINE
  5
10108
330
1F
100
AcDbEntity
  8
0
  6
BYBLOCK
100
AcDbLine
 10
690.4812367822315
 20
335.76112
 30
0.0
 11
726.2368
 21
371.5166832177686
 31
0.0
1001
ACAD
1010
0.0
1020
0.0
1030
0.0
  0
LINE
  5
10109
330
1F
100
AcDbEntity
  8
0
  6
BYBLOCK
100
AcDbLine
 10
623.2614949011543
 20
264.0512500583882
 30
0.0
 11
656.0328097593284
 21
296.8225649165623
 31
0.0
1001
ACAD
1010
0.0
1020
0.0
1030
0.0
  0
LINE
  5
1010A
330
1F
100
AcDbEntity
  8
0
  6
BYBLOCK
100
AcDbLine
 10
694.971364842766
 20
335.76112
 30
0.0
 11
726.2368
 21
367.026555157234
 31
0.0
1001
ACAD
1010
0.0
1020
0.0
1030
0.0
  0
LINE
  5
1010B
330
1F
100
AcDbEntity
  8
0
  6
BYBLOCK
100
AcDbLine
 10
625.3467093121136
 20
261.646336408813
 30
0.0
 11
657.900759034994
 21
294.2003861316934
 31
0.0
1001
ACAD
1010
0.0
1020
0.0
1030
0.0
  0
LINE
  5
1010C
330
1F
100
AcDbEntity
  8
0
  6
BYBLOCK
100
AcDbLine
 10
699.4614929033006
 20
335.76112
 30
0.0
 11
726.2368
 21
362.5364270966994
 31
0.0
1001
ACAD
1010
0.0
1020
0.0
1030
0.0
  0
LINE
  5
1010D
330
1F
100
AcDbEntity
  8
0
  6
BYBLOCK
100
AcDbLine
 10
627.4319237230729
 20
259.2414227592377
 30
0.0
 11
660.0283073748076
 21
291.8378064109725
 31
0.0
1001
ACAD
1010
0.0
1020
0.0
1030
0.0
  0
LINE
  5
1010E
330
1F
100
AcDbEntity
  8
0
  6
BYBLOCK
100
AcDbLine
 10
629.5171381340322
 20
256.8365091096625
 30
0.0
 11
662.1558557146212
 21
289.4752266902515
 31
0.0
1001
ACAD
1010
0.0
1020
0.0
1030
0.0
  0
LINE
  5
1010F
330
1F
100
AcDbEntity
  8
0
  6
BYBLOCK
100
AcDbLine
 10
631.6023525449915
 20
254.4315954600872
 30
0.0
 11
664.2834040544349
 21
287.1126469695305
 31
0.0
1001
ACAD
1010
0.0
1020
0.0
1030
0.0
  0
LINE
  5
10110
330
1F
100
AcDbEntity
  8
0
  6
BYBLOCK
100
AcDbLine
 10
703.9516209638352
 20
335.76112
 30
0.0
 11
726.2368
 21
358.0462990361649
 31
0.0
1001
ACAD
1010
0.0
1020
0.0
1030
0.0
  0
LINE
  5
10111
330
1F
100
AcDbEntity
  8
0
  6
BYBLOCK
100
AcDbLine
 10
708.4417490243698
 20
335.76112
 30
0.0
 11
726.2368
 21
353.5561709756303
 31
0.0
1001
ACAD
1010
0.0
1020
0.0
1030
0.0
  0
LINE
  5
10112
330
1F
100
AcDbEntity
  8
0
  6
BYBLOCK
100
AcDbLine
 10
712.9318770849043
 20
335.76112
 30
0.0
 11
726.2368
 21
349.0660429150957
 31
0.0
1001
ACAD
1010
0.0
1020
0.0
1030
0.0
  0
LINE
  5
10113
330
1F
100
AcDbEntity
  8
0
  6
BYBLOCK
100
AcDbLine
 10
633.8924055479006
 20
252.2315204024616
 30
0.0
 11
666.4109523942484
 21
284.7500672488095
 31
0.0
1001
ACAD
1010
0.0
1020
0.0
1030
0.0
  0
LINE
  5
10114
330
1F
100
AcDbEntity
  8
0
  6
BYBLOCK
100
AcDbLine
 10
636.1864439868489
 20
250.0354307808755
 30
0.0
 11
668.5385007340619
 21
282.3874875280885
 31
0.0
1001
ACAD
1010
0.0
1020
0.0
1030
0.0
  0
LINE
  5
10115
330
1F
100
AcDbEntity
  8
0
  6
BYBLOCK
100
AcDbLine
 10
717.4220051454389
 20
335.76112
 30
0.0
 11
726.2368
 21
344.5759148545611
 31
0.0
1001
ACAD
1010
0.0
1020
0.0
1030
0.0
  0
LINE
  5
10116
330
1F
100
AcDbEntity
  8
0
  6
BYBLOCK
100
AcDbLine
 10
721.9121332059735
 20
335.76112
 30
0.0
 11
726.2368
 21
340.0857867940265
 31
0.0
1001
ACAD
1010
0.0
1020
0.0
1030
0.0
  0
LINE
  5
10117
330
1F
100
AcDbEntity
  8
0
  6
BYBLOCK
100
AcDbLine
 10
638.4804824257973
 20
247.8393411592893
 30
0.0
 11
670.9618793982005
 21
280.3207381316925
 31
0.0
1001
ACAD
1010
0.0
1020
0.0
1030
0.0
  0
LINE
  5
10118
330
1F
100
AcDbEntity
  8
0
  6
BYBLOCK
100
AcDbLine
 10
640.7745208647457
 20
245.6432515377031
 30
0.0
 11
673.4699963626831
 21
278.3387270356405
 31
0.0
1001
ACAD
1010
0.0
1020
0.0
1030
0.0
  0
LINE
  5
10119
330
1F
100
AcDbEntity
  8
0
  6
BYBLOCK
100
AcDbLine
 10
643.1893212811456
 20
243.5679238935683
 30
0.0
 11
675.9781133271658
 21
276.3567159395886
 31
0.0
1001
ACAD
1010
0.0
1020
0.0
1030
0.0
  0
LINE
  5
1011A
330
1F
100
AcDbEntity
  8
0
  6
BYBLOCK
100
AcDbLine
 10
645.7124820931704
 20
241.6009566450587
 30
0.0
 11
678.4862302916484
 21
274.3747048435366
 31
0.0
1001
ACAD
1010
0.0
1020
0.0
1030
0.0
  0
LINE
  5
1011B
330
1F
100
AcDbEntity
  8
0
  6
BYBLOCK
100
AcDbLine
 10
648.2356429051954
 20
239.6339893965489
 30
0.0
 11
680.994347256131
 21
272.3926937474847
 31
0.0
1001
ACAD
1010
0.0
1020
0.0
1030
0.0
  0
LINE
  5
1011C
330
1F
100
AcDbEntity
  8
0
  6
BYBLOCK
100
AcDbLine
 10
650.7588037172202
 20
237.6670221480393
 30
0.0
 11
683.5797812191402
 21
270.4879996499592
 31
0.0
1001
ACAD
1010
0.0
1020
0.0
1030
0.0
  0
LINE
  5
1011D
330
1F
100
AcDbEntity
  8
0
  6
BYBLOCK
100
AcDbLine
 10
653.2819645292451
 20
235.7000548995296
 30
0.0
 11
686.4305420828496
 21
268.848632453134
 31
0.0
1001
ACAD
1010
0.0
1020
0.0
1030
0.0
  0
LINE
  5
1011E
330
1F
100
AcDbEntity
  8
0
  6
BYBLOCK
100
AcDbLine
 10
655.9324525566808
 20
233.8604148664308
 30
0.0
 11
689.2813029465589
 21
267.2092652563089
 31
0.0
1001
ACAD
1010
0.0
1020
0.0
1030
0.0
  0
LINE
  5
1011F
330
1F
100
AcDbEntity
  8
0
  6
BYBLOCK
100
AcDbLine
 10
658.70301603258
 20
232.1408502817953
 30
0.0
 11
692.1320638102683
 21
265.5698980594836
 31
0.0
1001
ACAD
1010
0.0
1020
0.0
1030
0.0
  0
LINE
  5
10120
330
1F
100
AcDbEntity
  8
0
  6
BYBLOCK
100
AcDbLine
 10
661.4735795084791
 20
230.4212856971598
 30
0.0
 11
695.022746672742
 21
263.9704528614227
 31
0.0
1001
ACAD
1010
0.0
1020
0.0
1030
0.0
  0
LINE
  5
10121
330
1F
100
AcDbEntity
  8
0
  6
BYBLOCK
100
AcDbLine
 10
664.2441429843782
 20
228.7017211125243
 30
0.0
 11
698.1929310880151
 21
262.6505092161613
 31
0.0
1001
ACAD
1010
0.0
1020
0.0
1030
0.0
  0
LINE
  5
10122
330
1F
100
AcDbEntity
  8
0
  6
BYBLOCK
100
AcDbLine
 10
667.0147064602772
 20
226.9821565278888
 30
0.0
 11
701.3631155032883
 21
261.3305655708999
 31
0.0
1001
ACAD
1010
0.0
1020
0.0
1030
0.0
  0
LINE
  5
10123
330
1F
100
AcDbEntity
  8
0
  6
BYBLOCK
100
AcDbLine
 10
669.9289079333776
 20
225.4062299404546
 30
0.0
 11
704.5332999185614
 21
260.0106219256385
 31
0.0
1001
ACAD
1010
0.0
1020
0.0
1030
0.0
  0
LINE
  5
10124
330
1F
100
AcDbEntity
  8
0
  6
BYBLOCK
100
AcDbLine
 10
672.9552713534338
 20
223.9424652999762
 30
0.0
 11
707.7913769411246
 21
258.7785708876669
 31
0.0
1001
ACAD
1010
0.0
1020
0.0
1030
0.0
  0
LINE
  5
10125
330
1F
100
AcDbEntity
  8
0
  6
BYBLOCK
100
AcDbLine
 10
675.98163477349
 20
222.4787006594979
 30
0.0
 11
711.3197467666107
 21
257.8168126526186
 31
0.0
1001
ACAD
1010
0.0
1020
0.0
1030
0.0
  0
LINE
  5
10126
330
1F
100
AcDbEntity
  8
0
  6
BYBLOCK
100
AcDbLine
 10
679.0079981935463
 20
221.0149360190196
 30
0.0
 11
714.8481165920969
 21
256.8550544175702
 31
0.0
1001
ACAD
1010
0.0
1020
0.0
1030
0.0
  0
LINE
  5
10127
330
1F
100
AcDbEntity
  8
0
  6
BYBLOCK
100
AcDbLine
 10
682.0343616136025
 20
219.5511713785412
 30
0.0
 11
718.3764864175831
 21
255.8932961825218
 31
0.0
1001
ACAD
1010
0.0
1020
0.0
1030
0.0
  0
LINE
  5
10128
330
1F
100
AcDbEntity
  8
0
  6
BYBLOCK
100
AcDbLine
 10
685.2732398382618
 20
218.299921542666
 30
0.0
 11
722.1440852316542
 21
255.1707669360584
 31
0.0
1001
ACAD
1010
0.0
1020
0.0
1030
0.0
  0
LINE
  5
10129
330
1F
100
AcDbEntity
  8
0
  6
BYBLOCK
100
AcDbLine
 10
688.5798657913987
 20
217.1164194352682
 30
0.0
 11
726.0779719100082
 21
254.6145255538777
 31
0.0
1001
ACAD
1010
0.0
1020
0.0
1030
0.0
  0
LINE
  5
1012A
330
1F
100
AcDbEntity
  8
0
  6
BYBLOCK
100
AcDbLine
 10
691.8864917445353
 20
215.9329173278703
 30
0.0
 11
730.0118585883621
 21
254.0582841716971
 31
0.0
1001
ACAD
1010
0.0
1020
0.0
1030
0.0
  0
LINE
  5
1012B
330
1F
100
AcDbEntity
  8
0
  6
BYBLOCK
100
AcDbLine
 10
695.193117697672
 20
214.7494152204725
 30
0.0
 11
734.0106340692295
 21
253.5669315920299
 31
0.0
1001
ACAD
1010
0.0
1020
0.0
1030
0.0
  0
LINE
  5
1012C
330
1F
100
AcDbEntity
  8
0
  6
BYBLOCK
100
AcDbLine
 10
698.5643775472693
 20
213.6305470095351
 30
0.0
 11
738.3457541451521
 21
253.411923607418
 31
0.0
1001
ACAD
1010
0.0
1020
0.0
1030
0.0
  0
LINE
  5
1012D
330
1F
100
AcDbEntity
  8
0
  6
BYBLOCK
100
AcDbLine
 10
702.2016227765124
 20
212.7776641782437
 30
0.0
 11
742.8891297587179
 21
253.4651711604491
 31
0.0
1001
ACAD
1010
0.0
1020
0.0
1030
0.0
  0
LINE
  5
1012E
330
1F
100
AcDbEntity
  8
0
  6
BYBLOCK
100
AcDbLine
 10
705.8388680057556
 20
211.9247813469523
 30
0.0
 11
747.5472459593159
 21
253.6331593005127
 31
0.0
1001
ACAD
1010
0.0
1020
0.0
1030
0.0
  0
LINE
  5
1012F
330
1F
100
AcDbEntity
  8
0
  6
BYBLOCK
100
AcDbLine
 10
709.4761132349988
 20
211.0718985156609
 30
0.0
 11
752.3672530403687
 21
253.9630383210308
 31
0.0
1001
ACAD
1010
0.0
1020
0.0
1030
0.0
  0
LINE
  5
10130
330
1F
100
AcDbEntity
  8
0
  6
BYBLOCK
100
AcDbLine
 10
713.113358464242
 20
210.2190156843695
 30
0.0
 11
756.515224
 21
253.6208812201275
 31
0.0
1001
ACAD
1010
0.0
1020
0.0
1030
0.0
  0
LINE
  5
10131
330
1F
100
AcDbEntity
  8
0
  6
BYBLOCK
100
AcDbLine
 10
716.8558578455822
 20
209.4713870051753
 30
0.0
 11
756.515224
 21
249.130753159593
 31
0.0
1001
ACAD
1010
0.0
1020
0.0
1030
0.0
  0
LINE
  5
10132
330
1F
100
AcDbEntity
  8
0
  6
BYBLOCK
100
AcDbLine
 10
720.8059789702153
 20
208.9313800692736
 30
0.0
 11
756.515224
 21
244.6406250990584
 31
0.0
1001
ACAD
1010
0.0
1020
0.0
1030
0.0
  0
LINE
  5
10133
330
1F
100
AcDbEntity
  8
0
  6
BYBLOCK
100
AcDbLine
 10
724.7576507192275
 20
208.3929237577514
 30
0.0
 11
756.515224
 21
240.1504970385238
 31
0.0
1001
ACAD
1010
0.0
1020
0.0
1030
0.0
  0
LINE
  5
10134
330
1F
100
AcDbEntity
  8
0
  6
BYBLOCK
100
AcDbLine
 10
728.9089067133998
 20
208.054051691389
 30
0.0
 11
756.515224
 21
235.6603689779892
 31
0.0
1001
ACAD
1010
0.0
1020
0.0
1030
0.0
  0
LINE
  5
10135
330
1F
100
AcDbEntity
  8
0
  6
BYBLOCK
100
AcDbLine
 10
733.060162707572
 20
207.7151796250267
 30
0.0
 11
756.515224
 21
231.1702409174546
 31
0.0
1001
ACAD
1010
0.0
1020
0.0
1030
0.0
  0
LINE
  5
10136
330
1F
100
AcDbEntity
  8
0
  6
BYBLOCK
100
AcDbLine
 10
737.3710840005701
 20
207.5359728574902
 30
0.0
 11
756.515224
 21
226.68011285692
 31
0.0
1001
ACAD
1010
0.0
1020
0.0
1030
0.0
  0
LINE
  5
10137
330
1F
100
AcDbEntity
  8
0
  6
BYBLOCK
100
AcDbLine
 10
741.8790387474802
 20
207.5537995438657
 30
0.0
 11
756.515224
 21
222.1899847963855
 31
0.0
1001
ACAD
1010
0.0
1020
0.0
1030
0.0
  0
LINE
  5
10138
330
1F
100
AcDbEntity
  8
0
  6
BYBLOCK
100
AcDbLine
 10
746.4713738217774
 20
207.6560065576284
 30
0.0
 11
756.515224
 21
217.6998567358509
 31
0.0
1001
ACAD
1010
0.0
1020
0.0
1030
0.0
  0
LINE
  5
10139
330
1F
100
AcDbEntity
  8
0
  6
BYBLOCK
100
AcDbLine
 10
751.1532091338152
 20
207.8477138091315
 30
0.0
 11
756.515224
 21
213.2097286753163
 31
0.0
1001
ACAD
1010
0.0
1020
0.0
1030
0.0
  0
LINE
  5
1013A
330
1F
100
AcDbEntity
  8
0
  6
BYBLOCK
100
AcDbLine
 10
756.0296380863259
 20
208.2340147011077
 30
0.0
 11
756.515224
 21
208.7196006147817
 31
0.0
1001
ACAD
1010
0.0
1020
0.0
1030
0.0
  0
ENDSEC
  0
SECTION
  2
OBJECTS
  0
DICTIONARY
  5
C
330
0
100
AcDbDictionary
  3
ACAD_GROUP
350
D
  3
ACAD_IMAGE_VARS
350
10047
  3
ACAD_MLINESTYLE
350
17
  3
ACAD_SCALELIST
350
FFFF
  3
APPDATA
350
10045
  3
DWGPROPS
350
1013C
  0
DICTIONARY
  5
D
330
C
100
AcDbDictionary
  3
*A1
350
10061
  0
RASTERVARIABLES
  5
10047
102
{ACAD_REACTORS
330
C
102
}
330
C
100
AcDbRasterVariables
 90
        0
 70
     1
 71
     1
 72
     0
  0
DICTIONARY
  5
17
330
C
100
AcDbDictionary
  0
DICTIONARY
  5
FFFF
102
{ACAD_REACTORS
330
C
102
}
330
C
100
AcDbDictionary
  0
DICTIONARY
  5
10045
102
{ACAD_REACTORS
330
C
102
}
330
C
100
AcDbDictionary
  0
XRECORD
  5
1013C
102
{ACAD_REACTORS
330
C
102
}
330
C
100
AcDbXrecord
  1
DWGPROPS COOKIE
  2

  3

  4

  6

  7

  8
vdamir
  9

300
=
301
=
302
=
303
=
304
=
305
=
306
=
307
=
308
=
309
=
 40
0.0
 41
0.0
 42
2457528.464387268
  1

 90
        0
  0
GROUP
  5
10061
102
{ACAD_REACTORS
330
D
102
}
330
D
100
AcDbGroup
300

 70
     1
 71
     1
340
100
340
101
340
102
340
103
340
104
340
105
340
106
340
107
340
108
340
109
340
10A
340
10B
340
10C
340
10D
340
10E
340
10F
340
110
340
111
340
113
340
115
340
116
340
117
340
118
340
119
340
11A
340
11B
340
11C
340
11D
340
11E
340
11F
340
120
340
121
340
122
340
123
340
124
340
125
340
126
340
128
340
129
340
12A
340
12B
340
12C
340
12E
340
130
340
10048
340
10049
340
1004A
340
1004B
340
1004D
340
1004E
340
1004F
340
10050
340
10052
340
10053
340
10054
340
10055
340
10057
340
10058
340
10059
340
1005A
340
1005C
340
1005D
340
1005E
340
1005F
  0
ENDSEC
  0
EOF
